<svg width="24" height="24" viewBox="0 0 24 24" fill="none" xmlns="http://www.w3.org/2000/svg">
<path d="M11.6331 3.00388C15.5 3.22974 15.6104 7.1854 15.1425 8.8115C19.8216 7.3246 21.6153 9.43105 21.9272 10.6702C22.4887 13.6437 19.6656 14.542 18.1839 14.6194C21.1785 18.3363 19.7436 20.1947 18.6518 20.6593C15.2829 21.5886 13.3488 19.1881 12.8029 17.8717C11.3056 21.031 8.7477 21.2014 7.65595 20.8916C4.47413 19.9624 5.86225 16.6327 6.95405 15.084C2.46213 14.3406 1.80706 12.1415 2.04101 11.1348C2.78967 7.4179 6.7201 8.03725 8.59175 8.8115C7.8431 3.97956 10.3074 2.92644 11.6331 3.00388Z" stroke="#333333" stroke-width="2" stroke-linecap="round" stroke-linejoin="round"/>
<path d="M12.5 13L10.5 15.5" stroke="#333333" stroke-width="2" stroke-linecap="round" stroke-linejoin="round"/>
<path d="M9.5 12.5L12.5 13" stroke="#333333" stroke-width="2" stroke-linecap="round" stroke-linejoin="round"/>
<path d="M12 9.5L12.5 13" stroke="#333333" stroke-width="2" stroke-linecap="round" stroke-linejoin="round"/>
<path d="M15.5 12L12.5 13" stroke="#333333" stroke-width="2" stroke-linecap="round" stroke-linejoin="round"/>
<path d="M12.5 13L15 15" stroke="#333333" stroke-width="2" stroke-linecap="round" stroke-linejoin="round"/>
</svg>
