<svg width="24" height="24" viewBox="0 0 24 24" fill="none" xmlns="http://www.w3.org/2000/svg">
<path d="M3.81738 17.75C4.16894 18.2494 4.56505 18.7151 4.99994 19.1415C5.459 19.5915 5.96125 19.9976 6.49995 20.353" stroke="#333333" stroke-width="2" stroke-linecap="round" stroke-linejoin="round"/>
<path d="M13.9339 21.8135C13.3081 21.9361 12.6614 22.0004 11.9997 22.0004C11.338 22.0004 10.6912 21.9361 10.0654 21.8135" stroke="#333333" stroke-width="2" stroke-linecap="round" stroke-linejoin="round"/>
<path d="M21.7744 14.1209C21.9221 13.4372 21.9999 12.7274 21.9999 11.9995C21.9999 11.2868 21.9253 10.5914 21.7836 9.9209" stroke="#333333" stroke-width="2" stroke-linecap="round" stroke-linejoin="round"/>
<path d="M20.1826 6.25042C19.831 5.75107 19.4349 5.28532 19 4.85901C18.541 4.40898 18.0386 4.00287 17.5 3.64746" stroke="#333333" stroke-width="2" stroke-linecap="round" stroke-linejoin="round"/>
<path d="M10.0781 2.18461C10.7002 2.06347 11.343 2 12.0005 2C12.6581 2 13.3009 2.06347 13.923 2.18461" stroke="#333333" stroke-width="2" stroke-linecap="round" stroke-linejoin="round"/>
<path d="M3.81738 6.25042C4.16894 5.75107 4.56505 5.28532 4.99994 4.85901C5.459 4.40898 5.96125 4.00287 6.49995 3.64746" stroke="#333333" stroke-width="2" stroke-linecap="round" stroke-linejoin="round"/>
<path d="M20.2499 17.6465C19.8984 18.1459 19.5023 18.6116 19.0674 19.0379C18.6083 19.488 18.106 19.8941 17.5674 20.2495" stroke="#333333" stroke-width="2" stroke-linecap="round" stroke-linejoin="round"/>
<path d="M8 12H2" stroke="#333333" stroke-width="2" stroke-linecap="round" stroke-linejoin="round"/>
<path d="M5 18.9997L9.17155 14.8281" stroke="#333333" stroke-width="2" stroke-linecap="round" stroke-linejoin="round"/>
<path d="M12 16V22" stroke="#333333" stroke-width="2" stroke-linecap="round" stroke-linejoin="round"/>
<path d="M18.9997 18.9997L14.8281 14.8281" stroke="#333333" stroke-width="2" stroke-linecap="round" stroke-linejoin="round"/>
<path d="M16 12H22" stroke="#333333" stroke-width="2" stroke-linecap="round" stroke-linejoin="round"/>
<path d="M18.9997 5L14.8281 9.17155" stroke="#333333" stroke-width="2" stroke-linecap="round" stroke-linejoin="round"/>
<path d="M12 8V2" stroke="#333333" stroke-width="2" stroke-linecap="round" stroke-linejoin="round"/>
<path d="M5 5L9.17155 9.17155" stroke="#333333" stroke-width="2" stroke-linecap="round" stroke-linejoin="round"/>
<path d="M2.21633 9.9209C2.07457 10.5914 2 11.2868 2 11.9995C2 12.7123 2.07457 13.4076 2.21633 14.0782" stroke="#333333" stroke-width="2" stroke-linecap="round" stroke-linejoin="round"/>
<path d="M12 16C14.2092 16 16 14.2092 16 12C16 9.79085 14.2092 8 12 8C9.79085 8 8 9.79085 8 12C8 14.2092 9.79085 16 12 16Z" stroke="#333333" stroke-width="2" stroke-linecap="round" stroke-linejoin="round"/>
</svg>
