<svg width="24" height="24" viewBox="0 0 24 24" fill="none" xmlns="http://www.w3.org/2000/svg">
<path d="M9.5 16.0002C7.5 16 3 16.0655 3 11.4705C3 10.596 3.29698 8.84835 4.93265 7.80625C5.26385 7.59525 5.4947 7.24665 5.5502 6.85795C5.79955 5.11285 7.05445 2 11 2C12.1463 2 13.9942 2.14997 15.1917 3.965C15.4 4.28068 15.7399 4.49436 16.111 4.56688C17.895 4.91544 21.0291 6.63785 21 10C21.0295 11.0852 20.7787 12.6728 18.747 13.6848C18.3241 13.8955 18.0576 14.3416 17.9739 14.8066C17.7485 16.0585 16.6384 17.6874 13.5 18" stroke="#333333" stroke-width="2" stroke-linecap="round" stroke-linejoin="round"/>
<path d="M8 22C11.5466 15.5347 9.4778 12.6734 8 12L15 11C11.64 15.6694 13.2889 20.2789 14.5333 22H8Z" stroke="#333333" stroke-width="2" stroke-linecap="round" stroke-linejoin="round"/>
</svg>
