<svg width="24" height="24" viewBox="0 0 24 24" fill="none" xmlns="http://www.w3.org/2000/svg">
<path d="M11.5171 10.518L15.4995 6.53559M11.5171 10.518C11.5171 10.518 11.1563 6.34364 13.4995 4.00049C15.8426 1.65735 20.0024 2.01803 20.0024 2.01803C20.0024 2.01803 20.3426 6.15734 17.9995 8.50049C15.6563 10.8436 11.5171 10.518 11.5171 10.518Z" stroke="#333333" stroke-width="2" stroke-linecap="round" stroke-linejoin="round"/>
<path d="M11.4856 15.9853L8.00005 12.4997M11.4856 15.9853C11.4856 15.9853 11.9246 12.4214 10 10.4997C8.0755 8.57804 4.51613 9.01419 4.51613 9.01419C4.51613 9.01419 4.07547 12.578 6.00005 14.4997C7.9246 16.4214 11.4856 15.9853 11.4856 15.9853Z" stroke="#333333" stroke-width="2" stroke-linecap="round" stroke-linejoin="round"/>
<path d="M11.5 2V22" stroke="#333333" stroke-width="2" stroke-linecap="round" stroke-linejoin="round"/>
</svg>
