<svg width="24" height="24" viewBox="0 0 24 24" fill="none" xmlns="http://www.w3.org/2000/svg">
<path d="M12 21V13" stroke="#333333" stroke-width="2" stroke-linecap="round" stroke-linejoin="round"/>
<path d="M20.9708 5.00368C20.5831 11.5159 16.4057 13.6218 12.9979 13.9517C12.4482 14.0049 12 13.5523 12 13V8.81408C12 8.69793 12.0204 8.58048 12.0623 8.47218C13.5588 4.59969 17.1415 4.07777 20.0007 4.01004C20.5528 3.99696 21.0036 4.45233 20.9708 5.00368Z" stroke="#333333" stroke-width="2" stroke-linecap="round" stroke-linejoin="round"/>
<path d="M3.99965 3.03572C8.66373 3.37798 11.098 6.08124 11.9174 7.81459C11.9747 7.93579 12.0005 8.06879 12.0005 8.20284V11.9547C12.0005 12.5242 11.5201 12.9819 10.9534 12.9249C3.66896 12.1916 3.05595 7.39289 3.005 3.99904C2.99671 3.44682 3.44885 2.9953 3.99965 3.03572Z" stroke="#333333" stroke-width="2" stroke-linecap="round" stroke-linejoin="round"/>
</svg>
