<svg width="24" height="24" viewBox="0 0 24 24" fill="none" xmlns="http://www.w3.org/2000/svg">
<path d="M5.5 12C5.5 12 4.00001 13 4 15C3.99999 18 9 19 9 19" stroke="#333333" stroke-width="2" stroke-linecap="round" stroke-linejoin="round"/>
<path d="M18.5 12C18.5 12 20 13 20 15C20 18 15 19 15 19" stroke="#333333" stroke-width="2" stroke-linecap="round" stroke-linejoin="round"/>
<path d="M12 7.99902V21.999" stroke="#333333" stroke-width="2" stroke-linecap="round" stroke-linejoin="round"/>
<path d="M9.563 6.75C9.2087 6.25745 9 5.6531 9 5C9 3.34315 10.3432 2 12 2C13.6568 2 15 3.34315 15 5C15 5.6531 14.7913 6.25745 14.437 6.75" stroke="#333333" stroke-width="2" stroke-linecap="round"/>
<path d="M6.5 6.5C6.5 6.5 4.5 7.75 4.5 9.5C4.5 11.25 6 12.5 6 12.5" stroke="#333333" stroke-width="2" stroke-linecap="round" stroke-linejoin="round"/>
<path d="M17.5 6.5C17.5 6.5 19.5 7.75 19.5 9.5C19.5 11.25 18 12.5 18 12.5" stroke="#333333" stroke-width="2" stroke-linecap="round" stroke-linejoin="round"/>
</svg>
