<svg width="24" height="24" viewBox="0 0 24 24" fill="none" xmlns="http://www.w3.org/2000/svg">
<path d="M7 5L7 21C7 21.5523 7.44772 22 8 22H16C16.5523 22 17 21.5523 17 21V5C17 4.44772 16.5523 4 16 4H8C7.44772 4 7 4.44772 7 5Z" stroke="#333333" stroke-width="2" stroke-linecap="round" stroke-linejoin="round"/>
<path d="M10 3V2C10 1.44771 10.4477 1 11 1H13C13.5523 1 14 1.44771 14 2V3H10Z" fill="#333333"/>
<path d="M12 14V9" stroke="#333333" stroke-width="2" stroke-linecap="round" stroke-linejoin="round"/>
<path d="M11 17C11 16.4477 11.4477 16 12 16C12.5523 16 13 16.4477 13 17C13 17.5523 12.5523 18 12 18C11.4477 18 11 17.5523 11 17Z" fill="#333333"/>
</svg>
