<svg width="24" height="24" viewBox="0 0 24 24" fill="none" xmlns="http://www.w3.org/2000/svg">
<path d="M5.25 21C7.5972 21 9.5 19.0972 9.5 16.75C9.5 14.4028 7.5972 12.5 5.25 12.5C2.90279 12.5 1 14.4028 1 16.75C1 19.0972 2.90279 21 5.25 21Z" stroke="#333333" stroke-width="2" stroke-linecap="round" stroke-linejoin="round"/>
<path d="M18.5 21C20.9853 21 23 18.9853 23 16.5C23 14.0147 20.9853 12 18.5 12C16.0147 12 14 14.0147 14 16.5C14 18.9853 16.0147 21 18.5 21Z" stroke="#333333" stroke-width="2" stroke-linecap="round" stroke-linejoin="round"/>
<path d="M9.49805 3H13.9983L18.4997 16.5" stroke="#333333" stroke-width="2" stroke-linecap="round" stroke-linejoin="round"/>
<path d="M5.52832 16.5002L15.8406 8.38184" stroke="#333333" stroke-width="2" stroke-linecap="round" stroke-linejoin="round"/>
<path d="M15.8408 7.5H20.0768L20.9999 5" stroke="#333333" stroke-width="2" stroke-linecap="round" stroke-linejoin="round"/>
<path d="M4 7.98633H7.5" stroke="#333333" stroke-width="2" stroke-linecap="round" stroke-linejoin="round"/>
<path d="M7.5 8L9.13635 13.2106" stroke="#333333" stroke-width="2" stroke-linecap="round" stroke-linejoin="round"/>
</svg>
