<svg width="24" height="24" viewBox="0 0 24 24" fill="none" xmlns="http://www.w3.org/2000/svg">
<path d="M20 7H4C3.44772 7 3 7.44772 3 8V19C3 19.5523 3.44772 20 4 20H20C20.5523 20 21 19.5523 21 19V8C21 7.44772 20.5523 7 20 7Z" stroke="#333333" stroke-width="2" stroke-linecap="round" stroke-linejoin="round"/>
<path d="M5 7L6.08335 4H9.91665L11 7H5Z" stroke="#333333" stroke-width="2" stroke-linecap="round" stroke-linejoin="round"/>
<path d="M14.5 17C16.433 17 18 15.433 18 13.5C18 11.567 16.433 10 14.5 10C12.567 10 11 11.567 11 13.5C11 15.433 12.567 17 14.5 17Z" stroke="#333333" stroke-width="2" stroke-linecap="round" stroke-linejoin="round"/>
<path d="M18 5V7" stroke="#333333" stroke-width="2" stroke-linecap="round"/>
</svg>
