<svg width="24" height="24" viewBox="0 0 24 24" fill="none" xmlns="http://www.w3.org/2000/svg">
<path d="M22 14.5H2V21H22V14.5Z" stroke="#333333" stroke-width="2" stroke-linejoin="round"/>
<path d="M17.75 19C18.4404 19 19 18.4404 19 17.75C19 17.0597 18.4404 16.5 17.75 16.5C17.0597 16.5 16.5 17.0597 16.5 17.75C16.5 18.4404 17.0597 19 17.75 19Z" fill="#333333"/>
<path d="M2 14.4994L4.51919 2.49902H19.5103L22 14.4994" stroke="#333333" stroke-width="2" stroke-linejoin="round"/>
<path d="M9.503 8.0127C8.43175 8.0127 7.5 8.75595 7.5 9.75615C7.5 10.9996 8.54735 11.4996 9.84865 11.4996C10.0718 11.4996 10.2784 11.4996 10.4884 11.4996" stroke="#333333" stroke-width="2" stroke-linecap="round" stroke-linejoin="round"/>
<path d="M14.5031 8.0127C15.5516 8.0127 16.4996 8.49945 16.4996 9.75615C16.4996 10.9996 15.4447 11.4996 14.1435 11.4996C13.9202 11.4996 13.7003 11.4996 13.4932 11.4996" stroke="#333333" stroke-width="2" stroke-linecap="round" stroke-linejoin="round"/>
<path d="M14.5034 8.01305C14.5034 6.52115 13.5115 5.5 11.9999 5.5C10.4883 5.5 9.50293 6.49635 9.50293 8.01305" stroke="#333333" stroke-width="2" stroke-linecap="round" stroke-linejoin="round"/>
<path d="M10 11.5H14" stroke="#333333" stroke-width="2"/>
</svg>
