<svg width="24" height="24" viewBox="0 0 24 24" fill="none" xmlns="http://www.w3.org/2000/svg">
<path d="M10.5 4.5H5.5C4.67158 4.5 4 5.17155 4 6V16.5H20V11.5" stroke="#333333" stroke-width="2" stroke-linecap="round" stroke-linejoin="round"/>
<path d="M2 16.5H22V17.5C22 19.1568 20.6568 20.5 19 20.5H5C3.34315 20.5 2 19.1568 2 17.5V16.5Z" stroke="#333333" stroke-width="2" stroke-linejoin="round"/>
<path d="M16.15 3.5C15.2387 3.5 14.5 4.21737 14.5 5.1023C14.5 6.70455 16.45 8.16115 17.5 8.5C18.55 8.16115 20.5 6.70455 20.5 5.1023C20.5 4.21737 19.7613 3.5 18.85 3.5C18.292 3.5 17.7986 3.76902 17.5 4.1808C17.2014 3.76902 16.708 3.5 16.15 3.5Z" stroke="#333333" stroke-width="2" stroke-linecap="round" stroke-linejoin="round"/>
</svg>
