<svg width="24" height="24" viewBox="0 0 24 24" fill="none" xmlns="http://www.w3.org/2000/svg">
<path d="M11 3H4.5C3.67158 3 3 3.67158 3 4.5V15.5C3 16.3285 3.67158 17 4.5 17H19.5C20.3285 17 21 16.3285 21 15.5V11" stroke="#333333" stroke-width="2" stroke-linecap="round" stroke-linejoin="round"/>
<path d="M12 17V21" stroke="#333333" stroke-width="2" stroke-linecap="round" stroke-linejoin="round"/>
<path d="M7 21H17" stroke="#333333" stroke-width="2" stroke-linecap="round" stroke-linejoin="round"/>
<path d="M16.65 3C15.7387 3 15 3.71736 15 4.60227C15 6.20455 16.95 7.66115 18 8C19.05 7.66115 21 6.20455 21 4.60227C21 3.71736 20.2613 3 19.35 3C18.792 3 18.2986 3.26902 18 3.6808C17.7014 3.26902 17.208 3 16.65 3Z" stroke="#333333" stroke-width="2" stroke-linecap="round" stroke-linejoin="round"/>
</svg>
