<svg width="24" height="24" viewBox="0 0 24 24" fill="none" xmlns="http://www.w3.org/2000/svg">
<path d="M4.2998 8.5777C4.2998 8.30396 4.52174 8.08203 4.7955 8.08203H16.5388C16.8126 8.08203 17.0345 8.30396 17.0345 8.5777V15.429C17.0345 18.9456 14.1837 21.7963 10.6671 21.7963C7.15055 21.7963 4.2998 18.9456 4.2998 15.429V8.5777Z" stroke="#333333" stroke-width="1.95918"/>
<path d="M17.0345 11.5098H4.2998V15.4281H17.0345V11.5098Z" stroke="#333333" stroke-width="1.95918" stroke-linecap="round" stroke-linejoin="round"/>
<path d="M10.667 2.2041V5.14288" stroke="#333333" stroke-width="1.95918" stroke-linecap="round" stroke-linejoin="round"/>
<path d="M6.74805 3.18359V4.16319" stroke="#333333" stroke-width="1.95918" stroke-linecap="round" stroke-linejoin="round"/>
<path d="M14.585 3.18359V4.16319" stroke="#333333" stroke-width="1.95918" stroke-linecap="round" stroke-linejoin="round"/>
<path d="M17.0342 16.8982C18.9277 16.8982 20.4628 15.3631 20.4628 13.4696C20.4628 11.576 18.9277 10.041 17.0342 10.041" stroke="#333333" stroke-width="1.95918" stroke-linecap="round"/>
</svg>
