<svg width="24" height="24" viewBox="0 0 24 24" fill="none" xmlns="http://www.w3.org/2000/svg">
<path d="M12 22C17.5229 22 22 17.5229 22 12C22 9.2418 20.8833 6.74435 19.0774 4.93523C17.2672 3.12189 14.7646 2 12 2C9.2354 2 6.7328 3.12189 4.92265 4.93523C3.1167 6.74435 2 9.24175 2 12C2 17.5229 6.47715 22 12 22Z" stroke="#333333" stroke-width="2" stroke-linecap="round" stroke-linejoin="round"/>
<path d="M2 12H4" stroke="#333333" stroke-width="2" stroke-linecap="round" stroke-linejoin="round"/>
<path d="M4.92285 4.93555L6.4876 6.50032" stroke="#333333" stroke-width="2" stroke-linecap="round" stroke-linejoin="round"/>
<path d="M12 2V4" stroke="#333333" stroke-width="2" stroke-linecap="round" stroke-linejoin="round"/>
<path d="M22 12H20" stroke="#333333" stroke-width="2" stroke-linecap="round" stroke-linejoin="round"/>
<path d="M19.0774 4.93555L17.5127 6.50032" stroke="#333333" stroke-width="2" stroke-linecap="round" stroke-linejoin="round"/>
<path d="M12 10V16" stroke="#333333" stroke-width="2" stroke-linecap="round" stroke-linejoin="round"/>
<path d="M19.9265 18.098C18.0981 20.4711 15.2278 22 12.0004 22C8.77296 22 5.90266 20.4711 4.07422 18.098C6.41081 16.7629 9.11651 16 12.0004 16C14.8842 16 17.5899 16.7629 19.9265 18.098Z" stroke="#333333" stroke-width="2" stroke-linecap="round" stroke-linejoin="round"/>
</svg>
