<svg width="24" height="24" viewBox="0 0 24 24" fill="none" xmlns="http://www.w3.org/2000/svg">
<path d="M12.1357 3.67383C6.72561 3.67383 2.33984 8.05961 2.33984 13.4697C2.33984 16.0314 3.17908 18.5814 4.78882 20.3269H19.4827C21.0924 18.5814 21.9317 16.0314 21.9317 13.4697C21.9317 8.05961 17.5459 3.67383 12.1357 3.67383Z" stroke="#333333" stroke-width="1.95918" stroke-linecap="round" stroke-linejoin="round"/>
<path d="M12.1359 16.8979C13.218 16.8979 14.0951 16.0207 14.0951 14.9387C14.0951 13.8566 13.218 12.9795 12.1359 12.9795C11.0539 12.9795 10.1768 13.8566 10.1768 14.9387C10.1768 16.0207 11.0539 16.8979 12.1359 16.8979Z" stroke="#333333" stroke-width="1.95918" stroke-linecap="round" stroke-linejoin="round"/>
<path d="M12.1357 10.041V12.9798" stroke="#333333" stroke-width="1.95918" stroke-linecap="round" stroke-linejoin="round"/>
<path d="M12.1357 6.12207V7.10166" stroke="#333333" stroke-width="1.95918" stroke-linecap="round" stroke-linejoin="round"/>
<path d="M4.78906 13.959H5.76864" stroke="#333333" stroke-width="1.95918" stroke-linecap="round" stroke-linejoin="round"/>
<path d="M6.74805 9.06152L7.44072 9.75419" stroke="#333333" stroke-width="1.95918" stroke-linecap="round" stroke-linejoin="round"/>
<path d="M18.5029 13.959H19.4825" stroke="#333333" stroke-width="1.95918" stroke-linecap="round" stroke-linejoin="round"/>
<path d="M17.0342 9.75424L17.7268 9.06152" stroke="#333333" stroke-width="1.95918" stroke-linecap="round" stroke-linejoin="round"/>
</svg>
