<svg width="24" height="24" viewBox="0 0 24 24" fill="none" xmlns="http://www.w3.org/2000/svg">
<path d="M11.5 4.49902H5.5C4.67158 4.49902 4 5.17061 4 5.99901V16.499H20V12.999" stroke="#333333" stroke-width="2" stroke-linecap="round" stroke-linejoin="round"/>
<path d="M2 16.499H22V17.499C22 19.1559 20.6568 20.499 19 20.499H5C3.34315 20.499 2 19.1559 2 17.499V16.499Z" stroke="#333333" stroke-width="2" stroke-linejoin="round"/>
<path d="M18 9.5C19.6569 9.5 21 8.15685 21 6.5C21 4.84315 19.6569 3.5 18 3.5C16.3431 3.5 15 4.84315 15 6.5C15 8.15685 16.3431 9.5 18 9.5Z" stroke="#333333" stroke-width="2"/>
<path d="M16 4.5L20 8.5" stroke="#333333" stroke-width="2" stroke-linecap="round" stroke-linejoin="round"/>
</svg>
