<svg width="24" height="24" viewBox="0 0 24 24" fill="none" xmlns="http://www.w3.org/2000/svg">
<path d="M17 10H7C6.44772 10 6 10.4477 6 11V18C6 18.5523 6.44772 19 7 19H17C17.5523 19 18 18.5523 18 18V11C18 10.4477 17.5523 10 17 10Z" stroke="#333333" stroke-width="2" stroke-linejoin="round"/>
<path d="M9 10V7C9 5.15905 10.3432 4 12 4C12.9247 4 13.7516 4.36098 14.3019 5C14.5444 5.2817 14.7333 5.6174 14.8531 6" stroke="#333333" stroke-width="2" stroke-linecap="round" stroke-linejoin="round"/>
<path d="M12 14V15" stroke="#333333" stroke-width="2" stroke-linecap="round" stroke-linejoin="round"/>
<path d="M3 9V15" stroke="#333333" stroke-width="2" stroke-linecap="round" stroke-linejoin="round"/>
<path d="M21 9V15" stroke="#333333" stroke-width="2" stroke-linecap="round" stroke-linejoin="round"/>
</svg>
