<svg width="24" height="24" viewBox="0 0 24 24" fill="none" xmlns="http://www.w3.org/2000/svg">
<path d="M5.5 6.06867C5.5 6.02912 5.52935 5.99572 5.56855 5.99067L16.0411 4.63937C18.6707 4.30008 21 6.34817 21 8.99952C21 11.6509 18.6706 13.699 16.0411 13.3597L5.56855 12.0084C5.52935 12.0033 5.5 11.9699 5.5 11.9304V6.06867Z" stroke="#333333" stroke-width="2"/>
<path d="M5.5 6L2 4V14L5.5 12" stroke="#333333" stroke-width="2" stroke-linecap="round" stroke-linejoin="round"/>
<path d="M19.0003 12.5L15.6534 20.4491C15.2576 21.3889 14.3372 22 13.3175 22C11.5049 22 10.2782 20.1526 10.9816 18.482L13.5003 12.5" stroke="#333333" stroke-width="2"/>
<path d="M17.5 13.5C19.9853 13.5 22 11.4853 22 9C22 6.51472 19.9853 4.5 17.5 4.5C15.0147 4.5 13 6.51472 13 9C13 11.4853 15.0147 13.5 17.5 13.5Z" stroke="#333333" stroke-width="2"/>
</svg>
