<svg width="24" height="24" viewBox="0 0 24 24" fill="none" xmlns="http://www.w3.org/2000/svg">
<path d="M7.70801 5.25C9.11831 3.84968 10.9708 3 12.9997 3C17.418 3 20.9997 7.02945 20.9997 12C20.9997 16.9706 17.418 21 12.9997 21C10.9708 21 9.11831 20.1503 7.70801 18.75" stroke="#333333" stroke-width="2"/>
<path d="M7 5H4C3.44772 5 3 5.44772 3 6V18C3 18.5523 3.44772 19 4 19H7C7.55228 19 8 18.5523 8 18V6C8 5.44772 7.55228 5 7 5Z" stroke="#333333" stroke-width="2" stroke-linecap="round" stroke-linejoin="round"/>
<path d="M5.5 11C6.05228 11 6.5 10.5523 6.5 10C6.5 9.44772 6.05228 9 5.5 9C4.94772 9 4.5 9.44772 4.5 10C4.5 10.5523 4.94772 11 5.5 11Z" fill="#333333"/>
<path d="M5.5 14.5C6.05228 14.5 6.5 14.0523 6.5 13.5C6.5 12.9477 6.05228 12.5 5.5 12.5C4.94772 12.5 4.5 12.9477 4.5 13.5C4.5 14.0523 4.94772 14.5 5.5 14.5Z" fill="#333333"/>
</svg>
