<svg width="24" height="24" viewBox="0 0 24 24" fill="none" xmlns="http://www.w3.org/2000/svg">
<path d="M12 4.5H5.5C4.67158 4.5 4 5.17155 4 6V16.5H20V14" stroke="#333333" stroke-width="2" stroke-linecap="round" stroke-linejoin="round"/>
<path d="M2 16.5H22V17.5C22 19.1568 20.6568 20.5 19 20.5H5C3.34315 20.5 2 19.1568 2 17.5V16.5Z" stroke="#333333" stroke-width="2" stroke-linejoin="round"/>
<path d="M19.5 6.5H16.5C15.6716 6.5 15 7.17157 15 8V9C15 9.82843 15.6716 10.5 16.5 10.5H19.5C20.3284 10.5 21 9.82843 21 9V8C21 7.17157 20.3284 6.5 19.5 6.5Z" stroke="#333333" stroke-width="2" stroke-linejoin="round"/>
<path d="M18 3.5C18.8285 3.5 19.5 4.17158 19.5 5V6.5H16.5V5C16.5 4.17158 17.1715 3.5 18 3.5Z" stroke="#333333" stroke-width="2" stroke-linejoin="round"/>
</svg>
