<svg width="24" height="24" viewBox="0 0 24 24" fill="none" xmlns="http://www.w3.org/2000/svg">
<path d="M12 3H4.5C3.67158 3 3 3.67158 3 4.5V15.5C3 16.3285 3.67158 17 4.5 17H19.5C20.3285 17 21 16.3285 21 15.5V13.5" stroke="#333333" stroke-width="2" stroke-linecap="round" stroke-linejoin="round"/>
<path d="M12 17V21" stroke="#333333" stroke-width="2" stroke-linecap="round" stroke-linejoin="round"/>
<path d="M19.5 6H16.5C15.6716 6 15 6.67157 15 7.5V8.5C15 9.32843 15.6716 10 16.5 10H19.5C20.3284 10 21 9.32843 21 8.5V7.5C21 6.67157 20.3284 6 19.5 6Z" stroke="#333333" stroke-width="2" stroke-linejoin="round"/>
<path d="M18 3C18.8285 3 19.5 3.67158 19.5 4.5V6H16.5V4.5C16.5 3.67158 17.1715 3 18 3Z" stroke="#333333" stroke-width="2" stroke-linejoin="round"/>
<path d="M7 21H17" stroke="#333333" stroke-width="2" stroke-linecap="round" stroke-linejoin="round"/>
</svg>
