<svg width="24" height="24" viewBox="0 0 24 24" fill="none" xmlns="http://www.w3.org/2000/svg">
<path d="M3 4.5C3 3.67158 3.67158 3 4.5 3H15.1681C15.566 3 15.9475 3.15804 16.2288 3.43934L18.1579 5.3684L20.5606 7.7712C20.8419 8.0525 21 8.434 21 8.83185V19.5C21 20.3285 20.3285 21 19.5 21H4.5C3.67158 21 3 20.3285 3 19.5V4.5Z" stroke="#333333" stroke-width="2" stroke-linejoin="round"/>
<path d="M15.5 13H8.5C7.67155 13 7 13.6715 7 14.5V21H17V14.5C17 13.6715 16.3285 13 15.5 13Z" stroke="#333333" stroke-width="2" stroke-linejoin="round"/>
<path d="M14.5 8H8.5C7.67155 8 7 7.32845 7 6.5V3" stroke="#333333" stroke-width="2" stroke-linecap="round" stroke-linejoin="round"/>
</svg>
