<svg width="24" height="24" viewBox="0 0 24 24" fill="none" xmlns="http://www.w3.org/2000/svg">
<path d="M14.5016 9.18693L15.0541 8.63453L15.3192 8.36933C16.3932 7.29538 16.3932 5.55418 15.3192 4.48026C14.2453 3.40632 12.5041 3.40632 11.4301 4.48026L4.58635 11.324C4.55846 11.3519 4.55846 11.3972 4.58635 11.4251L8.07137 14.9101C8.26662 15.1053 8.58322 15.1053 8.77847 14.9101L10.6346 13.0539L11.1871 12.5015" stroke="#333333" stroke-width="2" stroke-linecap="round"/>
<path d="M14.0811 3.24313L14.965 2.35924C15.6484 1.67583 16.7564 1.67583 17.4399 2.35924C18.1233 3.04266 18.1233 4.1507 17.4399 4.83412L16.556 5.718L14.0811 3.24313Z" stroke="#333333" stroke-width="2" stroke-linecap="round" stroke-linejoin="round"/>
<path d="M5.24244 12.082L3.12109 14.2033L5.59599 16.6782L7.71729 14.5569L5.24244 12.082Z" stroke="#333333" stroke-width="2" stroke-linecap="round" stroke-linejoin="round"/>
<path d="M11.4295 12.6118C12.3082 13.4905 13.7328 13.4905 14.6115 12.6118C15.4902 11.7332 15.4902 10.3085 14.6115 9.42986C13.7328 8.55118 12.3082 8.55118 11.4295 9.42986C10.5508 10.3085 10.5508 11.7332 11.4295 12.6118Z" stroke="#333333" stroke-width="2"/>
<path d="M3 10L9.36395 16.364" stroke="#333333" stroke-width="2" stroke-linecap="round" stroke-linejoin="round"/>
<path d="M5 22H21" stroke="#333333" stroke-width="2" stroke-linecap="round" stroke-linejoin="round"/>
<path d="M15.5 11C17.5 11 19.5 13 19.5 16C19.5 19.2 16.9167 20.9167 15.5 22" stroke="#333333" stroke-width="2" stroke-linecap="round" stroke-linejoin="round"/>
</svg>
