<svg width="24" height="24" viewBox="0 0 24 24" fill="none" xmlns="http://www.w3.org/2000/svg">
<path d="M16.1481 3H7.85165C7.64065 3 7.45235 3.13246 7.38105 3.33107L4.046 12.6215C4.01582 12.7056 4.00871 12.7963 4.02543 12.8841L4.92248 17.5935C4.9674 17.8294 5.1736 18 5.41365 18H18.5861C18.8262 18 19.0324 17.8294 19.0773 17.5935L19.9743 12.8841C19.9911 12.7963 19.984 12.7056 19.9538 12.6215L16.6187 3.33107C16.5474 3.13246 16.3591 3 16.1481 3Z" stroke="#333333" stroke-width="2" stroke-linecap="round" stroke-linejoin="round"/>
<path d="M12 18V22" stroke="#333333" stroke-width="2" stroke-linecap="round" stroke-linejoin="round"/>
<path d="M12 6V9" stroke="#333333" stroke-width="2" stroke-linecap="round" stroke-linejoin="round"/>
<path d="M8.25 11.7012L9.75 14.2992" stroke="#333333" stroke-width="2" stroke-linecap="round" stroke-linejoin="round"/>
<path d="M15.75 11.7012L14.25 14.2992" stroke="#333333" stroke-width="2" stroke-linecap="round" stroke-linejoin="round"/>
</svg>
