<svg width="24" height="24" viewBox="0 0 24 24" fill="none" xmlns="http://www.w3.org/2000/svg">
<path d="M10.5 4.5H5.5C4.67158 4.5 4 5.17155 4 6V16.5H20V13" stroke="#333333" stroke-width="2" stroke-linecap="round" stroke-linejoin="round"/>
<path d="M2 16.5H22V17.5C22 19.1568 20.6568 20.5 19 20.5H5C3.34315 20.5 2 19.1568 2 17.5V16.5Z" stroke="#333333" stroke-width="2" stroke-linejoin="round"/>
<path d="M17.5 8.5C18.3284 8.5 19 7.82843 19 7C19 6.17157 18.3284 5.5 17.5 5.5C16.6716 5.5 16 6.17157 16 7C16 7.82843 16.6716 8.5 17.5 8.5Z" stroke="#333333" stroke-width="2"/>
<path d="M17.5 10.5V8.5" stroke="#333333" stroke-width="2" stroke-linecap="round" stroke-linejoin="round"/>
<path d="M17.5 5.5V3.5" stroke="#333333" stroke-width="2" stroke-linecap="round" stroke-linejoin="round"/>
<path d="M14.4688 8.75L16.2008 7.75" stroke="#333333" stroke-width="2" stroke-linecap="round" stroke-linejoin="round"/>
<path d="M18.7988 6.25L20.5309 5.25" stroke="#333333" stroke-width="2" stroke-linecap="round" stroke-linejoin="round"/>
<path d="M14.4688 5.25L16.2008 6.25" stroke="#333333" stroke-width="2" stroke-linecap="round" stroke-linejoin="round"/>
<path d="M18.7988 7.75L20.5309 8.75" stroke="#333333" stroke-width="2" stroke-linecap="round" stroke-linejoin="round"/>
</svg>
