<svg width="24" height="24" viewBox="0 0 24 24" fill="none" xmlns="http://www.w3.org/2000/svg">
<path d="M10.3928 9.36503C10.5331 9.22468 10.7607 9.22468 10.901 9.36503L14.6354 13.0994C14.7758 13.2398 14.7758 13.4673 14.6354 13.6077L8.87912 19.364C7.70757 20.5355 5.80806 20.5355 4.63649 19.364C3.46492 18.1924 3.46492 16.2929 4.63649 15.1213L10.3928 9.36503Z" stroke="#333333" stroke-width="2"/>
<path d="M21.291 11.1943C21.4655 11.0198 21.4655 10.7369 21.291 10.5624L13.4376 2.70899C13.2631 2.5345 12.9802 2.5345 12.8057 2.70899L12.4146 3.10016C10.0714 5.44329 10.0714 9.24229 12.4146 11.5854C14.7577 13.9286 18.5567 13.9286 20.8998 11.5854L21.291 11.1943Z" stroke="#333333" stroke-width="2"/>
<path d="M9.93957 14.0605L9.23242 14.7676" stroke="#333333" stroke-width="2" stroke-linecap="round" stroke-linejoin="round"/>
<path d="M13.8281 8.75684L15.2423 10.1711" stroke="#333333" stroke-width="2" stroke-linecap="round" stroke-linejoin="round"/>
</svg>
