<svg width="24" height="24" viewBox="0 0 24 24" fill="none" xmlns="http://www.w3.org/2000/svg">
<path d="M21 17.5V21.5H3V17.5H15.5" stroke="#333333" stroke-width="2" stroke-linecap="round" stroke-linejoin="round"/>
<path d="M19.1922 10.903L4.15714 5.43066L2.78906 9.18946L14.8769 13.5891" stroke="#333333" stroke-width="2" stroke-linecap="round" stroke-linejoin="round"/>
<path d="M4.18457 5.38945L11.4408 8.0795C11.4488 8.08245 11.4576 8.0784 11.4606 8.07045C11.9679 6.70205 11.2698 5.18155 9.90141 4.67425L5.15046 2.91296C5.12726 2.90436 5.10146 2.9162 5.09286 2.93941L4.18457 5.38945Z" stroke="#333333" stroke-width="2" stroke-linecap="round" stroke-linejoin="round"/>
<path d="M8.3775 11.3604L7.6935 13.2398C7.59905 13.4992 7.3121 13.633 7.0526 13.5386L3.76369 12.3415C3.5042 12.2471 3.37041 11.9602 3.46486 11.7007L4.1489 9.82129" stroke="#333333" stroke-width="2" stroke-linecap="round" stroke-linejoin="round"/>
<path d="M18 18.5C19.933 18.5 21.5 16.933 21.5 15C21.5 13.067 19.933 11.5 18 11.5C16.067 11.5 14.5 13.067 14.5 15C14.5 16.933 16.067 18.5 18 18.5Z" stroke="#333333" stroke-width="2"/>
</svg>
