<svg width="24" height="24" viewBox="0 0 24 24" fill="none" xmlns="http://www.w3.org/2000/svg">
<path d="M20.5 2H3.5C2.67158 2 2 2.67158 2 3.5V20.5C2 21.3285 2.67158 22 3.5 22H20.5C21.3285 22 22 21.3285 22 20.5V3.5C22 2.67158 21.3285 2 20.5 2Z" stroke="#333333" stroke-width="2" stroke-linecap="round" stroke-linejoin="round"/>
<path d="M6 7C6.5523 7 7 6.5523 7 6C7 5.4477 6.5523 5 6 5C5.4477 5 5 5.4477 5 6C5 6.5523 5.4477 7 6 7Z" fill="#333333"/>
<path d="M6 19C6.5523 19 7 18.5523 7 18C7 17.4477 6.5523 17 6 17C5.4477 17 5 17.4477 5 18C5 18.5523 5.4477 19 6 19Z" fill="#333333"/>
<path d="M18 7C18.5523 7 19 6.5523 19 6C19 5.4477 18.5523 5 18 5C17.4477 5 17 5.4477 17 6C17 6.5523 17.4477 7 18 7Z" fill="#333333"/>
<path d="M18 19C18.5523 19 19 18.5523 19 18C19 17.4477 18.5523 17 18 17C17.4477 17 17 17.4477 17 18C17 18.5523 17.4477 19 18 19Z" fill="#333333"/>
<path d="M12 16.5C14.4853 16.5 16.5 14.4853 16.5 12C16.5 9.5147 14.4853 7.5 12 7.5C9.5147 7.5 7.5 9.5147 7.5 12C7.5 14.4853 9.5147 16.5 12 16.5Z" stroke="#333333" stroke-width="2" stroke-linecap="round" stroke-linejoin="round"/>
</svg>
