<svg width="24" height="24" viewBox="0 0 24 24" fill="none" xmlns="http://www.w3.org/2000/svg">
<path d="M12 21.5C17.2467 21.5 21.5 17.2467 21.5 12C21.5 6.75329 17.2467 2.5 12 2.5C6.75329 2.5 2.5 6.75329 2.5 12C2.5 17.2467 6.75329 21.5 12 21.5Z" stroke="#333333" stroke-width="2"/>
<path d="M18.0029 12.2967V12.2967C18.0029 10.8444 16.8256 9.66699 15.3732 9.66699H8.6264C7.17405 9.66699 5.99668 10.8444 5.99668 12.2967V12.2967C5.99668 13.7491 7.17405 14.9264 8.6264 14.9264H15.3732C16.8256 14.9264 18.0029 13.7491 18.0029 12.2967Z" stroke="#333333" stroke-width="2"/>
<path d="M13.0029 12.4258C13.0029 13.8065 14.1222 14.9258 15.5029 14.9258C16.8836 14.9258 18.0029 13.8065 18.0029 12.4258C18.0029 11.0451 16.8836 9.92578 15.5029 9.92578C14.1222 9.92578 13.0029 11.0451 13.0029 12.4258Z" stroke="#333333" stroke-width="2"/>
</svg>
