<svg width="24" height="24" viewBox="0 0 24 24" fill="none" xmlns="http://www.w3.org/2000/svg">
<path d="M9.99902 5H13.999V11H9.99902V5Z" stroke="#333333" stroke-width="2" stroke-linecap="round" stroke-linejoin="round"/>
<path d="M8.49957 17.5L5.99957 22H5.99902H17.999L15.4996 17.5" stroke="#333333" stroke-width="2" stroke-linecap="round" stroke-linejoin="round"/>
<path d="M16.999 11V2.5C16.999 2.22386 16.7752 2 16.499 2H7.49902C7.22287 2 6.99902 2.22386 6.99902 2.5V11" stroke="#333333" stroke-width="2" stroke-linecap="round" stroke-linejoin="round"/>
<path d="M3.03976 11.182C3.019 11.0886 3.09008 11 3.18577 11H20.8128C20.9085 11 20.9796 11.0886 20.9588 11.182C20.3468 13.9361 18.6415 16.4079 15.9591 17.282C14.7172 17.6867 13.3272 18 11.9998 18C10.6722 18 9.2819 17.6867 8.03965 17.2819C5.3572 16.4077 3.65177 13.9361 3.03976 11.182Z" stroke="#333333" stroke-width="2"/>
</svg>
