<svg width="24" height="24" viewBox="0 0 24 24" fill="none" xmlns="http://www.w3.org/2000/svg">
<path d="M6 11C7.10455 11 8 10.1046 8 9C8 7.89545 7.10455 7 6 7C4.89543 7 4 7.89545 4 9C4 10.1046 4.89543 11 6 11Z" stroke="#333333" stroke-width="2" stroke-linejoin="round"/>
<path d="M18 14C19.1046 14 20 13.1046 20 12C20 10.8954 19.1046 10 18 10C16.8954 10 16 10.8954 16 12C16 13.1046 16.8954 14 18 14Z" stroke="#333333" stroke-width="2" stroke-linejoin="round"/>
<path d="M9.5 4.5L12 2L14.5 4.5" stroke="#333333" stroke-width="2" stroke-linecap="round" stroke-linejoin="round"/>
<path d="M12.5 19.5L6 14.1316V11" stroke="#333333" stroke-width="2" stroke-linecap="round" stroke-linejoin="round"/>
<path d="M18 14V16.3948L12 20.5" stroke="#333333" stroke-width="2" stroke-linecap="round" stroke-linejoin="round"/>
<path d="M12 2V21.5" stroke="#333333" stroke-width="2" stroke-linecap="round" stroke-linejoin="round"/>
<path d="M10.5 22H13.5" stroke="#333333" stroke-width="2" stroke-linecap="round" stroke-linejoin="round"/>
</svg>
