<svg width="24" height="24" viewBox="0 0 24 24" fill="none" xmlns="http://www.w3.org/2000/svg">
<path d="M18.9937 2.2041H5.2794C4.73838 2.2041 4.2998 2.64268 4.2998 3.18369V20.8163C4.2998 21.3574 4.73838 21.7959 5.2794 21.7959H18.9937C19.5347 21.7959 19.9733 21.3574 19.9733 20.8163V3.18369C19.9733 2.64268 19.5347 2.2041 18.9937 2.2041Z" stroke="#333333" stroke-width="1.95918"/>
<path d="M4.2998 7.83691H19.9733" stroke="#333333" stroke-width="1.95918" stroke-linecap="round" stroke-linejoin="round"/>
<path d="M14.0948 6.12227C14.6358 6.12227 15.0744 5.68369 15.0744 5.14268C15.0744 4.60166 14.6358 4.16309 14.0948 4.16309C13.5538 4.16309 13.1152 4.60166 13.1152 5.14268C13.1152 5.68369 13.5538 6.12227 14.0948 6.12227Z" fill="#333333"/>
<path d="M17.0343 6.12227C17.5753 6.12227 18.0139 5.68369 18.0139 5.14268C18.0139 4.60166 17.5753 4.16309 17.0343 4.16309C16.4933 4.16309 16.0547 4.60166 16.0547 5.14268C16.0547 5.68369 16.4933 6.12227 17.0343 6.12227Z" fill="#333333"/>
<path d="M12.1356 18.3669C14.0292 18.3669 15.5642 16.8319 15.5642 14.9383C15.5642 13.0448 14.0292 11.5098 12.1356 11.5098C10.2421 11.5098 8.70703 13.0448 8.70703 14.9383C8.70703 16.8319 10.2421 18.3669 12.1356 18.3669Z" stroke="#333333" stroke-width="1.95918"/>
</svg>
