<svg width="24" height="24" viewBox="0 0 24 24" fill="none" xmlns="http://www.w3.org/2000/svg">
<path d="M2 22H22" stroke="#333333" stroke-width="2" stroke-linecap="round" stroke-linejoin="round"/>
<path d="M14 15H17.0952C18.2301 15 20.5 15.672 20.5 18.36V22" stroke="#333333" stroke-width="2" stroke-linecap="round" stroke-linejoin="round"/>
<path d="M17.5 15L20 9.5L17 3" stroke="#333333" stroke-width="2" stroke-linecap="round" stroke-linejoin="round"/>
<path d="M14.5 4L19.5 2" stroke="#333333" stroke-width="2" stroke-linecap="round" stroke-linejoin="round"/>
<path d="M10 19C12.2091 19 14 17.2091 14 15C14 12.7909 12.2091 11 10 11C7.79086 11 6 12.7909 6 15C6 17.2091 7.79086 19 10 19Z" stroke="#333333" stroke-width="2"/>
<path d="M10 15H14" stroke="#333333" stroke-width="2" stroke-linecap="round" stroke-linejoin="round"/>
<path d="M10.5 11L7 6.5" stroke="#333333" stroke-width="2" stroke-linecap="round" stroke-linejoin="round"/>
<path d="M5 6.5H9" stroke="#333333" stroke-width="2" stroke-linecap="round" stroke-linejoin="round"/>
<path d="M10 19C12.2092 19 14 17.2092 14 15C14 12.7908 12.2092 11 10 11" stroke="#333333" stroke-width="2"/>
</svg>
