<svg width="24" height="24" viewBox="0 0 24 24" fill="none" xmlns="http://www.w3.org/2000/svg">
<g clip-path="url(#clip0_4_16706)">
<mask id="mask0_4_16706" style="mask-type:luminance" maskUnits="userSpaceOnUse" x="0" y="0" width="24" height="24">
<path d="M24 0H0V24H24V0Z" fill="white"/>
</mask>
<g mask="url(#mask0_4_16706)">
<path d="M20.4248 21.9602L19.6377 21.8028C18.4629 21.5678 17.9276 19.9993 18.3009 18.8609C19.2781 15.8814 18.5619 12.0558 18.1659 10.4046C18.043 9.89221 17.6372 9.50766 17.126 9.37986L15.9947 9.09701C15.4572 8.96266 15.0376 8.54306 14.9033 8.00561L14.6204 6.87426C14.4926 6.36306 14.1081 5.95726 13.5957 5.83436C11.9445 5.43841 8.1188 4.72216 5.1393 5.69936C4.00094 6.07271 2.43243 5.53741 2.19748 4.36262L2.04004 3.57544" stroke="#333333" stroke-width="2" stroke-linecap="round" stroke-linejoin="round"/>
<path d="M3 5.5L19 21.5" stroke="#333333" stroke-width="2" stroke-linecap="round" stroke-linejoin="round"/>
<path d="M6 18L21.5 2.5" stroke="#333333" stroke-width="2" stroke-linecap="round" stroke-linejoin="round"/>
</g>
</g>
<defs>
<clipPath id="clip0_4_16706">
<rect width="24" height="24" fill="white"/>
</clipPath>
</defs>
</svg>
