<svg width="24" height="24" viewBox="0 0 24 24" fill="none" xmlns="http://www.w3.org/2000/svg">
<path d="M6.74789 10.0408H8.70707C8.70707 10.0408 12.1356 13.6065 12.1356 16.8979C12.1356 20.1893 9.19687 21.7959 9.19687 21.7959H6.25809C6.25809 21.7959 3.31934 20.1893 3.31934 16.8979C3.31934 13.6065 6.74789 10.0408 6.74789 10.0408Z" stroke="#333333" stroke-width="1.95918" stroke-linecap="round" stroke-linejoin="round"/>
<path d="M7.7273 2.2041C8.74774 2.2041 10.1763 2.94859 10.1763 5.14288C10.1763 7.33716 8.54364 10.0408 8.54364 10.0408H6.91101C6.91101 10.0408 5.27832 7.33716 5.27832 5.14288C5.27832 2.94859 6.70691 2.2041 7.7273 2.2041Z" stroke="#333333" stroke-width="1.95918" stroke-linecap="round" stroke-linejoin="round"/>
<path d="M15.5643 10.0408H17.5235C17.5235 10.0408 20.9521 13.6065 20.9521 16.8979C20.9521 20.1893 18.0133 21.7959 18.0133 21.7959H15.0745C15.0745 21.7959 12.1357 20.1893 12.1357 16.8979C12.1357 13.6065 15.5643 10.0408 15.5643 10.0408Z" stroke="#333333" stroke-width="1.95918" stroke-linecap="round" stroke-linejoin="round"/>
<path d="M16.5437 2.2041C17.5641 2.2041 18.9927 2.94859 18.9927 5.14288C18.9927 7.33716 17.36 10.0408 17.36 10.0408H15.7274C15.7274 10.0408 14.0947 7.33716 14.0947 5.14288C14.0947 2.94859 15.5233 2.2041 16.5437 2.2041Z" stroke="#333333" stroke-width="1.95918" stroke-linecap="round" stroke-linejoin="round"/>
</svg>
