<svg width="24" height="24" viewBox="0 0 24 24" fill="none" xmlns="http://www.w3.org/2000/svg">
<path d="M12.1357 21.7959C17.548 21.7959 21.9317 17.4123 21.9317 12C21.9317 6.58777 17.548 2.2041 12.1357 2.2041C6.7235 2.2041 2.33984 6.58777 2.33984 12C2.33984 17.4123 6.7235 21.7959 12.1357 21.7959Z" stroke="#333333" stroke-width="1.95918" stroke-miterlimit="2" stroke-linejoin="round"/>
<path d="M12.1354 12.9795C12.9485 12.9795 13.6048 12.3232 13.6048 11.5102C13.6048 10.6971 12.9485 10.0408 12.1354 10.0408C11.3223 10.0408 10.666 10.6971 10.666 11.5102C10.666 12.3232 11.3223 12.9795 12.1354 12.9795Z" fill="#333333"/>
<path d="M15.5641 9.06121C16.3772 9.06121 17.0335 8.40489 17.0335 7.59182C17.0335 6.77876 16.3772 6.12244 15.5641 6.12244C14.7511 6.12244 14.0947 6.77876 14.0947 7.59182C14.0947 8.40489 14.7511 9.06121 15.5641 9.06121Z" fill="#333333"/>
<path d="M8.70767 9.06121C9.52073 9.06121 10.1771 8.40489 10.1771 7.59182C10.1771 6.77876 9.52073 6.12244 8.70767 6.12244C7.89461 6.12244 7.23828 6.77876 7.23828 7.59182C7.23828 8.40489 7.89461 9.06121 8.70767 9.06121Z" fill="#333333"/>
</svg>
