<svg width="24" height="24" viewBox="0 0 24 24" fill="none" xmlns="http://www.w3.org/2000/svg">
<path d="M8.5 12H7.045C4.26 12 2 9.76015 2 7C2 4.23984 4.26 2 7.045 2L10 4.5L12.955 2C15.74 2 18 4.23984 18 7C18 9.76015 15.74 12 12.955 12H11.5" stroke="#333333" stroke-width="2" stroke-miterlimit="2" stroke-linecap="round" stroke-linejoin="round"/>
<path d="M13 18H7V22H13V18Z" stroke="#333333" stroke-width="2" stroke-miterlimit="2" stroke-linecap="round" stroke-linejoin="round"/>
<path d="M13 20H18C20.21 20 22 18.21 22 16V7H18" stroke="#333333" stroke-width="2" stroke-miterlimit="2" stroke-linecap="round" stroke-linejoin="round"/>
<path d="M10.6104 15H10.0004H9.39035C8.66035 15 8.10535 14.345 8.22535 13.63L8.83535 9.985C8.93035 9.415 9.42035 9 10.0004 9C10.5754 9 11.0704 9.415 11.1654 9.985L11.7754 13.63C11.8904 14.345 11.3354 15 10.6104 15Z" stroke="#333333" stroke-width="2" stroke-miterlimit="2" stroke-linecap="round" stroke-linejoin="round"/>
</svg>
