<svg width="24" height="24" viewBox="0 0 24 24" fill="none" xmlns="http://www.w3.org/2000/svg">
<path d="M21.5 13C20.2733 12.496 18 10.5 14 13.4999C12.9485 12.9119 11 11.5 8 13.9999C7.6495 12.5721 7.5794 9.3219 8 6.49985C8.17525 6.0799 8.89715 5.7826 11 7.9999L13.5 5.49995C13.3248 4.40806 12 3 8 3C6.5 3 5.13085 4.28263 4.5 6.4999C3.71142 8.76765 2.5 13.9999 2.5 16.9999C2.5 17.9238 3.75 20 8.5 20C9.5 20 12.4251 20.1125 16 18.4999L19 20.9998" stroke="#333333" stroke-width="2" stroke-linecap="round" stroke-linejoin="round"/>
</svg>
