<svg width="24" height="24" viewBox="0 0 24 24" fill="none" xmlns="http://www.w3.org/2000/svg">
<path d="M12 22C17.5229 22 22 17.5229 22 12C22 6.47715 17.5229 2 12 2C6.47715 2 2 6.47715 2 12C2 17.5229 6.47715 22 12 22Z" stroke="#333333" stroke-width="2" stroke-linecap="round" stroke-linejoin="round"/>
<path d="M15.0458 3.25L12.0342 5.4295V7.60895L15.9063 10.6602L18.0574 9.78845L19.3481 6.3013" stroke="#333333" stroke-width="2" stroke-linecap="round" stroke-linejoin="round"/>
<path d="M9.02305 3.25L12.0346 5.4295V7.60895L8.16255 10.6602L6.0114 9.78845L4.7207 6.3013" stroke="#333333" stroke-width="2" stroke-linecap="round" stroke-linejoin="round"/>
<path d="M3 11.0962L6.01165 9.78845L8.1628 10.6603L9.4535 15.4551L8.1628 17.1987H4.2907" stroke="#333333" stroke-width="2" stroke-linecap="round" stroke-linejoin="round"/>
<path d="M8.16309 20.2499V17.1986L9.45379 15.4551H14.6166L15.9073 17.1986V20.2499" stroke="#333333" stroke-width="2" stroke-linecap="round" stroke-linejoin="round"/>
<path d="M19.779 17.1987H15.9069L14.6162 15.4551L15.9069 10.6603L18.0581 9.78845L21.5 11.5321" stroke="#333333" stroke-width="2" stroke-linecap="round" stroke-linejoin="round"/>
</svg>
