<svg width="24" height="24" viewBox="0 0 24 24" fill="none" xmlns="http://www.w3.org/2000/svg">
<path d="M14.5 7C15.8807 7 17 5.8807 17 4.5C17 3.11929 15.8807 2 14.5 2C13.1193 2 12 3.11929 12 4.5C12 5.8807 13.1193 7 14.5 7Z" stroke="#333333" stroke-width="2" stroke-miterlimit="2"/>
<path d="M20.5 12C21.3284 12 22 11.3284 22 10.5C22 9.67155 21.3284 9 20.5 9C19.6715 9 19 9.67155 19 10.5C19 11.3284 19.6715 12 20.5 12Z" fill="#333333"/>
<path d="M8 12L6.865 17.63C6.76 18.285 6.06 18.655 5.46 18.38L2 17" stroke="#333333" stroke-width="2" stroke-miterlimit="2" stroke-linecap="round" stroke-linejoin="round"/>
<path d="M18.9993 15.0001L11.8793 9.53513C11.4943 9.25013 10.9643 9.28013 10.6093 9.60013L8.18932 11.8151C7.95432 12.0301 7.97432 12.4001 8.23432 12.5901L12.9993 16.0751C13.3593 16.3401 13.5043 16.8151 13.3443 17.2351L11.5593 22.0001" stroke="#333333" stroke-width="2" stroke-miterlimit="2" stroke-linecap="round" stroke-linejoin="round"/>
</svg>
