<svg width="24" height="24" viewBox="0 0 24 24" fill="none" xmlns="http://www.w3.org/2000/svg">
<path d="M15.905 21.2027C20.9891 19.0432 23.3586 13.1747 21.2041 8.096C19.0495 3.01725 13.1755 0.637845 8.0964 2.7973C3.01732 4.95677 0.637751 10.8253 2.79736 15.904C4.95697 20.9828 10.8259 23.3621 15.905 21.2027Z" stroke="#333333" stroke-width="2" stroke-miterlimit="2" stroke-linejoin="round"/>
<path d="M7.99932 3C7.25247 6.50515 8.96787 10.0983 11.9993 12" stroke="#333333" stroke-width="2" stroke-miterlimit="2" stroke-linecap="round" stroke-linejoin="round"/>
<path d="M6 20C9.485 18.87 11.87 15.66 12 12" stroke="#333333" stroke-width="2" stroke-miterlimit="2" stroke-linecap="round" stroke-linejoin="round"/>
<path d="M22 12.5001C19.275 10.1638 14.75 10.2017 12 12.0001" stroke="#333333" stroke-width="2" stroke-miterlimit="2" stroke-linecap="round" stroke-linejoin="round"/>
<path d="M8.5 7.99999C8.5 7.99999 14.28 3.75498 20.5 6.99999" stroke="#333333" stroke-width="2" stroke-miterlimit="2" stroke-linejoin="round"/>
<path d="M10 16.5C10 16.5 3.795 14.01 3.5 7" stroke="#333333" stroke-width="2" stroke-miterlimit="2" stroke-linejoin="round"/>
<path d="M16.9994 11C16.9994 11 17.7794 18.25 11.8594 22.015" stroke="#333333" stroke-width="2" stroke-miterlimit="2" stroke-linejoin="round"/>
</svg>
