<svg width="24" height="24" viewBox="0 0 24 24" fill="none" xmlns="http://www.w3.org/2000/svg">
<path d="M2 17L3.25 17.6757C4.05 18.1081 4.95 18.1081 5.75 17.6757C6.55 17.2432 7.45 17.2432 8.25 17.6757C9.05 18.1081 9.95 18.1081 10.75 17.6757C11.55 17.2432 12.45 17.2432 13.25 17.6757C14.05 18.1081 14.95 18.1081 15.75 17.6757C16.55 17.2432 17.45 17.2432 18.25 17.6757C19.05 18.1081 19.95 18.1081 20.75 17.6757L22 17" stroke="#333333" stroke-width="2" stroke-miterlimit="2" stroke-linecap="round" stroke-linejoin="round"/>
<path d="M2 20L3.25 20.6757C4.05 21.1081 4.95 21.1081 5.75 20.6757C6.55 20.2432 7.45 20.2432 8.25 20.6757C9.05 21.1081 9.95 21.1081 10.75 20.6757C11.55 20.2432 12.45 20.2432 13.25 20.6757C14.05 21.1081 14.95 21.1081 15.75 20.6757C16.55 20.2432 17.45 20.2432 18.25 20.6757C19.05 21.1081 19.95 21.1081 20.75 20.6757L22 20" stroke="#333333" stroke-width="2" stroke-miterlimit="2" stroke-linecap="round" stroke-linejoin="round"/>
<path d="M21.7943 14C22.1892 12.0855 22.0242 10.031 21.1995 8.0966C19.0452 3.01294 13.172 0.638574 8.09354 2.798C3.64491 4.68749 1.27564 9.41625 2.19535 13.97" stroke="#333333" stroke-width="2" stroke-miterlimit="2" stroke-linecap="round" stroke-linejoin="round"/>
<path d="M8.00047 3C7.23547 6.585 8.89542 10.055 12.0004 12" stroke="#333333" stroke-width="2" stroke-miterlimit="2" stroke-linecap="round" stroke-linejoin="round"/>
<path d="M11.6943 14C11.8693 13.355 11.9743 12.685 11.9993 12" stroke="#333333" stroke-width="2" stroke-miterlimit="2" stroke-linecap="round" stroke-linejoin="round"/>
<path d="M22 13.0001C19.275 10.5451 15.235 10.2801 12 12.0001" stroke="#333333" stroke-width="2" stroke-miterlimit="2" stroke-linecap="round" stroke-linejoin="round"/>
<path d="M9 7.99999C9 7.99999 14.28 3.75498 20.5 6.99999" stroke="#333333" stroke-width="2" stroke-miterlimit="2" stroke-linecap="round" stroke-linejoin="round"/>
<path d="M6.5 14C5.005 12.365 3.63 10.145 3.5 7" stroke="#333333" stroke-width="2" stroke-miterlimit="2" stroke-linecap="round" stroke-linejoin="round"/>
<path d="M17.1548 11.0449C17.1548 11.0449 17.2648 12.2949 16.9648 14.0199" stroke="#333333" stroke-width="2" stroke-miterlimit="2" stroke-linecap="round" stroke-linejoin="round"/>
</svg>
