<svg width="24" height="24" viewBox="0 0 24 24" fill="none" xmlns="http://www.w3.org/2000/svg">
<path d="M12.002 13.5C12.8304 13.5 13.502 12.8284 13.502 12C13.502 11.1715 12.8304 10.5 12.002 10.5C11.1736 10.5 10.502 11.1715 10.502 12C10.502 12.8284 11.1736 13.5 12.002 13.5Z" fill="#333333"/>
<path d="M9.52025 15.738C10.2313 16.2097 11.0836 16.4844 12 16.4844C12.9164 16.4844 13.7687 16.2097 14.4797 15.738L17.5105 20.3414C15.9305 21.3896 14.0364 22 12 22C9.96365 22 8.0695 21.3896 6.4895 20.3414L9.52025 15.738ZM7.50795 12.242L2.01765 12.5725C2.00594 12.3737 2 12.1733 2 11.9716C2 8.04555 4.24972 4.64644 7.5269 3L9.9871 7.9344C8.51235 8.6753 7.5 10.2049 7.5 11.9716C7.5 12.0624 7.50265 12.1525 7.50795 12.242ZM14.0129 7.9344L16.4731 3C19.7503 4.64644 22 8.04555 22 11.9716C22 12.1733 21.994 12.3737 21.9823 12.5725L16.4921 12.242C16.4974 12.1525 16.5 12.0624 16.5 11.9716C16.5 10.2049 15.4877 8.6753 14.0129 7.9344Z" stroke="#333333" stroke-width="2" stroke-linejoin="round"/>
</svg>
