<svg width="24" height="24" viewBox="0 0 24 24" fill="none" xmlns="http://www.w3.org/2000/svg">
<path d="M8.36365 13.5C9.57575 12.2879 10.7879 11.6818 12 11.6818C13.2121 11.6818 14.4242 12.2879 15.6363 13.5C17.0505 12.2879 18.1111 11.6818 18.8182 11.6818C19.5252 11.6818 20.5859 12.2879 22 13.5C22 7.97715 17.5229 3.5 12 3.5C6.47715 3.5 2 7.97715 2 13.5C3.41414 12.2879 4.47475 11.6818 5.1818 11.6818C5.8889 11.6818 6.9495 12.2879 8.36365 13.5Z" stroke="#333333" stroke-width="2" stroke-linejoin="round"/>
<path d="M12 12V19.2768C12 20.7839 13.2429 22.0056 14.75 22.0056C16.2571 22.0056 17.5 20.7839 17.5 19.2768" stroke="#333333" stroke-width="2" stroke-linecap="round" stroke-linejoin="round"/>
<path d="M12 1.5V3.5" stroke="#333333" stroke-width="2" stroke-linecap="round" stroke-linejoin="round"/>
</svg>
