<svg width="24" height="24" viewBox="0 0 24 24" fill="none" xmlns="http://www.w3.org/2000/svg">
<path d="M18.5 11.5C20.1569 11.5 21.5 10.1569 21.5 8.5C21.5 6.84315 20.1569 5.5 18.5 5.5C16.8431 5.5 15.5 6.84315 15.5 8.5C15.5 10.1569 16.8431 11.5 18.5 11.5Z" stroke="#333333" stroke-width="2"/>
<path d="M3 6.5C3 6.5 6 2.5 11 2.5C16 2.5 19 5.5 19 5.5" stroke="#333333" stroke-width="2" stroke-linecap="round" stroke-linejoin="round"/>
<path d="M5.5 12.5C3.84315 12.5 2.5 13.8431 2.5 15.5C2.5 17.1569 3.84315 18.5 5.5 18.5C7.15685 18.5 8.5 17.1569 8.5 15.5C8.5 13.8431 7.15685 12.5 5.5 12.5Z" stroke="#333333" stroke-width="2"/>
<path d="M21 17.5C21 17.5 18 21.5 13 21.5C8 21.5 5 18.5 5 18.5" stroke="#333333" stroke-width="2" stroke-linecap="round" stroke-linejoin="round"/>
</svg>
