<svg width="24" height="24" viewBox="0 0 24 24" fill="none" xmlns="http://www.w3.org/2000/svg">
<path d="M6.5 16.5C8.15685 16.5 9.5 15.1569 9.5 13.5C9.5 11.8431 8.15685 10.5 6.5 10.5C4.84315 10.5 3.5 11.8431 3.5 13.5C3.5 15.1569 4.84315 16.5 6.5 16.5Z" stroke="#333333" stroke-width="2"/>
<path d="M6.5 10.4998C6.5 7.74998 7.5 2.5 12 2.5C14.25 2.5 18.3603 3.66584 16.7679 10.2805C16.6276 10.8634 16.077 11.9872 16.077 11.9872L15.2751 13.7885C14.4457 15.4589 13.374 19.727 16.7679 21.3052C17.7971 21.7838 20.0085 21.4747 20.5 19.3007" stroke="#333333" stroke-width="2" stroke-linecap="round" stroke-linejoin="round"/>
</svg>
