<svg width="24" height="24" viewBox="0 0 24 24" fill="none" xmlns="http://www.w3.org/2000/svg">
<path d="M2 19.5H22" stroke="#333333" stroke-width="2" stroke-linecap="round" stroke-linejoin="round"/>
<path d="M2 13.5H7.75" stroke="#333333" stroke-width="2" stroke-linecap="round" stroke-linejoin="round"/>
<path d="M16.25 13.5H22" stroke="#333333" stroke-width="2" stroke-linecap="round" stroke-linejoin="round"/>
<path d="M7.75715 13.5C7.68995 13.4186 7.625 13.3352 7.5625 13.25C7.5026 13.1684 7.4449 13.085 7.38945 13C6.8269 12.1372 6.5 11.1068 6.5 10C6.5 6.96245 8.96245 4.5 12 4.5C15.0375 4.5 17.5 6.96245 17.5 10C17.5 11.1068 17.1731 12.1372 16.6105 13C16.5551 13.085 16.4974 13.1684 16.4375 13.25C16.375 13.3352 16.31 13.4186 16.2428 13.5" stroke="#333333" stroke-width="2" stroke-linecap="round"/>
</svg>
