<svg width="24" height="24" viewBox="0 0 24 24" fill="none" xmlns="http://www.w3.org/2000/svg">
<path d="M8 6C8 4.34315 6.65685 3 5 3C3.34315 3 2 4.34315 2 6" stroke="#333333" stroke-width="2" stroke-linecap="round" stroke-linejoin="round"/>
<path d="M14 6C14 4.34315 12.6568 3 11 3C9.34315 3 8 4.34315 8 6" stroke="#333333" stroke-width="2" stroke-linecap="round" stroke-linejoin="round"/>
<path d="M20 17C20 18.6568 18.6568 20 17 20C15.3432 20 14 18.6568 14 17" stroke="#333333" stroke-width="2" stroke-linecap="round" stroke-linejoin="round"/>
<path d="M2 6V15" stroke="#333333" stroke-width="2" stroke-linecap="round" stroke-linejoin="round"/>
<path d="M8 6V15" stroke="#333333" stroke-width="2" stroke-linecap="round" stroke-linejoin="round"/>
<path d="M14 6V17" stroke="#333333" stroke-width="2" stroke-linecap="round"/>
<path d="M20 11.5V17" stroke="#333333" stroke-width="2" stroke-linecap="round"/>
<path d="M18 13.5L20 11.5L22 13.5" stroke="#333333" stroke-width="2" stroke-linecap="round" stroke-linejoin="round"/>
</svg>
