<svg width="24" height="24" viewBox="0 0 24 24" fill="none" xmlns="http://www.w3.org/2000/svg">
<path d="M15.1487 9.38916C15.1487 9.38916 13.5341 13.9403 12.7668 14.7349C11.9995 15.5294 10.7334 15.5515 9.93884 14.7842C9.14424 14.0169 9.12214 12.7508 9.88944 11.9562C10.6567 11.1617 15.1487 9.38916 15.1487 9.38916Z" stroke="#333333" stroke-width="2" stroke-linejoin="round"/>
<path d="M19.4246 19.4246C21.3248 17.5245 22.5 14.8995 22.5 12C22.5 6.201 17.799 1.5 12 1.5C6.201 1.5 1.5 6.201 1.5 12C1.5 14.8995 2.67525 17.5245 4.57538 19.4246" stroke="#333333" stroke-width="2" stroke-linecap="round" stroke-linejoin="round"/>
<path d="M12 2V4" stroke="#333333" stroke-width="2" stroke-linecap="round" stroke-linejoin="round"/>
<path d="M19.4225 5.57129L17.8682 6.82989" stroke="#333333" stroke-width="2" stroke-linecap="round" stroke-linejoin="round"/>
<path d="M21.2612 13.6164L19.3125 13.1665" stroke="#333333" stroke-width="2" stroke-linecap="round" stroke-linejoin="round"/>
<path d="M2.73828 13.6164L4.68702 13.1665" stroke="#333333" stroke-width="2" stroke-linecap="round" stroke-linejoin="round"/>
<path d="M4.57715 5.5708L6.13143 6.82945" stroke="#333333" stroke-width="2" stroke-linecap="round" stroke-linejoin="round"/>
</svg>
