<svg width="24" height="24" viewBox="0 0 24 24" fill="none" xmlns="http://www.w3.org/2000/svg">
<path d="M12 20.4166C13.0615 21.3667 14.4633 21.9444 16 21.9444C19.3137 21.9444 22 19.2581 22 15.9444C22 13.2939 20.2815 11.0449 17.8979 10.2508" stroke="#333333" stroke-width="2" stroke-linecap="round" stroke-linejoin="round"/>
<path d="M13.5858 13.7496C13.8531 14.4294 14 15.1698 14 15.9445C14 19.2582 11.3137 21.9445 8 21.9445C4.68629 21.9445 2 19.2582 2 15.9445C2 13.287 3.72771 11.0331 6.12115 10.2446" stroke="#333333" stroke-width="2" stroke-linecap="round" stroke-linejoin="round"/>
<path d="M12 13.9446C15.3137 13.9446 18 11.2583 18 7.9446C18 4.63087 15.3137 1.94458 12 1.94458C8.6863 1.94458 6 4.63087 6 7.9446C6 11.2583 8.6863 13.9446 12 13.9446Z" stroke="#333333" stroke-width="2" stroke-linecap="round" stroke-linejoin="round"/>
</svg>
