<svg width="24" height="24" viewBox="0 0 24 24" fill="none" xmlns="http://www.w3.org/2000/svg">
<path d="M22 10.5C22 9.9477 21.5523 9.5 21 9.5C20.4477 9.5 20 9.9477 20 10.5H22ZM11.5 4C12.0523 4 12.5 3.55228 12.5 3C12.5 2.44771 12.0523 2 11.5 2V4ZM19.5 20H4.5V22H19.5V20ZM4 19.5V4.5H2V19.5H4ZM20 10.5V19.5H22V10.5H20ZM4.5 4H11.5V2H4.5V4ZM4.5 20C4.22386 20 4 19.7761 4 19.5H2C2 20.8807 3.11928 22 4.5 22V20ZM19.5 22C20.8807 22 22 20.8807 22 19.5H20C20 19.7761 19.7761 20 19.5 20V22ZM4 4.5C4 4.22386 4.22386 4 4.5 4V2C3.11929 2 2 3.11928 2 4.5H4Z" fill="#333333"/>
<path d="M3 17.5L8.34655 12.599C8.71945 12.2572 9.28895 12.2477 9.67305 12.5769L16 18" stroke="#333333" stroke-width="2" stroke-linecap="round" stroke-linejoin="round"/>
<path d="M14 15.5L16.3867 13.1132C16.7386 12.7614 17.2957 12.7218 17.6938 13.0204L21 15.5" stroke="#333333" stroke-width="2" stroke-linecap="round" stroke-linejoin="round"/>
<path d="M16.65 3C15.7387 3 15 3.71736 15 4.60227C15 6.20455 16.95 7.66115 18 8C19.05 7.66115 21 6.20455 21 4.60227C21 3.71736 20.2613 3 19.35 3C18.792 3 18.2986 3.26902 18 3.6808C17.7014 3.26902 17.208 3 16.65 3Z" stroke="#333333" stroke-width="2" stroke-linecap="round" stroke-linejoin="round"/>
</svg>
