<svg width="24" height="24" viewBox="0 0 24 24" fill="none" xmlns="http://www.w3.org/2000/svg">
<path d="M4.46013 4.35705C4.24786 3.69469 4.73815 3 5.43372 3H18.5669C19.2625 3 19.7528 3.69469 19.5405 4.35705C18.95 6.19975 18.0003 9.5447 18.0003 12C18.0003 14.4553 18.95 17.8003 19.5405 19.643C19.7528 20.3053 19.2625 21 18.5669 21H5.43372C4.73815 21 4.24786 20.3053 4.46013 19.643C5.05067 17.8003 6.00032 14.4553 6.00032 12C6.00032 9.5447 5.05067 6.19975 4.46013 4.35705Z" stroke="#333333" stroke-width="2" stroke-linecap="round" stroke-linejoin="round"/>
<path d="M2 7.5C2.75 8.5 2.99994 10.5 2.99994 12C2.99994 13.5 2.75 15.5 2 16.5" stroke="#333333" stroke-width="2" stroke-linecap="round" stroke-linejoin="round"/>
<path d="M9 7.75H15" stroke="#333333" stroke-width="2" stroke-linecap="round"/>
<path d="M9 12H15" stroke="#333333" stroke-width="2" stroke-linecap="round"/>
<path d="M9 16H11" stroke="#333333" stroke-width="2" stroke-linecap="round"/>
<path d="M22 7.5C21.25 8.5 21 10.5 21 12C21 13.5 21.25 15 22 16.5" stroke="#333333" stroke-width="2" stroke-linecap="round" stroke-linejoin="round"/>
</svg>
