<svg width="24" height="24" viewBox="0 0 24 24" fill="none" xmlns="http://www.w3.org/2000/svg">
<path d="M22 11.9995C22 11.4473 21.5523 10.9995 21 10.9995C20.4477 10.9995 20 11.4473 20 11.9995H22ZM12 3.99951C12.5523 3.99951 13 3.5518 13 2.99951C13 2.44723 12.5523 1.99951 12 1.99951V3.99951ZM19.5 19.9995H4.5V21.9995H19.5V19.9995ZM4 19.4995V4.49951H2V19.4995H4ZM20 11.9995V19.4995H22V11.9995H20ZM4.5 3.99951H12V1.99951H4.5V3.99951ZM4.5 19.9995C4.22386 19.9995 4 19.7757 4 19.4995H2C2 20.8802 3.11928 21.9995 4.5 21.9995V19.9995ZM19.5 21.9995C20.8807 21.9995 22 20.8802 22 19.4995H20C20 19.7757 19.7761 19.9995 19.5 19.9995V21.9995ZM4 4.49951C4 4.22337 4.22386 3.99951 4.5 3.99951V1.99951C3.11929 1.99951 2 3.1188 2 4.49951H4Z" fill="#333333"/>
<path d="M3 17.5L8.34655 12.599C8.71945 12.2572 9.28895 12.2477 9.67305 12.5769L16 18" stroke="#333333" stroke-width="2" stroke-linecap="round" stroke-linejoin="round"/>
<path d="M14 15.5L16.3867 13.1132C16.7386 12.7614 17.2957 12.7218 17.6938 13.0204L21 15.5" stroke="#333333" stroke-width="2" stroke-linecap="round" stroke-linejoin="round"/>
<path d="M18 9C19.6569 9 21 7.65685 21 6C21 4.34315 19.6569 3 18 3C16.3431 3 15 4.34315 15 6C15 7.65685 16.3431 9 18 9Z" stroke="#333333" stroke-width="2"/>
<path d="M16 4L20 8" stroke="#333333" stroke-width="2" stroke-linecap="round" stroke-linejoin="round"/>
</svg>
