<svg width="24" height="24" viewBox="0 0 24 24" fill="none" xmlns="http://www.w3.org/2000/svg">
<path d="M22 11.9971C22 11.4448 21.5523 10.9971 21 10.9971C20.4477 10.9971 20 11.4448 20 11.9971H22ZM12 3.99707C12.5523 3.99707 13 3.54936 13 2.99707C13 2.44479 12.5523 1.99707 12 1.99707V3.99707ZM19.5 19.997H4.5V21.997H19.5V19.997ZM4 19.497V4.49707H2V19.497H4ZM20 11.9971V19.497H22V11.9971H20ZM4.5 3.99707H12V1.99707H4.5V3.99707ZM4.5 19.997C4.22386 19.997 4 19.7732 4 19.497H2C2 20.8778 3.11928 21.997 4.5 21.997V19.997ZM19.5 21.997C20.8807 21.997 22 20.8778 22 19.497H20C20 19.7732 19.7761 19.997 19.5 19.997V21.997ZM4 4.49707C4 4.22093 4.22386 3.99707 4.5 3.99707V1.99707C3.11929 1.99707 2 3.11636 2 4.49707H4Z" fill="#333333"/>
<path d="M3 17.5L8.34655 12.599C8.71945 12.2572 9.28895 12.2477 9.67305 12.5769L16 18" stroke="#333333" stroke-width="2" stroke-linecap="round" stroke-linejoin="round"/>
<path d="M14 15.5L16.3867 13.1132C16.7386 12.7614 17.2957 12.7218 17.6938 13.0204L21 15.5" stroke="#333333" stroke-width="2" stroke-linecap="round" stroke-linejoin="round"/>
<path d="M16.5 3.5L20.5 7.5" stroke="#333333" stroke-width="2" stroke-linecap="round" stroke-linejoin="round"/>
<path d="M20.5 3.5L16.5 7.5" stroke="#333333" stroke-width="2" stroke-linecap="round" stroke-linejoin="round"/>
</svg>
