<svg width="24" height="24" viewBox="0 0 24 24" fill="none" xmlns="http://www.w3.org/2000/svg">
<path d="M3 16.5V19.5C3 20.3285 3.67158 21 4.5 21H7.5" stroke="#333333" stroke-width="2" stroke-linecap="round" stroke-linejoin="round"/>
<path d="M16.5 21H19.5C20.3285 21 21 20.3285 21 19.5V16.5" stroke="#333333" stroke-width="2" stroke-linecap="round" stroke-linejoin="round"/>
<path d="M21 7.5V4.5C21 3.67158 20.3285 3 19.5 3H16.5" stroke="#333333" stroke-width="2" stroke-linecap="round" stroke-linejoin="round"/>
<path d="M3 7.5V4.5C3 3.67158 3.67158 3 4.5 3H7.5" stroke="#333333" stroke-width="2" stroke-linecap="round" stroke-linejoin="round"/>
<path d="M16.9997 12.0001L11.9997 17.0001C11.9997 17.0001 7.49985 12.5001 6.99975 12.0001C6.49965 11.5001 6.24975 10.5001 6.99975 9.50005C7.74975 8.50005 9.24975 8.50005 9.99975 9.00005C10.7498 9.50005 10.9998 10.0001 11.9997 10.0001C12.9997 10.0001 13.2498 9.50005 13.9997 9.00005C14.7497 8.50005 16.2499 8.50005 16.9999 9.50005C17.7499 10.5001 17.4997 11.5001 16.9997 12.0001Z" stroke="#333333" stroke-width="2" stroke-linecap="round" stroke-linejoin="round"/>
</svg>
