<svg width="24" height="24" viewBox="0 0 24 24" fill="none" xmlns="http://www.w3.org/2000/svg">
<path d="M22 13C22 12.4477 21.5523 12 21 12C20.4477 12 20 12.4477 20 13H22ZM12 4C12.5523 4 13 3.55228 13 3C13 2.44771 12.5523 2 12 2V4ZM19.5 20H4.5V22H19.5V20ZM4 19.5V4.5H2V19.5H4ZM20 13V19.5H22V13H20ZM4.5 4H12V2H4.5V4ZM4.5 20C4.22386 20 4 19.7761 4 19.5H2C2 20.8807 3.11928 22 4.5 22V20ZM19.5 22C20.8807 22 22 20.8807 22 19.5H20C20 19.7761 19.7761 20 19.5 20V22ZM4 4.5C4 4.22386 4.22386 4 4.5 4V2C3.11929 2 2 3.11928 2 4.5H4Z" fill="#333333"/>
<path d="M3 17.5L8.34655 12.599C8.71945 12.2571 9.28895 12.2476 9.67305 12.5769L16 18" stroke="#333333" stroke-width="2" stroke-linecap="round" stroke-linejoin="round"/>
<path d="M14 15.5L16.3867 13.1132C16.7386 12.7614 17.2957 12.7218 17.6938 13.0204L21 15.5" stroke="#333333" stroke-width="2" stroke-linecap="round" stroke-linejoin="round"/>
<path d="M19.5 6H16.5C15.6716 6 15 6.67157 15 7.5V8.5C15 9.32843 15.6716 10 16.5 10H19.5C20.3284 10 21 9.32843 21 8.5V7.5C21 6.67157 20.3284 6 19.5 6Z" stroke="#333333" stroke-width="2" stroke-linejoin="round"/>
<path d="M19.5 6V7C20.0523 7 20.5 6.5523 20.5 6H19.5ZM16.5 6H15.5C15.5 6.5523 15.9477 7 16.5 7V6ZM18.5 4.5V6H20.5V4.5H18.5ZM19.5 5H16.5V7H19.5V5ZM17.5 6V4.5H15.5V6H17.5ZM17.5 4.5C17.5 4.22386 17.7239 4 18 4V2C16.6193 2 15.5 3.11929 15.5 4.5H17.5ZM20.5 4.5C20.5 3.11929 19.3807 2 18 2V4C18.2761 4 18.5 4.22386 18.5 4.5H20.5Z" fill="#333333"/>
</svg>
