<svg width="24" height="24" viewBox="0 0 24 24" fill="none" xmlns="http://www.w3.org/2000/svg">
<path d="M12 20H3.5C2.67158 20 2 19.3285 2 18.5V5.5C2 4.67158 2.67158 4 3.5 4H20.5C21.3285 4 22 4.67158 22 5.5V11.5294" stroke="#333333" stroke-width="2" stroke-linecap="round" stroke-linejoin="round"/>
<path d="M2 5.5C2 4.67158 2.67158 4 3.5 4H20.5C21.3285 4 22 4.67158 22 5.5V10H2V5.5Z" stroke="#333333" stroke-width="2"/>
<path d="M20.5 16.5H17.5C16.6716 16.5 16 17.1716 16 18V19C16 19.8284 16.6716 20.5 17.5 20.5H20.5C21.3284 20.5 22 19.8284 22 19V18C22 17.1716 21.3284 16.5 20.5 16.5Z" stroke="#333333" stroke-width="2" stroke-linejoin="round"/>
<path d="M19 13.5C19.8285 13.5 20.5 14.1715 20.5 15V16.5H17.5V15C17.5 14.1715 18.1715 13.5 19 13.5Z" stroke="#333333" stroke-width="2" stroke-linejoin="round"/>
<path d="M4 7C4 6.44772 4.44772 6 5 6C5.55228 6 6 6.44772 6 7C6 7.55228 5.55228 8 5 8C4.44772 8 4 7.55229 4 7Z" fill="#333333"/>
<path d="M7 7C7 6.44772 7.44772 6 8 6C8.55228 6 9 6.44772 9 7C9 7.55228 8.55228 8 8 8C7.44772 8 7 7.55229 7 7Z" fill="#333333"/>
</svg>
