<svg width="24" height="24" viewBox="0 0 24 24" fill="none" xmlns="http://www.w3.org/2000/svg">
<path d="M11.5 11H4.5C3.67157 11 3 11.6716 3 12.5V19.5C3 20.3284 3.67157 21 4.5 21H11.5C12.3284 21 13 20.3284 13 19.5V12.5C13 11.6716 12.3284 11 11.5 11Z" stroke="#333333" stroke-width="2" stroke-linejoin="round"/>
<path d="M15 3H21V9" stroke="#333333" stroke-width="2" stroke-linecap="round" stroke-linejoin="round"/>
<path d="M17 21.75C17.4142 21.75 17.75 21.4142 17.75 21C17.75 20.5858 17.4142 20.25 17 20.25C16.5858 20.25 16.25 20.5858 16.25 21C16.25 21.4142 16.5858 21.75 17 21.75Z" fill="#333333" stroke="#333333" stroke-width="0.5"/>
<path d="M3 6.25C3.41421 6.25 3.75 6.58579 3.75 7C3.75 7.41421 3.41421 7.75 3 7.75C2.58579 7.75 2.25 7.41421 2.25 7C2.25 6.58579 2.58579 6.25 3 6.25Z" fill="#333333" stroke="#333333" stroke-width="0.5"/>
<path d="M21 21.75C21.4142 21.75 21.75 21.4142 21.75 21C21.75 20.5858 21.4142 20.25 21 20.25C20.5858 20.25 20.25 20.5858 20.25 21C20.25 21.4142 20.5858 21.75 21 21.75Z" fill="#333333" stroke="#333333" stroke-width="0.5"/>
<path d="M3 2.25C3.41421 2.25 3.75 2.58579 3.75 3C3.75 3.41421 3.41421 3.75 3 3.75C2.58579 3.75 2.25 3.41421 2.25 3C2.25 2.58579 2.58579 2.25 3 2.25Z" fill="#333333" stroke="#333333" stroke-width="0.5"/>
<path d="M21 17.75C21.4142 17.75 21.75 17.4142 21.75 17C21.75 16.5858 21.4142 16.25 21 16.25C20.5858 16.25 20.25 16.5858 20.25 17C20.25 17.4142 20.5858 17.75 21 17.75Z" fill="#333333" stroke="#333333" stroke-width="0.5"/>
<path d="M7 2.25C7.41421 2.25 7.75 2.58579 7.75 3C7.75 3.41421 7.41421 3.75 7 3.75C6.58579 3.75 6.25 3.41421 6.25 3C6.25 2.58579 6.58579 2.25 7 2.25Z" fill="#333333" stroke="#333333" stroke-width="0.5"/>
<path d="M21 13.75C21.4142 13.75 21.75 13.4142 21.75 13C21.75 12.5858 21.4142 12.25 21 12.25C20.5858 12.25 20.25 12.5858 20.25 13C20.25 13.4142 20.5858 13.75 21 13.75Z" fill="#333333" stroke="#333333" stroke-width="0.5"/>
<path d="M11 2.25C11.4142 2.25 11.75 2.58579 11.75 3C11.75 3.41421 11.4142 3.75 11 3.75C10.5858 3.75 10.25 3.41421 10.25 3C10.25 2.58579 10.5858 2.25 11 2.25Z" fill="#333333" stroke="#333333" stroke-width="0.5"/>
<path d="M3 17L6.05975 14.7052C6.61195 14.2911 7.37545 14.3072 7.9096 14.7443L12.5 18.5" stroke="#333333" stroke-width="2" stroke-linecap="round" stroke-linejoin="round"/>
<path d="M21 3L15 9" stroke="#333333" stroke-width="2" stroke-linecap="round" stroke-linejoin="round"/>
</svg>
