<svg width="24" height="24" viewBox="0 0 24 24" fill="none" xmlns="http://www.w3.org/2000/svg">
<path d="M13.061 18.7176C13.061 18.7176 18.7178 13.0608 20.132 11.6465C21.5462 10.2323 22.2533 6.69675 19.7785 4.2219C17.3036 1.74703 13.7681 2.45413 12.3538 3.86835C10.9396 5.28255 3.51499 12.7072 2.80788 13.4143C2.10078 14.1214 1.04012 16.5963 3.16144 18.7176C5.28275 20.8389 7.75765 19.7783 8.46475 19.0712C9.17185 18.3641 16.95 10.5859 17.6571 9.87875C18.3643 9.17165 18.7178 7.4039 17.6571 6.3432C16.5965 5.28255 14.8287 5.6361 14.1216 6.3432C13.4145 7.05035 7.4041 13.0608 7.4041 13.0608" stroke="#333333" stroke-width="2" stroke-linecap="round" stroke-linejoin="round"/>
</svg>
