<svg width="24" height="24" viewBox="0 0 24 24" fill="none" xmlns="http://www.w3.org/2000/svg">
<path d="M22 11C22 10.4477 21.5523 10 21 10C20.4477 10 20 10.4477 20 11H22ZM12 4C12.5523 4 13 3.55228 13 3C13 2.44771 12.5523 2 12 2V4ZM19.5 20H4.5V22H19.5V20ZM4 19.5V4.5H2V19.5H4ZM20 11V19.5H22V11H20ZM4.5 4H12V2H4.5V4ZM4.5 20C4.22386 20 4 19.7761 4 19.5H2C2 20.8807 3.11928 22 4.5 22V20ZM19.5 22C20.8807 22 22 20.8807 22 19.5H20C20 19.7761 19.7761 20 19.5 20V22ZM4 4.5C4 4.22386 4.22386 4 4.5 4V2C3.11929 2 2 3.11928 2 4.5H4Z" fill="#333333"/>
<path d="M3 17.5L8.34655 12.599C8.71945 12.2572 9.28895 12.2477 9.67305 12.5769L16 18" stroke="#333333" stroke-width="2" stroke-linecap="round" stroke-linejoin="round"/>
<path d="M14 15.5L16.3867 13.1132C16.7386 12.7614 17.2957 12.7218 17.6938 13.0204L21 15.5" stroke="#333333" stroke-width="2" stroke-linecap="round" stroke-linejoin="round"/>
<path d="M15.7071 4.79289C15.3166 4.40237 14.6834 4.40237 14.2929 4.79289C13.9024 5.1834 13.9024 5.8166 14.2929 6.2071L15.7071 4.79289ZM17 7.5L16.2929 8.2071C16.6834 8.59765 17.3166 8.59765 17.7071 8.2071L17 7.5ZM21.7071 4.2071C22.0977 3.81658 22.0977 3.18341 21.7071 2.79289C21.3166 2.40237 20.6834 2.40237 20.2929 2.79289L21.7071 4.2071ZM14.2929 6.2071L16.2929 8.2071L17.7071 6.7929L15.7071 4.79289L14.2929 6.2071ZM17.7071 8.2071L21.7071 4.2071L20.2929 2.79289L16.2929 6.7929L17.7071 8.2071Z" fill="#333333"/>
</svg>
