<svg width="24" height="24" viewBox="0 0 24 24" fill="none" xmlns="http://www.w3.org/2000/svg">
<path d="M6.85728 10.2856C8.75083 10.2856 10.2859 8.7506 10.2859 6.85705C10.2859 4.96351 8.75083 3.42848 6.85728 3.42848C4.96373 3.42848 3.42871 4.96351 3.42871 6.85705C3.42871 8.7506 4.96373 10.2856 6.85728 10.2856Z" stroke="#333333" stroke-width="2" stroke-linecap="round" stroke-linejoin="round"/>
<path d="M17.1434 20.5713C19.037 20.5713 20.572 19.0362 20.572 17.1427C20.572 15.2491 19.037 13.7141 17.1434 13.7141C15.2499 13.7141 13.7148 15.2491 13.7148 17.1427C13.7148 19.0362 15.2499 20.5713 17.1434 20.5713Z" stroke="#333333" stroke-width="2" stroke-linecap="round" stroke-linejoin="round"/>
<path d="M12.001 22C6.47814 22 2.00098 17.5229 2.00098 12L5.33429 13.6666" stroke="#333333" stroke-width="2" stroke-linecap="round" stroke-linejoin="round"/>
<path d="M12.001 2C17.5238 2 22.001 6.47715 22.001 12L18.6676 10.3334" stroke="#333333" stroke-width="2" stroke-linecap="round" stroke-linejoin="round"/>
</svg>
