<svg width="24" height="24" viewBox="0 0 24 24" fill="none" xmlns="http://www.w3.org/2000/svg">
<path d="M12.0098 17.6768C15.0473 17.6768 17.5098 15.2143 17.5098 12.1768C17.5098 9.13921 15.0473 6.67676 12.0098 6.67676C8.97222 6.67676 6.50977 9.13921 6.50977 12.1768C6.50977 15.2143 8.97222 17.6768 12.0098 17.6768Z" stroke="#333333" stroke-width="2" stroke-linejoin="round"/>
<path d="M19.4802 4.50488L18.25 5.7421" stroke="#333333" stroke-width="2" stroke-linecap="round"/>
<path d="M5.53419 18.3721L4.51074 19.4014" stroke="#333333" stroke-width="2" stroke-linecap="round"/>
<path d="M12 20.6768V22.1768" stroke="#333333" stroke-width="2" stroke-linecap="round"/>
<path d="M22 11.6768H20" stroke="#333333" stroke-width="2" stroke-linecap="round"/>
<path d="M18.7666 18.168L20.0003 19.4017" stroke="#333333" stroke-width="2" stroke-linecap="round"/>
<path fill-rule="evenodd" clip-rule="evenodd" d="M12.0098 8.67676C10.0768 8.67676 8.50977 10.2438 8.50977 12.1768C8.50977 14.1098 10.0768 15.6768 12.0098 15.6768" fill="#333333"/>
<path d="M2 12.1768H4" stroke="#333333" stroke-width="2" stroke-linecap="round"/>
<path d="M5.02246 4.50488L6.04886 5.53126" stroke="#333333" stroke-width="2" stroke-linecap="round"/>
<path d="M12 1.67676V3.67676" stroke="#333333" stroke-width="2" stroke-linecap="round"/>
</svg>
