<svg width="24" height="24" viewBox="0 0 24 24" fill="none" xmlns="http://www.w3.org/2000/svg">
<path d="M20.5 9H9.5C9.22385 9 9 9.22385 9 9.5V20.5C9 20.7761 9.22385 21 9.5 21H20.5C20.7761 21 21 20.7761 21 20.5V9.5C21 9.22385 20.7761 9 20.5 9Z" stroke="#333333" stroke-width="2" stroke-linejoin="round"/>
<path d="M4.98453 3H3V5.0168" stroke="#333333" stroke-width="2" stroke-linecap="round" stroke-linejoin="round"/>
<path d="M4.99853 14.9999H3V13.0059" stroke="#333333" stroke-width="2" stroke-linecap="round" stroke-linejoin="round"/>
<path d="M13.001 3H14.9998V5.0076" stroke="#333333" stroke-width="2" stroke-linecap="round" stroke-linejoin="round"/>
<path d="M8.01367 3H10.0037" stroke="#333333" stroke-width="2" stroke-linecap="round" stroke-linejoin="round"/>
<path d="M3 8C3 9.3268 3 9.99345 3 10" stroke="#333333" stroke-width="2" stroke-linecap="round" stroke-linejoin="round"/>
<path d="M15 8C15 9.33825 15 9.6728 15 9.0037" stroke="#333333" stroke-width="2" stroke-linecap="round" stroke-linejoin="round"/>
<path d="M7.99609 15H8.99979" stroke="#333333" stroke-width="2" stroke-linecap="round"/>
</svg>
