<svg width="24" height="24" viewBox="0 0 24 24" fill="none" xmlns="http://www.w3.org/2000/svg">
<path d="M6 4.96352V3.5C6 2.67158 6.67155 2 7.5 2H20.5C21.3285 2 22 2.67158 22 3.5V16.5C22 17.3285 21.3285 18 20.5 18H19.0087" stroke="#333333" stroke-width="2"/>
<path d="M17.5 5H3.5C2.67157 5 2 5.67157 2 6.5V20.5C2 21.3284 2.67157 22 3.5 22H17.5C18.3284 22 19 21.3284 19 20.5V6.5C19 5.67157 18.3284 5 17.5 5Z" stroke="#333333" stroke-width="2" stroke-linejoin="round"/>
<path d="M9.21973 11.5554L11.866 8.8007C12.5918 8.07485 13.7846 8.09085 14.5301 8.8364C15.2757 9.58195 15.2917 10.7747 14.5658 11.5005L13.6108 12.5119" stroke="#333333" stroke-width="2" stroke-linecap="round" stroke-linejoin="round"/>
<path d="M6.73299 14.374C6.47784 14.6292 5.95024 15.1387 5.95024 15.1387C5.22439 15.8645 5.20469 17.1582 5.95024 17.9037C6.69579 18.6493 7.88854 18.6652 8.61439 17.9394L11.1965 15.5952" stroke="#333333" stroke-width="2" stroke-linecap="round" stroke-linejoin="round"/>
<path d="M9.3315 14.1642C8.9852 13.8179 8.7963 13.3751 8.76605 12.9274C8.73115 12.4113 8.9071 11.8887 9.2958 11.5" stroke="#333333" stroke-width="2" stroke-linecap="round" stroke-linejoin="round"/>
<path d="M11.1611 12.9307C11.9067 13.6762 11.9227 14.869 11.1968 15.5948" stroke="#333333" stroke-width="2" stroke-linecap="round" stroke-linejoin="round"/>
</svg>
