<svg width="24" height="24" viewBox="0 0 24 24" fill="none" xmlns="http://www.w3.org/2000/svg">
<g clip-path="url(#clip0_14_30499)">
<path d="M24 0H0V24H24V0Z" fill="white" fill-opacity="0.01"/>
<path d="M5.5 21C6.8807 21 8 19.8807 8 18.5C8 17.1193 6.8807 16 5.5 16C4.11929 16 3 17.1193 3 18.5C3 19.8807 4.11929 21 5.5 21Z" stroke="#333333" stroke-width="2" stroke-linejoin="round"/>
<path d="M18.5 21C19.8807 21 21 19.8807 21 18.5C21 17.1193 19.8807 16 18.5 16C17.1193 16 16 17.1193 16 18.5C16 19.8807 17.1193 21 18.5 21Z" stroke="#333333" stroke-width="2" stroke-linejoin="round"/>
<path d="M7.68848 19.7064L8.74978 17.908L17.2498 3.18555" stroke="#333333" stroke-width="2" stroke-linecap="round"/>
<path d="M6.74805 3.08789L15.248 17.8103L16.3134 19.7069" stroke="#333333" stroke-width="2" stroke-linecap="round"/>
</g>
<defs>
<clipPath id="clip0_14_30499">
<rect width="24" height="24" fill="white"/>
</clipPath>
</defs>
</svg>
