<svg width="24" height="24" viewBox="0 0 24 24" fill="none" xmlns="http://www.w3.org/2000/svg">
<g clip-path="url(#clip0_14_30554)">
<mask id="mask0_14_30554" style="mask-type:luminance" maskUnits="userSpaceOnUse" x="0" y="0" width="24" height="24">
<path d="M24 0H0V24H24V0Z" fill="white"/>
</mask>
<g mask="url(#mask0_14_30554)">
<path d="M19.5 3H4.5C3.67157 3 3 3.67157 3 4.5V19.5C3 20.3284 3.67157 21 4.5 21H19.5C20.3284 21 21 20.3284 21 19.5V4.5C21 3.67157 20.3284 3 19.5 3Z" stroke="#333333" stroke-width="2"/>
<path d="M11.6467 5.28218L10.0254 6.90348C9.71039 7.21848 9.93349 7.75703 10.3789 7.75703H13.6216C14.067 7.75703 14.2901 7.21848 13.9751 6.90348L12.3538 5.28218C12.1585 5.08693 11.8419 5.08693 11.6467 5.28218Z" fill="#333333"/>
<path d="M5.28218 12.3538L6.90348 13.9751C7.21848 14.2901 7.75703 14.067 7.75703 13.6216V10.3789C7.75703 9.93346 7.21848 9.71041 6.90348 10.0254L5.28218 11.6467C5.08693 11.842 5.08693 12.1586 5.28218 12.3538Z" fill="#333333"/>
<path d="M12.3528 18.718L13.9741 17.0967C14.2891 16.7817 14.066 16.2432 13.6206 16.2432H10.3779C9.93249 16.2432 9.70944 16.7817 10.0244 17.0967L11.6457 18.718C11.841 18.9133 12.1576 18.9133 12.3528 18.718Z" fill="#333333"/>
<path d="M18.717 11.6467L17.0957 10.0254C16.7807 9.71039 16.2422 9.93349 16.2422 10.3789V13.6216C16.2422 14.067 16.7807 14.2901 17.0957 13.9751L18.717 12.3538C18.9123 12.1585 18.9123 11.8419 18.717 11.6467Z" fill="#333333"/>
</g>
</g>
<defs>
<clipPath id="clip0_14_30554">
<rect width="24" height="24" fill="white"/>
</clipPath>
</defs>
</svg>
