<svg width="24" height="24" viewBox="0 0 24 24" fill="none" xmlns="http://www.w3.org/2000/svg">
<path d="M21.5 8.5V4.5H17M21.5 8.5V15.5M21.5 8.5H17M17 4.5V8.5M17 4.5H15M21.5 15.5V19.5H17M21.5 15.5H17M17 8.5H15M2.5 8.5V4.5H7M2.5 8.5V15.5M2.5 8.5H7M7 4.5V8.5M7 4.5H9M2.5 15.5V19.5H7M2.5 15.5H7M7 8.5H9M7 19.5V15.5M7 19.5H9M7 15.5H9M17 19.5V15.5M17 19.5H15M17 15.5H15" stroke="#333333" stroke-width="2" stroke-linecap="round" stroke-linejoin="round"/>
<path d="M12 3.5V5.5" stroke="#333333" stroke-width="2" stroke-linecap="round"/>
<path d="M12 8.5V10.5" stroke="#333333" stroke-width="2" stroke-linecap="round"/>
<path d="M12 13.5V15.5" stroke="#333333" stroke-width="2" stroke-linecap="round"/>
<path d="M12 18.5V20.5" stroke="#333333" stroke-width="2" stroke-linecap="round"/>
</svg>
