<svg width="24" height="24" viewBox="0 0 24 24" fill="none" xmlns="http://www.w3.org/2000/svg">
<path d="M12.2444 4.19875C12.1228 4.17933 12.137 4 12.2602 4H19.7499C19.888 4 19.9999 4.11193 19.9999 4.25V11.7397C19.9999 11.8629 19.8206 11.8772 19.8012 11.7555L18.8177 5.59715C18.7836 5.3837 18.6162 5.21635 18.4028 5.18225L12.2444 4.19875Z" fill="#333333" stroke="#333333" stroke-width="2" stroke-linecap="round"/>
<path d="M3.24442 13.1987C3.12279 13.1793 3.13702 13 3.26019 13H10.7499C10.888 13 10.9999 13.1119 10.9999 13.25V20.7397C10.9999 20.8629 10.8206 20.8772 10.8012 20.7555L9.81767 14.5971C9.78357 14.3837 9.61622 14.2164 9.40277 14.1823L3.24442 13.1987Z" fill="#333333" stroke="#333333" stroke-width="2" stroke-linecap="round"/>
<path d="M7.74443 8.69875C7.62278 8.6793 7.63703 8.5 7.76018 8.5H15.2499C15.388 8.5 15.4999 8.61195 15.4999 8.75V16.2397C15.4999 16.3629 15.3206 16.3772 15.3012 16.2555L14.3748 10.4549C14.3066 10.028 13.9719 9.6933 13.545 9.6251L7.74443 8.69875Z" fill="#333333" stroke="#333333" stroke-width="2" stroke-linecap="round"/>
</svg>
