<svg width="24" height="24" viewBox="0 0 24 24" fill="none" xmlns="http://www.w3.org/2000/svg">
<path d="M3.78966 17.7104C2.66151 16.0913 2 14.1229 2 12C2 6.47715 6.47715 2 12 2C17.5229 2 22 6.47715 22 12C22 17.5229 17.5229 22 12 22C9.8771 22 7.9087 21.3385 6.28965 20.2104M3.78966 17.7104C4.46828 18.6843 5.31575 19.5317 6.28965 20.2104M3.78966 17.7104L8 13.5M6.28965 20.2104L10.5 16M8 13.5L10 11.5L12.5 14L10.5 16M8 13.5L10.5 16" stroke="#333333" stroke-width="2" stroke-linecap="round" stroke-linejoin="round"/>
<path d="M8.5 7H10.5M9.5 6V8" stroke="#333333" stroke-width="2" stroke-linecap="round" stroke-linejoin="round"/>
<path d="M14 8.5H17M15.5 7V10" stroke="#333333" stroke-width="2" stroke-linecap="round" stroke-linejoin="round"/>
<path d="M16 14.5H18M17 13.5V15.5" stroke="#333333" stroke-width="2" stroke-linecap="round" stroke-linejoin="round"/>
</svg>
