<svg width="24" height="24" viewBox="0 0 24 24" fill="none" xmlns="http://www.w3.org/2000/svg">
<path d="M10.0357 4.79312L7.91444 2.6718C7.52394 2.28128 6.89074 2.28128 6.50024 2.6718L3.6718 5.50023C3.28128 5.89073 3.28128 6.52393 3.6718 6.91443L5.79314 9.03578" stroke="#333333" stroke-width="2" stroke-linecap="round" stroke-linejoin="round"/>
<path d="M14.4639 18.7075L16.5852 20.8288C16.9757 21.2193 17.6089 21.2193 17.9994 20.8288L20.8278 18.0004C21.2184 17.6098 21.2184 16.9767 20.8278 16.5862L18.7065 14.4648" stroke="#333333" stroke-width="2" stroke-linecap="round" stroke-linejoin="round"/>
<path d="M20.8383 5.98964L18.0098 3.16121C17.6193 2.77068 16.9862 2.77068 16.5956 3.16121L3.1606 16.5962C2.77008 16.9868 2.77007 17.6199 3.1606 18.0105L5.98903 20.8389C6.37955 21.2294 7.01272 21.2294 7.40324 20.8389L20.8383 7.40385C21.2288 7.01332 21.2288 6.38016 20.8383 5.98964Z" stroke="#333333" stroke-width="2" stroke-linecap="round" stroke-linejoin="round"/>
<path d="M12 13C12.5523 13 13 12.5523 13 12C13 11.4477 12.5523 11 12 11C11.4477 11 11 11.4477 11 12C11 12.5523 11.4477 13 12 13Z" fill="#333333"/>
<path d="M10 15C10.5523 15 11 14.5523 11 14C11 13.4477 10.5523 13 10 13C9.44772 13 9 13.4477 9 14C9 14.5523 9.44772 15 10 15Z" fill="#333333"/>
<path d="M14 11C14.5523 11 15 10.5523 15 10C15 9.44772 14.5523 9 14 9C13.4477 9 13 9.44772 13 10C13 10.5523 13.4477 11 14 11Z" fill="#333333"/>
</svg>
