<svg width="24" height="24" viewBox="0 0 24 24" fill="none" xmlns="http://www.w3.org/2000/svg">
<path fill-rule="evenodd" clip-rule="evenodd" d="M9.42641 4.55769C5.66111 6.97581 3.56932 9.79031 3.15104 13.0012C2.49986 17.9997 6.96996 20.4464 9.23491 18.2481C11.4999 16.0498 10.1422 13.2595 8.50211 12.4968C6.86206 11.7341 5.85911 11.9997 6.03406 10.9805C6.20901 9.96125 8.54231 7.13535 10.5922 5.8193C10.7282 5.70366 10.78 5.47925 10.649 5.309C10.5629 5.19705 10.3939 4.97748 10.1422 4.65026C9.92201 4.36413 9.71111 4.37484 9.42641 4.55769Z" fill="#333333"/>
<path fill-rule="evenodd" clip-rule="evenodd" d="M19.3395 4.55769C15.5742 6.97581 13.4824 9.79031 13.0641 13.0012C12.413 17.9997 16.8831 20.4464 19.148 18.2481C21.413 16.0498 20.0553 13.2595 18.4152 12.4968C16.7752 11.7341 15.7722 11.9997 15.9472 10.9805C16.1221 9.96125 18.4554 7.13535 20.5053 5.8193C20.6413 5.70366 20.6931 5.47925 20.5621 5.309C20.476 5.19705 20.307 4.97748 20.0553 4.65026C19.8351 4.36413 19.6242 4.37484 19.3395 4.55769Z" fill="#333333"/>
</svg>
