<svg width="24" height="24" viewBox="0 0 24 24" fill="none" xmlns="http://www.w3.org/2000/svg">
<path d="M2 12V2H22V12" stroke="#333333" stroke-width="2" stroke-linecap="round" stroke-linejoin="round"/>
<path fill-rule="evenodd" clip-rule="evenodd" d="M5 22C6.65685 22 8 20.6568 8 19C8 17.3432 6.65685 16 5 16C3.34315 16 2 17.3432 2 19C2 20.6568 3.34315 22 5 22Z" stroke="#333333" stroke-width="2" stroke-linecap="round" stroke-linejoin="round"/>
<path d="M18.0002 6C10.1955 16.6332 7.9026 20.3402 7.12155 21.1213C5.95 22.2929 4.05048 22.2929 2.87891 21.1213" stroke="#333333" stroke-width="2" stroke-linecap="round" stroke-linejoin="round"/>
<path fill-rule="evenodd" clip-rule="evenodd" d="M19 22C20.6568 22 22 20.6568 22 19C22 17.3432 20.6568 16 19 16C17.3432 16 16 17.3432 16 19C16 20.6568 17.3432 22 19 22Z" stroke="#333333" stroke-width="2" stroke-linecap="round" stroke-linejoin="round"/>
<path d="M21.1213 21.1213C19.9497 22.2929 18.0503 22.2929 16.8787 21.1213C16.0977 20.3402 13.8047 16.6332 6 6" stroke="#333333" stroke-width="2" stroke-linecap="round" stroke-linejoin="round"/>
</svg>
