<svg width="24" height="24" viewBox="0 0 24 24" fill="none" xmlns="http://www.w3.org/2000/svg">
<path d="M5.63635 2H2V5.63635H5.63635V2Z" stroke="#333333" stroke-width="2" stroke-linejoin="round"/>
<path d="M21.9996 18.3633H18.3633V21.9996H21.9996V18.3633Z" stroke="#333333" stroke-width="2" stroke-linejoin="round"/>
<path d="M5.63635 12H2V15.6363H5.63635V12Z" stroke="#333333" stroke-width="2" stroke-linejoin="round"/>
<path d="M11.9996 18.3633H8.36328V21.9996H11.9996V18.3633Z" stroke="#333333" stroke-width="2" stroke-linejoin="round"/>
<path d="M15.6363 2H12V5.63635H15.6363V2Z" stroke="#333333" stroke-width="2" stroke-linejoin="round"/>
<path d="M21.9996 8.36328H18.3633V11.9996H21.9996V8.36328Z" stroke="#333333" stroke-width="2" stroke-linejoin="round"/>
<path d="M5.63672 3.81836H12.0004" stroke="#333333" stroke-width="2" stroke-linecap="round" stroke-linejoin="round"/>
<path d="M12 20.1816H18.3636" stroke="#333333" stroke-width="2" stroke-linecap="round" stroke-linejoin="round"/>
<path d="M5.63672 13.8186H13.8186V5.63672" stroke="#333333" stroke-width="2" stroke-linecap="round" stroke-linejoin="round"/>
<path d="M14.4137 10.1816H18.3634M10.1816 18.3634V13.8141" stroke="#333333" stroke-width="2" stroke-linecap="round" stroke-linejoin="round"/>
<path d="M3.81836 5.63672V12.0003" stroke="#333333" stroke-width="2" stroke-linecap="round" stroke-linejoin="round"/>
<path d="M20.1816 12V18.3636" stroke="#333333" stroke-width="2" stroke-linecap="round" stroke-linejoin="round"/>
</svg>
