<svg width="24" height="24" viewBox="0 0 24 24" fill="none" xmlns="http://www.w3.org/2000/svg">
<path fill-rule="evenodd" clip-rule="evenodd" d="M2.31431 6.3743L12 2.5L21.6857 6.3743C21.8755 6.4502 22 6.63405 22 6.8385V21C22 21.2761 21.7761 21.5 21.5 21.5H2.5C2.22386 21.5 2 21.2761 2 21V6.8385C2 6.63405 2.12448 6.4502 2.31431 6.3743Z" stroke="#333333" stroke-width="2" stroke-linejoin="round"/>
<path d="M12 11V16" stroke="#333333" stroke-width="2" stroke-linecap="round"/>
<path fill-rule="evenodd" clip-rule="evenodd" d="M16.5 13.5C17.3285 13.5 18 12.9403 18 12.25C18 11.5597 17.3285 11 16.5 11C16.05 11 15.6 11 15.15 11C15.0671 11 15 11.0671 15 11.15C15 11.5166 15 11.8834 15 12.25C15 12.9403 15.6715 13.5 16.5 13.5Z" stroke="#333333" stroke-width="2"/>
<path d="M15 11V16" stroke="#333333" stroke-width="2" stroke-linecap="round"/>
<path d="M6 11H9.0023L6 15.9997H9.0023" stroke="#333333" stroke-width="2" stroke-linecap="round" stroke-linejoin="round"/>
</svg>
