<svg width="24" height="24" viewBox="0 0 24 24" fill="none" xmlns="http://www.w3.org/2000/svg">
<path d="M3.94963 2.5C5.36855 4.00965 6.078 5.9704 6.078 8.38225C6.078 12 2.99975 14.7691 2.4845 16.75C2.141 18.0706 1.97942 19.6539 1.99975 21.5" stroke="#333333" stroke-width="2" stroke-linecap="round"/>
<path d="M19.6284 2.5C18.2095 4.00965 17.5 5.9704 17.5 8.38225C17.5 12 20.5783 14.7691 21.0935 16.75C21.437 18.0706 21.5986 19.6539 21.5783 21.5" stroke="#333333" stroke-width="2" stroke-linecap="round"/>
<path d="M3.12207 15.4185C6.38465 17.4834 9.34745 18.5159 12.0105 18.5159C14.6736 18.5159 17.49 17.4834 20.4596 15.4185" stroke="#333333" stroke-width="2" stroke-linecap="round"/>
<path d="M12 15.5C12.6904 15.5 13.25 14.9404 13.25 14.25C13.25 13.5597 12.6904 13 12 13C11.3097 13 10.75 13.5597 10.75 14.25C10.75 14.9404 11.3097 15.5 12 15.5Z" fill="#333333"/>
</svg>
