<svg width="24" height="24" viewBox="0 0 24 24" fill="none" xmlns="http://www.w3.org/2000/svg">
<path d="M5 17.5H3C2.44771 17.5 2 17.0523 2 16.5V5.5C2 4.94771 2.44771 4.5 3 4.5H15.5C16.0523 4.5 16.5 4.94771 16.5 5.5V8.94935C16.5 9.5801 16.8946 10.1435 17.4874 10.359L21.0126 11.641C21.6054 11.8565 22 12.4199 22 13.0506V16.5C22 17.0523 21.5523 17.5 21 17.5H19" stroke="#333333" stroke-width="2" stroke-linejoin="round"/>
<path d="M9 17.5H15" stroke="#333333" stroke-width="2" stroke-linejoin="round"/>
<path d="M6 9.5H10" stroke="#333333" stroke-width="2" stroke-linecap="round" stroke-linejoin="round"/>
<path d="M8 7.5V11.5" stroke="#333333" stroke-width="2" stroke-linecap="round" stroke-linejoin="round"/>
<path d="M7 19.5C8.10457 19.5 9 18.6046 9 17.5C9 16.3954 8.10457 15.5 7 15.5C5.89543 15.5 5 16.3954 5 17.5C5 18.6046 5.89543 19.5 7 19.5Z" stroke="#333333" stroke-width="2"/>
<path d="M17 19.5C18.1046 19.5 19 18.6046 19 17.5C19 16.3954 18.1046 15.5 17 15.5C15.8954 15.5 15 16.3954 15 17.5C15 18.6046 15.8954 19.5 17 19.5Z" stroke="#333333" stroke-width="2"/>
</svg>
