<svg width="24" height="24" viewBox="0 0 24 24" fill="none" xmlns="http://www.w3.org/2000/svg">
<path fill-rule="evenodd" clip-rule="evenodd" d="M12 20.998C18.6666 21.0494 22 20.5037 22 19.3607C22 17.6464 14.2071 9.00134 12 9.00134C9.7929 9.00134 2 17.8255 2 19.3607C2 20.3842 5.33335 20.93 12 20.998Z" stroke="#333333" stroke-width="2" stroke-linejoin="round"/>
<path d="M10.5296 14.8307L8.71973 17.0001" stroke="#333333" stroke-width="2" stroke-linecap="round"/>
<path d="M12.25 5.5001C12.9404 5.5001 13.5 4.94048 13.5 4.25012C13.5 3.55977 12.9404 3.00012 12.25 3.00012C11.5597 3.00012 11 3.55977 11 4.25012C11 4.94048 11.5597 5.5001 12.25 5.5001Z" fill="#333333"/>
<path d="M17 8.00012C17.5523 8.00012 18 7.55242 18 7.00012C18 6.44787 17.5523 6.00012 17 6.00012C16.4477 6.00012 16 6.44787 16 7.00012C16 7.55242 16.4477 8.00012 17 8.00012Z" fill="#333333"/>
<path d="M6 10.5001C6.5523 10.5001 7 10.0524 7 9.50012C7 8.94787 6.5523 8.50012 6 8.50012C5.4477 8.50012 5 8.94787 5 9.50012C5 10.0524 5.4477 10.5001 6 10.5001Z" fill="#333333"/>
<path d="M8.75 7.50012C9.1642 7.50012 9.5 7.16437 9.5 6.75012C9.5 6.33592 9.1642 6.00012 8.75 6.00012C8.3358 6.00012 8 6.33592 8 6.75012C8 7.16437 8.3358 7.50012 8.75 7.50012Z" fill="#333333"/>
</svg>
