<svg width="24" height="24" viewBox="0 0 24 24" fill="none" xmlns="http://www.w3.org/2000/svg">
<path d="M9.518 22.0001C9.02805 20.4023 8.2889 19.2112 7.30055 18.4267C5.818 17.2499 3.46242 17.9813 2.59229 16.7675C1.72217 15.5537 3.20191 13.3216 3.72117 12.0046C4.24043 10.6876 1.7309 10.2219 2.02388 9.84795C2.21921 9.5987 3.48736 8.8794 5.82835 7.6901C6.4935 3.89678 8.9504 2.00012 13.1991 2.00012C19.5721 2.00012 22 7.4031 22 10.8396C22 14.2761 19.0601 17.9782 14.8721 18.7765C14.4976 19.3219 15.0377 20.3964 16.4924 22.0001" stroke="#333333" stroke-width="2" stroke-linecap="round" stroke-linejoin="round"/>
<path fill-rule="evenodd" clip-rule="evenodd" d="M9.75033 7.25005C9.42368 8.5172 9.52088 9.40695 10.0419 9.9193C10.563 10.4317 11.451 10.7668 12.7061 10.9245C12.4213 12.5589 12.7685 13.3256 13.7476 13.2247C14.7267 13.1238 15.3149 12.717 15.5124 12.0042C17.0426 12.4343 17.8719 12.0744 18.0003 10.9245C18.1931 9.1997 17.263 7.8238 16.8817 7.8238C16.5003 7.8238 15.5124 7.7774 15.5124 7.25005C15.5124 6.72265 14.3584 6.4247 13.3169 6.4247C12.2754 6.4247 12.9022 5.72265 11.4721 6.00005C10.5186 6.18495 9.94473 6.6016 9.75033 7.25005Z" stroke="#333333" stroke-width="2" stroke-linejoin="round"/>
<path d="M15.2496 12.7501C14.7412 13.0657 14.0434 13.5903 13.7496 14.0001C13.0152 15.0249 12.4194 15.6488 12.2891 16.3042" stroke="#333333" stroke-width="2" stroke-linecap="round"/>
</svg>
