<svg width="24" height="24" viewBox="0 0 24 24" fill="none" xmlns="http://www.w3.org/2000/svg">
<path d="M14.2078 10.9233C14.1494 12.2163 14.4783 13.1228 15.1945 13.6425C16.2688 14.4222 18.9181 14.5136 21.0166 10.9233C23.1152 7.3329 21.0794 5.38265 20.3062 5.0574C19.7907 4.84055 19.2725 4.75927 18.7517 4.81353" stroke="#333333" stroke-width="2" stroke-linecap="round"/>
<path d="M15.5074 14.0031C14.8971 14.7098 14.83 15.5588 15.3062 16.55C16.0205 18.0368 17.8499 17.7694 18.7643 19.0079C19.374 19.8336 19.6049 20.6643 19.4571 21.5" stroke="#333333" stroke-width="2" stroke-linecap="round"/>
<path fill-rule="evenodd" clip-rule="evenodd" d="M4.25217 11.8199C5.38205 13.3305 8.08315 13.5276 11.25 12.3153C12.5322 11.8245 13.8908 11.1026 15.2524 10.1434C16.2788 9.4202 17.0225 8.6822 17.5459 7.96C19.4316 5.358 18.4579 2.96111 17.5459 2.20318C16.5578 1.382 14.661 1.04444 11.25 2.51673C10.6388 2.78052 9.9791 3.10241 9.26725 3.49003C7.8687 4.25156 6.7168 5.1116 5.8311 5.99995C3.74985 8.08745 3.13866 10.3311 4.25217 11.8199Z" stroke="#333333" stroke-width="2"/>
<path d="M8.12207 4.41956C8.34162 5.89445 8.95777 7.184 9.97047 8.2882C10.9832 9.3924 12.1937 10.0975 13.9995 10.75" stroke="#333333" stroke-width="2" stroke-linecap="round"/>
<path d="M4.99075 12.4999C2.07786 15.3251 1.29276 17.4643 2.63546 18.9173C4.64951 21.0968 6.5439 18.3133 9.0833 18.3133C10.7762 18.3133 12.0818 19.3755 13 21.4999" stroke="#333333" stroke-width="2" stroke-linecap="round"/>
<path d="M17.5459 7.95996C17.0225 8.68216 16.2788 9.42016 15.2524 10.1433C13.8908 11.1026 12.5323 11.8245 11.25 12.3153" stroke="#333333" stroke-width="2" stroke-linecap="round"/>
<path d="M11.25 2.51672C10.6388 2.78051 9.97906 3.1024 9.26721 3.49002C7.86871 4.25156 6.71675 5.1116 5.83105 5.99995" stroke="#333333" stroke-width="2" stroke-linecap="round"/>
</svg>
