<svg width="24" height="24" viewBox="0 0 24 24" fill="none" xmlns="http://www.w3.org/2000/svg">
<path d="M8.4984 1.75C8.4984 2.88282 8.4984 3.74092 8.4984 4.32431C8.4984 5.1994 8.01665 5.53675 6.20115 6.00325C4.38566 6.4697 3.84816 6.74465 3.42408 7.54975C3.14136 8.08645 3 8.91515 3 10.0358V18.75" stroke="#333333" stroke-width="2" stroke-linecap="round"/>
<path d="M17.4705 10.7543C17.5893 12.1927 17.3456 13.4489 16.7393 14.523C16.1331 15.5971 15.0627 16.2513 13.5283 16.4858" stroke="#333333" stroke-width="2" stroke-linecap="round" stroke-linejoin="round"/>
<path d="M6.52934 10.7543C6.40999 12.1927 6.65479 13.4489 7.26384 14.523C7.87284 15.5971 8.95189 16.2513 10.5011 16.4858" stroke="#333333" stroke-width="2" stroke-linecap="round" stroke-linejoin="round"/>
<path d="M6.5 21.7561C7.16665 20.9785 7.5 20.1331 7.5 19.2198C7.5 18.3065 7.5 16.9127 7.5 15.0382" stroke="#333333" stroke-width="2" stroke-linecap="round"/>
<path d="M17.5 21.7561C16.8334 20.9785 16.5 20.1331 16.5 19.2198C16.5 18.3065 16.5 16.9127 16.5 15.0382" stroke="#333333" stroke-width="2" stroke-linecap="round"/>
<path d="M15.5 1.75C15.5 2.88282 15.5 3.74092 15.5 4.32431C15.5 5.1994 15.9817 5.53675 17.7972 6.00325C19.6127 6.4697 20.1502 6.74465 20.5743 7.54975C20.857 8.08645 20.9984 8.91515 20.9984 10.0358V18.75" stroke="#333333" stroke-width="2" stroke-linecap="round"/>
</svg>
