<svg width="24" height="24" viewBox="0 0 24 24" fill="none" xmlns="http://www.w3.org/2000/svg">
<path d="M19.9141 10.8929L10.9843 19.8226C9.27725 21.5298 6.4687 21.4891 4.71132 19.7317C2.95397 17.9744 2.91326 15.1658 4.62041 13.4587L13.5501 4.52893" stroke="#333333" stroke-width="2" stroke-linecap="round"/>
<path d="M4.36719 13.7119L17.4392 13.3678" stroke="#333333" stroke-width="2" stroke-linecap="round"/>
<path d="M14.6963 10.4535C15.0869 10.0629 15.0869 9.42975 14.6963 9.03925C14.3058 8.6487 13.6727 8.6487 13.2821 9.03925C12.8916 9.42975 12.8916 10.0629 13.2821 10.4535C13.6727 10.844 14.3058 10.844 14.6963 10.4535Z" fill="#333333"/>
<path d="M11.8682 11.8678C12.2588 11.4773 12.2588 10.8441 11.8682 10.4536C11.4777 10.063 10.8445 10.063 10.454 10.4536C10.0635 10.8441 10.0635 11.4773 10.454 11.8678C10.8445 12.2583 11.4777 12.2583 11.8682 11.8678Z" fill="#333333"/>
<path d="M11.7822 2.76123L21.6817 12.6608" stroke="#333333" stroke-width="2" stroke-linecap="round"/>
</svg>
