<svg width="24" height="24" viewBox="0 0 24 24" fill="none" xmlns="http://www.w3.org/2000/svg">
<path fill-rule="evenodd" clip-rule="evenodd" d="M11.5733 22C15.6467 22 20 21.5053 20 15.0901C20 11.9822 19.2543 9.4521 17.7628 7.5C16.3696 9.83335 15.337 11 14.665 11C13.657 11 14.665 7.95535 13.4994 5.6457C12.7223 4.10597 11.344 2.89073 9.36445 2C9.6397 4.21846 9.58015 5.8277 9.18575 6.8277C8.5941 8.3277 3.57557 10.955 4.02892 15.4675C4.48227 19.9799 7.5 22 11.5733 22Z" stroke="#333333" stroke-width="2" stroke-linejoin="round"/>
<path d="M10.8538 12.0042C8.95141 13.7333 8.14056 15.3337 8.42136 16.8055C8.66306 18.0724 9.62436 18.6882 10.3485 18.8867C10.9098 19.0407 11.8818 19.1268 12.7502 18.3533C13.6701 17.5341 13.3036 16.3694 11.9696 14.9285C11.4069 14.3207 11.035 13.346 10.8538 12.0042Z" stroke="#333333" stroke-width="2" stroke-linejoin="round"/>
</svg>
