<svg width="24" height="24" viewBox="0 0 24 24" fill="none" xmlns="http://www.w3.org/2000/svg">
<path fill-rule="evenodd" clip-rule="evenodd" d="M12 20.5C16.9706 20.5 21 16.339 21 13.5C21 10.661 16.9706 6.5 12 6.5C7.02945 6.5 3 10.6639 3 13.5C3 16.3361 7.02945 20.5 12 20.5Z" stroke="#333333" stroke-width="2" stroke-linejoin="round"/>
<path d="M12 16.5C13.6568 16.5 15 15.1568 15 13.5C15 11.8432 13.6568 10.5 12 10.5C10.3432 10.5 9 11.8432 9 13.5C9 15.1568 10.3432 16.5 12 16.5Z" stroke="#333333" stroke-width="2" stroke-linejoin="round"/>
<path d="M6.63184 5.63306L7.92909 7.44316" stroke="#333333" stroke-width="2" stroke-linecap="round"/>
<path d="M17.8129 5.85522L16.5156 7.66537" stroke="#333333" stroke-width="2" stroke-linecap="round"/>
<path d="M12.0049 3.5V6.5" stroke="#333333" stroke-width="2" stroke-linecap="round"/>
</svg>
