<svg width="24" height="24" viewBox="0 0 24 24" fill="none" xmlns="http://www.w3.org/2000/svg">
<path d="M11.4995 2.5C10.9264 4.73011 10.9264 6.38635 11.4995 7.46875C12.359 9.09235 14.3495 9.9902 11.7866 12.1558C9.22361 14.3214 6.62511 12.5042 5.02076 12.5042C3.41645 12.5042 2.01074 14.3107 2.01074 17C2.01074 18.7929 2.34031 20.2929 2.99944 21.5" stroke="#333333" stroke-width="2" stroke-linecap="round" stroke-linejoin="round"/>
<path d="M14.9926 2.5C14.2719 5.1645 14.436 6.85435 15.4852 7.56965C17.0589 8.64255 17.1795 6.4018 20.071 7.73495C22.9625 9.06815 22.2107 13.7155 20.5475 16.1078C18.8843 18.5 15.3342 20.9173 12.0047 20.5C8.67512 20.0827 7.43712 16.01 7.00852 16.01C6.57997 16.01 5.67442 16.0227 5.49762 17.7086C5.37972 18.8324 5.71482 20.0963 6.50287 21.5" stroke="#333333" stroke-width="2" stroke-linecap="round" stroke-linejoin="round"/>
<path d="M17.8224 14.145C17.5333 15.0009 17.045 15.6692 16.3574 16.15C15.6699 16.6308 14.7971 16.9142 13.7393 17.0001" stroke="#333333" stroke-width="2" stroke-linecap="round"/>
</svg>
