<svg width="24" height="24" viewBox="0 0 24 24" fill="none" xmlns="http://www.w3.org/2000/svg">
<path fill-rule="evenodd" clip-rule="evenodd" d="M12 22.0001C12.6679 22.0001 13.1819 20.125 13.8131 20.0001C14.4633 19.8715 15.2294 21.4895 15.8277 21.2414C16.4364 20.989 16.2027 19.4334 16.7437 19.0712C17.2891 18.7061 18.6087 19.5336 19.0711 19.0712C19.5334 18.6089 18.332 17.0455 18.6971 16.5001C19.0593 15.9591 20.9888 16.4366 21.2412 15.8279C21.4893 15.2296 19.5895 14.0567 19.7181 13.4064C19.843 12.7752 22 12.668 22 12.0001C22 11.3323 20.1248 10.6798 20 10.0486C19.8714 9.3983 21.4893 8.7707 21.2412 8.1724C20.9888 7.56365 19.0593 8.0412 18.6971 7.5001C18.332 6.9548 19.5334 5.3914 19.0711 4.92906C18.6087 4.4667 17.0454 5.47455 16.5 5.1095C15.9589 4.74726 16.4364 3.01129 15.8277 2.75886C15.2294 2.51077 14.1503 3.95231 13.5 3.82368C12.8688 3.69881 12.6679 2.00012 12 2.00012C11.3321 2.00012 11.06 3.69881 10.4289 3.82368C9.77855 3.95231 8.7706 2.51077 8.1723 2.75886C7.56355 3.01129 8.0411 4.56683 7.5 4.92906C6.95465 5.29415 5.3913 4.4667 4.92893 4.92906C4.46657 5.3914 5.7624 6.9548 5.39735 7.5001C5.0351 8.0412 3.01116 7.56365 2.75873 8.1724C2.51064 8.7707 4.12864 9.61975 4 10.27C3.87514 10.9012 2 11.3323 2 12.0001C2 12.668 4.04861 12.9637 4.17347 13.5949C4.30211 14.2451 2.51064 15.2296 2.75873 15.8279C3.01116 16.4366 4.90335 15.9591 5.2656 16.5001C5.63065 17.0455 4.46657 18.6089 4.92893 19.0712C5.3913 19.5336 6.95465 18.4275 7.5 18.7926C8.0411 19.1548 7.56355 20.989 8.1723 21.2414C8.7706 21.4895 9.77855 19.8715 10.4289 20.0001C11.06 20.125 11.3321 22.0001 12 22.0001Z" stroke="#333333" stroke-width="2" stroke-linejoin="round"/>
<path d="M14.5 14.5001C15.6046 14.5001 16.5 13.6047 16.5 12.5001C16.5 11.3956 15.6046 10.5001 14.5 10.5001C13.3954 10.5001 12.5 11.3956 12.5 12.5001C12.5 13.6047 13.3954 14.5001 14.5 14.5001Z" stroke="#333333" stroke-width="2" stroke-linejoin="round"/>
<path d="M8.25 13.0001C8.94035 13.0001 9.5 12.4405 9.5 11.7501C9.5 11.0598 8.94035 10.5001 8.25 10.5001C7.55965 10.5001 7 11.0598 7 11.7501C7 12.4405 7.55965 13.0001 8.25 13.0001Z" fill="#333333"/>
</svg>
