<svg width="24" height="24" viewBox="0 0 24 24" fill="none" xmlns="http://www.w3.org/2000/svg">
<path d="M7.26985 10.0094C6.4261 8.97176 5.63375 8.74901 4.89282 9.34111C3.78145 10.2292 3.46226 13.3249 4.35662 16.0544C5.251 18.7839 6.99005 22.5009 10.5008 22.5009C14.0115 22.5009 14.842 18.7612 16.2743 16.5001C17.7065 14.2391 18.4642 12.0577 17.0604 9.34111" stroke="#333333" stroke-width="2" stroke-linecap="round" stroke-linejoin="round"/>
<path d="M5.5 9.0185C4.64853 7.72145 3.98187 6.71535 3.49998 6.00015C2.77715 4.92737 4.62553 3.54087 5.5 4.48409C6.08295 5.1129 6.8574 6.03905 7.8233 7.26255" stroke="#333333" stroke-width="2" stroke-linecap="round"/>
<path d="M7.51131 12.8198C7.26906 9.78799 7.46616 7.81384 8.10261 6.89739C9.05726 5.52279 10.8311 5.00159 12.5013 5.00159C13.4957 5.00159 14.4039 5.42514 15.2258 6.27224" stroke="#333333" stroke-width="2" stroke-linecap="round" stroke-linejoin="round"/>
<path fill-rule="evenodd" clip-rule="evenodd" d="M20.5001 6.30643C20.7929 7.32463 20.3147 8.25488 18.8422 8.46553C17.3696 8.67623 16.2656 9.41668 15.4694 10.0396C14.6731 10.6624 13.2491 12.5523 12.968 13.5012C12.6869 14.45 11.0801 13.5774 10.6485 13.1986C10.217 12.8197 9.79275 11.9903 10.6485 11.1229C11.5043 10.2554 11.3191 10.0823 11.3191 9.20263C11.3191 8.32298 16.0001 5.41318 18.6364 5.14708C19.2224 5.11288 20.2073 5.28823 20.5001 6.30643Z" stroke="#333333" stroke-width="2"/>
<path d="M11.5039 2.00012V4.63147" stroke="#333333" stroke-width="2" stroke-linecap="round"/>
<path d="M10.1528 5.35895C8.64393 3.46272 7.42728 2.40439 6.50293 2.18396" stroke="#333333" stroke-width="2" stroke-linecap="round"/>
<path d="M8.50195 3.51452L8.9972 1.48083" stroke="#333333" stroke-width="2" stroke-linecap="round"/>
<path d="M17.8064 5.35876C17.6453 5.91101 17.6453 6.42881 17.8064 6.91211C17.9675 7.39546 18.3128 7.91326 18.8421 8.46551" stroke="#333333" stroke-width="2" stroke-linecap="round"/>
</svg>
