<svg width="24" height="24" viewBox="0 0 24 24" fill="none" xmlns="http://www.w3.org/2000/svg">
<path d="M2 4C2 3.44771 2.44771 3 3 3H13C13.5523 3 14 3.44771 14 4V21H3C2.44771 21 2 20.5523 2 20V4Z" stroke="#333333" stroke-width="2" stroke-linejoin="round"/>
<path d="M10.5 21V16.5C10.5 15.6715 9.82845 15 9 15H7C6.17155 15 5.5 15.6715 5.5 16.5V21" stroke="#333333" stroke-width="2" stroke-linejoin="round"/>
<path d="M14 12H21C21.5523 12 22 12.4477 22 13V20C22 20.5523 21.5523 21 21 21H14V12Z" stroke="#333333" stroke-width="2" stroke-linejoin="round"/>
<path d="M6 9H10" stroke="#333333" stroke-width="2" stroke-linecap="round" stroke-linejoin="round"/>
<path d="M17 15H19" stroke="#333333" stroke-width="2" stroke-linecap="round" stroke-linejoin="round"/>
<path d="M17 18H19" stroke="#333333" stroke-width="2" stroke-linecap="round" stroke-linejoin="round"/>
<path d="M8 7V11" stroke="#333333" stroke-width="2" stroke-linecap="round" stroke-linejoin="round"/>
<path d="M3.5 21H12.5" stroke="#333333" stroke-width="2" stroke-linecap="round" stroke-linejoin="round"/>
</svg>
