<svg width="24" height="24" viewBox="0 0 24 24" fill="none" xmlns="http://www.w3.org/2000/svg">
<path d="M5.5 13V22H18.5V13L12 6.5L5.5 13Z" stroke="#333333" stroke-width="2" stroke-linejoin="round"/>
<path d="M1.79289 10.7929C1.40237 11.1834 1.40237 11.8166 1.79289 12.2071C2.18341 12.5976 2.81658 12.5976 3.2071 12.2071L1.79289 10.7929ZM12 2L12.7071 1.29289C12.5195 1.10535 12.2652 1 12 1C11.7348 1 11.4804 1.10535 11.2929 1.29289L12 2ZM20.7929 12.2071C21.1834 12.5976 21.8166 12.5976 22.2071 12.2071C22.5976 11.8166 22.5976 11.1834 22.2071 10.7929L20.7929 12.2071ZM3.2071 12.2071L12.7071 2.7071L11.2929 1.29289L1.79289 10.7929L3.2071 12.2071ZM11.2929 2.7071L20.7929 12.2071L22.2071 10.7929L12.7071 1.29289L11.2929 2.7071Z" fill="#333333"/>
<path d="M9.5 15.5H14.5" stroke="#333333" stroke-width="2" stroke-linecap="round" stroke-linejoin="round"/>
<path d="M12 13V18" stroke="#333333" stroke-width="2" stroke-linecap="round" stroke-linejoin="round"/>
</svg>
