<svg width="24" height="24" viewBox="0 0 24 24" fill="none" xmlns="http://www.w3.org/2000/svg">
<path d="M20 8H4C3.17157 8 2.5 8.67157 2.5 9.5V19.5C2.5 20.3284 3.17157 21 4 21H20C20.8284 21 21.5 20.3284 21.5 19.5V9.5C21.5 8.67157 20.8284 8 20 8Z" stroke="#333333" stroke-width="2" stroke-linejoin="round"/>
<path d="M9.5 4H14.5V2H9.5V4ZM15 4.5V8H17V4.5H15ZM9 8V4.5H7V8H9ZM14.5 4C14.7761 4 15 4.22386 15 4.5H17C17 3.11929 15.8807 2 14.5 2V4ZM9.5 2C8.1193 2 7 3.11929 7 4.5H9C9 4.22386 9.22385 4 9.5 4V2Z" fill="#333333"/>
<path d="M9 14.5H15" stroke="#333333" stroke-width="2" stroke-linecap="round" stroke-linejoin="round"/>
<path d="M12 11.5V17.5" stroke="#333333" stroke-width="2" stroke-linecap="round" stroke-linejoin="round"/>
</svg>
