<svg width="24" height="24" viewBox="0 0 24 24" fill="none" xmlns="http://www.w3.org/2000/svg">
<path d="M13 22C15.1731 20.4959 16.3313 18.9757 16.4746 17.4391C16.6179 15.9025 16.154 14.7562 15.0829 14" stroke="#333333" stroke-width="2" stroke-linecap="round"/>
<path fill-rule="evenodd" clip-rule="evenodd" d="M13.8281 14.1113C15.0708 14.1113 16.0781 13.1039 16.0781 11.8613C16.0781 10.6187 15.0708 9.61133 13.8281 9.61133C12.5855 9.61133 11.5781 10.6187 11.5781 11.8613C11.5781 13.1039 12.5855 14.1113 13.8281 14.1113Z" stroke="#333333" stroke-width="2"/>
<path d="M12.1441 13.5L9.38915 16.2886L4.79297 11.6924L13.9853 2.5L18.5815 7.0962L15.4882 10.1896" stroke="#333333" stroke-width="2" stroke-linecap="round" stroke-linejoin="round"/>
<path d="M3.2793 14.0679L7.21024 17.9071" stroke="#333333" stroke-width="2" stroke-linecap="round"/>
<path d="M3 22H21" stroke="#333333" stroke-width="2" stroke-linecap="round"/>
</svg>
