<svg width="24" height="24" viewBox="0 0 24 24" fill="none" xmlns="http://www.w3.org/2000/svg">
<path d="M2.49902 16.1569L10.0165 2.97147C10.4785 1.99057 11.3129 1.50012 12.5196 1.50012C14.3297 1.50012 15.5081 3.99325 15.5081 3.99325C15.5081 3.99325 16.1718 4.09213 17.499 4.28989C15.4939 4.32269 14.3345 4.72611 14.0207 5.5001C13.5501 6.66115 15.2487 7.86555 15.5081 9.50205C15.7676 11.1386 14.7327 13.9027 12.2436 15.2836C10.5842 16.2043 8.51261 16.4431 6.02866 16.0001L2.97873 21.5001" stroke="#333333" stroke-width="2" stroke-linecap="round" stroke-linejoin="round"/>
<path fill-rule="evenodd" clip-rule="evenodd" d="M7.47168 13.4891C8.76113 11.1643 9.60893 9.67159 10.0151 9.01089C10.6244 8.01984 13.1377 8.31864 12.2347 10.7922C11.6327 12.4413 10.045 13.3403 7.47168 13.4891Z" stroke="#333333" stroke-width="2" stroke-linejoin="round"/>
<path fill-rule="evenodd" clip-rule="evenodd" d="M16.4844 16.4919C17.0554 15.1236 17.8892 14.2945 18.9858 14.0045C20.0823 13.7144 21.0824 13.891 21.986 14.5342C21.4232 15.8321 20.5891 16.6643 19.4835 17.0305C18.3779 17.3968 17.3782 17.2172 16.4844 16.4919Z" stroke="#333333" stroke-width="2" stroke-linejoin="round"/>
<path fill-rule="evenodd" clip-rule="evenodd" d="M13.4932 17.5571C13.8716 18.918 14.8739 19.8282 16.5001 20.2876C18.1264 20.7471 19.4653 20.4846 20.5167 19.5002C19.2163 17.985 18.0445 17.1532 17.0012 17.005C15.958 16.8568 14.7886 17.0408 13.4932 17.5571Z" stroke="#333333" stroke-width="2" stroke-linejoin="round"/>
</svg>
