<svg width="24" height="24" viewBox="0 0 24 24" fill="none" xmlns="http://www.w3.org/2000/svg">
<path fill-rule="evenodd" clip-rule="evenodd" d="M10.25 16.5001C11.233 16.5001 11.6452 14.7311 12.5 14.3767C13.3862 14.0092 14.7087 15.0445 15.3765 14.3767C16.0444 13.7089 15.2237 12.2257 15.5912 11.3396C15.9456 10.4848 17.5 10.2331 17.5 9.2501C17.5 8.26715 15.731 8.02965 15.3765 7.1749C15.0091 6.28875 16.0444 4.79141 15.3765 4.1236C14.7087 3.45579 13.1328 4.49105 12.2466 4.1236C11.3918 3.76915 11.233 2.00012 10.25 2.00012C9.267 2.00012 9.00205 3.98243 8.14725 4.33689C7.2611 4.70434 5.7913 3.45579 5.1235 4.1236C4.45567 4.79141 5.49095 6.114 5.1235 7.0001C4.76902 7.8549 3 8.26715 3 9.2501C3 10.2331 4.76902 10.4848 5.1235 11.3396C5.49095 12.2257 4.45567 13.7089 5.1235 14.3767C5.7913 15.0445 7.2611 14.0092 8.14725 14.3767C9.00205 14.7311 9.267 16.5001 10.25 16.5001Z" stroke="#333333" stroke-width="2" stroke-linejoin="round"/>
<path d="M10 11.0001C11.1046 11.0001 12 10.1047 12 9.00012C12 7.89557 11.1046 7.00012 10 7.00012C8.89545 7.00012 8 7.89557 8 9.00012C8 10.1047 8.89545 11.0001 10 11.0001Z" stroke="#333333" stroke-width="2" stroke-linejoin="round"/>
<path d="M8.28459 15.0001C7.68054 18.3996 8.03809 20.5273 9.35719 21.3832C11.3359 22.667 12.7241 21.6636 13.4484 20.9277C14.1727 20.1919 16.5247 16.9721 18.5381 16.9721C20.5515 16.9721 21.1575 18.9122 20.9667 19.9721C20.8395 20.6786 20.511 21.2013 19.9812 21.54" stroke="#333333" stroke-width="2" stroke-linecap="round"/>
</svg>
