<svg width="24" height="24" viewBox="0 0 24 24" fill="none" xmlns="http://www.w3.org/2000/svg">
<path d="M11.9997 5C6.37137 5 2.99234 8.37405 2.18733 9.27895C2.06712 9.41405 2.04317 9.6032 2.11335 9.76985L5.77602 18.4687C5.89407 18.7491 6.23497 18.8657 6.50952 18.7346C7.41157 18.3038 9.43772 17.5 11.9997 17.5C14.5617 17.5 16.5879 18.3038 17.4899 18.7346C17.7645 18.8657 18.1054 18.7491 18.2234 18.4687L21.8861 9.76985C21.9563 9.6032 21.9323 9.41405 21.8121 9.27895C21.0071 8.37405 17.6281 5 11.9997 5Z" stroke="#333333" stroke-width="2" stroke-linecap="round" stroke-linejoin="round"/>
<path d="M10 12.0005H14" stroke="#333333" stroke-width="2" stroke-linecap="round" stroke-linejoin="round"/>
<path d="M12 10V14" stroke="#333333" stroke-width="2" stroke-linecap="round" stroke-linejoin="round"/>
</svg>
