<svg width="24" height="24" viewBox="0 0 24 24" fill="none" xmlns="http://www.w3.org/2000/svg">
<path fill-rule="evenodd" clip-rule="evenodd" d="M12 21C12.4326 21 13.4251 21 14.9775 21C15.019 19.6315 15.2196 18.8791 15.5793 18.7426C19.3342 17.3178 22 13.717 22 9.5H2C2 13.6257 4.55159 17.1617 8.1784 18.6471C8.55755 18.8024 8.84075 19.5867 9.028 21C10.5428 21 11.5335 21 12 21Z" stroke="#333333" stroke-width="2" stroke-linejoin="round"/>
<path d="M7.22168 13.0112C7.40148 13.6051 7.63928 14.0955 7.93508 14.4823C8.22418 14.8604 8.58093 15.2111 9.00518 15.5344" stroke="#333333" stroke-width="2" stroke-linecap="round"/>
<path d="M16.1005 4.00879C15.4705 3.65709 14.7914 3.38392 14.0764 3.20237M11.0253 3C7.46365 3.4113 4.5721 6.0489 3.75 9.5M20.25 9.49825C19.9148 8.09235 19.2361 6.8215 18.3086 5.7813" stroke="#333333" stroke-width="2" stroke-linecap="round"/>
</svg>
