<svg width="24" height="24" viewBox="0 0 24 24" fill="none" xmlns="http://www.w3.org/2000/svg">
<path d="M3.99929 2C6.00061 3.6683 7.00121 5.33575 7.00121 7.0023C7.00121 9.50215 4.99929 10.6218 3.99929 12C2.99929 13.3782 2.50195 14.9655 2.50195 17.0016C2.50195 18.359 3.00107 20.0251 3.99929 22" stroke="#333333" stroke-width="2" stroke-linecap="round"/>
<path d="M20.0019 2C18.0006 3.6683 17 5.33575 17 7.0023C17 9.50215 19.0019 10.6218 20.0019 12C21.0019 13.3782 21.4993 14.9655 21.4993 17.0016C21.4993 18.359 21.0001 20.0251 20.0019 22" stroke="#333333" stroke-width="2" stroke-linecap="round"/>
<path d="M7.00195 14.5913C8.26275 14.4705 9.3096 14.6507 10.1427 15.1319C11.3922 15.8538 11.9959 16.6798 12 17.4786C12.0028 18.0112 12.0028 19.5183 12 22" stroke="#333333" stroke-width="2" stroke-linecap="round"/>
<path d="M17.002 14.5913C15.7412 14.4705 14.6943 14.6507 13.8613 15.1319C12.6118 15.8538 12.0081 16.6798 12.0039 17.4786" stroke="#333333" stroke-width="2" stroke-linecap="round"/>
</svg>
