<svg width="24" height="24" viewBox="0 0 24 24" fill="none" xmlns="http://www.w3.org/2000/svg">
<path d="M2.8075 11.2925C2.22172 10.7067 2.22172 9.757 2.8075 9.1712L9.17147 2.80726C9.75727 2.22147 10.707 2.22147 11.2928 2.80726L21.1923 12.7067C21.7781 13.2925 21.7781 14.2423 21.1923 14.8281L14.8283 21.192C14.2425 21.7778 13.2928 21.7778 12.707 21.192L2.8075 11.2925Z" stroke="#333333" stroke-width="2" stroke-linejoin="round"/>
<path d="M8.11058 10.9395C8.5011 10.549 8.5011 9.91584 8.11058 9.52532C7.72005 9.13479 7.08689 9.13479 6.69636 9.52532C6.30584 9.91584 6.30584 10.549 6.69636 10.9395C7.08689 11.3301 7.72005 11.3301 8.11058 10.9395Z" fill="#333333"/>
<path d="M12.3537 15.1817C12.7443 14.7912 12.7443 14.158 12.3537 13.7675C11.9632 13.377 11.3301 13.377 10.9395 13.7675C10.549 14.158 10.549 14.7912 10.9395 15.1817C11.3301 15.5722 11.9632 15.5722 12.3537 15.1817Z" fill="#333333"/>
<path d="M10.2317 13.0606C10.6222 12.6701 10.6222 12.0369 10.2317 11.6464C9.84115 11.2559 9.20798 11.2559 8.81746 11.6464C8.42693 12.0369 8.42693 12.6701 8.81746 13.0606C9.20798 13.4511 9.84115 13.4511 10.2317 13.0606Z" fill="#333333"/>
<path d="M14.4748 17.3038C14.8654 16.9133 14.8654 16.2801 14.4748 15.8896C14.0843 15.499 13.4511 15.499 13.0606 15.8896C12.6701 16.2801 12.6701 16.9133 13.0606 17.3038C13.4511 17.6943 14.0843 17.6943 14.4748 17.3038Z" fill="#333333"/>
<path d="M10.9397 8.11043C11.3302 7.7199 11.3302 7.08674 10.9397 6.69621C10.5492 6.30569 9.91599 6.30569 9.52547 6.69621C9.13494 7.08674 9.13494 7.7199 9.52547 8.11043C9.91599 8.50095 10.5492 8.50095 10.9397 8.11043Z" fill="#333333"/>
<path d="M15.1819 12.3536C15.5724 11.9631 15.5724 11.3299 15.1819 10.9394C14.7913 10.5489 14.1582 10.5489 13.7677 10.9394C13.3771 11.3299 13.3771 11.9631 13.7677 12.3536C14.1582 12.7441 14.7913 12.7441 15.1819 12.3536Z" fill="#333333"/>
<path d="M13.0608 10.2325C13.4513 9.84197 13.4513 9.20881 13.0608 8.81828C12.6702 8.42776 12.0371 8.42776 11.6466 8.81828C11.256 9.20881 11.256 9.84197 11.6466 10.2325C12.0371 10.623 12.6702 10.623 13.0608 10.2325Z" fill="#333333"/>
<path d="M17.3039 14.4747C17.6945 14.0842 17.6945 13.451 17.3039 13.0605C16.9134 12.6699 16.2802 12.6699 15.8897 13.0605C15.4992 13.451 15.4992 14.0842 15.8897 14.4747C16.2802 14.8652 16.9134 14.8652 17.3039 14.4747Z" fill="#333333"/>
</svg>
