<svg width="24" height="24" viewBox="0 0 24 24" fill="none" xmlns="http://www.w3.org/2000/svg">
<path d="M5.5 20.5C7.5837 19.6046 9.5461 19.1215 11.3873 19.0507C13.2285 18.9799 15.5994 19.2963 18.5 20" stroke="#333333" stroke-width="2" stroke-linecap="round"/>
<path d="M11.5226 22C11.1392 17.28 11.2982 13.6133 11.9999 11" stroke="#333333" stroke-width="2" stroke-linecap="round"/>
<path fill-rule="evenodd" clip-rule="evenodd" d="M12 11.588C12.795 8.57904 14.1949 6.78459 16.1996 6.20474C18.2043 5.62484 20.1378 5.89059 21.9999 7.00199C22.0093 9.44794 20.9476 11.2398 18.8148 12.3775C16.682 13.5152 14.4104 13.252 12 11.588Z" stroke="#333333" stroke-width="2" stroke-linejoin="round"/>
<path fill-rule="evenodd" clip-rule="evenodd" d="M11.896 11.057C12.3127 7.46365 11.4777 4.93277 9.3911 3.46433C7.30445 1.99589 4.88819 1.668 2.14224 2.48067C1.66268 5.79535 2.39577 8.3018 4.3415 10C6.28725 11.6982 8.8054 12.0505 11.896 11.057Z" stroke="#333333" stroke-width="2" stroke-linejoin="round"/>
</svg>
