<svg width="24" height="24" viewBox="0 0 24 24" fill="none" xmlns="http://www.w3.org/2000/svg">
<path d="M8.0002 21.9999C7.26915 19.8255 7.03325 17.9922 7.29245 16.4999C7.55165 15.0076 8.3577 14.0323 9.71055 13.5738C8.7039 16.6272 9.1164 18.8581 10.9481 20.2664C13.6956 22.3788 20.3168 21.4073 20.6756 14.2615C21.0343 7.1157 17.5974 1.9563 12.5151 1.9563C7.4328 1.9563 6.6731 7.4569 10.2525 9.32355C7.08555 10.0138 5.0759 11.4305 4.22353 13.5738C3.37115 15.7171 3.30479 18.5258 4.02446 21.9999" stroke="#333333" stroke-width="2" stroke-linecap="round" stroke-linejoin="round"/>
<path d="M15.2999 7.5C13.8512 8.36365 13.3261 9.15465 13.7247 9.873C14.1233 10.5914 15.0274 10.5914 16.4369 9.873" stroke="#333333" stroke-width="2" stroke-linecap="round" stroke-linejoin="round"/>
<path d="M16.6238 13.1202C14.7536 12.7392 13.629 12.8771 13.25 13.534C12.6816 14.5194 15.1853 15.9471 16.0929 16.1255" stroke="#333333" stroke-width="2" stroke-linecap="round" stroke-linejoin="round"/>
</svg>
