<svg width="24" height="24" viewBox="0 0 24 24" fill="none" xmlns="http://www.w3.org/2000/svg">
<path d="M3.5 4.56369L12.0041 2L20.5 4.56369V9.8212C20.5 15.3473 17.0765 20.2531 12.0013 22C6.9246 20.2532 3.5 15.3461 3.5 9.8188V4.56369Z" stroke="#333333" stroke-width="2" stroke-linejoin="round"/>
<path d="M12 15C13.933 15 15.5 13.433 15.5 11.5C15.5 9.567 13.933 8 12 8C10.067 8 8.5 9.567 8.5 11.5C8.5 13.433 10.067 15 12 15Z" stroke="#333333" stroke-width="2" stroke-linejoin="round"/>
<path d="M14.5 14.5L17.5 18" stroke="#333333" stroke-width="2" stroke-linecap="round" stroke-linejoin="round"/>
<path d="M20.4998 9.82129C20.4998 15.3473 17.0763 20.2532 12.001 22.0001" stroke="#333333" stroke-width="2" stroke-linejoin="round"/>
</svg>
