<svg width="24" height="24" viewBox="0 0 24 24" fill="none" xmlns="http://www.w3.org/2000/svg">
<g clip-path="url(#clip0_5_19098)">
<mask id="mask0_5_19098" style="mask-type:luminance" maskUnits="userSpaceOnUse" x="0" y="0" width="24" height="24">
<path d="M24 0H0V24H24V0Z" fill="white"/>
</mask>
<g mask="url(#mask0_5_19098)">
<path fill-rule="evenodd" clip-rule="evenodd" d="M9.11846 12.2373C10.0464 12.887 10.2834 13.5744 10.9227 14.0221C11.6226 14.5121 12.3963 14.7723 13.0072 14.5297C14.1607 14.0717 14.9952 12.5754 16.013 11.1219C17.9928 8.29435 17.9896 3.92944 16.1431 2.6365C14.2966 1.34357 10.2215 2.85279 8.24161 5.6803C7.27416 7.062 6.00711 8.90285 6.08336 9.6816C6.14761 10.3373 6.36806 10.7025 7.06221 11.3189C7.75636 11.9353 8.12821 11.5439 9.11846 12.2373Z" stroke="#333333" stroke-width="2"/>
<path d="M6.80905 11.1584C5.03875 13.1072 4.80497 14.5881 6.10765 15.6009C7.41035 16.6138 9.0462 16.1146 11.0151 14.1035" stroke="#333333" stroke-width="2" stroke-linecap="round"/>
<path d="M6.11931 15.6136C4.57092 17.3072 4.28612 18.8866 5.26496 20.3519C6.73316 22.5498 9.64192 22.4296 11.062 20.7913C12.4821 19.153 15.1541 15.0933 18.0915 15.9279C21.0289 16.7624 20.5303 19.9718 18.561 20.309" stroke="#333333" stroke-width="2" stroke-linecap="round"/>
</g>
</g>
<defs>
<clipPath id="clip0_5_19098">
<rect width="24" height="24" fill="white"/>
</clipPath>
</defs>
</svg>
