<svg width="24" height="24" viewBox="0 0 24 24" fill="none" xmlns="http://www.w3.org/2000/svg">
<path d="M4.49902 16.6567L12.0165 3.47134C12.4785 2.49045 13.3129 2 14.5196 2C16.3297 2 17.5081 4.49313 17.5081 4.49313C17.5081 4.49313 18.1718 4.592 19.499 4.78976C17.4939 4.82257 16.3345 5.226 16.0207 6C15.5501 7.16105 17.2487 8.3654 17.5081 10.002C17.7676 11.6385 16.7327 14.4025 14.2436 15.7835C12.5842 16.7041 10.5126 16.943 8.02866 16.5L4.97873 22" stroke="#333333" stroke-width="2" stroke-linecap="round" stroke-linejoin="round"/>
<path fill-rule="evenodd" clip-rule="evenodd" d="M9.47168 13.989C10.7611 11.6642 11.6089 10.1715 12.0151 9.51076C12.6244 8.51971 15.1377 8.81851 14.2347 11.2922C13.6327 12.9412 12.045 13.8402 9.47168 13.989Z" stroke="#333333" stroke-width="2" stroke-linejoin="round"/>
</svg>
