<svg width="24" height="24" viewBox="0 0 24 24" fill="none" xmlns="http://www.w3.org/2000/svg">
<path fill-rule="evenodd" clip-rule="evenodd" d="M16.979 22.0001C16.979 22.0001 16.9912 20.2647 16.979 19.8802C17.2537 19.733 17.5204 19.5727 17.7782 19.4001C18.2963 19.0533 18.7783 18.6569 19.2175 18.2177C20.9367 16.4985 22 14.1235 22 11.5001C22 6.2534 17.7467 2.00012 12.5 2.00012C7.2533 2.00012 3 6.2534 3 11.5001C3 14.1235 4.06332 16.4985 5.7825 18.2177C6.2217 18.6569 6.70375 19.0533 7.22185 19.4001C7.4796 19.5727 7.72735 19.733 8.00215 19.8802C8.00215 20.0042 8.00215 20.7109 8.00215 22.0001C13.9866 22.0001 16.979 22.0001 16.979 22.0001Z" stroke="#333333" stroke-width="2" stroke-linejoin="round"/>
<path d="M9 13.5001C10.1046 13.5001 11 12.6047 11 11.5001L9 9.50012C7.89545 9.50012 7 10.3956 7 11.5001C7 12.6047 7.89545 13.5001 9 13.5001Z" stroke="#333333" stroke-width="2" stroke-linejoin="round"/>
<path d="M16 13.5001C14.8954 13.5001 14 12.6047 14 11.5001L16 9.50012C17.1046 9.50012 18 10.3956 18 11.5001C18 12.6047 17.1046 13.5001 16 13.5001Z" stroke="#333333" stroke-width="2" stroke-linejoin="round"/>
<path d="M11 17.0001L12.469 15.5001L14 16.9483" stroke="#333333" stroke-width="2" stroke-linecap="round" stroke-linejoin="round"/>
</svg>
