<svg width="24" height="24" viewBox="0 0 24 24" fill="none" xmlns="http://www.w3.org/2000/svg">
<path d="M15.9996 9C15.5381 12 14.4996 14.75 12.2496 14.75C9.99963 14.75 9.24963 12.25 8.49963 9C7.74963 5.75 8.49963 3 12.2496 3C15.9996 3 16.4612 6 15.9996 9Z" stroke="#333333" stroke-width="2"/>
<path d="M16.25 6.25001C17.125 5.43411 18.0164 5.16481 19.4202 5.25216C21.526 5.38321 22 6.82401 22 8.97821M22 8.97821C22 11.1324 21.1742 13.0913 19.5294 12.6481C17.8846 12.2049 18.1146 10.4548 18.8839 9.63431C19.6532 8.81381 20.9986 8.47946 22 8.97821Z" stroke="#333333" stroke-width="2" stroke-linecap="round"/>
<path d="M8.25 5.99998C7.36545 5.22798 6.32015 5.16503 5.04345 5.25238C3.12838 5.38338 2 6.84618 2 9.00038M2 9.00038C2 11.1546 3.44827 13.0914 4.94415 12.6482C6.44006 12.205 6.2309 10.455 5.53126 9.63453C4.83161 8.81403 2.91066 8.50163 2 9.00038Z" stroke="#333333" stroke-width="2" stroke-linecap="round"/>
<path d="M10 13.5V21.5" stroke="#333333" stroke-width="2" stroke-linecap="round" stroke-linejoin="round"/>
<path d="M14.5 13.5V21.5" stroke="#333333" stroke-width="2" stroke-linecap="round" stroke-linejoin="round"/>
</svg>
