<svg width="24" height="24" viewBox="0 0 24 24" fill="none" xmlns="http://www.w3.org/2000/svg">
<path d="M6.5 15.5C8.0278 16.2546 13.1 17.3111 17.5 15.5" stroke="#333333" stroke-width="2" stroke-linecap="round" stroke-linejoin="round"/>
<path d="M12 13.7061C12.5523 13.7061 13 13.2583 13 12.7061C13 12.1538 12.5523 11.7061 12 11.7061C11.4477 11.7061 11 12.1538 11 12.7061C11 13.2583 11.4477 13.7061 12 13.7061Z" fill="#333333"/>
<path d="M5 2.5C5.9279 4.13898 7.4855 7.62875 7.5 11C7.50445 12.0323 7.3407 13.0535 6.99975 14.007C6.09075 16.5493 4.72725 18.0212 4.5 21.5" stroke="#333333" stroke-width="2" stroke-linecap="round" stroke-linejoin="round"/>
<path d="M19.0001 2.5C18.0722 4.13898 16.5146 7.62875 16.5001 11C16.4956 12.0323 16.6594 13.0535 17.0003 14.007C17.9093 16.5493 19.2728 18.0212 19.5001 21.5" stroke="#333333" stroke-width="2" stroke-linecap="round" stroke-linejoin="round"/>
<path d="M4 9C4 9 4.5 10 4.5 11C4.5 11.8051 4 13 4 13" stroke="#333333" stroke-width="2" stroke-linecap="round" stroke-linejoin="round"/>
<path d="M20 9C20 9 19.5 10 19.5 11C19.5 11.8051 20 13 20 13" stroke="#333333" stroke-width="2" stroke-linecap="round" stroke-linejoin="round"/>
</svg>
