<svg width="72" height="72" viewBox="0 0 72 72" fill="none" xmlns="http://www.w3.org/2000/svg">
<g id="vibration">
<path id="Icon" d="M6 18L9.18152 21.3583C10.744 23.0075 10.6906 25.6064 9.06165 27.1901L9 27.25C7.35699 28.8474 7.35699 31.486 9 33.0833C10.643 34.6807 10.643 37.3193 9 38.9167C7.35699 40.514 7.35698 43.1526 8.99999 44.75L9.06164 44.8099C10.6905 46.3936 10.744 48.9925 9.18151 50.6417L6 54M66 18L62.8185 21.3583C61.256 23.0075 61.3094 25.6064 62.9383 27.1901L63 27.25C64.643 28.8474 64.643 31.486 63 33.0833C61.357 34.6807 61.357 37.3193 63 38.9167C64.643 40.514 64.643 43.1526 63 44.75L62.9384 44.8099C61.3095 46.3936 61.256 48.9925 62.8185 50.6417L66 54M21 15V57C21 60.3137 23.6863 63 27 63H45C48.3137 63 51 60.3137 51 57V15C51 11.6863 48.3137 9 45 9L27 9C23.6863 9 21 11.6863 21 15Z" stroke="#333333" stroke-width="5" stroke-linecap="round" stroke-linejoin="round"/>
</g>
</svg>

