<svg width="24" height="24" viewBox="0 0 24 24" fill="none" xmlns="http://www.w3.org/2000/svg">
<path d="M10.8094 4.49275L11.0475 5.72465H12.9525L13.1906 4.49275C13.4287 5.314 13.9049 7.10435 13.9049 7.69565C14.7779 7.61355 16.4763 7.0058 16.2858 5.2319C16.2858 4.98551 16.0953 4.39421 15.3334 4C17.4762 4.49275 21.8095 6.85795 22 12.3768C20.5714 11.4734 17.6191 10.8 17.2381 15.3334C16.3652 13.8551 14.3336 11.6869 13.1906 14.8406C12.7938 16.2367 11.9999 19.4232 11.9999 21C11.9999 19.4232 11.2062 16.2367 10.8094 14.8406C9.66645 11.6869 7.63485 13.8551 6.7619 15.3334C6.38095 10.8 3.42857 11.4734 2 12.3768C2.19048 6.85795 6.5238 4.49275 8.66665 4C7.90475 4.39421 7.7142 4.98551 7.7142 5.2319C7.5237 7.0058 9.2221 7.61355 10.0951 7.69565C10.0951 7.10435 10.5713 5.314 10.8094 4.49275Z" stroke="#333333" stroke-width="2" stroke-linecap="round" stroke-linejoin="round"/>
</svg>
