<svg width="24" height="24" viewBox="0 0 24 24" fill="none" xmlns="http://www.w3.org/2000/svg">
<path d="M2.5 6.5303C2.5 7.7696 3.14586 8.7607 4 9.5C3.46221 10.5732 3 11.7369 3 13C3 17.6108 7.0619 21.5 12 21.5C16.9381 21.5 21 17.6108 21 13C21 11.7369 20.5378 10.5732 20 9.5C20.8541 8.7607 21.5 7.7393 21.5 6.5C21.5 4.27413 19.6604 2.5 17.5 2.5C15.8633 2.5 14.5835 3.53009 14 5C13.3673 4.86746 12.6755 4.80303 12 4.80303C11.3245 4.80303 10.6327 4.86746 10 5C9.4165 3.53009 8.1367 2.5 6.5 2.5C4.33959 2.5 2.5 4.30443 2.5 6.5303Z" stroke="#333333" stroke-width="2" stroke-linejoin="round"/>
<path d="M10 10.5C10.5523 10.5 11 10.0523 11 9.5C11 8.94772 10.5523 8.5 10 8.5C9.44772 8.5 9 8.94772 9 9.5C9 10.0523 9.44772 10.5 10 10.5Z" fill="#333333"/>
<path d="M14 10.5C14.5523 10.5 15 10.0523 15 9.5C15 8.94772 14.5523 8.5 14 8.5C13.4477 8.5 13 8.94772 13 9.5C13 10.0523 13.4477 10.5 14 10.5Z" fill="#333333"/>
<path d="M12 14.5C12.8284 14.5 13.5 13.8284 13.5 13C13.5 12.1716 12.8284 11.5 12 11.5C11.1716 11.5 10.5 12.1716 10.5 13C10.5 13.8284 11.1716 14.5 12 14.5Z" fill="#333333"/>
<path d="M12 13V17" stroke="#333333" stroke-width="2" stroke-linecap="round" stroke-linejoin="round"/>
<path d="M14 16.5C12.8619 17.6381 11.1381 17.6381 10 16.5" stroke="#333333" stroke-width="2" stroke-linecap="round"/>
</svg>
