<svg width="24" height="24" viewBox="0 0 24 24" fill="none" xmlns="http://www.w3.org/2000/svg">
<path d="M15 14.3478C15 17.5 13.6568 22 12 22C10.3432 22 9 17.5 9 14.3478C9 12.4988 10.3432 11 12 11C13.6568 11 15 12.4988 15 14.3478Z" stroke="#333333" stroke-width="2"/>
<path d="M5.73915 8.5C6.9942 8.5 10 9.6193 10 11C10 12.3807 6.9942 13.5 5.73915 13.5C4.48409 13.5 3 12.3807 3 11C3 9.6193 4.48409 8.5 5.73915 8.5Z" stroke="#333333" stroke-width="2"/>
<path d="M18.2609 8.5C17.0058 8.5 14 9.6193 14 11C14 12.3807 17.0058 13.5 18.2609 13.5C19.5159 13.5 21 12.3807 21 11C21 9.6193 19.5159 8.5 18.2609 8.5Z" stroke="#333333" stroke-width="2"/>
<path d="M14.5 7C14.5 5.61929 13.3807 4.5 12 4.5C10.6193 4.5 9.5 5.61929 9.5 7V8.5C9.5 9.88071 10.6193 11 12 11C13.3807 11 14.5 9.88071 14.5 8.5V7Z" stroke="#333333" stroke-width="2"/>
<path d="M14 5C14 3.34315 15.3432 2 17 2" stroke="#333333" stroke-width="2" stroke-linecap="round"/>
<path d="M10.5 5C10.5 3.34315 8.933 2 7 2" stroke="#333333" stroke-width="2" stroke-linecap="round"/>
</svg>
