<svg width="24" height="24" viewBox="0 0 24 24" fill="none" xmlns="http://www.w3.org/2000/svg">
<path d="M4.5 7.00015L2 10.0345C2 10.0345 2.92457 13.5175 5.5 16.0003C10.4448 20.7672 17.667 17.652 20.5 15.5003C23.1784 13.3155 21.8584 12.8348 21 13.0003L18.5 13.5003C23.0327 6.34985 21.7877 5.5865 20.5 6.0003L16 8.0003C13.1156 9.58925 11.75 8.7503 11 8.0003L9.5 6.5001C7.25 4.5 5.0151 6.42085 4.5 7.00015Z" stroke="#333333" stroke-width="2" stroke-linecap="round" stroke-linejoin="round"/>
<path d="M7 11C7.55228 11 8 10.5523 8 10C8 9.44772 7.55228 9 7 9C6.44772 9 6 9.44772 6 10C6 10.5523 6.44772 11 7 11Z" fill="#333333"/>
</svg>
