<svg width="24" height="24" viewBox="0 0 24 24" fill="none" xmlns="http://www.w3.org/2000/svg">
<path d="M2.5001 6.00016C4.33195 3.85307 9.5407 9.40956 12.0001 12.5C14.4596 9.40956 19.6683 3.853 21.5001 6.00006C21.8394 6.32536 22.2214 7.43851 21.0001 9.00001C20.6609 9.48796 20.093 10.853 20.5001 13C20.5001 13.5693 19.9426 14.476 17.5001 13.5C18.6875 14.3133 20.9249 16.5481 19.5001 18.5C18.1432 20.2079 14.9825 22.2285 13.0001 17.5L12.0001 15.5L11.0001 17.5C9.0178 22.2285 5.85705 20.2079 4.50012 18.5C3.07536 16.5481 5.31275 14.3134 6.50005 13.5002C4.0576 14.4761 3.50006 13.5695 3.50006 13.0002C3.90719 10.8531 3.33934 9.48811 3.00006 9.00016C1.77883 7.43866 2.16087 6.32546 2.5001 6.00016Z" stroke="#333333" stroke-width="2" stroke-linecap="round" stroke-linejoin="round"/>
<path d="M12.0161 11.5C11.767 8.9321 14.4568 3.5 16.5 3.5" stroke="#333333" stroke-width="2" stroke-linecap="round" stroke-linejoin="round"/>
<path d="M11.9839 11.5C12.233 8.9321 9.54325 3.5 7.5 3.5" stroke="#333333" stroke-width="2" stroke-linecap="round" stroke-linejoin="round"/>
</svg>
