<svg width="24" height="24" viewBox="0 0 24 24" fill="none" xmlns="http://www.w3.org/2000/svg">
<path d="M5.73256 9.96155C5.34091 6.2407 8.25836 3 11.9998 3C15.7412 3 18.6587 6.2407 18.267 9.96155L17.5232 17.0275C17.2257 19.8542 14.8421 22 11.9998 22C9.15751 22 6.77391 19.8542 6.47636 17.0275L5.73256 9.96155Z" stroke="#333333" stroke-width="2"/>
<path d="M7 15.5C8.74605 13.9373 12.7143 11.9149 17 15.5" stroke="#333333" stroke-width="2" stroke-linecap="round" stroke-linejoin="round"/>
<path d="M9.5 10C10.0523 10 10.5 9.55228 10.5 9C10.5 8.44772 10.0523 8 9.5 8C8.94772 8 8.5 8.44772 8.5 9C8.5 9.55228 8.94772 10 9.5 10Z" fill="#333333"/>
<path d="M10.5 18C11.0523 18 11.5 17.5523 11.5 17C11.5 16.4477 11.0523 16 10.5 16C9.94772 16 9.5 16.4477 9.5 17C9.5 17.5523 9.94772 18 10.5 18Z" fill="#333333"/>
<path d="M14.5 10C15.0523 10 15.5 9.55228 15.5 9C15.5 8.44772 15.0523 8 14.5 8C13.9477 8 13.5 8.44772 13.5 9C13.5 9.55228 13.9477 10 14.5 10Z" fill="#333333"/>
<path d="M13.5 18C14.0523 18 14.5 17.5523 14.5 17C14.5 16.4477 14.0523 16 13.5 16C12.9477 16 12.5 16.4477 12.5 17C12.5 17.5523 12.9477 18 13.5 18Z" fill="#333333"/>
<path d="M16.5 3.95631C17.5833 2.95631 20.1961 1.15249 21.5 2.45631C22.8039 3.76015 21.5 4.9563 20.5 5.2063C19.25 5.5188 18.4 6.3564 18 6.9564" stroke="#333333" stroke-width="2" stroke-linecap="round" stroke-linejoin="round"/>
<path d="M7.54801 3.95631C6.46466 2.95631 3.85186 1.15249 2.548 2.45631C1.24415 3.76015 2.548 4.9563 3.548 5.2063C4.798 5.5188 5.64801 6.3564 6.04801 6.9564" stroke="#333333" stroke-width="2" stroke-linecap="round" stroke-linejoin="round"/>
<path d="M6 12.5L6.5 17.25" stroke="#333333" stroke-width="2"/>
<path d="M18 12.5L17.5 17.25" stroke="#333333" stroke-width="2"/>
</svg>
