<svg width="24" height="24" viewBox="0 0 24 24" fill="none" xmlns="http://www.w3.org/2000/svg">
<path d="M18 13.5C18 17.1082 15.3137 22 12 22C8.6863 22 6 17.1082 6 13.5C6 9.89175 6.75 8 12 8C17.25 8 18 9.89175 18 13.5Z" stroke="#333333" stroke-width="2"/>
<path d="M18.2626 7.5127C19.2389 6.53639 20.5844 6.29895 21.2678 6.98237C21.9512 7.66579 21.7138 9.01126 20.7375 9.98757C19.7612 10.9639 18.4157 11.2013 17.7323 10.5179C17.0489 9.83449 17.2863 8.48901 18.2626 7.5127Z" stroke="#333333" stroke-width="2"/>
<path d="M3.26262 9.9873C4.23893 10.9636 5.58441 11.201 6.26782 10.5176C6.95124 9.83421 6.7138 8.48874 5.73749 7.51243C4.76118 6.53612 3.41571 6.29868 2.73229 6.9821C2.04887 7.66551 2.28631 9.01099 3.26262 9.9873Z" stroke="#333333" stroke-width="2"/>
<path d="M6 2C6 5.3137 8.6863 8 12 8C15.3137 8 18 5.3137 18 2" stroke="#333333" stroke-width="2" stroke-linecap="round"/>
<path d="M9 3.5C9 5.9853 10.3432 8 12 8C13.6568 8 15 5.9853 15 3.5" stroke="#333333" stroke-width="2" stroke-linecap="round"/>
<path d="M10 14C10.5523 14 11 13.5523 11 13C11 12.4477 10.5523 12 10 12C9.44772 12 9 12.4477 9 13C9 13.5523 9.44772 14 10 14Z" fill="#333333"/>
<path d="M12 18C12.5523 18 13 17.5523 13 17C13 16.4477 12.5523 16 12 16C11.4477 16 11 16.4477 11 17C11 17.5523 11.4477 18 12 18Z" fill="#333333"/>
<path d="M14 14C14.5523 14 15 13.5523 15 13C15 12.4477 14.5523 12 14 12C13.4477 12 13 12.4477 13 13C13 13.5523 13.4477 14 14 14Z" fill="#333333"/>
</svg>
