<svg width="24" height="24" viewBox="0 0 24 24" fill="none" xmlns="http://www.w3.org/2000/svg">
<path d="M8.50004 5L7.49994 2.5C6.41659 2.91666 4.09999 5.4 4.49999 9" stroke="#333333" stroke-width="2" stroke-linecap="round" stroke-linejoin="round"/>
<path d="M15.5 5L16.5001 2.5C17.5834 2.91666 19.9 5.4 19.5 9" stroke="#333333" stroke-width="2" stroke-linecap="round" stroke-linejoin="round"/>
<path d="M21 14.25C21 19.0825 16.9706 21.5 12 21.5C7.02945 21.5 3 19.0825 3 14.25C3 9.4175 7.02945 4.5 12 4.5C16.9706 4.5 21 9.4175 21 14.25Z" stroke="#333333" stroke-width="2"/>
<path d="M10 9.5C10.5523 9.5 11 9.05228 11 8.5C11 7.94772 10.5523 7.5 10 7.5C9.44772 7.5 9 7.94772 9 8.5C9 9.05228 9.44772 9.5 10 9.5Z" fill="#333333"/>
<path d="M14 9.5C14.5523 9.5 15 9.05228 15 8.5C15 7.94772 14.5523 7.5 14 7.5C13.4477 7.5 13 7.94772 13 8.5C13 9.05228 13.4477 9.5 14 9.5Z" fill="#333333"/>
<path d="M12 13C12 13.8285 12.25 15.75 10.5 15.75C9.67155 15.75 9 15.0785 9 14.25" stroke="#333333" stroke-width="2" stroke-linecap="round" stroke-linejoin="round"/>
<path d="M12.0123 13C12.0123 13.8285 11.7623 15.75 13.5123 15.75C14.3408 15.75 15.0123 15.0785 15.0123 14.25" stroke="#333333" stroke-width="2" stroke-linecap="round" stroke-linejoin="round"/>
<path d="M13 12.875C13 13.2202 12 13.75 12 13.75C12 13.75 11 13.2202 11 12.875C11 12.5298 11.25 12.25 12 12.25C12.75 12.25 13 12.5298 13 12.875Z" stroke="#333333" stroke-width="2" stroke-linejoin="round"/>
</svg>
