<svg width="24" height="24" viewBox="0 0 24 24" fill="none" xmlns="http://www.w3.org/2000/svg">
<path d="M11.9996 3.50001C7.11476 0.806565 4.84252 4.31601 3.99959 5.5002C1.16736 6.1092 2.57241 7.16185 3.49963 7.5002C4.10653 7.7032 5.57241 8.16165 6.49961 8.49995C6.70191 10.124 7.33106 11.5771 7.49961 12C7.49961 11.594 8.16246 10.1767 8.49961 9.49995C12.5457 11.124 15.3981 15.3008 16.9996 17.5C16.3927 18.718 15.7525 20.6541 15.4996 21.5L18.4996 20L21.9996 21C21.9996 19.3759 19.9269 17.6767 18.9996 17C19.4043 10.5038 16.3541 6.59965 14.4996 5.5C14.7019 4.68799 15.0782 3.33836 15.4996 3.00001C13.8812 2.18799 12.5897 3.07709 11.9996 3.50001Z" stroke="#333333" stroke-width="2" stroke-linecap="round" stroke-linejoin="round"/>
<path d="M8 6.5C8.55228 6.5 9 6.05228 9 5.5C9 4.94772 8.55228 4.5 8 4.5C7.44772 4.5 7 4.94772 7 5.5C7 6.05228 7.44772 6.5 8 6.5Z" fill="#333333"/>
</svg>
