<svg width="24" height="24" viewBox="0 0 24 24" fill="none" xmlns="http://www.w3.org/2000/svg">
<g clip-path="url(#clip0_5_18370)">
<mask id="mask0_5_18370" style="mask-type:luminance" maskUnits="userSpaceOnUse" x="0" y="0" width="24" height="24">
<path d="M24 0H0V24H24V0Z" fill="white"/>
</mask>
<g mask="url(#mask0_5_18370)">
<path d="M17.0107 21.2471L18.8806 19.3772C20.0522 18.2056 20.0522 16.3061 18.8806 15.1346C17.709 13.963 15.8096 13.963 14.638 15.1346L13.5225 16.2501" stroke="#333333" stroke-width="2" stroke-linecap="round"/>
<path d="M8.53717 12.7501L11.8094 9.4778C12.981 8.30625 12.981 6.40675 11.8094 5.2352C10.6379 4.06361 8.73837 4.06361 7.56677 5.2352L4.03125 8.7707" stroke="#333333" stroke-width="2" stroke-linecap="round"/>
<path d="M8.53716 12.7501L4.38454 16.9027C3.21297 18.0743 3.21297 19.9738 4.38454 21.1453C5.55611 22.3169 7.45561 22.3169 8.62716 21.1453L13.5103 16.2622" stroke="#333333" stroke-width="2" stroke-linecap="round"/>
<path d="M6.5 5.99995V1.99994" stroke="#333333" stroke-width="2" stroke-linecap="round" stroke-linejoin="round"/>
<path d="M19 15L21.5 12.5" stroke="#333333" stroke-width="2" stroke-linecap="round" stroke-linejoin="round"/>
</g>
</g>
<defs>
<clipPath id="clip0_5_18370">
<rect width="24" height="24" fill="white"/>
</clipPath>
</defs>
</svg>
