<svg width="24" height="24" viewBox="0 0 24 24" fill="none" xmlns="http://www.w3.org/2000/svg">
<path d="M3.00033 11.5004C0.980677 7.97839 4.8124 5.93185 7.00034 5.5002C14.271 -0.922175 20.243 5.3566 21.0004 9.5C21.7577 13.6434 21.5796 16.9465 22.0003 18.5004C18.7689 14.1497 16.5617 14.9207 16.0003 16.0004C14.9905 18.0721 13.3436 18.1259 12.5003 17.5004C10.4807 15.843 7.26259 19.1011 6.00034 21.0002C8.42399 16.6496 8.75284 13.8636 8.50034 13.0004C7.49049 8.85689 4.34679 10.2918 3.00033 11.5004Z" stroke="#333333" stroke-width="2" stroke-linecap="round" stroke-linejoin="round"/>
<path d="M11.5 9C12.0523 9 12.5 8.55228 12.5 8C12.5 7.44772 12.0523 7 11.5 7C10.9477 7 10.5 7.44772 10.5 8C10.5 8.55228 10.9477 9 11.5 9Z" fill="#333333"/>
</svg>
