<svg width="24" height="24" viewBox="0 0 24 24" fill="none" xmlns="http://www.w3.org/2000/svg">
<path d="M8.3971 6C6.37085 5.5558 2 6.09625 2 10.8937V20H4.93456V16.8906H13.319V20H16.2535V14.4475C16.6029 14.1513 17.2038 16.5116 18.3497 17.1127C19.0261 17.4675 19.6074 17.6984 20.2362 17.5569C21.5974 17.2505 22.2484 16.3575 21.913 14.2254C21.2842 14.9657 19.3978 15.7715 19.1882 14.2254C19.1882 12.4399 19.1882 7.78435 19.1882 7.78435C18.9785 6.45175 17.7628 3.83092 14.5767 4.0086H11.1421C9.67485 4 7.4949 6.0074 7.99795 8.6726C8.1541 9.5 8.75 11.1523 10.8518 11.3379C11.6902 11.4119 13.0767 11.0714 13.9151 9.1168" stroke="#333333" stroke-width="2" stroke-linecap="round" stroke-linejoin="round"/>
<path d="M16.5 10.5C17.0523 10.5 17.5 10.0523 17.5 9.5C17.5 8.94772 17.0523 8.5 16.5 8.5C15.9477 8.5 15.5 8.94772 15.5 9.5C15.5 10.0523 15.9477 10.5 16.5 10.5Z" fill="#333333"/>
</svg>
