<svg width="24" height="24" viewBox="0 0 24 24" fill="none" xmlns="http://www.w3.org/2000/svg">
<path d="M22 12C21.3924 14.3451 18.019 16.2333 16.5 16.4998C15.2848 19.4845 12.019 19.7663 10.5 19.4998L12.5 16.4998C10.2722 16.2866 7.51265 13.9772 6.5 13C5.19305 14.4252 3.09704 15.5402 2 15.9844C3.82279 12.1469 2.7595 8.65485 2 7.50005C3.41772 7.50005 5.57175 9.11175 6.5 10C7.51265 8.93405 10.981 7.44395 12.5 6.99985L10.5 4.49989C14.3481 4.0735 16.078 5.934 16.5 7C20.3481 7.8528 21.8312 10.8452 22 12Z" stroke="#333333" stroke-width="2" stroke-linecap="round" stroke-linejoin="round"/>
<path d="M18 13.0001C18.5523 13.0001 19 12.5523 19 12.0001C19 11.4478 18.5523 11.0001 18 11.0001C17.4477 11.0001 17 11.4478 17 12.0001C17 12.5523 17.4477 13.0001 18 13.0001Z" fill="#333333"/>
</svg>
