<svg width="24" height="24" viewBox="0 0 24 24" fill="none" xmlns="http://www.w3.org/2000/svg">
<path d="M9.55075 5.4471C9.76305 5.83445 9.87155 6.2613 9.886 6.70305C10.4894 6.62265 11.1126 6.58055 11.7502 6.58055C12.5648 6.58055 13.3561 6.6493 14.1125 6.77885C14.1164 6.31015 14.2249 5.85655 14.4493 5.4471C15.3288 3.84251 17.6566 3.52381 19.6486 4.73529C21.6407 5.94675 22.5426 8.22965 21.6631 9.83425C21.4493 10.2243 21.1499 10.5384 20.7906 10.773C21.248 11.5503 21.5 12.4001 21.5 13.2903C21.5 16.996 17.1349 20 11.7502 20C6.3654 20 2.00026 16.996 2.00026 13.2903C2.00026 12.2997 2.31217 11.3593 2.87208 10.513C2.66061 10.3213 2.47966 10.0947 2.33689 9.83425C1.45739 8.22965 2.3593 5.94675 4.35135 4.73529C6.3434 3.52381 8.67125 3.84251 9.55075 5.4471Z" stroke="#333333" stroke-width="2" stroke-linejoin="round"/>
<path d="M6 9.5C6.55228 9.5 7 9.05228 7 8.5C7 7.94772 6.55228 7.5 6 7.5C5.44772 7.5 5 7.94772 5 8.5C5 9.05228 5.44772 9.5 6 9.5Z" fill="#333333"/>
<path d="M10.0781 15.2881C10.6304 15.2881 11.0781 14.8404 11.0781 14.2881C11.0781 13.7358 10.6304 13.2881 10.0781 13.2881C9.52584 13.2881 9.07812 13.7358 9.07812 14.2881C9.07812 14.8404 9.52584 15.2881 10.0781 15.2881Z" fill="#333333"/>
<path d="M14.0781 15.2881C14.6304 15.2881 15.0781 14.8404 15.0781 14.2881C15.0781 13.7358 14.6304 13.2881 14.0781 13.2881C13.5258 13.2881 13.0781 13.7358 13.0781 14.2881C13.0781 14.8404 13.5258 15.2881 14.0781 15.2881Z" fill="#333333"/>
<path d="M18 9.5C18.5523 9.5 19 9.05228 19 8.5C19 7.94772 18.5523 7.5 18 7.5C17.4477 7.5 17 7.94772 17 8.5C17 9.05228 17.4477 9.5 18 9.5Z" fill="#333333"/>
</svg>
