<svg width="24" height="24" viewBox="0 0 24 24" fill="none" xmlns="http://www.w3.org/2000/svg">
<path d="M17.5 12.5H6.5C4.84315 12.5 3.5 13.8431 3.5 15.5V18.5C3.5 20.1569 4.84315 21.5 6.5 21.5H17.5C19.1569 21.5 20.5 20.1569 20.5 18.5V15.5C20.5 13.8431 19.1569 12.5 17.5 12.5Z" stroke="#333333" stroke-width="2" stroke-linejoin="round"/>
<path d="M8.5 18.5C9.32843 18.5 10 17.8284 10 17C10 16.1716 9.32843 15.5 8.5 15.5C7.67157 15.5 7 16.1716 7 17C7 17.8284 7.67157 18.5 8.5 18.5Z" stroke="#333333" stroke-width="2"/>
<path d="M15.5 18.5C16.3284 18.5 17 17.8284 17 17C17 16.1716 16.3284 15.5 15.5 15.5C14.6716 15.5 14 16.1716 14 17C14 17.8284 14.6716 18.5 15.5 18.5Z" stroke="#333333" stroke-width="2"/>
<path d="M5.5 9.5C5.5 7.84315 6.84315 6.5 8.5 6.5H15.5C17.1568 6.5 18.5 7.84315 18.5 9.5V12.5H5.5V9.5Z" stroke="#333333" stroke-width="2" stroke-linejoin="round"/>
<path d="M10 10.5C10.5523 10.5 11 10.0523 11 9.5C11 8.94772 10.5523 8.5 10 8.5C9.44772 8.5 9 8.94772 9 9.5C9 10.0523 9.44772 10.5 10 10.5Z" fill="#333333"/>
<path d="M14 10.5C14.5523 10.5 15 10.0523 15 9.5C15 8.94772 14.5523 8.5 14 8.5C13.4477 8.5 13 8.94772 13 9.5C13 10.0523 13.4477 10.5 14 10.5Z" fill="#333333"/>
<path d="M9 2.5C9.82845 2.5 10.5 3.17158 10.5 4V6.5H7.5V4C7.5 3.17158 8.17155 2.5 9 2.5Z" stroke="#333333" stroke-width="2" stroke-linejoin="round"/>
<path d="M15 2.5C15.8285 2.5 16.5 3.17158 16.5 4V6.5H13.5V4C13.5 3.17158 14.1715 2.5 15 2.5Z" stroke="#333333" stroke-width="2" stroke-linejoin="round"/>
</svg>
