<svg width="24" height="24" viewBox="0 0 24 24" fill="none" xmlns="http://www.w3.org/2000/svg">
<path d="M12 20.5C16.1421 20.5 19.5 17.1421 19.5 13C19.5 8.85786 16.1421 5.5 12 5.5C7.85786 5.5 4.5 8.85786 4.5 13C4.5 17.1421 7.85786 20.5 12 20.5Z" stroke="#333333" stroke-width="2"/>
<path d="M10.5 15.7812C10.5 14.832 12 12 12 12C12 12 13.5 14.832 13.5 15.7812C13.5 16.7305 12.8285 17.5 12 17.5C11.1715 17.5 10.5 16.7305 10.5 15.7812Z" stroke="#333333" stroke-width="2" stroke-linejoin="round"/>
<path d="M8.51953 12.7466C9.07182 12.7466 9.51953 12.2989 9.51953 11.7466C9.51953 11.1943 9.07182 10.7466 8.51953 10.7466C7.96725 10.7466 7.51953 11.1943 7.51953 11.7466C7.51953 12.2989 7.96725 12.7466 8.51953 12.7466Z" fill="#333333"/>
<path d="M15.5195 12.7466C16.0718 12.7466 16.5195 12.2989 16.5195 11.7466C16.5195 11.1943 16.0718 10.7466 15.5195 10.7466C14.9672 10.7466 14.5195 11.1943 14.5195 11.7466C14.5195 12.2989 14.9672 12.7466 15.5195 12.7466Z" fill="#333333"/>
<path d="M8.5 5.96345C7.8107 4.76223 4.24725 3.04659 2.67479 4.65297C2.00696 5.2089 1.49297 7.72495 2.86352 11.5L5 9.9899" stroke="#333333" stroke-width="2" stroke-linecap="round" stroke-linejoin="round"/>
<path d="M15.5 5.96345C16.1893 4.76223 19.7527 3.0466 21.3252 4.65297C21.993 5.2089 22.507 7.72495 21.1365 11.5L19 9.9901" stroke="#333333" stroke-width="2" stroke-linecap="round" stroke-linejoin="round"/>
</svg>
