<svg width="24" height="24" viewBox="0 0 24 24" fill="none" xmlns="http://www.w3.org/2000/svg">
<path d="M6.6 10.5C6.2156 9.7655 6 8.94085 6 8.06945C6 4.99352 8.6863 2.5 12 2.5C15.3137 2.5 18 4.99352 18 8.06945C18 8.94085 17.7844 9.7655 17.4 10.5" stroke="#333333" stroke-width="2"/>
<path d="M12 21.5C16.1421 21.5 19.5 18.8137 19.5 15.5C19.5 12.1863 16.1421 9.5 12 9.5C7.85786 9.5 4.5 12.1863 4.5 15.5C4.5 18.8137 7.85786 21.5 12 21.5Z" stroke="#333333" stroke-width="2"/>
<path d="M15.2589 16.9371C13.4243 18.7716 10.3982 18.72 8.5 16.8217" stroke="#333333" stroke-width="2" stroke-linecap="round"/>
<path d="M6 11.5C4.34315 11.5 3 10.3807 3 9C3 7.6193 4.34315 6.5 6 6.5" stroke="#333333" stroke-width="2" stroke-linecap="round"/>
<path d="M18 11.5C19.6568 11.5 21 10.3807 21 9C21 7.6193 19.6568 6.5 18 6.5" stroke="#333333" stroke-width="2" stroke-linecap="round"/>
<path d="M10 8C10.5523 8 11 7.55228 11 7C11 6.44772 10.5523 6 10 6C9.44772 6 9 6.44772 9 7C9 7.55228 9.44772 8 10 8Z" fill="#333333"/>
<path d="M14 8C14.5523 8 15 7.55228 15 7C15 6.44772 14.5523 6 14 6C13.4477 6 13 6.44772 13 7C13 7.55228 13.4477 8 14 8Z" fill="#333333"/>
</svg>
