<svg width="24" height="24" viewBox="0 0 24 24" fill="none" xmlns="http://www.w3.org/2000/svg">
<path d="M10.7963 9.06724C11.4665 8.33519 12.254 6.57834 10.0423 5.40704C9.53965 5.08169 9.25 4.25 8.7857 2.72291C6.8589 1.66552 2.5 1.50008 2 7.00019V22" stroke="#333333" stroke-width="2" stroke-linecap="round" stroke-linejoin="round"/>
<path d="M8.5 12.5C10.7909 13.3365 14.0166 15.1271 16 20.5C16.7667 22.3771 20.2534 22.9352 21.75 20C22.2489 19.0216 22 17.2517 19.7909 16.2251C18.2307 15.5001 17 13 19.25 12.0001C20.1739 11.6985 21.2146 12.04 22 13.5001" stroke="#333333" stroke-width="2" stroke-linecap="round" stroke-linejoin="round"/>
<path d="M14.5 17.5002C12.3276 16.9471 7.8862 17.2593 7.5 22" stroke="#333333" stroke-width="2" stroke-linecap="round" stroke-linejoin="round"/>
</svg>
