<svg width="24" height="24" viewBox="0 0 24 24" fill="none" xmlns="http://www.w3.org/2000/svg">
<path d="M3.17913 3.65477C4.5098 5.5791 6.272 6.20115 7.1091 6.26225C8.53665 5.56365 10.2104 5.1616 12 5.1616C13.7897 5.1616 15.4634 5.5636 16.8909 6.26225C17.728 6.20115 19.4902 5.5791 20.8209 3.65477C21.1994 3.2443 22.3361 3.43565 21.9032 6.94155C21.7587 7.81925 21.3593 9.7342 21.0949 10.6866C21.3391 11.367 21.4699 12.0866 21.4699 12.8308C21.4699 17.0664 17.2301 20.5 12 20.5C6.7699 20.5 2.53005 17.0664 2.53005 12.8308C2.53005 12.0866 2.66095 11.367 2.90513 10.6866C2.64069 9.7342 2.24133 7.81925 2.09685 6.94155C1.66394 3.43565 2.80063 3.2443 3.17913 3.65477Z" stroke="#333333" stroke-width="2" stroke-linecap="round" stroke-linejoin="round"/>
<path d="M12.5 15.625C12.5 15.9702 12 17.5 12 17.5C12 17.5 11.5 15.9702 11.5 15.625C11.5 15.2798 11.7239 15 12 15C12.2761 15 12.5 15.2798 12.5 15.625Z" stroke="#333333" stroke-width="2" stroke-linejoin="round"/>
<path d="M8.5 13C9.60457 13 10.5 12.1046 10.5 11C10.5 9.89543 9.60457 9 8.5 9C7.39543 9 6.5 9.89543 6.5 11C6.5 12.1046 7.39543 13 8.5 13Z" stroke="#333333" stroke-width="2"/>
<path d="M15.5 13C16.6046 13 17.5 12.1046 17.5 11C17.5 9.89543 16.6046 9 15.5 9C14.3954 9 13.5 9.89543 13.5 11C13.5 12.1046 14.3954 13 15.5 13Z" stroke="#333333" stroke-width="2"/>
</svg>
