<svg width="24" height="24" viewBox="0 0 24 24" fill="none" xmlns="http://www.w3.org/2000/svg">
<path d="M12 22C16.9706 22 21 18.1944 21 13.5C21 8.80558 16.9706 5 12 5C7.02944 5 3 8.80558 3 13.5C3 18.1944 7.02944 22 12 22Z" stroke="#333333" stroke-width="2"/>
<path d="M7.94877 14.252C8.74897 14.4664 9.62941 13.7753 9.9153 12.7083C10.2012 11.6414 9.78424 10.6027 8.98404 10.3883C8.18385 10.1738 7.3034 10.8649 7.01752 11.9319C6.73163 12.9988 7.14857 14.0375 7.94877 14.252Z" stroke="#333333" stroke-width="2"/>
<path d="M15.9838 14.252C15.1836 14.4664 14.3032 13.7753 14.0173 12.7083C13.7314 11.6414 14.1484 10.6027 14.9486 10.3883C15.7488 10.1738 16.6292 10.865 16.9151 11.9319C17.201 12.9988 16.784 14.0376 15.9838 14.252Z" stroke="#333333" stroke-width="2"/>
<path d="M20.4999 10.4995C22.062 8.93741 22.2189 6.39021 20.6568 4.82809C19.0947 3.26599 16.0621 3.43755 14.5 4.99965" stroke="#333333" stroke-width="2" stroke-linecap="round"/>
<path d="M3.50026 10.4998C1.93816 8.93765 1.76638 6.39035 3.32848 4.82828C4.89057 3.26618 7.93816 3.43766 9.50026 4.99976" stroke="#333333" stroke-width="2" stroke-linecap="round"/>
<path d="M10 17.5C10.25 18.1467 11.1 19.1385 12.5 17.9312C13.9 19.1385 14.75 18.1467 15 17.5" stroke="#333333" stroke-width="2" stroke-linecap="round" stroke-linejoin="round"/>
</svg>
