<svg width="24" height="24" viewBox="0 0 24 24" fill="none" xmlns="http://www.w3.org/2000/svg">
<path d="M6.49981 13.5C7.53611 13.2291 9.50686 11.9166 9.99981 11.5V8L6.99981 7C6.79441 6.1898 6.15706 4.55555 5.49981 4L4.7757 6.25695C3.47486 6.83565 1.34958 9.44445 2.4998 12.5C2.9998 13.5 4.03826 17 5.49981 19.5" stroke="#333333" stroke-width="2" stroke-linecap="round" stroke-linejoin="round"/>
<path d="M12 6.60273C14.1955 6.23948 18.7623 6.63903 19.4648 11.1432C19.6112 11.8092 19.3771 15.0044 17.2693 16.4573C16.8448 16.75 16.5 18 16.5 19.5" stroke="#333333" stroke-width="2" stroke-linecap="round" stroke-linejoin="round"/>
<path d="M13 20C13 18.8954 12.1046 18 11 18C9.89545 18 9 18.8954 9 20" stroke="#333333" stroke-width="2" stroke-linecap="round"/>
<path d="M19.5 12C19.75 12.5 20.8492 12.8347 21.6138 12.0508C22.0589 11.5945 22.4233 10.1669 21.299 9.5" stroke="#333333" stroke-width="2" stroke-linecap="round" stroke-linejoin="round"/>
</svg>
