<svg width="24" height="24" viewBox="0 0 24 24" fill="none" xmlns="http://www.w3.org/2000/svg">
<path d="M7.0269 4.82208C7.2981 5.09275 7.53665 5.4074 7.7339 5.7447C8.9635 4.97595 10.4175 4.53151 11.9755 4.53151C13.5487 4.53151 15.0158 4.98463 16.253 5.76725C16.4527 5.4214 16.6958 5.09875 16.9731 4.82209C18.2336 3.56413 20.4462 3.01021 21.4685 4.03042C22.4908 5.0506 21.9357 7.2586 20.6752 8.5166C20.3008 8.89025 19.8424 9.20175 19.3561 9.4284C19.7555 10.3782 19.9762 11.4212 19.9762 12.5158C19.9762 16.9254 16.3942 20.5 11.9755 20.5C7.5569 20.5 3.97489 16.9254 3.97489 12.5158C3.97489 11.4139 4.19857 10.3641 4.6031 9.40915C4.13202 9.18425 3.68873 8.87975 3.32479 8.51655C2.06424 7.2586 1.50918 5.0506 2.53149 4.0304C3.55379 3.01019 5.76635 3.56411 7.0269 4.82208Z" stroke="#333333" stroke-width="2" stroke-linejoin="round"/>
<path d="M12 18C14.2091 18 16 16.433 16 14.5C16 12.567 14.2091 11 12 11C9.79086 11 8 12.567 8 14.5C8 16.433 9.79086 18 12 18Z" stroke="#333333" stroke-width="2"/>
<path d="M8.5 10C9.05228 10 9.5 9.55228 9.5 9C9.5 8.44772 9.05228 8 8.5 8C7.94772 8 7.5 8.44772 7.5 9C7.5 9.55228 7.94772 10 8.5 10Z" fill="#333333"/>
<path d="M10.5 15.5C11.0523 15.5 11.5 15.0523 11.5 14.5C11.5 13.9477 11.0523 13.5 10.5 13.5C9.94772 13.5 9.5 13.9477 9.5 14.5C9.5 15.0523 9.94772 15.5 10.5 15.5Z" fill="#333333"/>
<path d="M15.5 10C16.0523 10 16.5 9.55228 16.5 9C16.5 8.44772 16.0523 8 15.5 8C14.9477 8 14.5 8.44772 14.5 9C14.5 9.55228 14.9477 10 15.5 10Z" fill="#333333"/>
<path d="M13.5 15.5C14.0523 15.5 14.5 15.0523 14.5 14.5C14.5 13.9477 14.0523 13.5 13.5 13.5C12.9477 13.5 12.5 13.9477 12.5 14.5C12.5 15.0523 12.9477 15.5 13.5 15.5Z" fill="#333333"/>
</svg>
