<svg width="24" height="24" viewBox="0 0 24 24" fill="none" xmlns="http://www.w3.org/2000/svg">
<path d="M6.99931 13C6.47966 12.1037 5.92486 10.2244 8.00356 7.8778C8.60986 7.3074 9.40671 6.5578 10.8618 6.16665C12.4208 5.43335 13.2003 4.26 12.1609 2.5C12.9404 2.98889 14.4994 4.84666 14.4994 8.36665" stroke="#333333" stroke-width="2" stroke-linecap="round" stroke-linejoin="round"/>
<path d="M8.12635 13.9648C4 11.7857 2.25526 15.0977 2 16.8773C4 16.8773 6.3395 18.3331 7.36055 19.7892C9.19845 22.119 12.0403 21.5689 13.2316 21.0026C16.9074 19.0611 18.1667 19.223 18.3368 19.5466C18.5411 21.0998 19.1027 21.4881 19.358 21.4881C21.1959 21.6822 21.8255 19.4656 21.9105 18.3331C22.319 13.6735 21.2299 13.4794 20.6343 13.9648C18.1837 16.877 16.7202 17.4433 16.2948 17.3624C14.4569 16.9741 14.6781 16.2298 15.0184 15.9062C18.2858 13.1881 18.2518 7.16955 17.8263 4.5C16.6011 7.41225 14.593 8.62565 13.7422 8.86835C8.63685 10.2274 7.87105 12.8322 8.12635 13.9648Z" stroke="#333333" stroke-width="2" stroke-linecap="round" stroke-linejoin="round"/>
<path d="M6 16.7061C6.55228 16.7061 7 16.2583 7 15.7061C7 15.1538 6.55228 14.7061 6 14.7061C5.44772 14.7061 5 15.1538 5 15.7061C5 16.2583 5.44772 16.7061 6 16.7061Z" fill="#333333"/>
</svg>
