<svg width="24" height="24" viewBox="0 0 24 24" fill="none" xmlns="http://www.w3.org/2000/svg">
<path d="M12 22C16.6944 22 20.5 19.3137 20.5 16C20.5 12.6863 16.6944 10 12 10C7.30558 10 3.5 12.6863 3.5 16C3.5 19.3137 7.30558 22 12 22Z" stroke="#333333" stroke-width="2"/>
<path d="M9 15.7061C9.55228 15.7061 10 15.2583 10 14.7061C10 14.1538 9.55228 13.7061 9 13.7061C8.44772 13.7061 8 14.1538 8 14.7061C8 15.2583 8.44772 15.7061 9 15.7061Z" fill="#333333"/>
<path d="M12 18.7061C12.5523 18.7061 13 18.2583 13 17.7061C13 17.1538 12.5523 16.7061 12 16.7061C11.4477 16.7061 11 17.1538 11 17.7061C11 18.2583 11.4477 18.7061 12 18.7061Z" fill="#333333"/>
<path d="M15 15.7061C15.5523 15.7061 16 15.2583 16 14.7061C16 14.1538 15.5523 13.7061 15 13.7061C14.4477 13.7061 14 14.1538 14 14.7061C14 15.2583 14.4477 15.7061 15 15.7061Z" fill="#333333"/>
<path d="M6.3336 11C5.67605 9.41665 4.53017 5.55635 5.2065 2.95637C5.39435 2.45637 6.1082 1.60637 7.46085 2.20637C7.6487 2.28968 8.0808 2.6063 8.30625 3.2063C8.86985 4.2063 8.02445 10.5 8.02445 10.5" stroke="#333333" stroke-width="2" stroke-linecap="round" stroke-linejoin="round"/>
<path d="M17.6936 11C18.3513 9.41665 19.4662 5.55635 18.7897 2.95637C18.6018 2.45637 17.8877 1.60637 16.5347 2.20637C16.3468 2.28968 15.9146 2.6063 15.689 3.2063C15.1253 4.2063 16.0022 10 16.0022 10" stroke="#333333" stroke-width="2" stroke-linecap="round" stroke-linejoin="round"/>
</svg>
