<svg width="24" height="24" viewBox="0 0 24 24" fill="none" xmlns="http://www.w3.org/2000/svg">
<path d="M3 22V12C3.08333 11.1667 3.6 8.5999 6 6.9999L4 4.99987C3 3.77393 3.75 1.00012 6.5 1.99999C7.5 2.50012 8 3.25012 8.75 4.00012L12 7.5001C12.3334 8.0001 13.25 8.9045 13 11.2261" stroke="#333333" stroke-width="2" stroke-linecap="round" stroke-linejoin="round"/>
<path d="M8 12.5002C10.5 12.5002 15.5 14.0002 17 18.0002C17.3334 19.1312 17.75 20.9997 18 21.9997" stroke="#333333" stroke-width="2" stroke-linecap="round" stroke-linejoin="round"/>
<path d="M9 21.9998C9 20.0546 10.4 15.9789 16 16.7259" stroke="#333333" stroke-width="2" stroke-linecap="round" stroke-linejoin="round"/>
<path d="M20.25 21.7259C20.8023 21.7259 21.25 21.2782 21.25 20.7259C21.25 20.1736 20.8023 19.7259 20.25 19.7259C19.6977 19.7259 19.25 20.1736 19.25 20.7259C19.25 21.2782 19.6977 21.7259 20.25 21.7259Z" fill="#333333"/>
</svg>
