<svg width="24" height="24" viewBox="0 0 24 24" fill="none" xmlns="http://www.w3.org/2000/svg">
<path d="M2.49945 6.9999C1.74944 5.7499 1.49947 3 3.99946 2.49983C4.99946 2.42512 5.74946 2.75005 6.99946 3.99989L12.4995 9.9999L10.9995 11.9999" stroke="#333333" stroke-width="2" stroke-linecap="round" stroke-linejoin="round"/>
<path d="M9.50019 7.00006C7.46454 7.35356 3.50023 9.00006 4.00023 14.0001C4.25023 15.5001 4.92983 16.9728 6.50019 18.5001V21.0001" stroke="#333333" stroke-width="2" stroke-linecap="round" stroke-linejoin="round"/>
<path d="M14.5 8.49989C16.6107 8.28509 21.1557 8.71939 22 12.4999C22.2814 13.4307 22.0328 16.0787 19.5 19V21" stroke="#333333" stroke-width="2" stroke-linecap="round" stroke-linejoin="round"/>
<path d="M16.5 21.0001C16.5 19.0671 14.8003 18.0001 13 18.0001C11.1997 18.0001 9.5 19.0671 9.5 21.0001" stroke="#333333" stroke-width="2" stroke-linecap="round"/>
</svg>
