<svg width="24" height="24" viewBox="0 0 24 24" fill="none" xmlns="http://www.w3.org/2000/svg">
<path d="M3 22V7.5C3 6.75 3.5 4.9 5.5 3.5L4.25 2C5.08335 2 7.05 2.3 8.25 3.5C10.3333 3.33333 15 4.5 13.25 7.5C12.805 8.16745 12 8.5 10.5 8.5" stroke="#333333" stroke-width="2" stroke-linecap="round" stroke-linejoin="round"/>
<path d="M9.5 12C11.5 12 15.5 14.5 15.5 19C15.5 20 16 21.4417 18.0672 21.2008C19.5 21.0337 20.8134 20.0262 21.5 17.938" stroke="#333333" stroke-width="2" stroke-linecap="round" stroke-linejoin="round"/>
<path d="M8.5 22.0002C8.5 20.0001 9.5 17.5002 13.5 17.5002H15" stroke="#333333" stroke-width="2" stroke-linecap="round" stroke-linejoin="round"/>
</svg>
