<svg width="24" height="24" viewBox="0 0 24 24" fill="none" xmlns="http://www.w3.org/2000/svg">
<path d="M8.03455 6.5C3.12668 6.6747 2.33792 10.5032 2.55702 12.3956C1.68058 13.9678 1.94799 14.3609 2.6052 15.016C5.89175 18.073 12.0267 17.8546 14.875 16.7628C17.8548 15.54 19.3743 13.2373 19.5203 12C22.1495 10.2531 22.2031 7.30065 21.838 6.5C21.448 7.15505 20.3237 7.63605 19.5203 8C18.6439 8.1747 17.383 7.519 17.0178 6.9367C16.7672 8.25 17.0178 9.25 17.6751 9.77535C18.8188 10.6488 18.2377 11.5317 18.0186 11.75C17.0703 12.6951 15.2654 12.2453 14.3886 10.8672C12.0267 7.15505 9.49525 6.5 8.03455 6.5Z" stroke="#333333" stroke-width="2" stroke-linecap="round" stroke-linejoin="round"/>
<path d="M2.5 14C3.91666 14.2661 6.7 14.7771 8.5 13.5" stroke="#333333" stroke-width="2" stroke-linecap="round" stroke-linejoin="round"/>
<path d="M6 11C6.55228 11 7 10.5523 7 10C7 9.44772 6.55228 9 6 9C5.44772 9 5 9.44772 5 10C5 10.5523 5.44772 11 6 11Z" fill="#333333"/>
</svg>
