<svg width="24" height="24" viewBox="0 0 24 24" fill="none" xmlns="http://www.w3.org/2000/svg">
<path d="M12 22C17.5229 22 22 17.5229 22 12C22 6.47715 17.5229 2 12 2C6.47715 2 2 6.47715 2 12C2 17.5229 6.47715 22 12 22Z" stroke="#333333" stroke-width="2" stroke-linecap="round" stroke-linejoin="round"/>
<path d="M13.0608 10.9395L10.9395 13.0608" stroke="#333333" stroke-width="2" stroke-linecap="round" stroke-linejoin="round"/>
<path d="M16.2428 13.4146L16.9499 12.7075C17.7309 11.9265 17.7309 10.6601 16.9499 9.87908L14.1215 7.05063C13.3404 6.26958 12.0741 6.26958 11.293 7.05063L10.5859 7.75778" stroke="#333333" stroke-width="2" stroke-linecap="round" stroke-linejoin="round"/>
<path d="M13.4146 16.2428L12.7075 16.9499C11.9264 17.7309 10.6601 17.7309 9.87908 16.9499L7.05063 14.1215C6.26958 13.3404 6.26958 12.0741 7.05063 11.293L7.75773 10.5859" stroke="#333333" stroke-width="2" stroke-linecap="round" stroke-linejoin="round"/>
</svg>
