<svg width="24" height="24" viewBox="0 0 24 24" fill="none" xmlns="http://www.w3.org/2000/svg">
<path d="M2.5 3C2.5 2.72386 2.72386 2.5 3 2.5H8C8.27615 2.5 8.5 2.72386 8.5 3V21C8.5 21.2761 8.27615 21.5 8 21.5H3C2.72386 21.5 2.5 21.2761 2.5 21V3Z" stroke="#333333" stroke-width="2" stroke-linejoin="round"/>
<path d="M5.5 18.5C6.05228 18.5 6.5 18.0523 6.5 17.5C6.5 16.9477 6.05228 16.5 5.5 16.5C4.94772 16.5 4.5 16.9477 4.5 17.5C4.5 18.0523 4.94772 18.5 5.5 18.5Z" fill="#333333"/>
<path d="M5.5 5.5V12.5" stroke="#333333" stroke-width="2" stroke-linecap="round" stroke-linejoin="round"/>
<path d="M11.9892 4.87797L17.019 3.62051C17.2855 3.55389 17.5558 3.71469 17.6244 3.98064L21.3745 18.5124C21.4439 18.7812 21.281 19.055 21.0117 19.1224L15.9818 20.3798C15.7154 20.4464 15.4451 20.2856 15.3764 20.0197L11.6263 5.48796C11.5569 5.21916 11.7199 4.9453 11.9892 4.87797Z" stroke="#333333" stroke-width="2" stroke-linecap="round" stroke-linejoin="round"/>
<path d="M17.5 17C18.0523 17 18.5 16.5523 18.5 16C18.5 15.4477 18.0523 15 17.5 15C16.9477 15 16.5 15.4477 16.5 16C16.5 16.5523 16.9477 17 17.5 17Z" fill="#333333"/>
<path d="M15.5 8L16.75 13" stroke="#333333" stroke-width="2" stroke-linecap="round" stroke-linejoin="round"/>
</svg>
