<svg width="24" height="24" viewBox="0 0 24 24" fill="none" xmlns="http://www.w3.org/2000/svg">
<path d="M11.5249 4.89392C12.3378 4.6761 13.1706 5.1482 13.385 5.9484C13.5994 6.7486 13.1142 7.5739 12.3013 7.7917C11.4884 8.0095 3.35449 8.49965 3.35449 8.49965C3.35449 8.49965 10.712 5.11175 11.5249 4.89392Z" stroke="#333333" stroke-width="2" stroke-linejoin="round"/>
<path d="M11.5532 19.2234C12.3661 19.4412 13.1989 18.9691 13.4133 18.1689C13.6277 17.3687 13.1425 16.5434 12.3296 16.3256C11.5167 16.1078 3.38281 15.502 3.38281 15.502C3.38281 15.502 10.7403 19.0055 11.5532 19.2234Z" stroke="#333333" stroke-width="2" stroke-linejoin="round"/>
<path d="M16.9998 8.00195C17.4559 7.39475 18.1821 7.00195 19 7.00195C20.3807 7.00195 21.5 8.12125 21.5 9.50195C21.5 10.8827 20.3807 12.002 19 12.002H8" stroke="#333333" stroke-width="2" stroke-linecap="round"/>
</svg>
