<svg width="24" height="24" viewBox="0 0 24 24" fill="none" xmlns="http://www.w3.org/2000/svg">
<path d="M5.53754 18.5396C3.84456 19.2705 3.0183 20.2621 2.68272 20.9547C2.54987 21.2289 2.7733 21.5 3.07798 21.5H13.6935C14.0647 21.5 14.2996 21.1118 14.0832 20.8102C13.2086 19.591 11.8912 18.8213 11.1946 18.5341C11.1381 18.5108 11.0776 18.5 11.0164 18.5H5.73104C5.66484 18.5 5.59839 18.5134 5.53754 18.5396Z" stroke="#333333" stroke-width="2" stroke-linecap="round" stroke-linejoin="round"/>
<path d="M9.86621 5.09761L7.36621 9.42773L11.6963 11.9277L14.1963 7.59761L9.86621 5.09761Z" stroke="#333333" stroke-width="2" stroke-linejoin="round"/>
<path d="M13.6965 8.46402L14.1965 7.59802C13.7182 7.32187 13.1066 7.48572 12.8304 7.96402L13.6965 8.46402ZM12.1965 11.0621L11.3304 10.5621C11.0543 11.0404 11.2182 11.652 11.6965 11.9281L12.1965 11.0621ZM13.1965 9.33007L19.6917 13.0801L20.6917 11.348L14.1965 7.59802L13.1965 9.33007ZM19.1917 13.9461L12.6965 10.1961L11.6965 11.9281L18.1917 15.6781L19.1917 13.9461ZM13.0625 11.5621L14.5625 8.96402L12.8304 7.96402L11.3304 10.5621L13.0625 11.5621ZM19.8747 13.7631C19.7366 14.0022 19.4308 14.0842 19.1917 13.9461L18.1917 15.6781C19.3874 16.3685 20.9164 15.9588 21.6067 14.7631L19.8747 13.7631ZM19.6917 13.0801C19.9308 13.2181 20.0127 13.5239 19.8747 13.7631L21.6067 14.7631C22.2971 13.5673 21.8874 12.0384 20.6917 11.348L19.6917 13.0801Z" fill="#333333"/>
<path d="M15.2631 4.75L11.799 2.75C11.0816 2.33579 10.1642 2.5816 9.75 3.29904C9.33579 4.01648 9.5816 4.93386 10.299 5.34808L13.7631 7.34808C14.4806 7.76229 15.398 7.51648 15.8122 6.79904C16.2264 6.0816 15.9806 5.16421 15.2631 4.75Z" stroke="#333333" stroke-width="2" stroke-linejoin="round"/>
<path d="M11.2631 11.6777L7.79904 9.67773C7.0816 9.26352 6.16421 9.50933 5.75 10.2268C5.33579 10.9442 5.5816 11.8616 6.29904 12.2758L9.76314 14.2758C10.4806 14.69 11.398 14.4442 11.8122 13.7268C12.2264 13.0093 11.9806 12.0919 11.2631 11.6777Z" stroke="#333333" stroke-width="2" stroke-linejoin="round"/>
</svg>
