<svg width="24" height="24" viewBox="0 0 24 24" fill="none" xmlns="http://www.w3.org/2000/svg">
<path d="M6 20C7.933 20 9.5 18.433 9.5 16.5C9.5 14.567 7.933 13 6 13C4.067 13 2.5 14.567 2.5 16.5C2.5 18.433 4.067 20 6 20Z" stroke="#333333" stroke-width="2"/>
<path d="M14.5 16.5C14.5 14.8432 13.75 13.5 12 13.5C10.25 13.5 9.5 14.8432 9.5 16.5" stroke="#333333" stroke-width="2" stroke-linecap="round"/>
<path d="M18 20C19.933 20 21.5 18.433 21.5 16.5C21.5 14.567 19.933 13 18 13C16.067 13 14.5 14.567 14.5 16.5C14.5 18.433 16.067 20 18 20Z" stroke="#333333" stroke-width="2"/>
<path d="M7 4H6C4.34315 4 3 5.34315 3 7V11" stroke="#333333" stroke-width="2" stroke-linecap="round"/>
<path d="M17 4H18C19.6568 4 21 5.34315 21 7V11" stroke="#333333" stroke-width="2" stroke-linecap="round"/>
</svg>
