<svg width="24" height="24" viewBox="0 0 24 24" fill="none" xmlns="http://www.w3.org/2000/svg">
<path d="M12 2V10.5" stroke="#333333" stroke-width="2" stroke-linecap="round" stroke-linejoin="round"/>
<path d="M12 2C6.47715 2 2 6.47715 2 12C2 17.5229 6.47715 22 12 22C17.5229 22 22 17.5229 22 12C22 9.68715 21.2148 7.5577 19.8965 5.86365" stroke="#333333" stroke-width="2" stroke-linecap="round"/>
<path d="M12 6.5C8.96245 6.5 6.5 8.96245 6.5 12C6.5 15.0375 8.96245 17.5 12 17.5C15.0375 17.5 17.5 15.0375 17.5 12C17.5 10.7279 17.0681 9.55675 16.3431 8.625" stroke="#333333" stroke-width="2" stroke-linecap="round"/>
<path d="M12 13.5C12.8284 13.5 13.5 12.8284 13.5 12C13.5 11.1716 12.8284 10.5 12 10.5C11.1716 10.5 10.5 11.1716 10.5 12C10.5 12.8284 11.1716 13.5 12 13.5Z" stroke="#333333" stroke-width="2"/>
</svg>
