<svg width="24" height="24" viewBox="0 0 24 24" fill="none" xmlns="http://www.w3.org/2000/svg">
<path d="M8.5 10.7285C6.47145 11.3657 5 13.2608 5 15.4996C5 18.2611 7.2386 20.4996 10 20.4996C11.6358 20.4996 13.0882 19.7141 14.0003 18.4996C14.1202 18.3401 14.2308 18.1731 14.3312 17.9995" stroke="#333333" stroke-width="2" stroke-linecap="round"/>
<path d="M19 10C17 10 15.25 9.75 12 8.5V14.5H19V21.5" stroke="#333333" stroke-width="2" stroke-linecap="round" stroke-linejoin="round"/>
<path d="M12 6C13.1046 6 14 5.10457 14 4C14 2.89543 13.1046 2 12 2C10.8954 2 10 2.89543 10 4C10 5.10457 10.8954 6 12 6Z" stroke="#333333" stroke-width="2"/>
</svg>
