<svg width="24" height="24" viewBox="0 0 24 24" fill="none" xmlns="http://www.w3.org/2000/svg">
<path d="M6 12L2 10" stroke="#333333" stroke-width="2" stroke-linecap="round" stroke-linejoin="round"/>
<path d="M4 11V9" stroke="#333333" stroke-width="2" stroke-linecap="round" stroke-linejoin="round"/>
<path d="M20 11V9" stroke="#333333" stroke-width="2" stroke-linecap="round" stroke-linejoin="round"/>
<path d="M12 8C13.6569 8 15 6.65685 15 5C15 3.34315 13.6569 2 12 2C10.3431 2 9 3.34315 9 5C9 6.65685 10.3431 8 12 8Z" stroke="#333333" stroke-width="2"/>
<path d="M12 22C15.5899 22 18.5 18.866 18.5 15C18.5 11.134 15.5899 8 12 8C8.41015 8 5.5 11.134 5.5 15C5.5 18.866 8.41015 22 12 22Z" stroke="#333333" stroke-width="2"/>
<path d="M12 14C12.5523 14 13 13.5523 13 13C13 12.4477 12.5523 12 12 12C11.4477 12 11 12.4477 11 13C11 13.5523 11.4477 14 12 14Z" fill="#333333"/>
<path d="M12 16.5C12.5523 16.5 13 16.0523 13 15.5C13 14.9477 12.5523 14.5 12 14.5C11.4477 14.5 11 14.9477 11 15.5C11 16.0523 11.4477 16.5 12 16.5Z" fill="#333333"/>
<path d="M12 19C12.5523 19 13 18.5523 13 18C13 17.4477 12.5523 17 12 17C11.4477 17 11 17.4477 11 18C11 18.5523 11.4477 19 12 19Z" fill="#333333"/>
<path d="M22 10L18 12" stroke="#333333" stroke-width="2" stroke-linecap="round" stroke-linejoin="round"/>
</svg>
