<svg width="24" height="24" viewBox="0 0 24 24" fill="none" xmlns="http://www.w3.org/2000/svg">
<path d="M8.5 11.2285C6.47145 11.8657 5 13.7608 5 15.9996C5 18.7611 7.2386 20.9996 10 20.9996C11.6358 20.9996 13.0882 20.2141 14.0003 18.9996C14.1202 18.8401 14.2308 18.6731 14.3312 18.4995" stroke="#333333" stroke-width="2" stroke-linecap="round"/>
<path d="M8.5 9L9.25 8H15L11.5 15H18.5V22" stroke="#333333" stroke-width="2" stroke-linecap="round" stroke-linejoin="round"/>
<path d="M17 6C18.1046 6 19 5.10457 19 4C19 2.89543 18.1046 2 17 2C15.8954 2 15 2.89543 15 4C15 5.10457 15.8954 6 17 6Z" stroke="#333333" stroke-width="2"/>
</svg>
