<svg width="24" height="24" viewBox="0 0 24 24" fill="none" xmlns="http://www.w3.org/2000/svg">
<path d="M4 12.5V19C4 19.8285 4.67158 20.5 5.5 20.5H18.5C19.3285 20.5 20 19.8285 20 19V12.5" stroke="#333333" stroke-width="2" stroke-linecap="round" stroke-linejoin="round"/>
<path d="M2.5 7.5C2.5 6.9477 2.94771 6.5 3.5 6.5H20.5C21.0523 6.5 21.5 6.9477 21.5 7.5V11.5C21.5 12.0523 21.0523 12.5 20.5 12.5H3.5C2.94771 12.5 2.5 12.0523 2.5 11.5V7.5Z" stroke="#333333" stroke-width="2" stroke-linejoin="round"/>
<path d="M15.5 6.5V4.5C15.5 3.94771 15.0523 3.5 14.5 3.5H9.5C8.9477 3.5 8.5 3.94771 8.5 4.5V6.5" stroke="#333333" stroke-width="2" stroke-linecap="round" stroke-linejoin="round"/>
<path d="M7.5 11.5V14.5" stroke="#333333" stroke-width="2" stroke-linecap="round" stroke-linejoin="round"/>
<path d="M16.5 11.5V14.5" stroke="#333333" stroke-width="2" stroke-linecap="round" stroke-linejoin="round"/>
</svg>
