<svg width="24" height="24" viewBox="0 0 24 24" fill="none" xmlns="http://www.w3.org/2000/svg">
<path fill-rule="evenodd" clip-rule="evenodd" d="M12 20.5103C13.2155 20.5103 13.7155 21.1653 14.3671 21.3109C15.0186 21.4566 15.5656 21.497 16.1257 21.2502C17.235 20.7614 17.9112 20.1791 18.7317 19.3095C20.2523 17.6979 21 15.482 21 12.5145C21 9.54703 20.1998 8.01348 18.9667 7.01033C17.7336 6.00723 17.0185 5.81503 15.5274 6.00723C14.0363 6.19938 13.2245 7.80148 12.0042 7.80148C10.7839 7.80148 9.29665 6.22178 8.00275 6.00723C6.70885 5.79263 6 6.00723 4.87984 7.01033C3.75967 8.01348 3 9.57553 3 12.5145C3 15.4535 3.77577 17.6327 5.29635 19.2443C6.11685 20.114 6.765 20.7614 7.87425 21.2502C8.4344 21.497 9.01335 21.4566 9.6422 21.3109C10.2711 21.1653 10.7711 20.5103 12 20.5103Z" stroke="#333333" stroke-width="2"/>
<path d="M12.0049 7.80125C12.3973 3.93375 14.0644 2 17.0062 2C17.2759 2.81393 17.3456 3.60168 17.2152 4.36325C17.1533 4.72504 16.9611 5.24095 16.6387 5.91095" stroke="#333333" stroke-width="2" stroke-linecap="round"/>
<path d="M7.11447 13C6.97617 13.6729 6.97617 14.3657 7.11447 15.0783C7.25272 15.791 7.54722 16.3409 7.99787 16.7281" stroke="#333333" stroke-width="2" stroke-linecap="round"/>
</svg>
