<svg width="24" height="24" viewBox="0 0 24 24" fill="none" xmlns="http://www.w3.org/2000/svg">
<path d="M21.7615 8.65695C21.7615 6.5356 19.9937 6.5356 18.7563 5.2982C17.5189 4.06075 17.5188 2.29294 15.3976 2.29297C13.9833 2.29296 12.7459 3.88395 12.7459 4.94462C12.7459 6.0053 13.0995 6.7124 13.8066 7.4195L7.44262 13.7834C6.73552 13.0764 6.02837 12.7228 4.96772 12.7228C3.90708 12.7228 2.31604 13.9602 2.31606 15.3744C2.13926 17.6725 4.26064 17.6726 5.32126 18.7332C6.38191 19.7939 6.38191 21.9151 8.68001 21.7384C10.0942 21.7384 11.3317 20.1475 11.3317 19.0868C11.3317 18.026 10.9782 17.319 10.271 16.6119L16.635 10.2479C17.3421 10.955 18.0492 11.3086 19.1099 11.3086C20.1705 11.3086 21.7615 10.0711 21.7615 8.65695Z" stroke="#333333" stroke-width="2" stroke-linejoin="round"/>
</svg>
