<svg width="24" height="24" viewBox="0 0 24 24" fill="none" xmlns="http://www.w3.org/2000/svg">
<path d="M3 12.5L5.58555 20.3141C5.72105 20.7235 6.1037 21 6.53495 21H17.465C17.8963 21 18.2789 20.7235 18.4144 20.3141L21 12.5" stroke="#333333" stroke-width="2"/>
<path d="M5.70373 12.5614H3.15844C3.07104 12.5614 3 12.4902 3.00199 12.4028C3.08214 8.8911 5.81723 5.9429 9.50018 5H14.5002C18.0388 6.018 20.9118 8.9789 20.9982 12.4029C21.0004 12.4902 20.9293 12.5614 20.8419 12.5614H18.2966C17.1385 12.5614 16.0198 12.9818 15.1484 13.7445C13.346 15.322 10.6543 15.322 8.85198 13.7445C7.98053 12.9818 6.86183 12.5614 5.70373 12.5614Z" stroke="#333333" stroke-width="2" stroke-linecap="round" stroke-linejoin="round"/>
<path d="M9.55 5C9.5172 4.83844 9.5 4.67123 9.5 4.5C9.5 3.11929 10.6193 2 12 2C13.3807 2 14.5 3.11929 14.5 4.5C14.5 4.67123 14.4828 4.83844 14.45 5" stroke="#333333" stroke-width="2" stroke-linecap="round" stroke-linejoin="round"/>
</svg>
