<svg width="24" height="24" viewBox="0 0 24 24" fill="none" xmlns="http://www.w3.org/2000/svg">
<path d="M21.5 10.0005C21.5 8.9147 12.4461 4.05644 10.067 2.7986C9.7197 2.61497 9.3015 2.65642 8.9926 2.89914L2.5 8.00045" stroke="#333333" stroke-width="2" stroke-linecap="round" stroke-linejoin="round"/>
<path d="M2.5 8.82577C2.5 8.16127 3.1344 7.67682 3.77761 7.84367C6.98095 8.67457 15.4301 10.6662 20.0807 9.87912C20.7778 9.76117 21.5 10.2681 21.5 10.9752V19.0509C21.5 19.5828 21.0837 20.0216 20.5525 20.0495L3.55256 20.9443C2.98042 20.9744 2.5 20.5186 2.5 19.9457V8.82577Z" stroke="#333333" stroke-width="2" stroke-linecap="round" stroke-linejoin="round"/>
<path d="M6 13.5C6.55228 13.5 7 13.0523 7 12.5C7 11.9477 6.55228 11.5 6 11.5C5.44772 11.5 5 11.9477 5 12.5C5 13.0523 5.44772 13.5 6 13.5Z" fill="#333333"/>
<path d="M12.5 14.5C13.0523 14.5 13.5 14.0523 13.5 13.5C13.5 12.9477 13.0523 12.5 12.5 12.5C11.9477 12.5 11.5 12.9477 11.5 13.5C11.5 14.0523 11.9477 14.5 12.5 14.5Z" fill="#333333"/>
<path d="M17 17C17.5523 17 18 16.5523 18 16C18 15.4477 17.5523 15 17 15C16.4477 15 16 15.4477 16 16C16 16.5523 16.4477 17 17 17Z" fill="#333333"/>
<path d="M9 17C9.55228 17 10 16.5523 10 16C10 15.4477 9.55228 15 9 15C8.44772 15 8 15.4477 8 16C8 16.5523 8.44772 17 9 17Z" fill="#333333" stroke="#333333" stroke-width="2"/>
</svg>
