<svg width="24" height="24" viewBox="0 0 24 24" fill="none" xmlns="http://www.w3.org/2000/svg">
<g clip-path="url(#clip0_16_32553)">
<mask id="mask0_16_32553" style="mask-type:luminance" maskUnits="userSpaceOnUse" x="0" y="0" width="24" height="24">
<path d="M24 0H0V24H24V0Z" fill="white"/>
</mask>
<g mask="url(#mask0_16_32553)">
<path d="M16.6872 16.9371C18.8085 14.8158 17.3943 7.74479 14.2123 4.5628C12.7981 3.14855 8.73225 0.143375 4.31278 4.56276C-0.106666 8.98214 2.8986 13.0481 4.31278 14.4622C7.4948 17.6443 14.5659 19.0585 16.6872 16.9371Z" stroke="#333333" stroke-width="2" stroke-linecap="round" stroke-linejoin="round"/>
<path d="M20.5 20.5C20.1267 20.1267 18.0112 18.0112 17 17" stroke="#333333" stroke-width="2"/>
<path d="M20.2126 19.1513C19.7245 19.6394 19.7245 20.4309 20.2126 20.919C20.7008 21.4072 21.4922 21.4072 21.9804 20.919C22.4685 20.4309 22.4685 19.6394 21.9804 19.1513C21.4922 18.6631 20.7008 18.6631 20.2126 19.1513Z" fill="#333333"/>
<path d="M19.1521 20.2118C18.6639 20.7 18.6639 21.4914 19.1521 21.9796C19.6402 22.4677 20.4317 22.4677 20.9198 21.9796C21.408 21.4914 21.408 20.7 20.9198 20.2118C20.4317 19.7237 19.6402 19.7237 19.1521 20.2118Z" fill="#333333"/>
<path d="M8.5 10C9.05228 10 9.5 9.55228 9.5 9C9.5 8.44772 9.05228 8 8.5 8C7.94772 8 7.5 8.44772 7.5 9C7.5 9.55228 7.94772 10 8.5 10Z" fill="#333333"/>
<path d="M6 11.5C6.55228 11.5 7 11.0523 7 10.5C7 9.94772 6.55228 9.5 6 9.5C5.44772 9.5 5 9.94772 5 10.5C5 11.0523 5.44772 11.5 6 11.5Z" fill="#333333"/>
<path d="M8.5 13C9.05228 13 9.5 12.5523 9.5 12C9.5 11.4477 9.05228 11 8.5 11C7.94772 11 7.5 11.4477 7.5 12C7.5 12.5523 7.94772 13 8.5 13Z" fill="#333333"/>
</g>
</g>
<defs>
<clipPath id="clip0_16_32553">
<rect width="24" height="24" fill="white"/>
</clipPath>
</defs>
</svg>
