<svg width="24" height="24" viewBox="0 0 24 24" fill="none" xmlns="http://www.w3.org/2000/svg">
<path d="M17.9888 7.75014C17.7263 7.50994 17.44 7.29629 17.1339 7.11264L16.4012 6.67304C15.7216 6.26524 14.9744 5.98274 14.195 5.83894L13.9331 5.79064C12.523 5.53039 11.1644 5.04829 9.90746 4.36334C9.79251 3.85535 9.39661 3.43252 8.85481 3.30941C8.10311 3.1386 7.35521 3.60953 7.18441 4.36127C7.01361 5.11299 7.48451 5.86084 8.23626 6.03169C8.29926 6.04599 8.36226 6.05579 8.42486 6.06129C9.25231 6.87059 9.95211 7.80199 10.4995 8.82359" stroke="#333333" stroke-width="2" stroke-linecap="round" stroke-linejoin="round"/>
<path d="M5.65335 12.5101C5.52235 12.6511 4 14.3258 4 16.0005C4 17.7505 4.77922 18.5005 5.5 19.0005C6.2208 19.5005 7.3604 20.0005 8.3052 20.0005C9.25 20.0005 14.25 20.5005 16.5 20.0005C18.75 19.5005 19 19.0005 20 18.0005C20.5408 17.4597 20.941 16.6996 21.1946 16.1155C21.4401 15.55 21.6327 14.9627 21.7824 14.3647C21.9623 13.6466 22.1442 12.6154 22 11.7505C21.75 10.2505 21 9.25048 18.5 8.00048C16.1979 6.84943 14.1766 7.39428 13.871 7.48773C13.8434 7.49618 13.8176 7.50523 13.7903 7.51483C13.3903 7.65628 10.1581 8.81318 8.7857 9.75048C7.38435 10.7075 5.8046 12.3514 5.6714 12.491C5.66465 12.498 5.66005 12.5029 5.65335 12.5101Z" stroke="#333333" stroke-width="2" stroke-linecap="round" stroke-linejoin="round"/>
<path d="M3.0518 10.0047C2.98919 9.99917 2.92622 9.98937 2.86322 9.97507C2.11149 9.80427 1.64056 9.05637 1.81137 8.30467C1.98218 7.55292 2.73005 7.08197 3.48178 7.25277C4.02355 7.37592 4.41948 7.79872 4.53444 8.30672C5.79129 8.99167 7.14994 9.47377 8.56009 9.73402L8.82189 9.78232C9.60129 9.92612 10.3485 10.2086 11.0281 10.6164L11.7608 11.056C12.2507 11.35 12.6901 11.7208 13.0622 12.1544L13.2649 12.3906C13.8768 13.1037 14.1555 14.0439 14.0311 14.9752L14.017 15.0811C13.9323 15.7156 13.6452 16.3059 13.1983 16.7644L12.9677 17.0009C12.2052 17.7833 11.1079 18.1427 10.0302 17.9631C9.19674 17.8242 8.42514 17.4354 7.81759 16.8481L7.44809 16.491C7.15099 16.2038 6.89344 15.8784 6.68219 15.5233L5.59594 13.6974L5.27919 13.0624C4.71168 11.9245 3.95834 10.8913 3.0518 10.0047Z" stroke="#333333" stroke-width="2" stroke-linecap="round" stroke-linejoin="round"/>
</svg>
