<svg width="24" height="24" viewBox="0 0 24 24" fill="none" xmlns="http://www.w3.org/2000/svg">
<path d="M2.5 8.50039C2.5 6.00039 3 1.00038 8.5004 3.00037C8.9732 4.89161 7.5 8.50039 2.5 8.50039Z" stroke="#333333" stroke-width="2" stroke-linecap="round" stroke-linejoin="round"/>
<path d="M21.4996 8.50038C21.4999 6.00038 20.9996 1.00038 15.4996 3.00037C15.0268 4.8916 16.4993 8.50038 21.4996 8.50038Z" stroke="#333333" stroke-width="2" stroke-linecap="round" stroke-linejoin="round"/>
<path d="M15 11H9C6.23858 11 4 13.2386 4 16C4 18.7614 6.23858 21 9 21H15C17.7614 21 20 18.7614 20 16C20 13.2386 17.7614 11 15 11Z" stroke="#333333" stroke-width="2" stroke-linecap="round" stroke-linejoin="round"/>
<path d="M13.5 11V9" stroke="#333333" stroke-width="2" stroke-linecap="round" stroke-linejoin="round"/>
<path d="M10.5 11V9" stroke="#333333" stroke-width="2" stroke-linecap="round" stroke-linejoin="round"/>
<path d="M21.5 8.5C22 10 22 13 20 14.5" stroke="#333333" stroke-width="2" stroke-linecap="round" stroke-linejoin="round"/>
<path d="M2.5 8.5C2 10 2.5 12.5 4 14.5" stroke="#333333" stroke-width="2" stroke-linecap="round" stroke-linejoin="round"/>
<path d="M15 21H22L20 16.5" stroke="#333333" stroke-width="2" stroke-linecap="round" stroke-linejoin="round"/>
<path d="M9 21H2L4 16.5" stroke="#333333" stroke-width="2" stroke-linecap="round" stroke-linejoin="round"/>
</svg>
