<svg width="24" height="24" viewBox="0 0 24 24" fill="none" xmlns="http://www.w3.org/2000/svg">
<g clip-path="url(#clip0_16_32504)">
<mask id="mask0_16_32504" style="mask-type:luminance" maskUnits="userSpaceOnUse" x="0" y="0" width="24" height="24">
<path d="M24 0H0V24H24V0Z" fill="white"/>
</mask>
<g mask="url(#mask0_16_32504)">
<path d="M3.50007 14.5C3.50007 14.5 3.47826 16.3738 4.22826 18.6238C4.66438 19.9322 5.18507 20.7333 5.83942 21.1256C6.67797 21.6282 7.53792 20.6358 8.02902 19.7904C8.51017 18.9622 9.21682 18.1138 9.77397 17.5" stroke="#333333" stroke-width="2" stroke-linecap="round" stroke-linejoin="round"/>
<path d="M16.5 3.95605C17.8114 4.17555 19.2657 4.45863 19.8129 4.70965C20.5258 5.03671 21.2428 5.70311 21.5286 6.41541C21.7941 7.07741 21.105 7.58541 20.482 7.93261C19.7796 8.32396 19.0476 8.93746 18.4493 9.50016" stroke="#333333" stroke-width="2" stroke-linecap="round" stroke-linejoin="round"/>
<path d="M12.1011 14.8879L10.8502 15.7567C10.6214 15.9156 10.4419 16.1356 10.3322 16.3916C10.0102 17.1428 9.14177 17.4928 8.38887 17.1747L4.40159 15.49C3.66541 15.179 3.30904 14.3398 3.59648 13.594L3.82177 13.0096C4.26166 11.8684 5.06582 10.9042 6.10947 10.2666" stroke="#333333" stroke-width="2" stroke-linecap="round" stroke-linejoin="round"/>
<path d="M15.3597 12.2541L16.0548 11.5021L16.5108 11.0086C16.6684 10.8382 16.8601 10.7028 17.0734 10.6114C17.8753 10.2677 18.2719 9.35997 17.9792 8.53812L16.5531 4.53313C16.3153 3.86518 15.6152 3.4809 14.924 3.63888L14.3147 3.77815C12.9873 4.0815 11.8236 4.87512 11.0566 6.00007" stroke="#333333" stroke-width="2" stroke-linecap="round" stroke-linejoin="round"/>
<path d="M6.70529 11.54C5.88714 10.9555 5.66534 9.83343 6.19654 8.97978C6.97129 7.73473 8.02574 6.68273 9.27349 5.91233C10.1098 5.39603 11.2018 5.60273 11.7915 6.38898L14.7575 10.3436C15.4367 11.2492 15.2296 12.5375 14.3008 13.1846L14.1808 13.2682C14.0303 13.3731 13.895 13.4981 13.7786 13.6398L13.4368 14.0559C12.7689 14.869 11.5851 15.0256 10.7289 14.4139L6.70529 11.54Z" stroke="#333333" stroke-width="2"/>
</g>
</g>
<defs>
<clipPath id="clip0_16_32504">
<rect width="24" height="24" fill="white"/>
</clipPath>
</defs>
</svg>
