<svg width="24" height="24" viewBox="0 0 24 24" fill="none" xmlns="http://www.w3.org/2000/svg">
<path d="M7.0757 16.9102L6.3686 21.8599L2.12598 17.6173L7.0757 16.9102Z" stroke="#333333" stroke-width="2" stroke-linecap="round" stroke-linejoin="round"/>
<path d="M12.0245 3.47559L7.07474 8.42534C4.7316 10.7685 4.7316 14.5675 7.07474 16.9106C9.41789 19.2537 13.2169 19.2537 15.56 16.9106L20.5098 11.9609" stroke="#333333" stroke-width="2" stroke-linecap="round" stroke-linejoin="round"/>
<path d="M13.7929 10.1924C16.136 12.5355 19.1436 13.327 20.5104 11.9602C21.8772 10.5933 21.0858 7.58579 18.7426 5.24264C16.3995 2.89949 13.392 2.10804 12.0251 3.47487C10.6583 4.84171 11.4497 7.84924 13.7929 10.1924Z" stroke="#333333" stroke-width="2" stroke-linecap="round" stroke-linejoin="round"/>
<path d="M14.3232 6.40648C14.7137 6.797 15.3469 6.797 15.7374 6.40648C16.1279 6.01595 16.1279 5.38279 15.7374 4.99226C15.3469 4.60174 14.7137 4.60174 14.3232 4.99226C13.9326 5.38279 13.9326 6.01595 14.3232 6.40648Z" fill="#333333"/>
<path d="M17.8583 9.94163C18.2488 10.3322 18.882 10.3322 19.2725 9.94163C19.6631 9.55111 19.6631 8.91794 19.2725 8.52742C18.882 8.13689 18.2488 8.13689 17.8583 8.52742C17.4678 8.91794 17.4678 9.55111 17.8583 9.94163Z" fill="#333333"/>
<path d="M15.0302 9.2346C15.4207 9.62513 16.0539 9.62513 16.4444 9.2346C16.8349 8.84408 16.8349 8.21091 16.4444 7.82039C16.0539 7.42986 15.4207 7.42986 15.0302 7.82039C14.6397 8.21091 14.6397 8.84408 15.0302 9.2346Z" fill="#333333"/>
</svg>
