<svg width="24" height="24" viewBox="0 0 24 24" fill="none" xmlns="http://www.w3.org/2000/svg">
<path d="M17.5 9L15.5597 15.3062C15.5199 15.4354 15.4824 15.5631 15.436 15.6901C15.162 16.4392 13.9413 19.2097 10.5003 20.5C6.50035 22 2.49971 20 2.5 16.0385C2.5003 12.0769 6.5 12.5 8.5 11C10.5 9.5 12.5 6.5 12.5 6.5" stroke="#333333" stroke-width="2"/>
<path d="M19.6268 12.2434C19.6268 12.2434 20.1854 9.58734 20.0001 7.99964C19.7476 5.83589 18.7501 4.24965 17.4997 3.49966C16.2493 2.74967 13.6261 2.24965 11.4998 3.49967C9.37345 4.74968 8.4834 6.42224 8.4834 6.42224L12.5868 6.03834C12.8264 6.01589 13.048 6.16739 13.1141 6.39879L13.8627 9.01889C13.9386 9.28439 14.2153 9.43814 14.4808 9.36229L17.1218 8.60764C17.3436 8.54424 17.5799 8.64084 17.6939 8.84139L19.6268 12.2434Z" stroke="#333333" stroke-width="2" stroke-linecap="round" stroke-linejoin="round"/>
<path d="M18 4L21 3" stroke="#333333" stroke-width="2" stroke-linecap="round" stroke-linejoin="round"/>
</svg>
