<svg width="24" height="24" viewBox="0 0 24 24" fill="none" xmlns="http://www.w3.org/2000/svg">
<path d="M16.5 22H11.5H6.5" stroke="#333333" stroke-width="2" stroke-linecap="round" stroke-linejoin="round"/>
<path d="M11.5 14V22" stroke="#333333" stroke-width="2" stroke-linecap="round" stroke-linejoin="round"/>
<path d="M17.5 8C17.5 8.83755 17.3216 9.64195 17 10.3745C16.0738 12.4848 13.9597 14 11.5 14C9.12915 14 7.0795 12.6249 6.105 10.6288C5.7175 9.83495 5.5 8.94285 5.5 8C5.5 6.81355 5.76655 5.6937 6.105 4.75C6.6937 3.10864 7.5 2 7.5 2H15.5C15.5 2 16.4076 3.24795 17 5.05605C17.287 5.93195 17.5 6.93935 17.5 8Z" stroke="#333333" stroke-width="2" stroke-linecap="round" stroke-linejoin="round"/>
<path d="M17.5 7.99967C17.5 7.99967 14 9.49967 11.5 7.99967C9 6.49967 5.5 7.99967 5.5 7.99967" stroke="#333333" stroke-width="2" stroke-linecap="round" stroke-linejoin="round"/>
<path d="M17 5.05566C17.287 5.93161 17.5 6.93896 17.5 7.99961C17.5 8.83721 17.3216 9.64156 17 10.3742" stroke="#333333" stroke-width="2" stroke-linecap="round" stroke-linejoin="round"/>
<path d="M6.105 4.75C5.76655 5.6937 5.5 6.81355 5.5 8C5.5 8.94285 5.7175 9.83495 6.105 10.6288" stroke="#333333" stroke-width="2" stroke-linecap="round" stroke-linejoin="round"/>
</svg>
