<svg width="24" height="24" viewBox="0 0 24 24" fill="none" xmlns="http://www.w3.org/2000/svg">
<path d="M7.30581 2.42113L4.96117 4.76575C4.31372 5.41318 4.31372 6.46293 4.96117 7.11038C5.60861 7.75783 6.65836 7.75783 7.30581 7.11038L9.65041 4.76575C10.2979 4.1183 10.2979 3.06858 9.65041 2.42113C9.00296 1.77368 7.95321 1.77369 7.30581 2.42113Z" stroke="#333333" stroke-width="2"/>
<path d="M12.3872 6.71996L9.26098 9.84611C8.61353 10.4936 8.61353 11.5433 9.26098 12.1907C9.90843 12.8382 10.9582 12.8382 11.6056 12.1907L14.7318 9.06456C15.3792 8.41711 15.3792 7.36741 14.7318 6.71996C14.0843 6.07251 13.0346 6.07251 12.3872 6.71996Z" stroke="#333333" stroke-width="2"/>
<path d="M14.3397 9.45508L21.2247 16.34C21.7386 16.8539 21.6303 17.7953 20.9828 18.4427C20.3354 19.0902 19.3939 19.1985 18.8801 18.6847L11.9951 11.7997" stroke="#333333" stroke-width="2"/>
<path d="M11.2142 3.20336L5.7434 8.67414C5.09595 9.32159 5.09595 10.3713 5.7434 11.0187C6.39085 11.6662 7.4406 11.6662 8.08805 11.0187L13.5588 5.54794C14.2062 4.90053 14.2062 3.85081 13.5588 3.20336C12.9113 2.55591 11.8616 2.55591 11.2142 3.20336Z" stroke="#333333" stroke-width="2"/>
<path d="M6.92708 11.5713C7.63888 13.7896 7.52033 15.4286 6.57153 16.4882C5.14828 18.0776 5.36963 22.0713 8.58508 22.0713C11.8005 22.0713 12.745 18.0776 10.0211 16.6766" stroke="#333333" stroke-width="2" stroke-linecap="round"/>
</svg>
