<svg width="24" height="24" viewBox="0 0 24 24" fill="none" xmlns="http://www.w3.org/2000/svg">
<path d="M5.58843 3.37393L3.15822 5.89267C2.77474 6.29011 2.78606 6.92317 3.18351 7.30665L3.54333 7.65383C3.94077 8.0373 4.57384 8.02598 4.95731 7.62854L7.38753 5.1098C7.77101 4.71235 7.75969 4.07929 7.36224 3.69581L7.00242 3.34864C6.60498 2.96516 5.97191 2.97648 5.58843 3.37393Z" stroke="#333333" stroke-width="2"/>
<path d="M12.7857 10.3173L10.3555 12.836C9.972 13.2335 9.98333 13.8665 10.3808 14.25L10.7406 14.5972C11.138 14.9807 11.7711 14.9693 12.1546 14.5719L14.5848 12.0532C14.9683 11.6557 14.957 11.0226 14.5595 10.6392L14.1997 10.292C13.8022 9.90852 13.1692 9.91984 12.7857 10.3173Z" stroke="#333333" stroke-width="2"/>
<path d="M8.42929 4.03044L3.91603 8.7081C3.53255 9.10554 3.54387 9.7386 3.94132 10.1221L4.30114 10.4693C4.69858 10.8527 5.33165 10.8414 5.71513 10.444L10.2284 5.76631C10.6119 5.36886 10.6005 4.7358 10.2031 4.35232L9.84328 4.00515C9.44583 3.62167 8.81277 3.63299 8.42929 4.03044Z" stroke="#333333" stroke-width="2"/>
<path d="M12.0279 7.50212L7.51466 12.1798C7.13118 12.5772 7.14251 13.2103 7.53995 13.5938L7.89977 13.9409C8.29722 14.3244 8.93028 14.3131 9.31376 13.9156L13.827 9.23799C14.2105 8.84054 14.1992 8.20748 13.8017 7.824L13.4419 7.47683C13.0445 7.09335 12.4114 7.10467 12.0279 7.50212Z" stroke="#333333" stroke-width="2"/>
<path d="M11.6178 4.32669L4.32716 11.8829C3.94368 12.2803 3.95501 12.9134 4.35245 13.2969L4.71227 13.6441C5.10972 14.0275 5.74278 14.0162 6.12626 13.6188L13.4169 6.06256C13.8004 5.66511 13.7891 5.03205 13.3916 4.64857L13.0318 4.3014C12.6344 3.91792 12.0013 3.92924 11.6178 4.32669Z" stroke="#333333" stroke-width="2"/>
<path d="M12.501 14.2116L14.584 12.0527L21.7873 19.0028L19.7043 21.1618L12.501 14.2116Z" stroke="#333333" stroke-width="2" stroke-linecap="round" stroke-linejoin="round"/>
<path d="M10.5 20.125C10.5 21.1605 9.60455 22 8.5 22C7.39545 22 6.5 21.1605 6.5 20.125C6.5 19.0895 8.5 17 8.5 17C8.5 17 10.5 19.0895 10.5 20.125Z" stroke="#333333" stroke-width="2" stroke-linejoin="round"/>
</svg>
