<svg width="24" height="24" viewBox="0 0 24 24" fill="none" xmlns="http://www.w3.org/2000/svg">
<g clip-path="url(#clip0_16_32534)">
<mask id="mask0_16_32534" style="mask-type:luminance" maskUnits="userSpaceOnUse" x="0" y="0" width="24" height="24">
<path d="M24 0H0V24H24V0Z" fill="white"/>
</mask>
<g mask="url(#mask0_16_32534)">
<path d="M9.42102 6.86133L16.1385 13.5788L5.83927 20.2501L2.81641 17.2273L9.42102 6.86133Z" stroke="#333333" stroke-width="2" stroke-linecap="round" stroke-linejoin="round"/>
<path d="M19.3856 9.7552C18.8553 10.2855 18.5058 10.2896 17.9795 10.4705C17.9632 11.8684 17.9826 13.2751 16.2087 13.6225L9.30078 6.7145C9.30078 6.7145 9.29613 6.02975 9.99883 5.67175C10.2463 5.5558 10.748 5.61065 11.047 5.6593C11.7502 4.14685 12.8148 3.89154 13.9985 4.38052C14.5663 3.52168 15.9683 3.15593 17.0126 3.49318C18.057 3.83042 18.0488 4.52934 18.7437 4.87067C19.4386 5.212 20.1457 4.50488 20.1497 4.15541C20.1538 3.80593 20.0925 3.13742 20.5636 3.25864C20.8512 3.33626 21.0826 3.61614 21.3614 4.78066C21.5171 5.43435 21.4266 6.40135 20.868 6.995C20.5252 7.3593 19.7597 7.5497 19.4101 7.65835C19.4434 7.7536 19.9159 9.2249 19.3856 9.7552Z" stroke="#333333" stroke-width="2" stroke-linecap="round" stroke-linejoin="round"/>
<path d="M19.4105 7.6582C18.0044 8.37345 16.96 8.0362 15.9238 7" stroke="#333333" stroke-width="2" stroke-linecap="round" stroke-linejoin="round"/>
</g>
</g>
<defs>
<clipPath id="clip0_16_32534">
<rect width="24" height="24" fill="white"/>
</clipPath>
</defs>
</svg>
