<svg width="24" height="24" viewBox="0 0 24 24" fill="none" xmlns="http://www.w3.org/2000/svg">
<path d="M18.8494 3C18.586 3.26722 17.6197 4.33614 17.0048 4.87059C16.917 5.1378 18.0589 6.2067 18.3224 6.47395C18.5859 6.7412 21.7479 4.87059 21.4844 4.60336C21.2736 4.38958 19.6399 3.44538 18.8494 3Z" stroke="#333333" stroke-width="2" stroke-linecap="round" stroke-linejoin="round"/>
<path d="M5.68546 8.36109C5.67951 8.31724 5.67461 8.27334 5.67071 8.22949C4.72746 9.14489 4.00775 10.1955 3.52086 11.3003C4.31743 11.4672 4.91562 12.1737 4.91562 13.0199C4.91562 13.9902 4.12901 14.7768 3.15868 14.7768C3.0243 14.7768 2.89345 14.7617 2.76771 14.7331C2.75739 16.5062 3.34214 18.2106 4.55778 19.5338C6.31006 21.4411 8.96236 22.1092 11.573 21.5659C13.1794 21.2316 14.77 20.4386 16.1254 19.1934C16.7972 18.5762 17.3632 17.8921 17.8203 17.1676C16.7081 17.5026 15.4829 16.9616 15.0199 15.8689C14.7888 15.3234 14.3094 14.9225 13.7317 14.7914L12.8904 14.6005C11.9249 14.3814 11.1308 13.698 10.7702 12.776L10.7249 12.6602C10.3289 11.6479 9.38131 10.9575 8.29636 10.8908C6.96621 10.8091 5.87936 9.79849 5.70121 8.47779L5.68546 8.36109Z" stroke="#333333" stroke-width="2" stroke-linecap="round" stroke-linejoin="round"/>
<path d="M6.57753 5.8287L6.45168 5.96325C5.84963 6.6069 5.56868 7.48705 5.68653 8.36045L5.70228 8.4772C5.88043 9.7979 6.96728 10.8085 8.29743 10.8902C9.38238 10.9569 10.3299 11.6473 10.7259 12.6596L10.7712 12.7754C11.1318 13.6974 11.926 14.3808 12.8914 14.5999L13.7328 14.7908C14.3105 14.9219 14.7898 15.3228 15.021 15.8683C15.5189 17.0435 16.8983 17.5804 18.0707 17.0761C19.255 16.5666 20.1128 15.4767 20.3121 14.203L20.416 13.5384C20.4721 13.1802 20.4887 12.8171 20.4657 12.4553L20.412 11.6101C20.3038 9.9079 19.6941 8.27585 18.6597 6.91965L18.5338 6.75455C17.6582 5.60655 16.4846 4.72065 15.1406 4.19319C13.9789 3.73726 12.7257 3.56323 11.4837 3.68536L10.781 3.75445C9.17448 3.91243 7.68033 4.64973 6.57753 5.8287Z" stroke="#333333" stroke-width="2" stroke-linecap="round" stroke-linejoin="round"/>
</svg>
