<svg width="24" height="24" viewBox="0 0 24 24" fill="none" xmlns="http://www.w3.org/2000/svg">
<path d="M8.31972 6.37305C8.97437 4.92817 10.4139 4 12.0002 4C13.5864 4 15.026 4.92817 15.6806 6.37305L17.2107 9.75L19.0535 12.9109C20.1971 14.8724 19.8562 17.3609 18.2274 18.9426L17.6326 19.5203C16.1762 20.9347 13.892 21.036 12.3159 19.7563C12.1319 19.6069 11.8684 19.6069 11.6845 19.7563C10.1084 21.036 7.82417 20.9347 6.36772 19.5203L5.77292 18.9426C4.1441 17.3609 3.80328 14.8724 4.94682 12.9109L6.78962 9.75L8.31972 6.37305Z" stroke="#333333" stroke-width="2"/>
<path d="M10.75 2C11.0834 2.25 11.8 2.95 12 3.75C12.2 4.55 12.0834 5.41665 12 5.75" stroke="#333333" stroke-width="2" stroke-linecap="round"/>
<path d="M8 15C8.55228 15 9 14.5523 9 14C9 13.4477 8.55228 13 8 13C7.44772 13 7 13.4477 7 14C7 14.5523 7.44772 15 8 15Z" fill="#333333"/>
<path d="M9 18C9.55228 18 10 17.5523 10 17C10 16.4477 9.55228 16 9 16C8.44772 16 8 16.4477 8 17C8 17.5523 8.44772 18 9 18Z" fill="#333333"/>
<path d="M11.5 16C12.0523 16 12.5 15.5523 12.5 15C12.5 14.4477 12.0523 14 11.5 14C10.9477 14 10.5 14.4477 10.5 15C10.5 15.5523 10.9477 16 11.5 16Z" fill="#333333"/>
</svg>
