<svg width="24" height="24" viewBox="0 0 24 24" fill="none" xmlns="http://www.w3.org/2000/svg">
<g clip-path="url(#clip0_16_32448)">
<mask id="mask0_16_32448" style="mask-type:luminance" maskUnits="userSpaceOnUse" x="0" y="0" width="24" height="24">
<path d="M24 0H0V24H24V0Z" fill="white"/>
</mask>
<g mask="url(#mask0_16_32448)">
<path d="M13.4999 6C13.4999 6 16.9996 9.5 16.9996 14C16.9997 18.5 14.7776 22.1113 12.9996 21.9999C11.2217 21.8886 9.49983 18.4999 9.99988 14C10.4999 9.5 13.4999 6 13.4999 6Z" stroke="#333333" stroke-width="2" stroke-linecap="round" stroke-linejoin="round"/>
<path d="M13.5 6.00027C13.5 6.00027 14.0007 3.9379 15.5002 2.96908C16.9998 2.00026 19.9452 4.50027 19.5001 6.00027C19.0551 7.50027 17.4999 7.50027 16.9999 6.00027C16.5 4.50027 19.0001 2.75027 20.5001 2.96908C22.0001 3.18788 22.1286 5.59017 22.0001 7.00027C21.7496 9.75027 21.0001 12.0003 21.0001 12.0003" stroke="#333333" stroke-width="2" stroke-linecap="round" stroke-linejoin="round"/>
<path d="M13.5 6.00028C13.5 6.00028 13.5 10.0003 10 14.0003C6.50007 18.0003 3.16275 18.8501 2.00021 17.5003C0.837678 16.1505 2.00021 12.5003 5.50007 9.00028C8.99987 5.50028 13.5 6.00028 13.5 6.00028Z" stroke="#333333" stroke-width="2" stroke-linecap="round" stroke-linejoin="round"/>
<path d="M13.6221 14.9541C14.3124 14.9541 14.8721 14.3945 14.8721 13.7041C14.8721 13.0137 14.3124 12.4541 13.6221 12.4541C12.9317 12.4541 12.3721 13.0137 12.3721 13.7041C12.3721 14.3945 12.9317 14.9541 13.6221 14.9541Z" fill="#333333"/>
<path d="M13.1221 18.4541C13.8124 18.4541 14.3721 17.8945 14.3721 17.2041C14.3721 16.5137 13.8124 15.9541 13.1221 15.9541C12.4317 15.9541 11.8721 16.5137 11.8721 17.2041C11.8721 17.8945 12.4317 18.4541 13.1221 18.4541Z" fill="#333333"/>
</g>
</g>
<defs>
<clipPath id="clip0_16_32448">
<rect width="24" height="24" fill="white"/>
</clipPath>
</defs>
</svg>
