<svg width="24" height="24" viewBox="0 0 24 24" fill="none" xmlns="http://www.w3.org/2000/svg">
<path d="M10.25 7.25C10 7 10 6.5746 10 5.5C10 3.56701 12 2 12 2C12 2 13.5 3.56701 13.5 5.5C13.5 6.4612 13.5 7 13.25 7.25" stroke="#333333" stroke-width="2" stroke-linecap="round" stroke-linejoin="round"/>
<path d="M8.5 8.49985C7.89455 7.04075 6.43115 5.2161 5.5 4.49984C8.2055 3.99256 10.3868 5.65015 11.5 6.99985" stroke="#333333" stroke-width="2" stroke-linecap="round" stroke-linejoin="round"/>
<path d="M15 8.00024C15.726 6.65174 17.1519 5.15259 18 4.50023C15.1783 3.97117 13.0643 5.63079 12 7.00024" stroke="#333333" stroke-width="2" stroke-linecap="round" stroke-linejoin="round"/>
<path d="M8.36242 8.68701C8.08747 8.93026 7.79967 9.20021 7.49997 9.49991C5.40467 11.5952 5.05087 15.4319 5.00112 17.1401C4.98442 17.7148 4.98842 18.3011 5.20562 18.8334C5.43907 19.4054 5.93717 20.2027 7.00012 20.9999C9.00002 22.4999 15 22.4999 16.9999 20.9999C18.0581 20.2063 18.5563 19.4126 18.7909 18.8411C19.0114 18.3041 19.0153 17.7118 18.9982 17.1315C18.9476 15.419 18.5917 11.5916 16.5 9.49991C16.2003 9.20021 15.9124 8.93016 15.6374 8.68691C13.5081 6.80351 10.4917 6.80361 8.36242 8.68701Z" stroke="#333333" stroke-width="2" stroke-linecap="round" stroke-linejoin="round"/>
<path d="M16 9L5.5 14.5" stroke="#333333" stroke-width="2" stroke-linecap="round" stroke-linejoin="round"/>
<path d="M8 9L18.5 14.5" stroke="#333333" stroke-width="2" stroke-linecap="round" stroke-linejoin="round"/>
<path d="M17.5 20.5L5.5 13.5" stroke="#333333" stroke-width="2" stroke-linecap="round" stroke-linejoin="round"/>
<path d="M18.5 13.5L6.5 20.5" stroke="#333333" stroke-width="2" stroke-linecap="round" stroke-linejoin="round"/>
</svg>
