<svg width="24" height="24" viewBox="0 0 24 24" fill="none" xmlns="http://www.w3.org/2000/svg">
<path d="M16.848 20.4338L19.5 8.5H3.5L6.15195 20.4338C6.3188 21.1847 6.40225 21.5601 6.67645 21.7801C6.95065 22 7.3352 22 8.10435 22H14.8956C15.6648 22 16.0493 22 16.3235 21.7801C16.5977 21.5601 16.6812 21.1847 16.848 20.4338Z" stroke="#333333" stroke-width="2" stroke-linecap="round" stroke-linejoin="round"/>
<path d="M13.5 22L14 8.5" stroke="#333333" stroke-width="2" stroke-linecap="round" stroke-linejoin="round"/>
<path d="M9.5 22L9 8.5" stroke="#333333" stroke-width="2" stroke-linecap="round" stroke-linejoin="round"/>
<path d="M15.5 22H7.5" stroke="#333333" stroke-width="2" stroke-linecap="round" stroke-linejoin="round"/>
<path d="M15.5 8.5H7.5" stroke="#333333" stroke-width="2" stroke-linecap="round" stroke-linejoin="round"/>
<path d="M5.50018 8.49972C5.50018 8.49972 5.00018 6.99972 5.75018 6.24972C6.50018 5.49972 8.00018 5.74972 8.00018 5.74972C8.00018 5.74972 8.00018 4.24972 9.00018 3.74972C10.0002 3.24972 11.5002 3.99971 11.5002 3.99971C11.5002 3.99971 12.5002 2.32112 14.0002 2.74973C15.5002 3.17833 15.5002 4.99974 15.5002 4.99974C15.5002 4.99974 16.7502 4.99976 17.5002 5.99972C18.2502 6.99972 17.5002 8.49972 17.5002 8.49972" stroke="#333333" stroke-width="2" stroke-linecap="round" stroke-linejoin="round"/>
</svg>
