<svg width="24" height="24" viewBox="0 0 24 24" fill="none" xmlns="http://www.w3.org/2000/svg">
<g clip-path="url(#clip0_16_32442)">
<mask id="mask0_16_32442" style="mask-type:luminance" maskUnits="userSpaceOnUse" x="0" y="0" width="24" height="24">
<path d="M24 0H0V24H24V0Z" fill="white"/>
</mask>
<g mask="url(#mask0_16_32442)">
<path d="M8.89941 20.0705C8.89941 20.0705 10.9792 22.1502 13.2253 21.5679C15.4714 20.9856 21.1282 15.3287 21.7106 13.0826C22.2929 10.8365 20.2131 8.75684 20.2131 8.75684" stroke="#333333" stroke-width="2" stroke-linecap="round" stroke-linejoin="round"/>
<path d="M3.94989 15.121C3.94989 15.121 1.87016 13.0413 2.45249 10.7952C3.03481 8.54909 8.69168 2.89224 10.9378 2.30991C13.1839 1.72759 15.2636 3.80732 15.2636 3.80732" stroke="#333333" stroke-width="2" stroke-linecap="round" stroke-linejoin="round"/>
<path d="M14.2034 4.86789L5.01101 14.0603C3.64417 15.4271 3.64417 17.6432 5.01101 19.01C6.37784 20.3769 8.59392 20.3769 9.96075 19.01L19.1531 9.81764C20.52 8.45081 20.52 6.23473 19.1531 4.86789C17.7863 3.50106 15.5702 3.50106 14.2034 4.86789Z" stroke="#333333" stroke-width="2" stroke-linecap="round" stroke-linejoin="round"/>
<path d="M7.83887 16.8887L8.12022 16.0445C8.39102 15.2322 8.99632 14.5743 9.78342 14.237L9.99322 14.1471C10.6469 13.867 11.1495 13.3207 11.3744 12.646C11.5993 11.9714 12.1019 11.4251 12.7556 11.1449L13.2303 10.9415C13.8489 10.6764 14.3246 10.1594 14.5374 9.52099C14.7719 8.81744 15.324 8.26539 16.0275 8.03089L17.0313 7.69629" stroke="#333333" stroke-width="2" stroke-linecap="round" stroke-linejoin="round"/>
</g>
</g>
<defs>
<clipPath id="clip0_16_32442">
<rect width="24" height="24" fill="white"/>
</clipPath>
</defs>
</svg>
