<svg width="24" height="24" viewBox="0 0 24 24" fill="none" xmlns="http://www.w3.org/2000/svg">
<g clip-path="url(#clip0_16_32441)">
<mask id="mask0_16_32441" style="mask-type:luminance" maskUnits="userSpaceOnUse" x="0" y="0" width="24" height="24">
<path d="M24 0H0V24H24V0Z" fill="white"/>
</mask>
<g mask="url(#mask0_16_32441)">
<path d="M10 12C10 12 11.2498 9.74999 11.4998 7.49999C11.7498 5.24999 10.9998 3.50001 10.9998 3.50001L13.5 2C13.5 2 13.9996 5.00001 13.9996 6.49999" stroke="#333333" stroke-width="2" stroke-linecap="round" stroke-linejoin="round"/>
<path d="M2.99951 21.5C1.99929 20.75 2.00015 18.0447 3.99977 16.5C5.99939 14.9552 6.09244 15.3586 8.49954 13.5C10.9066 11.6413 16.9995 2 16.9995 2L19.2496 3.75L13.1547 11.8701C11.6624 13.8583 11.2753 16.5264 10.0249 18.6751C9.05009 20.3501 7.99949 21 6.99949 21.5C5.99949 22 3.99972 22.25 2.99951 21.5Z" stroke="#333333" stroke-width="2" stroke-linecap="round" stroke-linejoin="round"/>
<path d="M11.5 15C11.5 15 12.9999 14 14.9999 13C16.9999 12 21.5 12 21.5 12L20 8.5C20 8.5 15.9998 8.5 14.5 10" stroke="#333333" stroke-width="2" stroke-linecap="round" stroke-linejoin="round"/>
</g>
</g>
<defs>
<clipPath id="clip0_16_32441">
<rect width="24" height="24" fill="white"/>
</clipPath>
</defs>
</svg>
