<svg width="24" height="24" viewBox="0 0 24 24" fill="none" xmlns="http://www.w3.org/2000/svg">
<path d="M10.3112 5.5H19.4993C19.4993 5.5 19.4993 8 17.9993 9.5C16.4993 11 14.9995 11.5 14.4995 11.5C13.9995 11.5 9.24951 12 7.99951 13C6.74951 14 6.00006 15.75 7.99951 17.5C9.99896 19.25 13.4995 20 15.9995 19C18.4995 18 19.9996 15 19.9996 15L21.9995 20C21.9995 20 17.9995 21.5 14.4994 22C10.9992 22.5 7.49956 22 4.49937 19C1.49919 16 0.999027 12.25 3.49917 9C5.58231 6.2921 8.70646 5.66685 9.69066 5.53365C9.89686 5.5057 10.1031 5.5 10.3112 5.5Z" stroke="#333333" stroke-width="2" stroke-linecap="round" stroke-linejoin="round"/>
<path d="M13 11.5L10 5.5" stroke="#333333" stroke-width="2"/>
<path d="M9 2H16C17.933 2 19.5 3.56701 19.5 5.5" stroke="#333333" stroke-width="2" stroke-linecap="round" stroke-linejoin="round"/>
<path d="M15 9C15.5523 9 16 8.55228 16 8C16 7.44772 15.5523 7 15 7C14.4477 7 14 7.44772 14 8C14 8.55228 14.4477 9 15 9Z" fill="#333333"/>
</svg>
