<svg width="24" height="24" viewBox="0 0 24 24" fill="none" xmlns="http://www.w3.org/2000/svg">
<path d="M11.5002 6.5C7.85006 6.5 4.77093 9.03505 3.81055 12.5H19.1898C18.2294 9.03505 15.1502 6.5 11.5002 6.5Z" stroke="#333333" stroke-width="2" stroke-linecap="round" stroke-linejoin="round"/>
<path d="M3.50098 14.7963C3.50098 17.0056 4.33373 19.0132 5.69149 20.5H17.3105C18.6682 19.0132 19.501 17.0056 19.501 14.7963C19.501 13.9996 19.3927 13.2293 19.1906 12.5H3.81137C3.60925 13.2293 3.50098 13.9996 3.50098 14.7963Z" stroke="#333333" stroke-width="2" stroke-linecap="round" stroke-linejoin="round"/>
<path d="M13.5 6.5V5.5C13.5 4.39543 12.6046 3.5 11.5 3.5C10.3954 3.5 9.5 4.39543 9.5 5.5V6.5" stroke="#333333" stroke-width="2" stroke-linecap="round" stroke-linejoin="round"/>
<path d="M3.50076 14C3.50076 14 2.50806 13.9343 2.00049 12.75C1.25046 11 2.50057 9.99991 3.00058 8.49996C3.38098 7.35881 2.6039 6.50701 2.21034 6.16481C2.08423 6.05516 2.00072 5.89961 2.00068 5.73246L2.0006 5.42366C2.00053 5.17916 2.17745 4.97207 2.42175 4.96309C2.93958 4.94408 3.83182 4.99846 4.5006 5.49996C5.50076 6.24996 6.00076 8.49996 6.00076 8.49996" stroke="#333333" stroke-width="2" stroke-linecap="round" stroke-linejoin="round"/>
<path d="M4.5 20.5H18.5" stroke="#333333" stroke-width="2" stroke-linecap="round" stroke-linejoin="round"/>
<path d="M19.5 12.5C20.8807 12.5 22 11.3807 22 10C22 8.6193 20.8807 7.5 19.5 7.5C18.4749 7.5 17.5938 8.11705 17.208 9" stroke="#333333" stroke-width="2" stroke-linecap="round" stroke-linejoin="round"/>
</svg>
