<svg width="24" height="24" viewBox="0 0 24 24" fill="none" xmlns="http://www.w3.org/2000/svg">
<path d="M16 3.95125C16.75 3.75 17.6646 3.80553 18.2197 3.95125C19.4707 4.28014 20.3825 4.84496 20.9279 5.63075C21.5593 6.53975 21.6685 7.69955 21.254 9.07795C20.4047 11.8979 16.954 13.648 16.75 13.75" stroke="#333333" stroke-width="2" stroke-linecap="round" stroke-linejoin="round"/>
<path d="M13.624 20.6351C13.8814 20.684 14.143 20.7097 14.405 20.7107C15.1398 20.7107 15.7726 20.5029 16.2836 20.0935C16.8398 19.6512 17.2505 19 17.4167 18.1392C17.583 17.2785 17.3404 16.4715 17.0767 15.6843C16.8904 15.1251 16.7678 14.2818 16.7505 13.75" stroke="#333333" stroke-width="2" stroke-linecap="round" stroke-linejoin="round"/>
<path d="M6.5 13.2498C6.5 13.2498 3.59506 11.8966 2.74645 9.07776C2.33152 7.69971 2.4408 6.54061 3.07223 5.63056C3.61831 4.84512 4.52902 4.2803 5.78005 3.95106C6.3355 3.80534 6.86705 3.73145 7.36105 3.73145" stroke="#333333" stroke-width="2" stroke-linecap="round" stroke-linejoin="round"/>
<path d="M6.75001 13.5C7.00001 14 6.78376 14.8982 6.52011 15.6861C6.25641 16.474 5.98441 17.2872 6.17976 18.1406C6.37506 18.9941 6.75636 19.6523 7.31181 20.0949C7.82426 20.504 8.26501 20.75 9.00016 20.75C9.26176 20.749 10.0002 20.5 10.0002 20.5" stroke="#333333" stroke-width="2" stroke-linecap="round" stroke-linejoin="round"/>
<path d="M11.75 2C14.3733 2 16.5 3.32156 16.5 7.1875C16.5 11.0538 11.75 16 11.75 16C11.75 16 7 11.0535 7 7.1875C7 3.3212 9.1264 2 11.75 2Z" stroke="#333333" stroke-width="2" stroke-linecap="round" stroke-linejoin="round"/>
<path d="M11.9995 21.115C10.9946 21.1151 10.1403 20.784 9.56543 20.2803C8.90138 19.6967 8.56348 18.8672 8.56348 17.8139C8.56348 16.9358 9.03808 16.2034 9.49708 15.4943C9.82283 14.9905 10.2742 13.9993 10.2742 13.9993C10.2742 13.9993 10.5114 13.1808 10.4723 12.6494C10.4 11.6671 9.44643 10.9275 9.29168 10.4207C9.10398 9.79029 9.14978 9.40658 9.43393 9.21438C9.52133 9.15433 9.85648 9.13423 9.85648 9.13423C9.85648 9.13423 9.79333 8.21138 9.83288 7.90713C9.88043 7.54213 10.071 7.02123 10.5188 6.98288C10.8288 6.95628 11.0739 7.00263 11.2328 7.33638C11.2841 7.44428 11.3195 7.57508 11.3691 7.75583C11.5197 8.32168 11.7605 8.98363 11.9974 9.52173C12.2347 8.98503 12.4759 8.32308 12.6275 7.75618C12.6771 7.57543 12.7128 7.44463 12.7642 7.33638C12.9231 7.00263 13.1685 6.95673 13.4785 6.98353C13.8566 7.01628 14.1165 7.54283 14.1641 7.90713C14.2036 8.21138 14.196 8.61658 14.1405 9.13423H14.1641C14.2716 9.13423 14.477 9.15363 14.5648 9.21403C14.8493 9.40623 14.8659 9.97349 14.7067 10.4203C14.5 11.0004 13.6019 11.5669 13.5 12.5004C13.4357 13.089 13.5474 13.435 13.7255 13.9997C13.9234 14.6269 14.1755 14.9909 14.5023 15.4939C14.9613 16.2031 15.4359 16.9365 15.4359 17.8139C15.4359 18.8668 15.0987 19.6967 14.434 20.2796C13.8577 20.7833 13.0047 21.1149 11.9995 21.115Z" stroke="#333333" stroke-width="2" stroke-linecap="round" stroke-linejoin="round"/>
</svg>
