<svg width="24" height="24" viewBox="0 0 24 24" fill="none" xmlns="http://www.w3.org/2000/svg">
<path d="M5.28255 15.1821L2.10059 18.3641L5.6361 21.8996L8.8181 18.7176" stroke="#333333" stroke-width="2" stroke-linecap="round" stroke-linejoin="round"/>
<path d="M10.9395 9.52521L18.3641 2.10059L21.8996 5.63611L14.475 13.0608" stroke="#333333" stroke-width="2" stroke-linecap="round" stroke-linejoin="round"/>
<path d="M4.92961 14.8287C4.53909 14.4381 4.53909 13.805 4.92961 13.4145L9.17224 9.17182C9.56279 8.78127 10.1959 8.78127 10.5865 9.17182L14.8291 13.4145C15.2196 13.805 15.2196 14.4381 14.8291 14.8287L10.5865 19.0713C10.1959 19.4618 9.56279 19.4618 9.17224 19.0713L4.92961 14.8287Z" stroke="#333333" stroke-width="2" stroke-linecap="round" stroke-linejoin="round"/>
<path d="M12.7074 11.293L9.17188 14.8285" stroke="#333333" stroke-width="2" stroke-linecap="round" stroke-linejoin="round"/>
<path d="M15.8896 4.5752L19.4252 8.11074" stroke="#333333" stroke-width="2" stroke-linecap="round" stroke-linejoin="round"/>
<path d="M13.4141 7.05029L16.9496 10.5858" stroke="#333333" stroke-width="2" stroke-linecap="round" stroke-linejoin="round"/>
<path d="M7.75781 10.5859L13.4147 16.2428" stroke="#333333" stroke-width="2" stroke-linecap="round" stroke-linejoin="round"/>
</svg>
