<svg width="24" height="24" viewBox="0 0 24 24" fill="none" xmlns="http://www.w3.org/2000/svg">
<path d="M14.5 2H9.5C8.67157 2 8 2.67157 8 3.5V5.5C8 6.32843 8.67157 7 9.5 7H14.5C15.3284 7 16 6.32843 16 5.5V3.5C16 2.67157 15.3284 2 14.5 2Z" stroke="#333333" stroke-width="2" stroke-linecap="round" stroke-linejoin="round"/>
<path d="M15 10H9C5.68629 10 3 12.6863 3 16C3 19.3137 5.68629 22 9 22H15C18.3137 22 21 19.3137 21 16C21 12.6863 18.3137 10 15 10Z" stroke="#333333" stroke-width="2" stroke-linecap="round" stroke-linejoin="round"/>
<path d="M3 16.5002C4.52112 14.5665 9 15.0002 12 16.0002C15 17.0002 19 18.5002 21 16.0002" stroke="#333333" stroke-width="2" stroke-linecap="round" stroke-linejoin="round"/>
<path d="M12.5 4.5C12.5 4.77615 12.2761 5 12 5C11.7239 5 11.5 4.77615 11.5 4.5C11.5 4.22386 11.7239 4 12 4C12.2761 4 12.5 4.22386 12.5 4.5Z" fill="#333333"/>
</svg>
