<svg width="24" height="24" viewBox="0 0 24 24" fill="none" xmlns="http://www.w3.org/2000/svg">
<path d="M20.0001 9C18.5001 9 16.0003 9 15.0002 11.5C14 14 15.2501 16.25 16.5001 17.5" stroke="#333333" stroke-width="2" stroke-linecap="round" stroke-linejoin="round"/>
<path d="M9 5H20" stroke="#333333" stroke-width="2" stroke-linecap="round" stroke-linejoin="round"/>
<path d="M10.0002 2H19.0003C19.5526 2 20.0003 2.44771 20.0003 3V12.1438C20.0003 13.8599 19.2 15.4777 17.8322 16.5142C16.0112 17.8941 13.5441 19.7544 12.5002 20.5C10.7502 21.75 7.50021 23 5.00036 20.5C2.50048 18 3.12553 14.7215 5.00046 13C6.87536 11.2785 9.00021 9.57595 9.00021 9.57595V3C9.00021 2.44771 9.44791 2 10.0002 2Z" stroke="#333333" stroke-width="2" stroke-linecap="round" stroke-linejoin="round"/>
</svg>
