<svg width="24" height="24" viewBox="0 0 24 24" fill="none" xmlns="http://www.w3.org/2000/svg">
<path d="M9.7998 17.25H14.1998" stroke="#333333" stroke-width="2" stroke-linecap="round"/>
<path d="M1.15137 13.6954L4.97892 4.7809L7.47455 3.5" stroke="#333333" stroke-width="2" stroke-linecap="round" stroke-linejoin="round"/>
<path d="M22.9022 13.8167L19.0249 4.7809L16.5293 3.5" stroke="#333333" stroke-width="2" stroke-linecap="round" stroke-linejoin="round"/>
<path fill-rule="evenodd" clip-rule="evenodd" d="M1.7008 13.3999H9.35899C9.71634 13.3999 10.006 13.6896 10.006 14.047C10.006 14.064 10.0054 14.0811 10.004 14.0981L9.54034 19.9539C9.51369 20.2904 9.23284 20.5499 8.89529 20.5499H2.1645C1.82695 20.5499 1.54611 20.2904 1.51946 19.9539L1.05576 14.0981C1.02755 13.7418 1.29348 13.4302 1.64972 13.4019C1.66672 13.4006 1.68376 13.3999 1.7008 13.3999Z" stroke="#333333" stroke-width="2"/>
<path fill-rule="evenodd" clip-rule="evenodd" d="M14.6422 13.3999H22.3004C22.6578 13.3999 22.9475 13.6896 22.9475 14.047C22.9475 14.064 22.9468 14.0811 22.9455 14.0981L22.4817 19.9539C22.4551 20.2904 22.1743 20.5499 21.8367 20.5499H15.1059C14.7684 20.5499 14.4875 20.2904 14.4609 19.9539L13.9972 14.0981C13.969 13.7418 14.2349 13.4302 14.5912 13.4019C14.6081 13.4006 14.6252 13.3999 14.6422 13.3999Z" stroke="#333333" stroke-width="2"/>
</svg>
