<svg width="24" height="24" viewBox="0 0 24 24" fill="none" xmlns="http://www.w3.org/2000/svg">
<path d="M9 12.9997V5C9 3.34315 10.3432 2 12 2C13.6568 2 15 3.34315 15 5V12.9997C16.2145 13.9118 17 15.3642 17 17C17 19.7614 14.7614 22 12 22C9.2386 22 7 19.7614 7 17C7 15.3642 7.78555 13.9118 9 12.9997Z" stroke="#333333" stroke-width="2" stroke-linejoin="round"/>
<path d="M12 8.5V15" stroke="#333333" stroke-width="2" stroke-linecap="round" stroke-linejoin="round"/>
<path d="M12 19C13.1046 19 14 18.1046 14 17C14 15.8954 13.1046 15 12 15C10.8954 15 10 15.8954 10 17C10 18.1046 10.8954 19 12 19Z" stroke="#333333" stroke-width="2" stroke-linejoin="round"/>
</svg>
