<svg width="24" height="24" viewBox="0 0 24 24" fill="none" xmlns="http://www.w3.org/2000/svg">
<path d="M18 2H6C3.79086 2 2 3.79086 2 6C2 8.20915 3.79086 10 6 10H18C20.2092 10 22 8.20915 22 6C22 3.79086 20.2092 2 18 2Z" stroke="#333333" stroke-width="2" stroke-linejoin="round"/>
<path d="M18 14H6C3.79086 14 2 15.7908 2 18C2 20.2092 3.79086 22 6 22H18C20.2092 22 22 20.2092 22 18C22 15.7908 20.2092 14 18 14Z" stroke="#333333" stroke-width="2" stroke-linejoin="round"/>
<path d="M18 7C18.5523 7 19 6.5523 19 6C19 5.4477 18.5523 5 18 5C17.4477 5 17 5.4477 17 6C17 6.5523 17.4477 7 18 7Z" stroke="#333333" stroke-width="2" stroke-linejoin="round"/>
<path d="M6 19C6.5523 19 7 18.5523 7 18C7 17.4477 6.5523 17 6 17C5.4477 17 5 17.4477 5 18C5 18.5523 5.4477 19 6 19Z" stroke="#333333" stroke-width="2" stroke-linejoin="round"/>
</svg>
