<svg width="24" height="24" viewBox="0 0 24 24" fill="none" xmlns="http://www.w3.org/2000/svg">
<path d="M21 3H3C2.44771 3 2 3.44771 2 4V20C2 20.5523 2.44771 21 3 21H21C21.5523 21 22 20.5523 22 20V4C22 3.44771 21.5523 3 21 3Z" stroke="#333333" stroke-width="2" stroke-linejoin="round"/>
<path d="M2 9H22" stroke="#333333" stroke-width="2" stroke-linecap="round" stroke-linejoin="round"/>
<path d="M8.75 9V21" stroke="#333333" stroke-width="2" stroke-linecap="round" stroke-linejoin="round"/>
<path d="M15.25 9V21" stroke="#333333" stroke-width="2" stroke-linecap="round" stroke-linejoin="round"/>
<path d="M2 15H22" stroke="#333333" stroke-width="2" stroke-linecap="round" stroke-linejoin="round"/>
<path d="M22 4V20C22 20.5523 21.5523 21 21 21H3C2.44771 21 2 20.5523 2 20V4" stroke="#333333" stroke-width="2" stroke-linecap="round" stroke-linejoin="round"/>
</svg>
