<svg width="24" height="24" viewBox="0 0 24 24" fill="none" xmlns="http://www.w3.org/2000/svg">
<path d="M12 22C17.5229 22 22 17.5229 22 12C22 6.47715 17.5229 2 12 2C6.47715 2 2 6.47715 2 12C2 17.5229 6.47715 22 12 22Z" stroke="#333333" stroke-width="2"/>
<path d="M3.33984 17L12.0001 12M12.0001 12V2M12.0001 12L20.6603 17" stroke="#333333" stroke-width="2" stroke-linecap="round" stroke-linejoin="round"/>
<path d="M8.99941 2.4578C9.94646 2.16035 10.9542 2 11.9994 2C13.0446 2 14.0524 2.16035 14.9994 2.4578M2.31445 14.5C2.54273 15.387 2.88963 16.2262 3.33723 17C3.75953 17.73 4.27146 18.4017 4.85798 19M21.6844 14.5C21.4561 15.387 21.1092 16.2262 20.6616 17C20.2393 17.73 19.7274 18.4017 19.1409 19" stroke="#333333" stroke-width="2"/>
</svg>
