<svg width="24" height="24" viewBox="0 0 24 24" fill="none" xmlns="http://www.w3.org/2000/svg">
<path fill-rule="evenodd" clip-rule="evenodd" d="M12 5C12.8285 5 13.5 4.32842 13.5 3.5C13.5 2.67158 12.8285 2 12 2C11.1715 2 10.5 2.67158 10.5 3.5C10.5 4.32842 11.1715 5 12 5Z" stroke="#333333" stroke-width="2" stroke-linecap="round" stroke-linejoin="round"/>
<path fill-rule="evenodd" clip-rule="evenodd" d="M12 22C12.8285 22 13.5 21.3285 13.5 20.5C13.5 19.6715 12.8285 19 12 19C11.1715 19 10.5 19.6715 10.5 20.5C10.5 21.3285 11.1715 22 12 22Z" stroke="#333333" stroke-width="2" stroke-linecap="round" stroke-linejoin="round"/>
<path fill-rule="evenodd" clip-rule="evenodd" d="M3.5 13.5C4.32842 13.5 5 12.8285 5 12C5 11.1715 4.32842 10.5 3.5 10.5C2.67158 10.5 2 11.1715 2 12C2 12.8285 2.67158 13.5 3.5 13.5Z" stroke="#333333" stroke-width="2" stroke-linecap="round" stroke-linejoin="round"/>
<path fill-rule="evenodd" clip-rule="evenodd" d="M20.5 13.5C21.3285 13.5 22 12.8285 22 12C22 11.1715 21.3285 10.5 20.5 10.5C19.6715 10.5 19 11.1715 19 12C19 12.8285 19.6715 13.5 20.5 13.5Z" stroke="#333333" stroke-width="2" stroke-linecap="round" stroke-linejoin="round"/>
<path d="M12.0982 7.87189C13.6434 7.87189 15.0068 7.09304 15.817 5.90649C16.7578 6.46939 17.56 7.24019 18.16 8.15544C16.8646 8.94549 15.9998 10.3718 15.9998 12C15.9998 13.6714 16.9111 15.13 18.2638 15.906C17.7022 16.8147 16.9449 17.5896 16.0508 18.172C15.2875 16.7736 13.8036 15.8249 12.0982 15.8249C10.3982 15.8249 8.9184 16.7676 8.15295 18.1587C7.2387 17.5589 6.4687 16.7573 5.90625 15.8172C7.0928 15.007 7.87165 13.6436 7.87165 12.0984C7.87165 10.5583 7.09795 9.19884 5.918 8.38764C6.5271 7.37684 7.37665 6.52734 8.3874 5.91824C9.1986 7.09819 10.558 7.87189 12.0982 7.87189Z" stroke="#333333" stroke-width="2" stroke-linecap="round" stroke-linejoin="round"/>
</svg>
