<svg width="24" height="24" viewBox="0 0 24 24" fill="none" xmlns="http://www.w3.org/2000/svg">
<path fill-rule="evenodd" clip-rule="evenodd" d="M12 6C13.1046 6 14 5.10455 14 4C14 2.89543 13.1046 2 12 2C10.8954 2 10 2.89543 10 4C10 5.10455 10.8954 6 12 6Z" stroke="#333333" stroke-width="2" stroke-linecap="round" stroke-linejoin="round"/>
<path fill-rule="evenodd" clip-rule="evenodd" d="M12 14C13.1046 14 14 13.1046 14 12C14 10.8954 13.1046 10 12 10C10.8954 10 10 10.8954 10 12C10 13.1046 10.8954 14 12 14Z" stroke="#333333" stroke-width="2" stroke-linecap="round" stroke-linejoin="round"/>
<path fill-rule="evenodd" clip-rule="evenodd" d="M17.196 9.0001C17.7483 9.9567 18.9715 10.2844 19.9281 9.73215C20.8847 9.17985 21.2124 7.9567 20.6601 7.0001C20.1078 6.0435 18.8847 5.71575 17.9281 6.26805C16.9715 6.82035 16.6437 8.0435 17.196 9.0001Z" stroke="#333333" stroke-width="2" stroke-linecap="round" stroke-linejoin="round"/>
<path fill-rule="evenodd" clip-rule="evenodd" d="M17.196 15.0001C16.6437 15.9567 16.9715 17.1798 17.9281 17.7321C18.8847 18.2844 20.1078 17.9567 20.6601 17.0001C21.2124 16.0435 20.8847 14.8203 19.9281 14.268C18.9715 13.7157 17.7483 14.0435 17.196 15.0001Z" stroke="#333333" stroke-width="2" stroke-linecap="round" stroke-linejoin="round"/>
<path fill-rule="evenodd" clip-rule="evenodd" d="M12 18C10.8954 18 10 18.8954 10 20C10 21.1046 10.8954 22 12 22C13.1046 22 14 21.1046 14 20C14 18.8954 13.1046 18 12 18Z" stroke="#333333" stroke-width="2" stroke-linecap="round" stroke-linejoin="round"/>
<path fill-rule="evenodd" clip-rule="evenodd" d="M6.80366 15.0001C6.25136 14.0435 5.02821 13.7157 4.07162 14.268C3.11504 14.8203 2.78729 16.0435 3.33957 17.0001C3.89186 17.9567 5.11501 18.2844 6.07161 17.7321C7.02821 17.1798 7.35596 15.9567 6.80366 15.0001Z" stroke="#333333" stroke-width="2" stroke-linecap="round" stroke-linejoin="round"/>
<path fill-rule="evenodd" clip-rule="evenodd" d="M6.80366 9.0001C7.35596 8.0435 7.02821 6.82035 6.07161 6.26805C5.11501 5.71575 3.89186 6.0435 3.33957 7.0001C2.78729 7.9567 3.11504 9.17985 4.07162 9.73215C5.02821 10.2844 6.25136 9.9567 6.80366 9.0001Z" stroke="#333333" stroke-width="2" stroke-linecap="round" stroke-linejoin="round"/>
</svg>
