<svg width="24" height="24" viewBox="0 0 24 24" fill="none" xmlns="http://www.w3.org/2000/svg">
<path d="M12 6C13.1046 6 14 5.10455 14 4C14 2.89543 13.1046 2 12 2C10.8954 2 10 2.89543 10 4C10 5.10455 10.8954 6 12 6Z" stroke="#333333" stroke-width="2" stroke-linejoin="round"/>
<path d="M12 22C13.1046 22 14 21.1046 14 20C14 18.8954 13.1046 18 12 18C10.8954 18 10 18.8954 10 20C10 21.1046 10.8954 22 12 22Z" stroke="#333333" stroke-width="2" stroke-linejoin="round"/>
<path d="M4 14C5.10455 14 6 13.1046 6 12C6 10.8954 5.10455 10 4 10C2.89543 10 2 10.8954 2 12C2 13.1046 2.89543 14 4 14Z" stroke="#333333" stroke-width="2" stroke-linejoin="round"/>
<path d="M20 14C21.1046 14 22 13.1046 22 12C22 10.8954 21.1046 10 20 10C18.8954 10 18 10.8954 18 12C18 13.1046 18.8954 14 20 14Z" stroke="#333333" stroke-width="2" stroke-linejoin="round"/>
<path d="M6 12H18" stroke="#333333" stroke-width="2" stroke-linecap="round" stroke-linejoin="round"/>
<path d="M12 6V18" stroke="#333333" stroke-width="2" stroke-linecap="round" stroke-linejoin="round"/>
<path d="M18.6529 7.55502C18.3609 7.11877 18.0271 6.71282 17.6572 6.34297C17.2873 5.97307 16.8813 5.63922 16.4451 5.34717M7.55551 5.34717C7.11926 5.63922 6.71331 5.97307 6.34346 6.34297C5.97356 6.71282 5.63971 7.11877 5.34766 7.55502L7.55551 5.34717ZM5.34766 16.4446C5.63971 16.8808 5.97356 17.2868 6.34346 17.6567C6.71331 18.0266 7.11926 18.3604 7.55551 18.6524L5.34766 16.4446ZM16.4451 18.6524C16.8813 18.3604 17.2873 18.0266 17.6572 17.6567C18.0271 17.2868 18.3609 16.8808 18.6529 16.4446L16.4451 18.6524Z" stroke="#333333" stroke-width="2" stroke-linecap="round" stroke-linejoin="round"/>
</svg>
