<svg width="24" height="24" viewBox="0 0 24 24" fill="none" xmlns="http://www.w3.org/2000/svg">
<path d="M20.5 16.5C21.3285 16.5 22 14.7092 22 12.5C22 10.2908 21.3285 8.5 20.5 8.5C19.6715 8.5 19 10.2908 19 12.5C19 14.7092 19.6715 16.5 20.5 16.5Z" stroke="#333333" stroke-width="2" stroke-linecap="round" stroke-linejoin="round"/>
<path d="M3.5 16.5C4.32842 16.5 5 14.7092 5 12.5C5 10.2908 4.32842 8.5 3.5 8.5C2.67158 8.5 2 10.2908 2 12.5C2 14.7092 2.67158 16.5 3.5 16.5Z" stroke="#333333" stroke-width="2" stroke-linecap="round" stroke-linejoin="round"/>
<path d="M12 22C13.6568 22 15 17.5229 15 12C15 6.47715 13.6568 2 12 2C10.3432 2 9 6.47715 9 12C9 17.5229 10.3432 22 12 22Z" stroke="#333333" stroke-width="2" stroke-linecap="round" stroke-linejoin="round"/>
<path d="M17 20C18.1046 20 19 16.4183 19 12C19 7.5817 18.1046 4 17 4C15.8954 4 15 7.5817 15 12C15 16.4183 15.8954 20 17 20Z" stroke="#333333" stroke-width="2" stroke-linecap="round" stroke-linejoin="round"/>
<path d="M7 20C8.10455 20 9 16.4183 9 12C9 7.5817 8.10455 4 7 4C5.89545 4 5 7.5817 5 12C5 16.4183 5.89545 20 7 20Z" stroke="#333333" stroke-width="2" stroke-linecap="round" stroke-linejoin="round"/>
</svg>
