<svg width="24" height="24" viewBox="0 0 24 24" fill="none" xmlns="http://www.w3.org/2000/svg">
<path d="M22 2.00003C22 2.00003 16.795 1.10054 15 4.00003C13.6639 6.15835 15.5 8.50005 15.5 8.50005M22 2.00003L15.5 8.50005M22 2.00003C22 2.00003 22.8995 7.2051 20 9.00005C17.8417 10.3362 15.5 8.50005 15.5 8.50005M15.5 8.50005L14 10.0001" stroke="#333333" stroke-width="2" stroke-linecap="round" stroke-linejoin="round"/>
<path d="M15.5 15.5L14 14M15.5 15.5C15.5 15.5 13.6639 17.8417 15 20C16.795 22.8995 22 22 22 22M15.5 15.5L22 22M15.5 15.5C15.5 15.5 17.8417 13.6639 20 15C22.8995 16.795 22 22 22 22" stroke="#333333" stroke-width="2" stroke-linecap="round" stroke-linejoin="round"/>
<path d="M8.6319 8.50005L10.1319 10.0001M8.6319 8.50005C8.6319 8.50005 10.468 6.15835 9.1319 4.00003C7.33695 1.10054 2.13187 2.00003 2.13187 2.00003M8.6319 8.50005L2.13187 2.00003M8.6319 8.50005C8.6319 8.50005 6.2902 10.3362 4.13187 9.00005C1.23237 7.2051 2.13187 2.00003 2.13187 2.00003" stroke="#333333" stroke-width="2" stroke-linecap="round" stroke-linejoin="round"/>
<path d="M8.6319 15.5L10.1319 14M8.6319 15.5C8.6319 15.5 10.468 17.8417 9.1319 20C7.33695 22.8995 2.13187 22 2.13187 22M8.6319 15.5L2.13187 22M8.6319 15.5C8.6319 15.5 6.2902 13.6639 4.13187 15C1.23237 16.795 2.13187 22 2.13187 22" stroke="#333333" stroke-width="2" stroke-linecap="round" stroke-linejoin="round"/>
</svg>
