<svg width="24" height="24" viewBox="0 0 24 24" fill="none" xmlns="http://www.w3.org/2000/svg">
<path d="M5 8C6.65685 8 8 6.65685 8 5C8 3.34315 6.65685 2 5 2C3.34315 2 2 3.34315 2 5C2 6.65685 3.34315 8 5 8Z" stroke="#333333" stroke-width="2" stroke-linecap="round" stroke-linejoin="round"/>
<path d="M3.14194 7.35547C2.71065 8.17632 2.39011 9.06447 2.2002 10.0001" stroke="#333333" stroke-width="2" stroke-linecap="round" stroke-linejoin="round"/>
<path d="M7.35547 3.14145C8.17637 2.71016 9.06452 2.38962 10.0001 2.19971" stroke="#333333" stroke-width="2" stroke-linecap="round" stroke-linejoin="round"/>
<path d="M19 8C20.6568 8 22 6.65685 22 5C22 3.34315 20.6568 2 19 2C17.3432 2 16 3.34315 16 5C16 6.65685 17.3432 8 19 8Z" stroke="#333333" stroke-width="2" stroke-linecap="round" stroke-linejoin="round"/>
<path d="M16.6446 3.14145C15.8237 2.71016 14.9356 2.38962 14 2.19971" stroke="#333333" stroke-width="2" stroke-linecap="round" stroke-linejoin="round"/>
<path d="M20.8584 7.35547C21.2897 8.17632 21.6102 9.06447 21.8001 10.0001" stroke="#333333" stroke-width="2" stroke-linecap="round" stroke-linejoin="round"/>
<path d="M19 22C20.6568 22 22 20.6568 22 19C22 17.3432 20.6568 16 19 16C17.3432 16 16 17.3432 16 19C16 20.6568 17.3432 22 19 22Z" stroke="#333333" stroke-width="2" stroke-linecap="round" stroke-linejoin="round"/>
<path d="M20.8584 16.6446C21.2897 15.8237 21.6102 14.9356 21.8001 14" stroke="#333333" stroke-width="2" stroke-linecap="round" stroke-linejoin="round"/>
<path d="M16.6446 20.8579C15.8237 21.2892 14.9356 21.6098 14 21.7997" stroke="#333333" stroke-width="2" stroke-linecap="round" stroke-linejoin="round"/>
<path d="M5 22C6.65685 22 8 20.6568 8 19C8 17.3432 6.65685 16 5 16C3.34315 16 2 17.3432 2 19C2 20.6568 3.34315 22 5 22Z" stroke="#333333" stroke-width="2" stroke-linecap="round" stroke-linejoin="round"/>
<path d="M7.35547 20.8579C8.17637 21.2892 9.06452 21.6098 10.0001 21.7997" stroke="#333333" stroke-width="2" stroke-linecap="round" stroke-linejoin="round"/>
<path d="M3.14194 16.6446C2.71065 15.8237 2.39011 14.9356 2.2002 14" stroke="#333333" stroke-width="2" stroke-linecap="round" stroke-linejoin="round"/>
<path d="M12 15V9M9 12H15" stroke="#333333" stroke-width="2" stroke-linecap="round" stroke-linejoin="round"/>
</svg>
