<svg width="24" height="24" viewBox="0 0 24 24" fill="none" xmlns="http://www.w3.org/2000/svg">
<path d="M19 15H5C3.34315 15 2 16.3432 2 18C2 19.6568 3.34315 21 5 21H19C20.6568 21 22 19.6568 22 18C22 16.3432 20.6568 15 19 15Z" stroke="#333333" stroke-width="2" stroke-linecap="round" stroke-linejoin="round"/>
<path d="M18 11C20.2092 11 22 9.20915 22 7C22 4.79086 20.2092 3 18 3C15.7908 3 14 4.79086 14 7C14 9.20915 15.7908 11 18 11Z" stroke="#333333" stroke-width="2" stroke-linecap="round" stroke-linejoin="round"/>
<path d="M2 7L6.5 2.5L11 7L6.5 11.5L2 7Z" stroke="#333333" stroke-width="2" stroke-linecap="round" stroke-linejoin="round"/>
</svg>
