<svg width="24" height="24" viewBox="0 0 24 24" fill="none" xmlns="http://www.w3.org/2000/svg">
<path d="M14.1556 13.9159C15.8427 12.2288 14.779 8.42983 11.7797 5.43058C8.78051 2.43136 4.98152 1.36764 3.29445 3.05471C1.60739 4.74177 2.67111 8.54078 5.67031 11.54C8.66956 14.5392 12.4686 15.6029 14.1556 13.9159Z" stroke="#333333" stroke-width="2" stroke-linecap="round" stroke-linejoin="round"/>
<path d="M14.1556 9.63089C15.8427 11.3179 14.779 15.1169 11.7798 18.1161C8.78051 21.1154 4.98152 22.1791 3.29445 20.492C1.60739 18.805 2.67111 15.006 5.67031 12.0067C8.66956 9.00754 12.4686 7.94379 14.1556 9.63089Z" stroke="#333333" stroke-width="2" stroke-linecap="round" stroke-linejoin="round"/>
<path d="M9.84425 13.9159C8.1572 12.2288 9.2209 8.42983 12.2201 5.43058C15.2194 2.43136 19.0184 1.36764 20.7054 3.05471C22.3925 4.74177 21.3288 8.54078 18.3296 11.54C15.3303 14.5392 11.5313 15.6029 9.84425 13.9159Z" stroke="#333333" stroke-width="2" stroke-linecap="round" stroke-linejoin="round"/>
<path d="M9.84425 9.63087C8.1572 11.3179 9.2209 15.1169 12.2201 18.1161C15.2193 21.1154 19.0183 22.1791 20.7054 20.492C22.3924 18.805 21.3287 15.006 18.3295 12.0067C15.3303 9.00752 11.5313 7.94382 9.84425 9.63087Z" stroke="#333333" stroke-width="2" stroke-linecap="round" stroke-linejoin="round"/>
</svg>
