<svg width="24" height="24" viewBox="0 0 24 24" fill="none" xmlns="http://www.w3.org/2000/svg">
<path d="M12 22C17.5228 22 22 17.5228 22 12C22 6.47715 17.5228 2 12 2C6.47715 2 2 6.47715 2 12C2 17.5228 6.47715 22 12 22Z" stroke="#333333" stroke-width="2" stroke-linejoin="round"/>
<path d="M2.2002 10C3.12674 14.5645 7.16224 18 12.0001 18C16.838 18 20.8735 14.5645 21.8001 10" stroke="#333333" stroke-width="2" stroke-linecap="round" stroke-linejoin="round"/>
<path d="M2.83203 8C4.37514 11.5318 7.8993 14 12 14C16.1006 14 19.6248 11.5318 21.1679 8" stroke="#333333" stroke-width="2" stroke-linecap="round" stroke-linejoin="round"/>
<path d="M3.99902 6C5.82345 8.4289 8.7281 10 11.9998 10C15.2714 10 18.1761 8.4289 20.0073 6" stroke="#333333" stroke-width="2" stroke-linecap="round" stroke-linejoin="round"/>
<path d="M5.99902 4C7.67052 5.2558 9.74837 6 12 6C14.2517 6 16.3295 5.2558 18.001 4" stroke="#333333" stroke-width="2" stroke-linecap="round" stroke-linejoin="round"/>
</svg>
