<svg width="24" height="24" viewBox="0 0 24 24" fill="none" xmlns="http://www.w3.org/2000/svg">
<path d="M18.0001 20.0075C16.3288 21.2561 14.2513 22 12.0001 22C8.29865 22 5.0669 19.989 3.33789 17H7.50005" stroke="#333333" stroke-width="2" stroke-linecap="round" stroke-linejoin="round"/>
<path d="M16 2.83203C19.5318 4.37515 22 7.8993 22 12C22 13.8214 21.5131 15.5291 20.6622 17L18.641 13.5" stroke="#333333" stroke-width="2" stroke-linecap="round" stroke-linejoin="round"/>
<path d="M2.04938 13C2.01672 12.6711 2 12.3375 2 12C2 6.47715 6.47715 2 12 2L9.97885 5.5" stroke="#333333" stroke-width="2" stroke-linecap="round" stroke-linejoin="round"/>
<path d="M12 15C13.6568 15 15 13.6568 15 12C15 10.3432 13.6568 9 12 9C10.3432 9 9 10.3432 9 12C9 13.6568 10.3432 15 12 15Z" stroke="#333333" stroke-width="2" stroke-linecap="round" stroke-linejoin="round"/>
</svg>
