<svg width="24" height="24" viewBox="0 0 24 24" fill="none" xmlns="http://www.w3.org/2000/svg">
<path d="M14.758 8.75005C17.5194 13.533 17.2377 18.8654 14.1288 20.6603C11.0199 22.4552 6.26106 20.033 3.49964 15.2501C0.738211 10.4671 1.0199 5.1347 4.1288 3.33981C7.23771 1.54489 11.9966 3.96714 14.758 8.75005Z" stroke="#333333" stroke-width="2" stroke-linecap="round" stroke-linejoin="round"/>
<path d="M9.12952 8.75005C6.36812 13.533 6.64977 18.8654 9.75867 20.6603C12.8676 22.4552 17.6264 20.033 20.3879 15.2501C23.1493 10.4671 22.8676 5.1347 19.7587 3.33981C16.6498 1.54489 11.8909 3.96714 9.12952 8.75005Z" stroke="#333333" stroke-width="2" stroke-linecap="round" stroke-linejoin="round"/>
<path d="M11.876 5.17188C12.9485 6.12572 13.9406 7.33437 14.7578 8.74977C17.5192 13.5327 17.2375 18.8651 14.1286 20.66C13.4795 21.0348 12.7585 21.2257 11.9988 21.2497" stroke="#333333" stroke-width="2" stroke-linecap="round" stroke-linejoin="round"/>
</svg>
