<svg width="24" height="24" viewBox="0 0 24 24" fill="none" xmlns="http://www.w3.org/2000/svg">
<path d="M12 22C17.5229 22 22 17.5229 22 12C22 6.47715 17.5229 2 12 2C6.47715 2 2 6.47715 2 12C2 17.5229 6.47715 22 12 22Z" stroke="#333333" stroke-width="2" stroke-linecap="round" stroke-linejoin="round"/>
<path d="M12 14C13.1046 14 14 13.1046 14 12C14 10.8954 13.1046 10 12 10C10.8954 10 10 10.8954 10 12C10 13.1046 10.8954 14 12 14Z" stroke="#333333" stroke-width="2" stroke-linecap="round" stroke-linejoin="round"/>
<path d="M21.9999 12C21.9999 13.6844 21.5744 15.3415 20.7629 16.8176C19.9515 18.2936 18.7803 19.5408 17.3581 20.4433L15.2148 17.066C16.0681 16.5245 16.7708 15.7762 17.2577 14.8905C17.7446 14.0049 17.9999 13.0107 17.9999 12H21.9999Z" stroke="#333333" stroke-width="2" stroke-linecap="round" stroke-linejoin="round"/>
<path d="M6.71131 20.487C5.28171 19.5963 4.10031 18.3588 3.27668 16.8895C2.45306 15.4202 2.01391 13.7667 2 12.0824L5.99986 12.0493C6.00821 13.0599 6.2717 14.0521 6.76585 14.9336C7.26005 15.8152 7.9689 16.5577 8.82665 17.0921L6.71131 20.487Z" stroke="#333333" stroke-width="2" stroke-linecap="round" stroke-linejoin="round"/>
<path d="M7.22168 3.21581C8.70128 2.41085 10.3602 1.99268 12.0446 2.0001C13.729 2.00752 15.3842 2.44028 16.8566 3.25823L14.9142 6.75495C14.0307 6.26415 13.0376 6.0045 12.027 6.00005C11.0164 5.9956 10.021 6.2465 9.13323 6.7295L7.22168 3.21581Z" stroke="#333333" stroke-width="2" stroke-linecap="round" stroke-linejoin="round"/>
</svg>
