<svg width="24" height="24" viewBox="0 0 24 24" fill="none" xmlns="http://www.w3.org/2000/svg">
<path fill-rule="evenodd" clip-rule="evenodd" d="M12.0004 22.5C13.6107 22.5 16.3641 20.4 16.3641 12C16.3641 3.6 13.6107 1.5 12.0004 1.5C10.3901 1.5 7.63672 3.74151 7.63672 12C7.63672 20.2585 10.3901 22.5 12.0004 22.5Z" stroke="#333333" stroke-width="2" stroke-linecap="round" stroke-linejoin="round"/>
<path fill-rule="evenodd" clip-rule="evenodd" d="M2.55209 17.5002C3.35724 18.9063 6.62346 20.2107 14.1815 15.8107C21.7395 11.4107 22.2524 7.90631 21.4472 6.50016C20.6421 5.09401 17.2486 3.86375 9.81786 8.18966C2.38712 12.5155 1.74696 16.094 2.55209 17.5002Z" stroke="#333333" stroke-width="2" stroke-linecap="round" stroke-linejoin="round"/>
<path fill-rule="evenodd" clip-rule="evenodd" d="M2.55229 6.50016C1.74716 7.90631 2.25999 11.4107 9.81806 15.8107C17.3761 20.2107 20.6423 18.9063 21.4474 17.5002C22.2526 16.094 21.6124 12.5155 14.1817 8.18966C6.75096 3.86375 3.35744 5.09401 2.55229 6.50016Z" stroke="#333333" stroke-width="2" stroke-linecap="round" stroke-linejoin="round"/>
</svg>
