<svg width="24" height="24" viewBox="0 0 24 24" fill="none" xmlns="http://www.w3.org/2000/svg">
<path fill-rule="evenodd" clip-rule="evenodd" d="M12 21.8C16.216 21.8 19.7803 18.4596 20.9468 14.6249C21.209 13.7628 23 13.7627 23 11.9C23 10.0372 21.1919 9.93005 20.8993 9.024C19.6862 5.2673 16.1604 2 12 2C7.83725 2 4.30986 5.27035 3.09862 9.0303C2.80733 9.93455 1 10.0045 1 11.9C1 13.7954 2.79613 13.7955 3.06745 14.6711C4.24835 18.482 7.8009 21.8 12 21.8Z" stroke="#333333" stroke-width="2"/>
<path d="M20.8993 9.024C19.6862 5.2673 16.1604 2 12 2" stroke="#333333" stroke-width="2" stroke-linecap="round"/>
<path d="M9.55059 10.7999C9.55059 11.2131 9.43849 11.5758 9.27039 11.828C9.10114 12.0819 8.89474 12.1999 8.70059 12.1999C8.50644 12.1999 8.30004 12.0819 8.13079 11.828C7.96269 11.5758 7.85059 11.2131 7.85059 10.7999C7.85059 10.3868 7.96269 10.024 8.13079 9.77185C8.30004 9.51795 8.50644 9.3999 8.70059 9.3999C8.89474 9.3999 9.10114 9.51795 9.27039 9.77185C9.43849 10.024 9.55059 10.3868 9.55059 10.7999Z" fill="#333333" stroke="#333333" stroke-width="0.5"/>
<path d="M16.1502 10.7999C16.1502 11.2131 16.0381 11.5758 15.87 11.828C15.7007 12.0819 15.4943 12.1999 15.3002 12.1999C15.106 12.1999 14.8996 12.0819 14.7304 11.828C14.5623 11.5758 14.4502 11.2131 14.4502 10.7999C14.4502 10.3868 14.5623 10.024 14.7304 9.77185C14.8996 9.51795 15.106 9.3999 15.3002 9.3999C15.4943 9.3999 15.7007 9.51795 15.87 9.77185C16.0381 10.024 16.1502 10.3868 16.1502 10.7999Z" fill="#333333" stroke="#333333" stroke-width="0.5"/>
<path fill-rule="evenodd" clip-rule="evenodd" d="M9.24902 15.8755C10.2145 16.5253 11.133 16.8502 12.0047 16.8502C12.8755 16.8502 13.7388 16.526 14.5947 15.8776" fill="#333333"/>
<path d="M9.24902 15.8755C10.2145 16.5253 11.133 16.8502 12.0047 16.8502C12.8755 16.8502 13.7388 16.526 14.5947 15.8776" stroke="#333333" stroke-width="2" stroke-linecap="round"/>
<path d="M15.8641 3.1001C15.9982 4.06684 15.7033 4.77325 14.9796 5.21935C14.2559 5.66545 13.0801 5.8745 11.4521 5.8465" stroke="#333333" stroke-width="2" stroke-linecap="round"/>
</svg>
