<svg width="24" height="24" viewBox="0 0 24 24" fill="none" xmlns="http://www.w3.org/2000/svg">
<path d="M16.2426 12.2427C17.3284 11.1568 18 9.65685 18 8C18 4.68629 15.3137 2 12 2C8.6863 2 6 4.68629 6 8C6 9.65685 6.67155 11.1568 7.75735 12.2427" stroke="#333333" stroke-width="2" stroke-linecap="round"/>
<path d="M3 22L3.5 19.5L9 15.5L12 18.5L15 15.5L20.5 19.5L21 22" stroke="#333333" stroke-width="2" stroke-linecap="round" stroke-linejoin="round"/>
<path d="M6.49707 10.5033C6.50342 8.44801 6.83782 6.94681 7.50037 5.99971C8.49422 4.57911 9.19387 4.68353 9.70307 4.9048C10.2123 5.12606 10.5117 6.57186 11.3622 6.98861C12.2127 7.40536 14.3892 7.45681 15.1347 7.95811C15.8802 8.45946 17.5852 9.39196 17.1601 10.984" stroke="#333333" stroke-width="2"/>
</svg>
