<svg width="24" height="24" viewBox="0 0 24 24" fill="none" xmlns="http://www.w3.org/2000/svg">
<path d="M9.6126 3.18455C8.0211 3.18455 5.5808 4.1035 6.4296 9.7916C6.4424 9.87725 6.4592 9.97035 6.47715 10.0697C6.63175 10.9256 6.87095 12.2499 5.35 13.342C6.38445 14.1908 7.85775 15.0396 9.64825 15.4072C9.57605 15.8299 9.4671 16.3059 9.38275 16.6142C9.23675 17.1478 8.93195 17.5263 8.387 17.6877C7.9071 17.8299 7.40425 17.945 6.88885 18.0629C6.7565 18.0931 6.62325 18.1236 6.48945 18.1548C5.8464 18.3045 5.1917 18.4697 4.61089 18.704C4.0291 18.9386 3.48791 19.2553 3.09709 19.7276C2.6988 20.2089 2.48615 20.8161 2.5007 21.5748C2.50523 21.8109 2.70749 22 2.95544 22H21.0445C21.2924 22 21.4947 21.8109 21.4993 21.5748C21.514 20.8162 21.3014 20.209 20.9031 19.7276C20.5123 19.2553 19.9711 18.9386 19.3893 18.704C18.8084 18.4697 18.1536 18.3045 17.5106 18.1548C17.3768 18.1236 17.2437 18.0932 17.1113 18.0629C16.5958 17.945 16.0929 17.8299 15.613 17.6877C15.068 17.5263 14.7632 17.1478 14.6173 16.6142C14.5169 16.2474 14.3813 15.6433 14.3144 15.1739C15.6835 14.7618 17.1384 14.0217 18.65 12.8389L18.6429 12.832C17.9337 12.1531 16.6036 10.8798 16.5091 7.85815C16.5091 3.69688 13.8562 0.0393268 9.6126 3.18455Z" stroke="#333333" stroke-width="2" stroke-linejoin="round"/>
</svg>
