<svg width="24" height="24" viewBox="0 0 24 24" fill="none" xmlns="http://www.w3.org/2000/svg">
<path d="M9.1419 21.5857C7.46635 21.0868 5.9749 20.1607 4.79393 18.9335C5.2345 18.4114 5.5 17.7367 5.5 17.0001C5.5 15.3432 4.15685 14.0001 2.5 14.0001C2.39977 14.0001 2.3007 14.005 2.203 14.0146C2.0699 13.3639 2 12.6902 2 12.0001C2 10.9548 2.16039 9.9469 2.4579 8.99975C2.47191 8.99995 2.48594 9.00005 2.5 9.00005C4.15685 9.00005 5.5 7.6569 5.5 6.00005C5.5 5.5244 5.3893 5.07465 5.1923 4.67506C6.34875 3.59975 7.76025 2.79501 9.32605 2.36157C9.8222 3.3341 10.8333 4.00007 12 4.00007C13.1667 4.00007 14.1778 3.3341 14.674 2.36157C16.2398 2.79501 17.6512 3.59975 18.8077 4.67506C18.6107 5.07465 18.5 5.5244 18.5 6.00005C18.5 7.6569 19.8432 9.00005 21.5 9.00005C21.5141 9.00005 21.5281 8.99995 21.5421 8.99975C21.8396 9.9469 22 10.9548 22 12.0001C22 12.6902 21.9301 13.3639 21.797 14.0146C21.6993 14.005 21.6002 14.0001 21.5 14.0001C19.8432 14.0001 18.5 15.3432 18.5 17.0001C18.5 17.7367 18.7655 18.4114 19.2061 18.9335C18.0251 20.1607 16.5336 21.0868 14.8581 21.5857C14.4714 20.376 13.338 19.5001 12 19.5001C10.662 19.5001 9.5286 20.376 9.1419 21.5857Z" stroke="#333333" stroke-width="2" stroke-linejoin="round"/>
<path d="M12 15.5C13.933 15.5 15.5 13.933 15.5 12C15.5 10.067 13.933 8.5 12 8.5C10.067 8.5 8.5 10.067 8.5 12C8.5 13.933 10.067 15.5 12 15.5Z" stroke="#333333" stroke-width="2" stroke-linejoin="round"/>
</svg>
