<svg width="24" height="24" viewBox="0 0 24 24" fill="none" xmlns="http://www.w3.org/2000/svg">
<path d="M4.72727 7.45455C5.25115 7.45455 6.16025 7.45455 7.45455 7.45455C7.45455 6.11665 7.45455 5.20755 7.45455 4.72727C7.45455 3.22104 6.2335 2 4.72727 2C3.22104 2 2 3.22104 2 4.72727C2 6.2335 3.22104 7.45455 4.72727 7.45455Z" stroke="#333333" stroke-width="2" stroke-linejoin="round"/>
<path d="M4.72727 16.5459H7.45455V19.2731C7.45455 20.7794 6.2335 22.0004 4.72727 22.0004C3.22104 22.0004 2 20.7794 2 19.2731C2 17.7669 3.22104 16.5459 4.72727 16.5459Z" stroke="#333333" stroke-width="2" stroke-linejoin="round"/>
<path d="M16.546 7.4541H7.45508V16.545H16.546V7.4541Z" stroke="#333333" stroke-width="2" stroke-linecap="round" stroke-linejoin="round"/>
<path d="M19.2722 7.45455H16.5449V4.72727C16.5449 3.22104 17.766 2 19.2722 2C20.7784 2 21.9995 3.22104 21.9995 4.72727C21.9995 6.2335 20.7784 7.45455 19.2722 7.45455Z" stroke="#333333" stroke-width="2" stroke-linejoin="round"/>
<path d="M19.2722 16.5459C20.7784 16.5459 21.9995 17.7669 21.9995 19.2731C21.9995 20.7794 20.7784 22.0004 19.2722 22.0004C17.766 22.0004 16.5449 20.7794 16.5449 19.2731V16.5459H19.2722Z" stroke="#333333" stroke-width="2" stroke-linejoin="round"/>
</svg>
