<svg width="24" height="24" viewBox="0 0 24 24" fill="none" xmlns="http://www.w3.org/2000/svg">
<path d="M18 4H6.5C5 4 2 5 2 8C2 11 5 12 6.5 12H17.5C19 12 22 13 22 16C22 19 19 20 17.5 20H6" stroke="#333333" stroke-width="2" stroke-linecap="round" stroke-linejoin="round"/>
<path d="M20 6C21.1046 6 22 5.10455 22 4C22 2.89543 21.1046 2 20 2C18.8954 2 18 2.89543 18 4C18 5.10455 18.8954 6 20 6Z" stroke="#333333" stroke-width="2" stroke-linejoin="round"/>
<path d="M4 22C5.10455 22 6 21.1046 6 20C6 18.8954 5.10455 18 4 18C2.89543 18 2 18.8954 2 20C2 21.1046 2.89543 22 4 22Z" stroke="#333333" stroke-width="2" stroke-linejoin="round"/>
</svg>
