<svg width="24" height="24" viewBox="0 0 24 24" fill="none" xmlns="http://www.w3.org/2000/svg">
<path d="M12.0002 5.8095C13.0467 5.8095 13.895 4.95673 13.895 3.90476C13.895 2.85279 13.0467 2 12.0002 2C10.9538 2 10.1055 2.85279 10.1055 3.90476C10.1055 4.95673 10.9538 5.8095 12.0002 5.8095Z" stroke="#333333" stroke-width="2" stroke-linejoin="round"/>
<path d="M4.89473 20.0957C5.94115 20.0957 6.78945 19.2429 6.78945 18.1909C6.78945 17.1389 5.94115 16.2861 4.89473 16.2861C3.8483 16.2861 3 17.1389 3 18.1909C3 19.2429 3.8483 20.0957 4.89473 20.0957Z" stroke="#333333" stroke-width="2" stroke-linejoin="round"/>
<path d="M19.1057 20.0957C20.1521 20.0957 21.0004 19.2429 21.0004 18.1909C21.0004 17.1389 20.1521 16.2861 19.1057 16.2861C18.0592 16.2861 17.2109 17.1389 17.2109 18.1909C17.2109 19.2429 18.0592 20.0957 19.1057 20.0957Z" stroke="#333333" stroke-width="2" stroke-linejoin="round"/>
<path d="M16.5713 5.15723C19.222 6.73158 20.9999 9.63333 20.9999 12.9525C20.9999 13.2409 20.9865 13.5262 20.9603 13.8077" stroke="#333333" stroke-width="2" stroke-linecap="round" stroke-linejoin="round"/>
<path d="M15.507 21.2871C14.4293 21.7459 13.2442 21.9997 12.0001 21.9997C10.756 21.9997 9.57091 21.7459 8.49316 21.2871" stroke="#333333" stroke-width="2" stroke-linecap="round" stroke-linejoin="round"/>
<path d="M3.03968 13.8077C3.01343 13.5262 3 13.2409 3 12.9525C3 9.63333 4.77795 6.73158 7.42865 5.15723" stroke="#333333" stroke-width="2" stroke-linecap="round" stroke-linejoin="round"/>
</svg>
