<svg width="24" height="24" viewBox="0 0 24 24" fill="none" xmlns="http://www.w3.org/2000/svg">
<path d="M11.9998 5.63635C13.004 5.63635 13.818 4.82234 13.818 3.81818C13.818 2.81403 13.004 2 11.9998 2C10.9956 2 10.1816 2.81403 10.1816 3.81818C10.1816 4.82234 10.9956 5.63635 11.9998 5.63635Z" stroke="#333333" stroke-width="2" stroke-linejoin="round"/>
<path d="M11.9998 21.9996C13.004 21.9996 13.818 21.1856 13.818 20.1815C13.818 19.1773 13.004 18.3633 11.9998 18.3633C10.9956 18.3633 10.1816 19.1773 10.1816 20.1815C10.1816 21.1856 10.9956 21.9996 11.9998 21.9996Z" stroke="#333333" stroke-width="2" stroke-linejoin="round"/>
<path d="M3.81818 13.818C4.82234 13.818 5.63635 13.004 5.63635 11.9998C5.63635 10.9957 4.82234 10.1816 3.81818 10.1816C2.81403 10.1816 2 10.9957 2 11.9998C2 13.004 2.81403 13.818 3.81818 13.818Z" stroke="#333333" stroke-width="2" stroke-linejoin="round"/>
<path d="M20.1815 13.818C21.1856 13.818 21.9997 13.004 21.9997 11.9998C21.9997 10.9957 21.1856 10.1816 20.1815 10.1816C19.1773 10.1816 18.3633 10.9957 18.3633 11.9998C18.3633 13.004 19.1773 13.818 20.1815 13.818Z" stroke="#333333" stroke-width="2" stroke-linejoin="round"/>
<path d="M16.3672 5.08008C17.396 5.73068 18.2697 6.60443 18.9203 7.63323" stroke="#333333" stroke-width="2" stroke-linecap="round" stroke-linejoin="round"/>
<path d="M18.9203 16.3672C18.2697 17.396 17.396 18.2697 16.3672 18.9204" stroke="#333333" stroke-width="2" stroke-linecap="round" stroke-linejoin="round"/>
<path d="M7.63323 18.9204C6.60438 18.2697 5.73068 17.396 5.08008 16.3672" stroke="#333333" stroke-width="2" stroke-linecap="round" stroke-linejoin="round"/>
<path d="M5.08008 7.63323C5.73068 6.60443 6.60438 5.73068 7.63323 5.08008" stroke="#333333" stroke-width="2" stroke-linecap="round" stroke-linejoin="round"/>
</svg>
