<svg width="24" height="24" viewBox="0 0 24 24" fill="none" xmlns="http://www.w3.org/2000/svg">
<path d="M14.1221 5.63598L5.63679 14.1213C5.24627 14.5118 5.24627 15.145 5.63679 15.5355L8.46522 18.3639C8.85575 18.7544 9.48891 18.7544 9.87943 18.3639L18.3647 9.87862C18.7552 9.4881 18.7552 8.85493 18.3647 8.46441L15.5363 5.63598C15.1458 5.24546 14.5126 5.24546 14.1221 5.63598Z" stroke="#333333" stroke-width="2" stroke-linejoin="round"/>
<path d="M3.51465 20.4853L7.0502 16.9497" stroke="#333333" stroke-width="2" stroke-linecap="round" stroke-linejoin="round"/>
<path d="M16.9512 7.05019L20.4867 3.51465" stroke="#333333" stroke-width="2" stroke-linecap="round" stroke-linejoin="round"/>
<path d="M7.40332 12.3535L11.646 16.5962" stroke="#333333" stroke-width="2" stroke-linecap="round" stroke-linejoin="round"/>
<path d="M9.87891 9.87866L14.1216 14.1213" stroke="#333333" stroke-width="2" stroke-linecap="round" stroke-linejoin="round"/>
<path d="M12.3535 7.40381L16.5962 11.6465" stroke="#333333" stroke-width="2" stroke-linecap="round" stroke-linejoin="round"/>
<path d="M6.34277 13.4143L13.4139 6.34326" stroke="#333333" stroke-width="2" stroke-linecap="round" stroke-linejoin="round"/>
<path d="M10.5859 17.657L17.657 10.5859" stroke="#333333" stroke-width="2" stroke-linecap="round" stroke-linejoin="round"/>
</svg>
