<svg width="24" height="24" viewBox="0 0 24 24" fill="none" xmlns="http://www.w3.org/2000/svg">
<path d="M4.92864 15.5355C4.53811 15.145 4.53811 14.5118 4.92864 14.1213L6.4035 12.6464C6.59105 12.4589 6.8454 12.3535 7.1106 12.3535H8.4035C8.66875 12.3535 8.9231 12.2482 9.11065 12.0606L12.0604 9.11086C12.2479 8.92336 12.3533 8.66896 12.3533 8.40376V7.11085C12.3533 6.84565 12.4586 6.59131 12.6462 6.40376L14.121 4.92888C14.5116 4.53836 15.1447 4.53836 15.5353 4.92888L19.0708 8.46441C19.4613 8.85496 19.4613 9.48811 19.0708 9.87861L17.5959 11.3535C17.4084 11.5411 17.154 11.6464 16.8888 11.6464H15.5959C15.3307 11.6464 15.0764 11.7518 14.8888 11.9393L11.9391 14.8891C11.7515 15.0766 11.6462 15.331 11.6462 15.5962V16.8891C11.6462 17.1543 11.5408 17.4086 11.3533 17.5962L9.8784 19.071C9.48785 19.4616 8.8547 19.4616 8.46415 19.071L4.92864 15.5355Z" stroke="#333333" stroke-width="2" stroke-linejoin="round"/>
<path d="M3.51465 20.4852L6.69665 17.3032" stroke="#333333" stroke-width="2" stroke-linecap="round" stroke-linejoin="round"/>
<path d="M17.3037 6.69664L20.4857 3.51465" stroke="#333333" stroke-width="2" stroke-linecap="round" stroke-linejoin="round"/>
</svg>
