<svg width="24" height="24" viewBox="0 0 24 24" fill="none" xmlns="http://www.w3.org/2000/svg">
<path d="M15.2208 2.5C16.203 2.5 17.1325 2.72388 17.9604 3.12303L16.3586 4.71334C15.4353 5.63005 15.4353 7.11635 16.3586 8.03305C17.2819 8.94975 18.7789 8.94975 19.7022 8.03305L21.1285 6.61685C21.3689 7.2779 21.5 7.9909 21.5 8.73425C21.5 12.1774 18.6888 14.9685 15.2208 14.9685C14.3913 14.9685 13.5993 14.8088 12.8743 14.5187L6.535 20.8127C5.6119 21.7291 4.11535 21.7291 3.1923 20.8127C2.26924 19.8962 2.26924 18.4104 3.1923 17.4939L9.47615 11.2549C9.13255 10.4842 8.9417 9.63135 8.9417 8.73425C8.9417 5.29115 11.7529 2.5 15.2208 2.5Z" stroke="#333333" stroke-width="2" stroke-linejoin="round"/>
</svg>
