<svg width="24" height="24" viewBox="0 0 24 24" fill="none" xmlns="http://www.w3.org/2000/svg">
<path d="M6.5 7.5V6C6.5 5.17155 5.82845 4.5 5 4.5C4.17158 4.5 3.5 5.17155 3.5 6V9.5" stroke="#333333" stroke-width="2" stroke-linecap="round" stroke-linejoin="round"/>
<path d="M2 13.5C2 10.1863 4.68629 7.5 8 7.5C11.3137 7.5 14 10.1863 14 13.5V19.5H2V13.5Z" stroke="#333333" stroke-width="2" stroke-linejoin="round"/>
<path d="M22 13.5H14V19.5H22V13.5Z" stroke="#333333" stroke-width="2" stroke-linejoin="round"/>
<path d="M8 15.5C9.10457 15.5 10 14.6046 10 13.5C10 12.3954 9.10457 11.5 8 11.5C6.89543 11.5 6 12.3954 6 13.5C6 14.6046 6.89543 15.5 8 15.5Z" stroke="#333333" stroke-width="2"/>
<path d="M19.5 13.5V15.5" stroke="#333333" stroke-width="2" stroke-linecap="round" stroke-linejoin="round"/>
<path d="M16.5 13.5V15.5" stroke="#333333" stroke-width="2" stroke-linecap="round" stroke-linejoin="round"/>
<path d="M15 13.5H21" stroke="#333333" stroke-width="2" stroke-linecap="round" stroke-linejoin="round"/>
</svg>
