<svg width="24" height="24" viewBox="0 0 24 24" fill="none" xmlns="http://www.w3.org/2000/svg">
<path d="M7.17045 10.7059L12.0001 12L16.8297 13.2941L21.6593 14.5882C22.8283 10.2253 20.9238 5.76295 17.2729 3.50006C16.4598 2.99605 15.56 2.60116 14.5883 2.34078C13.4692 2.04091 12.3434 1.94328 11.25 2.02547C7.1314 2.33509 3.47037 5.1963 2.34082 9.41185L7.17045 10.7059Z" stroke="#333333" stroke-width="2" stroke-linecap="round" stroke-linejoin="round"/>
<path d="M14.5886 2.34082C14.5886 2.34082 11.7682 4.17329 10.1552 6.32927C8.54227 8.48527 8.13672 10.9648 8.13672 10.9648" stroke="#333333" stroke-width="2" stroke-linecap="round" stroke-linejoin="round"/>
<path d="M14.5889 2.34082C14.5889 2.34082 16.1151 5.33797 16.434 8.01162C16.7529 10.6852 15.8644 13.0354 15.8644 13.0354" stroke="#333333" stroke-width="2" stroke-linecap="round" stroke-linejoin="round"/>
<path d="M2.34082 9.41162L7.17045 10.7057L12.0001 11.9998L16.8297 13.2939L21.6593 14.588" stroke="#333333" stroke-width="2" stroke-linecap="round" stroke-linejoin="round"/>
<path d="M2 22H22" stroke="#333333" stroke-width="2" stroke-linecap="round" stroke-linejoin="round"/>
<path d="M12 12L9.25 22" stroke="#333333" stroke-width="2" stroke-linecap="round" stroke-linejoin="round"/>
<path d="M11.25 2.02547C12.3434 1.94328 13.4691 2.04091 14.5882 2.34078C15.5599 2.60116 16.4597 2.99605 17.2729 3.50006" stroke="#333333" stroke-width="2" stroke-linecap="round" stroke-linejoin="round"/>
</svg>
