<svg width="24" height="24" viewBox="0 0 24 24" fill="none" xmlns="http://www.w3.org/2000/svg">
<path d="M20.5 3H3.5C2.94772 3 2.5 3.44772 2.5 4V6C2.5 6.55228 2.94772 7 3.5 7H20.5C21.0523 7 21.5 6.55228 21.5 6V4C21.5 3.44772 21.0523 3 20.5 3Z" stroke="#333333" stroke-width="2" stroke-linejoin="round"/>
<path d="M4 7V20C4 20.5523 4.44771 21 5 21H19C19.5523 21 20 20.5523 20 20V7" stroke="#333333" stroke-width="2" stroke-linejoin="round"/>
<path d="M15.5 14.5333C15.5 16.4479 13.933 18 12 18C10.067 18 8.5 16.4479 8.5 14.5333C8.5 12.6187 9.84615 11.8666 10.3846 10C12.5384 10.9333 12.5385 13.7333 12.5385 13.7333C12.5385 13.7333 13.0769 12.1333 14.6923 11.7333C14.8269 13.2 15.5 13.7158 15.5 14.5333Z" stroke="#333333" stroke-width="2" stroke-linecap="round" stroke-linejoin="round"/>
</svg>
