<svg width="24" height="24" viewBox="0 0 24 24" fill="none" xmlns="http://www.w3.org/2000/svg">
<path d="M11.9998 15.5V18M11.9998 15.5L7.0067 13.8777M11.9998 15.5L8.9139 11.2527M11.9998 15.5V10.25M11.9998 15.5L15.0857 11.2527M11.9998 15.5L16.9928 13.8777M7.0067 13.8777L2.01367 12.2553C2.69888 10.1464 4.03412 8.30865 5.828 7.0053C7.6219 5.702 9.7824 5 11.9998 5C14.2172 5 16.3776 5.702 18.1715 7.0053C19.9654 8.30865 21.3007 10.1464 21.9859 12.2553L16.9928 13.8777M7.0067 13.8777H16.9928M7.0067 13.8777C7.3493 12.8233 8.01695 11.9044 8.9139 11.2527M7.0067 13.8777L8.9139 11.2527M16.9928 13.8777C16.6502 12.8233 15.9826 11.9044 15.0857 11.2527M16.9928 13.8777L15.0857 11.2527M8.9139 11.2527C9.81085 10.601 10.8911 10.25 11.9998 10.25M8.9139 11.2527L11.9998 10.25M11.9998 10.25C13.1085 10.25 14.1887 10.601 15.0857 11.2527M11.9998 10.25L15.0857 11.2527" stroke="#333333" stroke-width="2" stroke-linecap="round" stroke-linejoin="round"/>
</svg>
