<svg width="24" height="24" viewBox="0 0 24 24" fill="none" xmlns="http://www.w3.org/2000/svg">
<path d="M7.50007 10.3061C6.78822 13.3808 10.7465 14.1635 9.81192 16.3299C8.87732 18.4962 6.78442 18.0629 7.01807 20.2292C7.25177 22.3955 10.021 22.426 12.5419 21.1208C17.5838 18.5103 18.6354 12.8083 16.3538 10.3061C13.5501 7.23131 8.21187 7.23131 7.50007 10.3061Z" stroke="#333333" stroke-width="2"/>
<path d="M16.3035 7.917C16.7266 8.272 17.5012 8.04533 18.0337 7.41072C18.5662 6.7761 18.6549 5.97386 18.2319 5.61886C17.8088 5.26386 17.0341 5.49053 16.5016 6.12514C15.9691 6.75975 15.8804 7.56199 16.3035 7.917Z" fill="#333333"/>
<path d="M14.0564 6.66107C14.557 6.89448 15.2465 6.47504 15.5967 5.72423C15.9468 4.97342 15.8248 4.17556 15.3243 3.94215C14.8237 3.70874 14.1341 4.12818 13.784 4.87899C13.4339 5.6298 13.5559 6.42767 14.0564 6.66107Z" fill="#333333"/>
<path d="M11.5335 6.29317C12.0827 6.3509 12.5982 5.72981 12.6848 4.90592C12.7714 4.08203 12.3963 3.36734 11.8471 3.30961C11.2978 3.25188 10.7823 3.87297 10.6957 4.69686C10.6092 5.52075 10.9842 6.23544 11.5335 6.29317Z" fill="#333333"/>
<path d="M7.68387 5.87953C8.46234 5.59619 8.78715 4.52507 8.40937 3.48711C8.03158 2.44916 7.09426 1.83742 6.31579 2.12076C5.53732 2.4041 5.21251 3.47522 5.59029 4.51317C5.96808 5.55113 6.9054 6.16287 7.68387 5.87953Z" stroke="#333333" stroke-width="2"/>
<path d="M18.1191 9.73201C18.4741 10.1551 19.2763 10.0664 19.9109 9.53387C20.5455 9.00137 20.7722 8.22672 20.4172 7.80364C20.0622 7.38057 19.26 7.46928 18.6253 8.00178C17.9907 8.53428 17.7641 9.30893 18.1191 9.73201Z" fill="#333333"/>
</svg>
