<svg width="24" height="24" viewBox="0 0 24 24" fill="none" xmlns="http://www.w3.org/2000/svg">
<path d="M2.23047 6.42016L11.1177 4.53113C11.3771 4.47599 11.6478 4.52616 11.8702 4.67061L15.9197 7.30036C16.1421 7.44481 16.4128 7.49496 16.6722 7.43986L18.7125 7.00616C19.2527 6.89136 19.7837 7.23621 19.8985 7.77641L20.2104 9.24366C20.3252 9.78386 19.9804 10.3149 19.4401 10.4297L15.9327 11.1752C15.6733 11.2304 15.4026 11.1802 15.1802 11.0358L11.1307 8.40601C10.9083 8.26156 10.6376 8.21136 10.3782 8.26651L8.827 8.59621" stroke="#333333" stroke-width="2" stroke-linecap="round"/>
<path d="M21.7696 16.5796L12.8823 18.4687C12.6229 18.5238 12.3522 18.4736 12.1298 18.3292L8.08034 15.6994C7.85789 15.555 7.58719 15.5048 7.32779 15.56L5.28754 15.9936C4.74735 16.1084 4.21633 15.7636 4.1015 15.2234L3.78964 13.7562C3.67481 13.2159 4.01966 12.6849 4.55987 12.5701L8.06729 11.8246C8.32674 11.7694 8.59744 11.8196 8.81984 11.964L12.8693 14.5938C13.0917 14.7382 13.3624 14.7884 13.6218 14.7333L15.173 14.4036" stroke="#333333" stroke-width="2" stroke-linecap="round"/>
</svg>
