<svg width="24" height="24" viewBox="0 0 24 24" fill="none" xmlns="http://www.w3.org/2000/svg">
<g clip-path="url(#clip0_11_24349)">
<mask id="mask0_11_24349" style="mask-type:luminance" maskUnits="userSpaceOnUse" x="0" y="0" width="24" height="24">
<path d="M24 0H0V24H24V0Z" fill="white"/>
</mask>
<g mask="url(#mask0_11_24349)">
<path d="M15.3274 10.7925L17.379 8.74094C18.3798 9.00824 19.492 8.74929 20.2771 7.96409C21.4487 6.79254 21.4487 4.89303 20.2771 3.72145C19.1056 2.54988 17.2061 2.54988 16.0345 3.72145C15.2493 4.50664 14.9904 5.61879 15.2576 6.61964L13.2061 8.67119" stroke="#333333" stroke-width="2" stroke-linecap="round" stroke-linejoin="round"/>
<path d="M20.6315 16.0961L7.90353 3.36816L5.95898 5.3127L9.84808 10.9695L8.43388 13.0909L10.732 15.389L12.8533 13.9747L18.6869 18.0406L20.6315 16.0961Z" stroke="#333333" stroke-width="2" stroke-linecap="round" stroke-linejoin="round"/>
<path d="M9.65964 10.942C7.96404 10.4481 6.05829 10.8697 4.7213 12.2066C2.76868 14.1593 2.76868 17.3251 4.7213 19.2777C6.67394 21.2303 9.83974 21.2303 11.7924 19.2777C13.1293 17.9407 13.5509 16.035 13.057 14.3393" stroke="#333333" stroke-width="2" stroke-linecap="round" stroke-linejoin="round"/>
</g>
</g>
<defs>
<clipPath id="clip0_11_24349">
<rect width="24" height="24" fill="white"/>
</clipPath>
</defs>
</svg>
