<svg width="24" height="24" viewBox="0 0 24 24" fill="none" xmlns="http://www.w3.org/2000/svg">
<g clip-path="url(#clip0_11_24363)">
<mask id="mask0_11_24363" style="mask-type:luminance" maskUnits="userSpaceOnUse" x="0" y="0" width="24" height="24">
<path d="M24 0H0V24H24V0Z" fill="white"/>
</mask>
<g mask="url(#mask0_11_24363)">
<path d="M11.1963 12.7079C13.5232 14.6604 16.9924 14.3569 18.9449 12.03C20.8974 9.70309 20.5939 6.23394 18.267 4.28143C15.94 2.32892 12.4709 2.63243 10.5184 4.95934C8.56587 7.28625 8.86938 10.7554 11.1963 12.7079Z" stroke="#333333" stroke-width="2" stroke-linecap="round" stroke-linejoin="round"/>
<path d="M19.2663 11.6468C19.2663 11.6468 16.4486 11.8933 13.7675 9.64359C11.0863 7.39384 10.8398 4.57617 10.8398 4.57617" stroke="#333333" stroke-width="2" stroke-linecap="round" stroke-linejoin="round"/>
<path d="M13.4326 13.9317C11.7024 14.438 10.8989 15.3955 10.0954 16.3531C9.29198 17.3106 9.25453 18.911 8.29033 20.06C7.32618 21.2091 5.91733 21.3324 4.76826 20.3682C3.6192 19.404 3.49594 17.9952 4.46012 16.8461C5.42428 15.697 6.99383 15.3823 7.79733 14.4247C8.60078 13.4672 9.40428 12.5096 9.60243 10.7178" stroke="#333333" stroke-width="2" stroke-linecap="round" stroke-linejoin="round"/>
<path d="M19.4163 5.24546C19.9488 4.61085 19.866 3.66472 19.2314 3.13222C18.5968 2.59972 17.6507 2.68249 17.1182 3.3171" stroke="#333333" stroke-width="2" stroke-linecap="round" stroke-linejoin="round"/>
</g>
</g>
<defs>
<clipPath id="clip0_11_24363">
<rect width="24" height="24" fill="white"/>
</clipPath>
</defs>
</svg>
