<svg width="24" height="24" viewBox="0 0 24 24" fill="none" xmlns="http://www.w3.org/2000/svg">
<path d="M3.28602 9.78735L2.20354 6.1791C2.08151 5.7723 2.22707 5.33095 2.58576 5.10355C4.0285 4.18896 7.32047 2.5 11.9998 2.5C16.6712 2.5 19.8998 4.18319 21.3793 5.09885C21.7532 5.33025 21.9135 5.7877 21.7872 6.20885L20.7136 9.78735C20.5867 10.2103 20.1974 10.5 19.7558 10.5H17.9998C17.4475 10.5 16.9998 10.9456 16.9998 11.4979V16.5009C16.9998 17.0532 16.5473 17.5066 16.0135 17.6483C15.364 17.8208 14.5374 18.1937 13.9998 19C12.9998 20.5 12.9998 22 12.9998 22H10.9998C10.9998 22 10.9998 20.5 9.99982 19C9.46222 18.1937 8.63567 17.8208 7.98617 17.6483C7.45237 17.5066 6.99982 17.0532 6.99982 16.5009V11.4979C6.99982 10.9456 6.55212 10.5 5.99982 10.5H4.24385C3.80224 10.5 3.41292 10.2103 3.28602 9.78735Z" stroke="#333333" stroke-width="2" stroke-linecap="round" stroke-linejoin="round"/>
<path d="M14.9055 2.75C14.9672 2.98971 15 3.24103 15 3.5C15 5.15685 13.6568 6.5 12 6.5C10.3432 6.5 9 5.15685 9 3.5C9 3.24103 9.0328 2.98971 9.0945 2.75" stroke="#333333" stroke-width="2" stroke-linecap="round" stroke-linejoin="round"/>
<path d="M6.75 3.24688C8.2163 2.81514 9.97875 2.5 12 2.5C14.0213 2.5 15.7724 2.81514 17.2286 3.24688" stroke="#333333" stroke-width="2" stroke-linecap="round" stroke-linejoin="round"/>
</svg>
