<svg width="24" height="24" viewBox="0 0 24 24" fill="none" xmlns="http://www.w3.org/2000/svg">
<path d="M7.99789 4.34302C8.36119 4.34302 8.69589 4.54003 8.87224 4.85765L10.0954 7.06105C10.2556 7.34955 10.2631 7.6985 10.1155 7.99365L8.93714 10.3505C8.93714 10.3505 9.27864 12.1062 10.7078 13.5354C12.137 14.9646 13.8869 15.3002 13.8869 15.3002L16.2433 14.122C16.5387 13.9743 16.8879 13.982 17.1765 14.1424L19.3861 15.3709C19.7034 15.5474 19.9002 15.8819 19.9002 16.2449V18.7817C19.9002 20.0735 18.7003 21.0066 17.4762 20.5935C14.9623 19.7453 11.0599 18.1302 8.58654 15.6567C6.11309 13.1833 4.498 9.28095 3.64973 6.767C3.23672 5.54295 4.16976 4.34302 5.46159 4.34302H7.99789Z" stroke="#333333" stroke-width="2" stroke-linejoin="round"/>
<path opacity="0.01" d="M20.5 3.5H14V10H20.5V3.5Z" fill="#333333"/>
<path d="M19.5 4.5L15 9" stroke="#333333" stroke-width="2" stroke-linecap="round" stroke-linejoin="round"/>
<path d="M15 4.5L19.5 9" stroke="#333333" stroke-width="2" stroke-linecap="round" stroke-linejoin="round"/>
</svg>
