<svg width="24" height="24" viewBox="0 0 24 24" fill="none" xmlns="http://www.w3.org/2000/svg">
<path d="M8.49789 3.8429C8.86119 3.8429 9.19589 4.03991 9.37224 4.35753L10.5954 6.56093C10.7556 6.84943 10.7631 7.19838 10.6155 7.49353L9.43714 9.85038C9.43714 9.85038 9.77864 11.6061 11.2078 13.0353C12.637 14.4645 14.3869 14.8001 14.3869 14.8001L16.7433 13.6219C17.0387 13.4742 17.3879 13.4818 17.6765 13.6423L19.8861 14.8708C20.2034 15.0472 20.4002 15.3817 20.4002 15.7448V18.2815C20.4002 19.5734 19.2003 20.5064 17.9762 20.0934C15.4623 19.2451 11.5599 17.63 9.08654 15.1566C6.61309 12.6832 4.998 8.78083 4.14973 6.26688C3.73672 5.04283 4.66976 3.8429 5.96159 3.8429H8.49789Z" stroke="#333333" stroke-width="2" stroke-linejoin="round"/>
</svg>
