<svg width="24" height="24" viewBox="0 0 24 24" fill="none" xmlns="http://www.w3.org/2000/svg">
<path d="M6.68735 4.89722C7.05065 4.89722 7.38535 5.09425 7.56165 5.41185L8.7849 7.61525C8.94505 7.90375 8.95255 8.2527 8.805 8.54785L7.6266 10.9047C7.6266 10.9047 7.9681 12.6604 9.3973 14.0896C10.8265 15.5188 12.5764 15.8544 12.5764 15.8544L14.9328 14.6762C15.2282 14.5285 15.5774 14.5362 15.866 14.6966L18.0756 15.9251C18.3929 16.1016 18.5897 16.4361 18.5897 16.7991V19.3359C18.5897 20.6277 17.3898 21.5608 16.1657 21.1477C13.6518 20.2995 9.7494 18.6844 7.276 16.2109C4.80256 13.7375 3.18745 9.83515 2.33918 7.3212C1.92617 6.09715 2.85922 4.89722 4.15104 4.89722H6.68735Z" stroke="#333333" stroke-width="2" stroke-linejoin="round"/>
<path d="M17.1201 3L13.1201 7L17.1201 11" stroke="#333333" stroke-width="2" stroke-linecap="round" stroke-linejoin="round"/>
<path d="M21.1201 7.00415H13.1201" stroke="#333333" stroke-width="2" stroke-linecap="round" stroke-linejoin="round"/>
</svg>
