<svg width="24" height="24" viewBox="0 0 24 24" fill="none" xmlns="http://www.w3.org/2000/svg">
<path d="M7.18737 4.89697C7.55067 4.89697 7.88537 5.09397 8.06167 5.41162L9.28487 7.61502C9.44507 7.90352 9.45257 8.25247 9.30502 8.54762L8.12657 10.9044C8.12657 10.9044 8.46807 12.6601 9.89732 14.0894C11.3265 15.5186 13.0763 15.8542 13.0763 15.8542L15.4328 14.676C15.7282 14.5283 16.0773 14.5359 16.3659 14.6964L18.5756 15.9249C18.8929 16.1013 19.0897 16.4358 19.0897 16.7989V19.3356C19.0897 20.6275 17.8897 21.5605 16.6657 21.1475C14.1517 20.2992 10.2494 18.6841 7.77597 16.2107C5.30257 13.7373 3.68745 9.83492 2.83918 7.32097C2.42617 6.09692 3.35922 4.89697 4.65104 4.89697H7.18737Z" stroke="#333333" stroke-width="2" stroke-linejoin="round"/>
<path d="M19.5 7.5H13.5V2.5H19.5V4L22 3V7L19.5 6V7.5Z" stroke="#333333" stroke-width="2" stroke-linecap="round" stroke-linejoin="round"/>
</svg>
