<svg width="24" height="24" viewBox="0 0 24 24" fill="none" xmlns="http://www.w3.org/2000/svg">
<path d="M7.18735 4.89722C7.55065 4.89722 7.88535 5.09425 8.06165 5.41185L9.2849 7.61525C9.44505 7.90375 9.45255 8.2527 9.305 8.54785L8.1266 10.9047C8.1266 10.9047 8.4681 12.6604 9.8973 14.0896C11.3265 15.5188 13.0764 15.8544 13.0764 15.8544L15.4328 14.6762C15.7282 14.5285 16.0774 14.5362 16.366 14.6966L18.5756 15.9251C18.8929 16.1016 19.0897 16.4361 19.0897 16.7991V19.3359C19.0897 20.6277 17.8898 21.5608 16.6657 21.1477C14.1518 20.2995 10.2494 18.6844 7.776 16.2109C5.30255 13.7375 3.68745 9.83515 2.83918 7.3212C2.42617 6.09715 3.35922 4.89722 4.65104 4.89722H7.18735Z" stroke="#333333" stroke-width="2" stroke-linejoin="round"/>
<path d="M17.5 3L21.5 7L17.5 11" stroke="#333333" stroke-width="2" stroke-linecap="round" stroke-linejoin="round"/>
<path d="M13.5 7.00415H21.5" stroke="#333333" stroke-width="2" stroke-linecap="round" stroke-linejoin="round"/>
</svg>
