<svg width="24" height="24" viewBox="0 0 24 24" fill="none" xmlns="http://www.w3.org/2000/svg">
<path d="M20.8901 10.3033C21.0165 9.4554 20.9751 8.58735 20.7658 7.7527C20.4893 6.6501 19.9199 5.6059 19.0577 4.74365C18.1954 3.88141 17.1512 3.31205 16.0487 3.03558C15.214 2.82629 14.3459 2.78484 13.498 2.91123" stroke="#333333" stroke-width="2" stroke-linecap="round" stroke-linejoin="round"/>
<path d="M17.0943 9.90173C17.2297 8.99343 16.9478 8.03493 16.2486 7.33573C15.5494 6.63653 14.5909 6.35458 13.6826 6.48998" stroke="#333333" stroke-width="2" stroke-linecap="round" stroke-linejoin="round"/>
<path d="M7.18735 4.39722C7.55065 4.39722 7.88535 4.59423 8.06165 4.91185L9.2849 7.11525C9.44505 7.40375 9.45255 7.7527 9.305 8.04785L8.1266 10.4047C8.1266 10.4047 8.4681 12.1604 9.8973 13.5896C11.3265 15.0188 13.0764 15.3544 13.0764 15.3544L15.4328 14.1762C15.7282 14.0285 16.0774 14.0362 16.366 14.1966L18.5756 15.4251C18.8929 15.6015 19.0897 15.9361 19.0897 16.2991V18.8359C19.0897 20.1277 17.8898 21.0608 16.6657 20.6477C14.1518 19.7995 10.2494 18.1844 7.776 15.7109C5.30255 13.2375 3.68745 9.33515 2.83918 6.8212C2.42617 5.59715 3.35922 4.39722 4.65104 4.39722H7.18735Z" stroke="#333333" stroke-width="2" stroke-linejoin="round"/>
</svg>
