<svg width="24" height="24" viewBox="0 0 24 24" fill="none" xmlns="http://www.w3.org/2000/svg">
<path d="M9.72233 10.7502C9.50893 10.2164 9.43778 9.85049 9.43778 9.85049L10.6162 7.49364C10.7637 7.19849 10.7562 6.84954 10.5961 6.56104L9.37283 4.35765C9.19653 4.04003 8.86183 3.84302 8.49853 3.84302H5.96223C4.6704 3.84302 3.7377 5.04414 4.15075 6.26814C4.75648 8.06314 5.75303 10.5655 7.17368 12.7502M13.339 14.4559C13.9525 14.7168 14.3875 14.8002 14.3875 14.8002L16.744 13.622C17.0393 13.4743 17.3885 13.4819 17.6771 13.6424L19.8868 14.8709C20.2041 15.0473 20.4009 15.3818 20.4009 15.7449V18.2817C20.4009 19.5735 19.1991 20.506 17.9751 20.0929C16.1015 19.4606 13.4575 18.4026 11.2085 16.881" stroke="#333333" stroke-width="2" stroke-linecap="round" stroke-linejoin="round"/>
<path d="M20 4L4 20" stroke="#333333" stroke-width="2" stroke-linecap="round" stroke-linejoin="round"/>
</svg>
