<svg width="24" height="24" viewBox="0 0 24 24" fill="none" xmlns="http://www.w3.org/2000/svg">
<path d="M7.68735 4.89697C8.05065 4.89697 8.38535 5.09399 8.56165 5.41159L9.7849 7.61504C9.94505 7.90354 9.95255 8.25244 9.805 8.54759L8.6266 10.9044C8.6266 10.9044 8.9681 12.6601 10.3973 14.0893C11.8265 15.5186 13.5764 15.8542 13.5764 15.8542L15.9328 14.6759C16.2282 14.5283 16.5774 14.5359 16.866 14.6964L19.0756 15.9249C19.3929 16.1013 19.5897 16.4358 19.5897 16.7989V19.3356C19.5897 20.6274 18.3898 21.5605 17.1657 21.1475C14.6518 20.2992 10.7494 18.6841 8.276 16.2107C5.80255 13.7372 4.18745 9.83494 3.33918 7.32094C2.92617 6.09694 3.85922 4.89697 5.15105 4.89697H7.68735Z" stroke="#333333" stroke-width="2" stroke-linejoin="round"/>
<path d="M14.5 9.99998L21 3.75" stroke="#333333" stroke-width="2" stroke-linecap="round" stroke-linejoin="round"/>
<path d="M21 9.99998H14.5V3.5" stroke="#333333" stroke-width="2" stroke-linecap="round" stroke-linejoin="round"/>
</svg>
