<svg width="24" height="24" viewBox="0 0 24 24" fill="none" xmlns="http://www.w3.org/2000/svg">
<g clip-path="url(#clip0_5_18706)">
<mask id="mask0_5_18706" style="mask-type:luminance" maskUnits="userSpaceOnUse" x="0" y="0" width="24" height="24">
<path d="M24 0H0V24H24V0Z" fill="white"/>
</mask>
<g mask="url(#mask0_5_18706)">
<path d="M8.0498 12.9144L19.3635 3.01486C19.3635 3.01486 20.4242 1.9542 21.4848 3.01486C22.5455 4.07552 21.4848 5.13618 21.4848 5.13618L11.5853 16.4499L8.0498 12.9144Z" stroke="#333333" stroke-width="2" stroke-linejoin="round"/>
<path d="M11.2324 10.4395L14.0608 13.2679" stroke="#333333" stroke-width="2" stroke-linecap="round" stroke-linejoin="round"/>
<path d="M2.74671 15.3891L8.05 12.9142L11.5856 16.4498L9.11065 21.7531C9.11065 21.7531 6.6358 22.1066 4.51447 19.9853C2.39315 17.864 2.74671 15.3891 2.74671 15.3891Z" stroke="#333333" stroke-width="2" stroke-linejoin="round"/>
<path d="M3.4541 18.2174L5.92899 17.1568" stroke="#333333" stroke-width="2" stroke-linecap="round" stroke-linejoin="round"/>
<path d="M6.28223 21.0461L6.98933 19.6319" stroke="#333333" stroke-width="2" stroke-linecap="round" stroke-linejoin="round"/>
<path d="M9.46484 11.6768L10.879 10.4394L12.2933 9.2019" stroke="#333333" stroke-width="2" stroke-linejoin="round"/>
<path d="M15.2981 12.2071L14.0606 13.6213L12.8232 15.0355" stroke="#333333" stroke-width="2" stroke-linejoin="round"/>
</g>
</g>
<defs>
<clipPath id="clip0_5_18706">
<rect width="24" height="24" fill="white"/>
</clipPath>
</defs>
</svg>
