<svg width="24" height="24" viewBox="0 0 24 24" fill="none" xmlns="http://www.w3.org/2000/svg">
<g clip-path="url(#clip0_5_18702)">
<mask id="mask0_5_18702" style="mask-type:luminance" maskUnits="userSpaceOnUse" x="0" y="0" width="24" height="24">
<path d="M24 0H0V24H24V0Z" fill="white"/>
</mask>
<g mask="url(#mask0_5_18702)">
<path d="M19.4238 2.66943C15.942 3.28337 12.1322 6.1092 10.6571 9.9594C9.0446 14.168 8.6083 14.6287 6.642 15.6934C4.75086 16.7175 2.2998 17.5361 2.2998 17.5361" stroke="#333333" stroke-width="2" stroke-linecap="round" stroke-linejoin="round"/>
<path d="M4.81934 16.5535C6.92904 15.284 9.67329 16.5951 10.902 17.4555C12.1307 18.3159 13.3801 18.2751 14.097 17.2511C14.814 16.2272 14.425 15.0393 13.1963 14.1789C12.3771 13.6053 9.63294 12.2942 10.6573 9.95947" stroke="#333333" stroke-width="2" stroke-linecap="round" stroke-linejoin="round"/>
<path d="M21.5946 4.79974C16.4333 6.06883 14.3849 7.68653 12.377 13.6052" stroke="#333333" stroke-width="2" stroke-linecap="round" stroke-linejoin="round"/>
<path d="M10.4916 17.1687C10.1023 18.0152 9.34429 20.0277 9.42604 21.3057" stroke="#333333" stroke-width="2" stroke-linecap="round" stroke-linejoin="round"/>
</g>
</g>
<defs>
<clipPath id="clip0_5_18702">
<rect width="24" height="24" fill="white"/>
</clipPath>
</defs>
</svg>
