<svg width="24" height="24" viewBox="0 0 24 24" fill="none" xmlns="http://www.w3.org/2000/svg">
<path d="M9.09863 15.7121C10.6607 17.2742 14.4597 16.0079 17.5839 12.8837C20.7081 9.7595 21.9744 5.96055 20.4123 4.39844" stroke="#333333" stroke-width="2" stroke-linecap="round" stroke-linejoin="round"/>
<path d="M13.6943 3.33765L14.4014 4.04476" stroke="#333333" stroke-width="2" stroke-linecap="round" stroke-linejoin="round"/>
<path d="M11.2197 5.8125L11.9268 6.5196" stroke="#333333" stroke-width="2" stroke-linecap="round" stroke-linejoin="round"/>
<path d="M9.09863 8.64111L9.80573 9.34821" stroke="#333333" stroke-width="2" stroke-linecap="round" stroke-linejoin="round"/>
<path d="M8.39062 12.1765L9.09772 12.8836" stroke="#333333" stroke-width="2" stroke-linecap="round" stroke-linejoin="round"/>
<path d="M17.584 2.2771L18.2911 2.9842" stroke="#333333" stroke-width="2" stroke-linecap="round" stroke-linejoin="round"/>
<path d="M16.876 6.51978L18.2902 7.93398" stroke="#333333" stroke-width="2" stroke-linecap="round" stroke-linejoin="round"/>
<path d="M14.4014 8.99463L15.8156 10.4088" stroke="#333333" stroke-width="2" stroke-linecap="round" stroke-linejoin="round"/>
<path d="M11.5732 11.116L12.9874 12.5302" stroke="#333333" stroke-width="2" stroke-linecap="round" stroke-linejoin="round"/>
<path d="M9.09875 17.8333C9.68453 17.2476 9.68453 16.2978 9.09875 15.712C8.51296 15.1262 7.56321 15.1262 6.97743 15.712L4.149 18.5405C3.56321 19.1262 3.56321 20.076 4.149 20.6618C4.73479 21.2476 5.68453 21.2476 6.27032 20.6618L9.09875 17.8333Z" stroke="#333333" stroke-width="2" stroke-linecap="round" stroke-linejoin="round"/>
</svg>
