<svg width="24" height="24" viewBox="0 0 24 24" fill="none" xmlns="http://www.w3.org/2000/svg">
<path d="M12.5 9.94509C11.75 8.68499 9.75 8.68494 9 9.94509C8.44245 10.8819 6.5 12.25 6 12.4716C6.83335 13.6477 9.75 16 12.5 16C15.75 16 18.0834 13.6477 19 12.4716C18.5 12.25 17.4181 11.4098 16.25 9.94509C15.25 8.69114 13.25 8.69114 12.5 9.94509Z" stroke="#333333" stroke-width="2" stroke-linecap="round" stroke-linejoin="round"/>
<path d="M6 12.5C7.89495 12.8773 13.1479 13.4056 19 12.5" stroke="#333333" stroke-width="2" stroke-linecap="round" stroke-linejoin="round"/>
<path d="M22 12C22 17.5229 17.5229 22 12 22C6.47715 22 2 17.5229 2 12C2 6.47715 6.47715 2 12 2" stroke="#333333" stroke-width="2" stroke-linecap="round" stroke-linejoin="round"/>
<path d="M19.5 4.23608L19.6715 4.76394H20.2265L19.7775 5.09016L19.949 5.61806L19.5 5.29181L19.0509 5.61806L19.2225 5.09016L18.7734 4.76394H19.3285L19.5 4.23608Z" stroke="#333333" stroke-width="2"/>
<path d="M17.5005 11.3281C18.1473 11.9523 18.6877 12.3329 19.0005 12.4715C18.5784 13.0131 17.8559 13.8041 16.8818 14.4999" stroke="#333333" stroke-width="2" stroke-linecap="round" stroke-linejoin="round"/>
<path d="M8.0489 11C7.27745 11.687 6.3281 12.3261 6 12.4716C6.47065 13.1358 7.6057 14.1752 9 14.9541" stroke="#333333" stroke-width="2" stroke-linecap="round" stroke-linejoin="round"/>
</svg>
