<svg width="24" height="24" viewBox="0 0 24 24" fill="none" xmlns="http://www.w3.org/2000/svg">
<path d="M9.44711 2.94453C9.47651 2.41462 9.91481 2 10.4456 2H13.5536C14.0843 2 14.5226 2.41462 14.552 2.94453L14.9409 9.94455C14.9728 10.5177 14.5166 11 13.9425 11H10.0567C9.48256 11 9.02636 10.5177 9.05821 9.94455L9.44711 2.94453Z" stroke="#333333" stroke-width="2"/>
<path d="M5.5 14C5.5 12.3432 6.84315 11 8.5 11H15.5C17.1568 11 18.5 12.3432 18.5 14V20.5C18.5 21.3285 17.8285 22 17 22H7C6.17155 22 5.5 21.3285 5.5 20.5V14Z" stroke="#333333" stroke-width="2"/>
<path d="M12 18C12.8284 18 13.5 17.3284 13.5 16.5C13.5 15.6716 12.8284 15 12 15C11.1716 15 10.5 15.6716 10.5 16.5C10.5 17.3284 11.1716 18 12 18Z" fill="#333333"/>
</svg>
