<svg width="24" height="24" viewBox="0 0 24 24" fill="none" xmlns="http://www.w3.org/2000/svg">
<path d="M3.27031 13.217C3.13153 12.5924 3.60675 12 4.2465 12H19.7533C20.393 12 20.8682 12.5924 20.7294 13.217L19.1739 20.2169C19.0722 20.6744 18.6664 21 18.1977 21H5.80203C5.33333 21 4.92754 20.6744 4.82587 20.2169L3.27031 13.217Z" stroke="#333333" stroke-width="2" stroke-linecap="round" stroke-linejoin="round"/>
<path d="M10.3215 4.94429C11.0371 4.00408 11.5888 2.70517 11.887 2C12.4088 2.70517 13.542 4.47418 13.8998 5.4144C14.3471 6.58965 13.2289 8 11.887 8C10.5451 8 9.4269 6.11955 10.3215 4.94429Z" stroke="#333333" stroke-width="2" stroke-linecap="round" stroke-linejoin="round"/>
<path d="M12 8V12" stroke="#333333" stroke-width="2" stroke-linecap="round" stroke-linejoin="round"/>
</svg>
