<svg width="24" height="24" viewBox="0 0 24 24" fill="none" xmlns="http://www.w3.org/2000/svg">
<path d="M19.5312 15.1412L2.7895 18.0932C2.2456 18.1891 1.88243 18.7078 1.97834 19.2517L2.15198 20.2365C2.24789 20.7804 2.76655 21.1435 3.31044 21.0476L20.0522 18.0956C20.5961 17.9997 20.9592 17.481 20.8633 16.9371L20.6897 15.9523C20.5938 15.4084 20.0751 15.0453 19.5312 15.1412Z" stroke="#333333" stroke-width="2" stroke-linecap="round" stroke-linejoin="round"/>
<path d="M22 20L20 18" stroke="#333333" stroke-width="2" stroke-linecap="round" stroke-linejoin="round"/>
<path d="M4.00008 2L13.1925 11.1924L11.0711 13.3137C11.0711 13.3137 6.12138 8.36395 4.70718 6.94975C3.29297 5.5355 3.29296 4.82841 3.29297 4.12131C3.29298 3.41422 4.00008 2 4.00008 2Z" stroke="#333333" stroke-width="2" stroke-linecap="round" stroke-linejoin="round"/>
<path d="M4 2L13 11L17.5 15.5" stroke="#333333" stroke-width="2" stroke-linecap="round" stroke-linejoin="round"/>
</svg>
