<svg width="1240" height="52" viewBox="0 0 1240 52" fill="none" xmlns="http://www.w3.org/2000/svg">
<mask id="path-1-inside-1_42_2861" fill="white">
<path d="M0 0H1240V52H0V0Z"/>
</mask>
<path d="M1240 51H0V53H1240V51Z" fill="#008B69" mask="url(#path-1-inside-1_42_2861)"/>
<path d="M19.328 26L17.536 21.008H8.448L6.656 26H2.56L10.752 3.28H15.232L23.424 26H19.328ZM9.792 17.264H16.192L12.992 8.4L9.792 17.264ZM43.2865 17.904C43.2865 22.544 39.8945 26.32 35.2545 26.32C32.4705 26.32 30.2945 24.848 29.4305 22.992L29.2385 26H25.4945V2H29.4305V12.816C30.2945 10.96 32.4705 9.488 35.2545 9.488C39.8945 9.488 43.2865 13.264 43.2865 17.904ZM39.3505 17.904C39.3505 15.344 37.3345 13.2 34.5825 13.2C31.8305 13.2 29.8785 15.344 29.8785 17.904C29.8785 20.464 31.8305 22.608 34.5825 22.608C37.3345 22.608 39.3505 20.464 39.3505 17.904ZM44.9425 21.104H48.8785C49.1025 22.256 50.3505 23.024 52.2705 23.024C53.6145 23.024 54.8305 22.544 54.8305 21.552C54.8305 20.272 53.5505 20.016 50.2865 18.96C47.5345 18.128 45.4545 16.784 45.4545 14.16C45.4545 11.248 48.3665 9.488 51.4385 9.488C55.4385 9.488 57.8385 11.728 57.9345 14.448H53.9985C53.9025 13.264 52.6225 12.752 51.5665 12.752C50.5745 12.752 49.3905 13.232 49.3905 14.16C49.3905 15.184 50.5425 15.408 53.9665 16.592C57.5505 17.808 58.7985 19.568 58.7985 21.648C58.7985 24.656 55.8545 26.32 52.1745 26.32C48.0785 26.32 45.1665 24.592 44.9425 21.104ZM70.3743 9.808V13.52H66.7903V26H62.8543V13.52H60.3263V9.808H62.8543V5.008H66.7903V9.808H70.3743ZM80.2103 9.488C81.1383 9.488 81.8103 9.84 82.1623 10.192L81.5863 13.616C81.2663 13.424 80.6263 13.2 79.9863 13.2C77.8743 13.2 76.7223 15.376 76.7223 18.8V26H72.7863V9.808H76.4983L76.6583 11.568C77.6823 10.32 78.8663 9.488 80.2103 9.488ZM82.88 17.904C82.88 13.264 86.272 9.488 90.912 9.488C93.696 9.488 95.872 10.96 96.704 12.816L96.928 9.808H100.672V26H96.928L96.704 22.992C95.872 24.848 93.696 26.32 90.912 26.32C86.272 26.32 82.88 22.544 82.88 17.904ZM86.816 17.904C86.816 20.464 88.8 22.608 91.584 22.608C94.336 22.608 96.288 20.464 96.288 17.904C96.288 15.344 94.336 13.2 91.584 13.2C88.8 13.2 86.816 15.344 86.816 17.904ZM116.031 14.896C114.751 13.68 113.407 13.2 111.903 13.2C109.503 13.2 107.103 15.088 107.103 17.904C107.103 20.72 109.503 22.608 111.903 22.608C113.407 22.608 114.751 22.096 116.031 20.88V24.656C114.943 25.616 113.343 26.32 111.263 26.32C106.463 26.32 102.943 22.48 102.943 17.904C102.943 13.36 106.463 9.488 111.263 9.488C113.343 9.488 114.943 10.192 116.031 11.152V14.896ZM128.312 9.808V13.52H124.728V26H120.792V13.52H118.264V9.808H120.792V5.008H124.728V9.808H128.312Z" fill="#292C35"/>
<path d="M142.004 14.06V15.194C141.29 15.194 140.324 15.572 140.324 16.874V22.306C140.324 23.594 141.29 23.986 142.004 23.986V25.12C140.324 25.12 139.12 24.294 139.12 22.306V16.874C139.12 14.886 140.324 14.06 142.004 14.06ZM147.621 22.866H149.931V24H144.107V22.866H146.417V15.544L144.499 16.02V14.816L147.621 14.06V22.866ZM158.18 17.028C158.18 20.458 152.482 20.822 152.482 22.866H158.18V24H151.264V22.866C151.264 19.954 156.976 19.604 156.976 16.986C156.976 15.866 156.108 15.054 154.918 15.054C153.448 15.054 152.468 15.95 152.468 17.14H151.264C151.264 15.348 152.776 13.92 154.932 13.92C156.78 13.92 158.18 15.152 158.18 17.028ZM163.426 22.866H165.736V24H159.912V22.866H162.222V15.544L160.304 16.02V14.816L163.426 14.06V22.866ZM167.418 14.06C169.098 14.06 170.302 14.886 170.302 16.874V22.306C170.302 24.294 169.098 25.12 167.418 25.12V23.986C168.132 23.986 169.098 23.594 169.098 22.306V16.874C169.098 15.572 168.132 15.194 167.418 15.194V14.06Z" fill="#4E5969"/>
</svg>
