<svg width="1240" height="52" viewBox="0 0 1240 52" fill="none" xmlns="http://www.w3.org/2000/svg">
<mask id="path-1-inside-1_40_2822" fill="white">
<path d="M0 0H1240V52H0V0Z"/>
</mask>
<path d="M1240 51H0V53H1240V51Z" fill="#008B69" mask="url(#path-1-inside-1_40_2822)"/>
<path d="M19.328 26L17.536 21.008H8.448L6.656 26H2.56L10.752 3.28H15.232L23.424 26H19.328ZM9.792 17.264H16.192L12.992 8.4L9.792 17.264ZM35.7695 9.488C39.6735 9.488 41.7215 12.016 41.7215 16.432V26H37.7855V18.256C37.7855 14.48 36.4095 13.2 34.2335 13.2C31.4815 13.2 29.8495 15.28 29.7535 17.904V26H25.8175V9.808H29.5295L29.7215 12.208C31.2895 10.64 33.3375 9.488 35.7695 9.488ZM46.907 7.536C45.787 7.536 44.891 6.64 44.891 5.52C44.891 4.4 45.787 3.504 46.907 3.504C48.027 3.504 48.923 4.4 48.923 5.52C48.923 6.64 48.027 7.536 46.907 7.536ZM48.891 9.808V26H44.955V9.808H48.891ZM72.5363 9.488C75.9923 9.488 77.8163 12.112 77.8163 15.824V26H73.8803V17.168C73.8803 14.8 72.8883 13.2 71.0003 13.2C68.6643 13.2 67.2563 15.696 67.1603 19.024V26H63.2243V17.168C63.2243 14.8 62.2323 13.2 60.3443 13.2C58.0083 13.2 56.6003 15.696 56.4723 19.024V26H52.5363V9.808H56.2483L56.4403 12.08C57.8483 10.576 59.6723 9.488 61.8483 9.488C64.2163 9.488 65.8162 10.704 66.5843 12.656C68.0883 10.864 70.0723 9.488 72.5363 9.488ZM80.3175 17.904C80.3175 13.264 83.7095 9.488 88.3495 9.488C91.1335 9.488 93.3095 10.96 94.1415 12.816L94.3655 9.808H98.1095V26H94.3655L94.1415 22.992C93.3095 24.848 91.1335 26.32 88.3495 26.32C83.7095 26.32 80.3175 22.544 80.3175 17.904ZM84.2535 17.904C84.2535 20.464 86.2375 22.608 89.0215 22.608C91.7735 22.608 93.7255 20.464 93.7255 17.904C93.7255 15.344 91.7735 13.2 89.0215 13.2C86.2375 13.2 84.2535 15.344 84.2535 17.904ZM105.41 2V26H101.474V2H105.41ZM107.818 21.104H111.754C111.978 22.256 113.226 23.024 115.146 23.024C116.49 23.024 117.706 22.544 117.706 21.552C117.706 20.272 116.426 20.016 113.161 18.96C110.41 18.128 108.33 16.784 108.33 14.16C108.33 11.248 111.242 9.488 114.314 9.488C118.314 9.488 120.714 11.728 120.81 14.448H116.874C116.778 13.264 115.498 12.752 114.442 12.752C113.45 12.752 112.266 13.232 112.266 14.16C112.266 15.184 113.418 15.408 116.842 16.592C120.426 17.808 121.674 19.568 121.674 21.648C121.674 24.656 118.73 26.32 115.05 26.32C110.954 26.32 108.042 24.592 107.818 21.104Z" fill="#292C35"/>
<path d="M136.004 14.06V15.194C135.29 15.194 134.324 15.572 134.324 16.874V22.306C134.324 23.594 135.29 23.986 136.004 23.986V25.12C134.324 25.12 133.12 24.294 133.12 22.306V16.874C133.12 14.886 134.324 14.06 136.004 14.06ZM143.791 18.82C144.701 19.24 145.415 20.01 145.415 21.2C145.415 22.768 144.183 24.14 142.041 24.14C139.843 24.14 138.387 22.67 138.387 20.878H139.591C139.591 22.194 140.669 23.006 141.985 23.006C143.399 23.006 144.225 22.18 144.225 21.13C144.225 19.87 143.091 19.436 141.859 19.436H141.089V18.288H141.859C143.105 18.288 143.805 17.686 143.805 16.748C143.805 15.768 143.049 15.054 141.845 15.054C140.529 15.054 139.591 15.936 139.591 17.182H138.387C138.387 15.39 139.703 13.92 141.901 13.92C143.763 13.92 144.995 15.194 144.995 16.692C144.995 17.672 144.505 18.386 143.791 18.82ZM150.039 17.35C152.041 17.35 153.539 18.932 153.539 20.752C153.539 22.586 152.041 24.14 150.039 24.14C148.009 24.14 146.511 22.586 146.511 20.752C146.511 20.066 146.721 19.408 147.099 18.862L150.235 14.06H151.621L149.395 17.406C149.605 17.378 149.815 17.35 150.039 17.35ZM150.039 23.006C151.355 23.006 152.349 21.956 152.349 20.752C152.349 19.548 151.355 18.484 150.039 18.484C148.695 18.484 147.715 19.548 147.715 20.752C147.715 21.956 148.695 23.006 150.039 23.006ZM155.634 14.06C157.314 14.06 158.518 14.886 158.518 16.874V22.306C158.518 24.294 157.314 25.12 155.634 25.12V23.986C156.348 23.986 157.314 23.594 157.314 22.306V16.874C157.314 15.572 156.348 15.194 155.634 15.194V14.06Z" fill="#4E5969"/>
</svg>
