<svg width="1240" height="52" viewBox="0 0 1240 52" fill="none" xmlns="http://www.w3.org/2000/svg">
<mask id="path-1-inside-1_45_198" fill="white">
<path d="M0 0H1240V52H0V0Z"/>
</mask>
<path d="M1240 51H0V53H1240V51Z" fill="#008B69" mask="url(#path-1-inside-1_45_198)"/>
<path d="M19.328 26L17.536 21.008H8.448L6.656 26H2.56L10.752 3.28H15.232L23.424 26H19.328ZM9.792 17.264H16.192L12.992 8.4L9.792 17.264ZM33.2415 9.488C34.1695 9.488 34.8415 9.84 35.1935 10.192L34.6175 13.616C34.2975 13.424 33.6575 13.2 33.0175 13.2C30.9055 13.2 29.7535 15.376 29.7535 18.8V26H25.8175V9.808H29.5295L29.6895 11.568C30.7135 10.32 31.8975 9.488 33.2415 9.488ZM44.8353 9.488C45.7633 9.488 46.4353 9.84 46.7873 10.192L46.2113 13.616C45.8913 13.424 45.2513 13.2 44.6113 13.2C42.4993 13.2 41.3473 15.376 41.3473 18.8V26H37.4113V9.808H41.1233L41.2833 11.568C42.3073 10.32 43.4913 9.488 44.8353 9.488ZM56.209 26.32C51.121 26.32 47.505 22.544 47.505 17.904C47.505 13.264 51.121 9.488 56.209 9.488C61.265 9.488 64.849 13.264 64.849 17.904C64.849 22.544 61.265 26.32 56.209 26.32ZM56.209 22.608C58.961 22.608 60.913 20.464 60.913 17.904C60.913 15.344 58.961 13.2 56.209 13.2C53.425 13.2 51.441 15.344 51.441 17.904C51.441 20.464 53.425 22.608 56.209 22.608ZM88.3865 9.808H92.5785L86.7225 26H82.5945L78.8505 15.6L75.0745 26H70.9785L65.1225 9.808H69.3145L73.0265 21.104L76.7385 9.808H80.9305L84.6425 21.104L88.3865 9.808ZM93.5988 21.104H97.5348C97.7588 22.256 99.0068 23.024 100.927 23.024C102.271 23.024 103.487 22.544 103.487 21.552C103.487 20.272 102.207 20.016 98.9427 18.96C96.1908 18.128 94.1108 16.784 94.1108 14.16C94.1108 11.248 97.0228 9.488 100.095 9.488C104.095 9.488 106.495 11.728 106.591 14.448H102.655C102.559 13.264 101.279 12.752 100.223 12.752C99.2308 12.752 98.0468 13.232 98.0468 14.16C98.0468 15.184 99.1988 15.408 102.623 16.592C106.207 17.808 107.455 19.568 107.455 21.648C107.455 24.656 104.511 26.32 100.831 26.32C96.7348 26.32 93.8228 24.592 93.5988 21.104Z" fill="#292C35"/>
<path d="M122.004 14.06V15.194C121.29 15.194 120.324 15.572 120.324 16.874V22.306C120.324 23.594 121.29 23.986 122.004 23.986V25.12C120.324 25.12 119.12 24.294 119.12 22.306V16.874C119.12 14.886 120.324 14.06 122.004 14.06ZM127.621 22.866H129.931V24H124.107V22.866H126.417V15.544L124.499 16.02V14.816L127.621 14.06V22.866ZM136.326 18.82C137.236 19.24 137.95 20.01 137.95 21.2C137.95 22.768 136.718 24.14 134.576 24.14C132.378 24.14 130.922 22.67 130.922 20.878H132.126C132.126 22.194 133.204 23.006 134.52 23.006C135.934 23.006 136.76 22.18 136.76 21.13C136.76 19.87 135.626 19.436 134.394 19.436H133.624V18.288H134.394C135.64 18.288 136.34 17.686 136.34 16.748C136.34 15.768 135.584 15.054 134.38 15.054C133.064 15.054 132.126 15.936 132.126 17.182H130.922C130.922 15.39 132.238 13.92 134.436 13.92C136.298 13.92 137.53 15.194 137.53 16.692C137.53 17.672 137.04 18.386 136.326 18.82ZM138.52 14.06H145.296V15.194L141.04 24H139.738L143.994 15.194H138.52V14.06ZM146.98 14.06C148.66 14.06 149.864 14.886 149.864 16.874V22.306C149.864 24.294 148.66 25.12 146.98 25.12V23.986C147.694 23.986 148.66 23.594 148.66 22.306V16.874C148.66 15.572 147.694 15.194 146.98 15.194V14.06Z" fill="#4E5969"/>
</svg>
