<svg width="1240" height="52" viewBox="0 0 1240 52" fill="none" xmlns="http://www.w3.org/2000/svg">
<mask id="path-1-inside-1_42_2885" fill="white">
<path d="M0 0H1240V52H0V0Z"/>
</mask>
<path d="M1240 51H0V53H1240V51Z" fill="#008B69" mask="url(#path-1-inside-1_42_2885)"/>
<path d="M14.848 13.872C16.864 15.024 18.4 16.944 18.4 19.44C18.4 23.664 15.168 26 10.336 26H2.784V3.28H9.792C14.528 3.28 17.12 5.808 17.12 9.392C17.12 11.248 16.224 12.816 14.848 13.872ZM6.72 6.992V12.24H9.792C11.904 12.24 13.184 11.44 13.184 9.616C13.184 7.888 11.904 6.992 9.792 6.992H6.72ZM10.336 22.288C13.024 22.288 14.464 21.136 14.464 19.216C14.464 17.296 13.024 15.952 10.432 15.952H6.72V22.288H10.336ZM20.5675 17.904C20.5675 13.264 23.9595 9.488 28.5995 9.488C31.3835 9.488 33.5595 10.96 34.3915 12.816L34.6155 9.808H38.3595V26H34.6155L34.3915 22.992C33.5595 24.848 31.3835 26.32 28.5995 26.32C23.9595 26.32 20.5675 22.544 20.5675 17.904ZM24.5035 17.904C24.5035 20.464 26.4875 22.608 29.2715 22.608C32.0235 22.608 33.9755 20.464 33.9755 17.904C33.9755 15.344 32.0235 13.2 29.2715 13.2C26.4875 13.2 24.5035 15.344 24.5035 17.904ZM59.5053 17.904C59.5053 22.544 56.1133 26.32 51.4733 26.32C48.6892 26.32 46.5133 24.848 45.6493 22.992L45.4573 26H41.7133V2H45.6493V12.816C46.5133 10.96 48.6892 9.488 51.4733 9.488C56.1133 9.488 59.5053 13.264 59.5053 17.904ZM55.5693 17.904C55.5693 15.344 53.5533 13.2 50.8013 13.2C48.0493 13.2 46.0973 15.344 46.0973 17.904C46.0973 20.464 48.0493 22.608 50.8013 22.608C53.5533 22.608 55.5693 20.464 55.5693 17.904ZM60.0913 9.808H64.3153L69.0833 21.104L73.8193 9.808H78.0433L67.9953 33.36H63.8353L66.9713 25.968L60.0913 9.808Z" fill="#292C35"/>
<path d="M92.004 14.06V15.194C91.29 15.194 90.324 15.572 90.324 16.874V22.306C90.324 23.594 91.29 23.986 92.004 23.986V25.12C90.324 25.12 89.12 24.294 89.12 22.306V16.874C89.12 14.886 90.324 14.06 92.004 14.06ZM101.961 20.822V21.956H100.575V24H99.371V21.956H94.107V20.822L99.371 14.06H100.575V20.822H101.961ZM95.619 20.822H99.371V15.894L95.619 20.822ZM102.491 14.06H109.267V15.194L105.011 24H103.709L107.965 15.194H102.491V14.06ZM110.951 14.06C112.631 14.06 113.835 14.886 113.835 16.874V22.306C113.835 24.294 112.631 25.12 110.951 25.12V23.986C111.665 23.986 112.631 23.594 112.631 22.306V16.874C112.631 15.572 111.665 15.194 110.951 15.194V14.06Z" fill="#4E5969"/>
</svg>
