<svg width="1240" height="52" viewBox="0 0 1240 52" fill="none" xmlns="http://www.w3.org/2000/svg">
<mask id="path-1-inside-1_36_706" fill="white">
<path d="M0 0H1240V52H0V0Z"/>
</mask>
<path d="M1240 51H0V53H1240V51Z" fill="#008B69" mask="url(#path-1-inside-1_36_706)"/>
<path d="M14.848 13.872C16.864 15.024 18.4 16.944 18.4 19.44C18.4 23.664 15.168 26 10.336 26H2.784V3.28H9.792C14.528 3.28 17.12 5.808 17.12 9.392C17.12 11.248 16.224 12.816 14.848 13.872ZM6.72 6.992V12.24H9.792C11.904 12.24 13.184 11.44 13.184 9.616C13.184 7.888 11.904 6.992 9.792 6.992H6.72ZM10.336 22.288C13.024 22.288 14.464 21.136 14.464 19.216C14.464 17.296 13.024 15.952 10.432 15.952H6.72V22.288H10.336ZM20.5675 17.904C20.5675 13.264 23.9595 9.488 28.5995 9.488C31.3835 9.488 33.5595 10.96 34.3915 12.816L34.6155 9.808H38.3595V26H34.6155L34.3915 22.992C33.5595 24.848 31.3835 26.32 28.5995 26.32C23.9595 26.32 20.5675 22.544 20.5675 17.904ZM24.5035 17.904C24.5035 20.464 26.4875 22.608 29.2715 22.608C32.0235 22.608 33.9755 20.464 33.9755 17.904C33.9755 15.344 32.0235 13.2 29.2715 13.2C26.4875 13.2 24.5035 15.344 24.5035 17.904ZM41.2863 21.104H45.2223C45.4463 22.256 46.6943 23.024 48.6143 23.024C49.9583 23.024 51.1743 22.544 51.1743 21.552C51.1743 20.272 49.8943 20.016 46.6302 18.96C43.8783 18.128 41.7983 16.784 41.7983 14.16C41.7983 11.248 44.7103 9.488 47.7823 9.488C51.7823 9.488 54.1823 11.728 54.2783 14.448H50.3423C50.2463 13.264 48.9663 12.752 47.9103 12.752C46.9183 12.752 45.7343 13.232 45.7343 14.16C45.7343 15.184 46.8863 15.408 50.3103 16.592C53.8943 17.808 55.1423 19.568 55.1423 21.648C55.1423 24.656 52.1983 26.32 48.5183 26.32C44.4223 26.32 41.5103 24.592 41.2863 21.104ZM73.4158 18.096V19.12H61.1598C61.2558 21.104 62.7598 22.832 65.6078 22.832C67.6558 22.832 68.9678 21.744 69.6078 20.624L73.0638 21.008C72.5838 23.216 70.0558 26.32 65.5758 26.32C60.5838 26.32 57.2238 22.544 57.2238 17.808C57.2238 13.296 60.4238 9.488 65.3198 9.488C70.3118 9.488 73.4158 13.456 73.4158 18.096ZM65.3198 12.976C62.9198 12.976 61.2558 14.544 61.1598 16.4H69.4798C69.3518 14.608 67.7838 12.976 65.3198 12.976Z" fill="#292C35"/>
<path d="M88.004 14.06V15.194C87.29 15.194 86.324 15.572 86.324 16.874V22.306C86.324 23.594 87.29 23.986 88.004 23.986V25.12C86.324 25.12 85.12 24.294 85.12 22.306V16.874C85.12 14.886 86.324 14.06 88.004 14.06ZM94.139 17.294C95.931 17.294 97.415 18.596 97.415 20.724C97.415 22.586 95.945 24.14 93.901 24.14C91.703 24.14 90.387 22.614 90.387 20.878H91.591C91.605 22.026 92.515 22.936 93.887 22.936C95.147 22.936 96.225 22.012 96.225 20.668C96.225 19.184 95.175 18.372 93.887 18.372C93.047 18.372 92.011 18.764 91.675 19.73H90.499L91.367 14.06H96.715V15.194H92.375L91.955 17.91C92.585 17.504 93.341 17.294 94.139 17.294ZM102.629 17.294C104.421 17.294 105.905 18.596 105.905 20.724C105.905 22.586 104.435 24.14 102.391 24.14C100.193 24.14 98.8772 22.614 98.8772 20.878H100.081C100.095 22.026 101.005 22.936 102.377 22.936C103.637 22.936 104.715 22.012 104.715 20.668C104.715 19.184 103.665 18.372 102.377 18.372C101.537 18.372 100.501 18.764 100.165 19.73H98.9892L99.8572 14.06H105.205V15.194H100.865L100.445 17.91C101.075 17.504 101.831 17.294 102.629 17.294ZM107.867 14.06C109.547 14.06 110.751 14.886 110.751 16.874V22.306C110.751 24.294 109.547 25.12 107.867 25.12V23.986C108.581 23.986 109.547 23.594 109.547 22.306V16.874C109.547 15.572 108.581 15.194 107.867 15.194V14.06Z" fill="#4E5969"/>
</svg>
