<svg width="1240" height="52" viewBox="0 0 1240 52" fill="none" xmlns="http://www.w3.org/2000/svg">
<mask id="path-1-inside-1_40_2834" fill="white">
<path d="M0 0H1240V52H0V0Z"/>
</mask>
<path d="M1240 51H0V53H1240V51Z" fill="#008B69" mask="url(#path-1-inside-1_40_2834)"/>
<path d="M14.848 13.872C16.864 15.024 18.4 16.944 18.4 19.44C18.4 23.664 15.168 26 10.336 26H2.784V3.28H9.792C14.528 3.28 17.12 5.808 17.12 9.392C17.12 11.248 16.224 12.816 14.848 13.872ZM6.72 6.992V12.24H9.792C11.904 12.24 13.184 11.44 13.184 9.616C13.184 7.888 11.904 6.992 9.792 6.992H6.72ZM10.336 22.288C13.024 22.288 14.464 21.136 14.464 19.216C14.464 17.296 13.024 15.952 10.432 15.952H6.72V22.288H10.336ZM28.554 9.488C29.482 9.488 30.154 9.84 30.506 10.192L29.93 13.616C29.61 13.424 28.97 13.2 28.33 13.2C26.218 13.2 25.066 15.376 25.066 18.8V26H21.13V9.808H24.842L25.002 11.568C26.026 10.32 27.21 9.488 28.554 9.488ZM31.2238 17.904C31.2238 13.264 34.6158 9.488 39.2558 9.488C42.0398 9.488 44.2158 10.96 45.0478 12.816L45.2718 9.808H49.0158V26H45.2718L45.0478 22.992C44.2158 24.848 42.0398 26.32 39.2558 26.32C34.6158 26.32 31.2238 22.544 31.2238 17.904ZM35.1598 17.904C35.1598 20.464 37.1438 22.608 39.9278 22.608C42.6798 22.608 44.6318 20.464 44.6318 17.904C44.6318 15.344 42.6798 13.2 39.9278 13.2C37.1438 13.2 35.1598 15.344 35.1598 17.904ZM62.332 9.488C66.236 9.488 68.284 12.016 68.284 16.432V26H64.348V18.256C64.348 14.48 62.972 13.2 60.796 13.2C58.044 13.2 56.412 15.28 56.316 17.904V26H52.38V9.808H56.092L56.284 12.208C57.852 10.64 59.9 9.488 62.332 9.488ZM70.6925 17.904C70.6925 13.264 74.0845 9.488 78.7245 9.488C81.5085 9.488 83.6845 10.96 84.5165 12.816V2H88.4845V26H84.7405L84.5165 22.992C83.6845 24.848 81.5085 26.32 78.7245 26.32C74.0845 26.32 70.6925 22.544 70.6925 17.904ZM74.6285 17.904C74.6285 20.464 76.6125 22.608 79.3965 22.608C82.1485 22.608 84.1005 20.464 84.1005 17.904C84.1005 15.344 82.1485 13.2 79.3965 13.2C76.6125 13.2 74.6285 15.344 74.6285 17.904Z" fill="#292C35"/>
<path d="M103.004 14.06V15.194C102.29 15.194 101.324 15.572 101.324 16.874V22.306C101.324 23.594 102.29 23.986 103.004 23.986V25.12C101.324 25.12 100.12 24.294 100.12 22.306V16.874C100.12 14.886 101.324 14.06 103.004 14.06ZM110.665 18.512C111.617 19.016 112.303 19.912 112.303 21.074C112.303 22.782 110.903 24.084 108.845 24.084C106.787 24.084 105.387 22.782 105.387 21.074C105.387 19.912 106.073 19.016 107.011 18.512C106.395 18.064 105.947 17.392 105.947 16.566C105.947 15.04 107.291 13.976 108.845 13.976C110.399 13.976 111.743 15.04 111.743 16.566C111.743 17.392 111.281 18.064 110.665 18.512ZM108.845 15.11C108.047 15.11 107.151 15.6 107.151 16.566C107.151 17.532 108.047 18.008 108.845 18.008C109.643 18.008 110.539 17.532 110.539 16.566C110.539 15.6 109.643 15.11 108.845 15.11ZM108.845 22.95C110.119 22.95 111.099 22.18 111.099 21.074C111.099 19.968 110.119 19.198 108.845 19.198C107.557 19.198 106.591 19.968 106.591 21.074C106.591 22.18 107.557 22.95 108.845 22.95ZM119.008 18.82C119.918 19.24 120.632 20.01 120.632 21.2C120.632 22.768 119.4 24.14 117.258 24.14C115.06 24.14 113.604 22.67 113.604 20.878H114.808C114.808 22.194 115.886 23.006 117.202 23.006C118.616 23.006 119.442 22.18 119.442 21.13C119.442 19.87 118.308 19.436 117.076 19.436H116.306V18.288H117.076C118.322 18.288 119.022 17.686 119.022 16.748C119.022 15.768 118.266 15.054 117.062 15.054C115.746 15.054 114.808 15.936 114.808 17.182H113.604C113.604 15.39 114.92 13.92 117.118 13.92C118.98 13.92 120.212 15.194 120.212 16.692C120.212 17.672 119.722 18.386 119.008 18.82ZM122.593 14.06C124.273 14.06 125.477 14.886 125.477 16.874V22.306C125.477 24.294 124.273 25.12 122.593 25.12V23.986C123.307 23.986 124.273 23.594 124.273 22.306V16.874C124.273 15.572 123.307 15.194 122.593 15.194V14.06Z" fill="#4E5969"/>
</svg>
