<svg width="1240" height="52" viewBox="0 0 1240 52" fill="none" xmlns="http://www.w3.org/2000/svg">
<mask id="path-1-inside-1_42_2853" fill="white">
<path d="M0 0H1240V52H0V0Z"/>
</mask>
<path d="M1240 51H0V53H1240V51Z" fill="#008B69" mask="url(#path-1-inside-1_42_2853)"/>
<path d="M14.848 13.872C16.864 15.024 18.4 16.944 18.4 19.44C18.4 23.664 15.168 26 10.336 26H2.784V3.28H9.792C14.528 3.28 17.12 5.808 17.12 9.392C17.12 11.248 16.224 12.816 14.848 13.872ZM6.72 6.992V12.24H9.792C11.904 12.24 13.184 11.44 13.184 9.616C13.184 7.888 11.904 6.992 9.792 6.992H6.72ZM10.336 22.288C13.024 22.288 14.464 21.136 14.464 19.216C14.464 17.296 13.024 15.952 10.432 15.952H6.72V22.288H10.336ZM32.877 9.808H36.813V26H33.101L32.909 23.6C31.341 25.168 29.325 26.32 26.861 26.32C22.957 26.32 20.909 23.792 20.909 19.376V9.808H24.845V17.552C24.845 21.328 26.221 22.608 28.397 22.608C31.213 22.608 32.877 20.4 32.877 17.68V9.808ZM41.6883 7.536C40.5683 7.536 39.6723 6.64 39.6723 5.52C39.6723 4.4 40.5683 3.504 41.6883 3.504C42.8083 3.504 43.7043 4.4 43.7043 5.52C43.7043 6.64 42.8083 7.536 41.6883 7.536ZM43.6723 9.808V26H39.7363V9.808H43.6723ZM51.1598 2V26H47.2238V2H51.1598ZM53.88 17.904C53.88 13.264 57.272 9.488 61.912 9.488C64.696 9.488 66.872 10.96 67.704 12.816V2H71.672V26H67.928L67.704 22.992C66.872 24.848 64.696 26.32 61.912 26.32C57.272 26.32 53.88 22.544 53.88 17.904ZM57.816 17.904C57.816 20.464 59.8 22.608 62.584 22.608C65.336 22.608 67.288 20.464 67.288 17.904C67.288 15.344 65.336 13.2 62.584 13.2C59.8 13.2 57.816 15.344 57.816 17.904Z" fill="#292C35"/>
<path d="M86.004 14.06V15.194C85.29 15.194 84.324 15.572 84.324 16.874V22.306C84.324 23.594 85.29 23.986 86.004 23.986V25.12C84.324 25.12 83.12 24.294 83.12 22.306V16.874C83.12 14.886 84.324 14.06 86.004 14.06ZM88.247 14.06H95.023V15.194L90.767 24H89.465L93.721 15.194H88.247V14.06ZM99.6663 13.92C101.584 13.92 103.306 15.264 103.306 17.434V20.626C103.306 22.796 101.584 24.14 99.6663 24.14C97.7483 24.14 96.0263 22.796 96.0263 20.626V17.434C96.0263 15.264 97.7483 13.92 99.6663 13.92ZM99.6663 23.006C101.01 23.006 102.102 22.026 102.102 20.626V17.434C102.102 16.034 101.01 15.054 99.6663 15.054C98.3223 15.054 97.2303 16.034 97.2303 17.434V20.626C97.2303 22.026 98.3223 23.006 99.6663 23.006ZM105.128 14.06C106.808 14.06 108.012 14.886 108.012 16.874V22.306C108.012 24.294 106.808 25.12 105.128 25.12V23.986C105.842 23.986 106.808 23.594 106.808 22.306V16.874C106.808 15.572 105.842 15.194 105.128 15.194V14.06Z" fill="#4E5969"/>
</svg>
