<svg width="1240" height="52" viewBox="0 0 1240 52" fill="none" xmlns="http://www.w3.org/2000/svg">
<mask id="path-1-inside-1_42_2870" fill="white">
<path d="M0 0H1240V52H0V0Z"/>
</mask>
<path d="M1240 51H0V53H1240V51Z" fill="#008B69" mask="url(#path-1-inside-1_42_2870)"/>
<path d="M20.896 9.168C20.064 8.272 17.984 6.672 14.72 6.672C10.432 6.672 6.816 9.968 6.816 14.64C6.816 19.312 10.432 22.608 14.72 22.608C17.984 22.608 20.096 20.976 20.896 20.112V24.08C19.904 24.944 17.696 26.32 14.24 26.32C7.904 26.32 2.88 21.232 2.88 14.64C2.88 8.048 7.904 2.96 14.24 2.96C17.696 2.96 19.904 4.336 20.896 5.2V9.168ZM34.3633 9.488C38.2673 9.488 40.3153 12.016 40.3153 16.432V26H36.3793V18.256C36.3793 14.48 35.0033 13.2 32.8273 13.2C30.0753 13.2 28.4433 15.28 28.3473 17.904V26H24.4113V2H28.3473V12.176C29.9153 10.64 31.9313 9.488 34.3633 9.488ZM42.7238 17.904C42.7238 13.264 46.1158 9.488 50.7558 9.488C53.5398 9.488 55.7158 10.96 56.5478 12.816L56.7718 9.808H60.5158V26H56.7718L56.5478 22.992C55.7158 24.848 53.5398 26.32 50.7558 26.32C46.1158 26.32 42.7238 22.544 42.7238 17.904ZM46.6598 17.904C46.6598 20.464 48.6438 22.608 51.4278 22.608C54.1798 22.608 56.1318 20.464 56.1318 17.904C56.1318 15.344 54.1798 13.2 51.4278 13.2C48.6438 13.2 46.6598 15.344 46.6598 17.904ZM71.304 9.488C72.232 9.488 72.904 9.84 73.256 10.192L72.68 13.616C72.36 13.424 71.72 13.2 71.08 13.2C68.968 13.2 67.816 15.376 67.816 18.8V26H63.88V9.808H67.592L67.752 11.568C68.776 10.32 69.96 9.488 71.304 9.488ZM84.7805 9.808V13.52H81.1965V26H77.2605V13.52H74.7325V9.808H77.2605V5.008H81.1965V9.808H84.7805ZM86.3488 21.104H90.2848C90.5088 22.256 91.7568 23.024 93.6768 23.024C95.0208 23.024 96.2368 22.544 96.2368 21.552C96.2368 20.272 94.9568 20.016 91.6927 18.96C88.9408 18.128 86.8608 16.784 86.8608 14.16C86.8608 11.248 89.7728 9.488 92.8448 9.488C96.8448 9.488 99.2448 11.728 99.3408 14.448H95.4048C95.3088 13.264 94.0288 12.752 92.9728 12.752C91.9808 12.752 90.7968 13.232 90.7968 14.16C90.7968 15.184 91.9488 15.408 95.3728 16.592C98.9568 17.808 100.205 19.568 100.205 21.648C100.205 24.656 97.2608 26.32 93.5808 26.32C89.4848 26.32 86.5728 24.592 86.3488 21.104Z" fill="#292C35"/>
<path d="M115.004 14.06V15.194C114.29 15.194 113.324 15.572 113.324 16.874V22.306C113.324 23.594 114.29 23.986 115.004 23.986V25.12C113.324 25.12 112.12 24.294 112.12 22.306V16.874C112.12 14.886 113.324 14.06 115.004 14.06ZM121.055 17.35C123.057 17.35 124.555 18.932 124.555 20.752C124.555 22.586 123.057 24.14 121.055 24.14C119.025 24.14 117.527 22.586 117.527 20.752C117.527 20.066 117.737 19.408 118.115 18.862L121.251 14.06H122.637L120.411 17.406C120.621 17.378 120.831 17.35 121.055 17.35ZM121.055 23.006C122.371 23.006 123.365 21.956 123.365 20.752C123.365 19.548 122.371 18.484 121.055 18.484C119.711 18.484 118.731 19.548 118.731 20.752C118.731 21.956 119.711 23.006 121.055 23.006ZM130.991 18.512C131.943 19.016 132.629 19.912 132.629 21.074C132.629 22.782 131.229 24.084 129.171 24.084C127.113 24.084 125.713 22.782 125.713 21.074C125.713 19.912 126.399 19.016 127.337 18.512C126.721 18.064 126.273 17.392 126.273 16.566C126.273 15.04 127.617 13.976 129.171 13.976C130.725 13.976 132.069 15.04 132.069 16.566C132.069 17.392 131.607 18.064 130.991 18.512ZM129.171 15.11C128.373 15.11 127.477 15.6 127.477 16.566C127.477 17.532 128.373 18.008 129.171 18.008C129.969 18.008 130.865 17.532 130.865 16.566C130.865 15.6 129.969 15.11 129.171 15.11ZM129.171 22.95C130.445 22.95 131.425 22.18 131.425 21.074C131.425 19.968 130.445 19.198 129.171 19.198C127.883 19.198 126.917 19.968 126.917 21.074C126.917 22.18 127.883 22.95 129.171 22.95ZM134.593 14.06C136.273 14.06 137.477 14.886 137.477 16.874V22.306C137.477 24.294 136.273 25.12 134.593 25.12V23.986C135.307 23.986 136.273 23.594 136.273 22.306V16.874C136.273 15.572 135.307 15.194 134.593 15.194V14.06Z" fill="#4E5969"/>
</svg>
