<svg width="1240" height="52" viewBox="0 0 1240 52" fill="none" xmlns="http://www.w3.org/2000/svg">
<mask id="path-1-inside-1_45_194" fill="white">
<path d="M0 0H1240V52H0V0Z"/>
</mask>
<path d="M1240 51H0V53H1240V51Z" fill="#008B69" mask="url(#path-1-inside-1_45_194)"/>
<path d="M20.896 9.168C20.064 8.272 17.984 6.672 14.72 6.672C10.432 6.672 6.816 9.968 6.816 14.64C6.816 19.312 10.432 22.608 14.72 22.608C17.984 22.608 20.096 20.976 20.896 20.112V24.08C19.904 24.944 17.696 26.32 14.24 26.32C7.904 26.32 2.88 21.232 2.88 14.64C2.88 8.048 7.904 2.96 14.24 2.96C17.696 2.96 19.904 4.336 20.896 5.2V9.168ZM34.3633 9.488C38.2673 9.488 40.3153 12.016 40.3153 16.432V26H36.3793V18.256C36.3793 14.48 35.0033 13.2 32.8273 13.2C30.0753 13.2 28.4433 15.28 28.3473 17.904V26H24.4113V2H28.3473V12.176C29.9153 10.64 31.9313 9.488 34.3633 9.488ZM42.7238 17.904C42.7238 13.264 46.1158 9.488 50.7558 9.488C53.5398 9.488 55.7158 10.96 56.5478 12.816L56.7718 9.808H60.5158V26H56.7718L56.5478 22.992C55.7158 24.848 53.5398 26.32 50.7558 26.32C46.1158 26.32 42.7238 22.544 42.7238 17.904ZM46.6598 17.904C46.6598 20.464 48.6438 22.608 51.4278 22.608C54.1798 22.608 56.1318 20.464 56.1318 17.904C56.1318 15.344 54.1798 13.2 51.4278 13.2C48.6438 13.2 46.6598 15.344 46.6598 17.904ZM71.304 9.488C72.232 9.488 72.904 9.84 73.256 10.192L72.68 13.616C72.36 13.424 71.72 13.2 71.08 13.2C68.968 13.2 67.816 15.376 67.816 18.8V26H63.88V9.808H67.592L67.752 11.568C68.776 10.32 69.96 9.488 71.304 9.488ZM73.9738 17.904C73.9738 13.264 77.3658 9.488 82.0058 9.488C84.7898 9.488 86.9658 10.96 87.7978 12.816L88.0218 9.808H91.7658V26H88.0218L87.7978 22.992C86.9658 24.848 84.7898 26.32 82.0058 26.32C77.3658 26.32 73.9738 22.544 73.9738 17.904ZM77.9098 17.904C77.9098 20.464 79.8938 22.608 82.6778 22.608C85.4298 22.608 87.3818 20.464 87.3818 17.904C87.3818 15.344 85.4298 13.2 82.6778 13.2C79.8938 13.2 77.9098 15.344 77.9098 17.904ZM107.124 14.896C105.844 13.68 104.5 13.2 102.996 13.2C100.596 13.2 98.1963 15.088 98.1963 17.904C98.1963 20.72 100.596 22.608 102.996 22.608C104.5 22.608 105.844 22.096 107.124 20.88V24.656C106.036 25.616 104.436 26.32 102.356 26.32C97.5563 26.32 94.0363 22.48 94.0363 17.904C94.0363 13.36 97.5563 9.488 102.356 9.488C104.436 9.488 106.036 10.192 107.124 11.152V14.896ZM119.406 9.808V13.52H115.822V26H111.886V13.52H109.358V9.808H111.886V5.008H115.822V9.808H119.406ZM136.822 18.096V19.12H124.566C124.662 21.104 126.166 22.832 129.014 22.832C131.062 22.832 132.374 21.744 133.014 20.624L136.47 21.008C135.99 23.216 133.462 26.32 128.982 26.32C123.99 26.32 120.63 22.544 120.63 17.808C120.63 13.296 123.83 9.488 128.726 9.488C133.718 9.488 136.822 13.456 136.822 18.096ZM128.726 12.976C126.326 12.976 124.662 14.544 124.566 16.4H132.886C132.758 14.608 131.19 12.976 128.726 12.976ZM146.867 9.488C147.795 9.488 148.467 9.84 148.819 10.192L148.243 13.616C147.923 13.424 147.283 13.2 146.643 13.2C144.531 13.2 143.379 15.376 143.379 18.8V26H139.443V9.808H143.155L143.315 11.568C144.339 10.32 145.523 9.488 146.867 9.488Z" fill="#292C35"/>
<path d="M162.004 14.06V15.194C161.29 15.194 160.324 15.572 160.324 16.874V22.306C160.324 23.594 161.29 23.986 162.004 23.986V25.12C160.324 25.12 159.12 24.294 159.12 22.306V16.874C159.12 14.886 160.324 14.06 162.004 14.06ZM169.791 18.82C170.701 19.24 171.415 20.01 171.415 21.2C171.415 22.768 170.183 24.14 168.041 24.14C165.843 24.14 164.387 22.67 164.387 20.878H165.591C165.591 22.194 166.669 23.006 167.985 23.006C169.399 23.006 170.225 22.18 170.225 21.13C170.225 19.87 169.091 19.436 167.859 19.436H167.089V18.288H167.859C169.105 18.288 169.805 17.686 169.805 16.748C169.805 15.768 169.049 15.054 167.845 15.054C166.529 15.054 165.591 15.936 165.591 17.182H164.387C164.387 15.39 165.703 13.92 167.901 13.92C169.763 13.92 170.995 15.194 170.995 16.692C170.995 17.672 170.505 18.386 169.791 18.82ZM178.199 18.82C179.109 19.24 179.823 20.01 179.823 21.2C179.823 22.768 178.591 24.14 176.449 24.14C174.251 24.14 172.795 22.67 172.795 20.878H173.999C173.999 22.194 175.077 23.006 176.393 23.006C177.807 23.006 178.633 22.18 178.633 21.13C178.633 19.87 177.499 19.436 176.267 19.436H175.497V18.288H176.267C177.513 18.288 178.213 17.686 178.213 16.748C178.213 15.768 177.457 15.054 176.253 15.054C174.937 15.054 173.999 15.936 173.999 17.182H172.795C172.795 15.39 174.111 13.92 176.309 13.92C178.171 13.92 179.403 15.194 179.403 16.692C179.403 17.672 178.913 18.386 178.199 18.82ZM181.785 14.06C183.465 14.06 184.669 14.886 184.669 16.874V22.306C184.669 24.294 183.465 25.12 181.785 25.12V23.986C182.499 23.986 183.465 23.594 183.465 22.306V16.874C183.465 15.572 182.499 15.194 181.785 15.194V14.06Z" fill="#4E5969"/>
</svg>
