<svg width="1240" height="52" viewBox="0 0 1240 52" fill="none" xmlns="http://www.w3.org/2000/svg">
<mask id="path-1-inside-1_42_2882" fill="white">
<path d="M0 0H1240V52H0V0Z"/>
</mask>
<path d="M1240 51H0V53H1240V51Z" fill="#008B69" mask="url(#path-1-inside-1_42_2882)"/>
<path d="M20.896 9.168C20.064 8.272 17.984 6.672 14.72 6.672C10.432 6.672 6.816 9.968 6.816 14.64C6.816 19.312 10.432 22.608 14.72 22.608C17.984 22.608 20.096 20.976 20.896 20.112V24.08C19.904 24.944 17.696 26.32 14.24 26.32C7.904 26.32 2.88 21.232 2.88 14.64C2.88 8.048 7.904 2.96 14.24 2.96C17.696 2.96 19.904 4.336 20.896 5.2V9.168ZM28.3473 2V26H24.4113V2H28.3473ZM39.7715 26.32C34.6835 26.32 31.0675 22.544 31.0675 17.904C31.0675 13.264 34.6835 9.488 39.7715 9.488C44.8275 9.488 48.4115 13.264 48.4115 17.904C48.4115 22.544 44.8275 26.32 39.7715 26.32ZM39.7715 22.608C42.5235 22.608 44.4755 20.464 44.4755 17.904C44.4755 15.344 42.5235 13.2 39.7715 13.2C36.9875 13.2 35.0035 15.344 35.0035 17.904C35.0035 20.464 36.9875 22.608 39.7715 22.608ZM60.1243 9.808V13.52H56.5403V26H52.6043V13.52H50.0763V9.808H52.6043V5.008H56.5403V9.808H60.1243ZM72.6133 9.488C76.5173 9.488 78.5653 12.016 78.5653 16.432V26H74.6293V18.256C74.6293 14.48 73.2533 13.2 71.0773 13.2C68.3253 13.2 66.6933 15.28 66.5973 17.904V26H62.6613V2H66.5973V12.176C68.1653 10.64 70.1813 9.488 72.6133 9.488ZM97.1658 18.096V19.12H84.9098C85.0058 21.104 86.5098 22.832 89.3578 22.832C91.4058 22.832 92.7178 21.744 93.3578 20.624L96.8138 21.008C96.3338 23.216 93.8058 26.32 89.3258 26.32C84.3338 26.32 80.9738 22.544 80.9738 17.808C80.9738 13.296 84.1738 9.488 89.0698 9.488C94.0618 9.488 97.1658 13.456 97.1658 18.096ZM89.0698 12.976C86.6698 12.976 85.0058 14.544 84.9098 16.4H93.2298C93.1018 14.608 91.5338 12.976 89.0698 12.976ZM98.9113 21.104H102.847C103.071 22.256 104.319 23.024 106.239 23.024C107.583 23.024 108.799 22.544 108.799 21.552C108.799 20.272 107.519 20.016 104.255 18.96C101.503 18.128 99.4233 16.784 99.4233 14.16C99.4233 11.248 102.335 9.488 105.407 9.488C109.407 9.488 111.807 11.728 111.903 14.448H107.967C107.871 13.264 106.591 12.752 105.535 12.752C104.543 12.752 103.359 13.232 103.359 14.16C103.359 15.184 104.511 15.408 107.935 16.592C111.519 17.808 112.767 19.568 112.767 21.648C112.767 24.656 109.823 26.32 106.143 26.32C102.047 26.32 99.1353 24.592 98.9113 21.104Z" fill="#292C35"/>
<path d="M127.004 14.06V15.194C126.29 15.194 125.324 15.572 125.324 16.874V22.306C125.324 23.594 126.29 23.986 127.004 23.986V25.12C125.324 25.12 124.12 24.294 124.12 22.306V16.874C124.12 14.886 125.324 14.06 127.004 14.06ZM129.247 14.06H136.023V15.194L131.767 24H130.465L134.721 15.194H129.247V14.06ZM144.082 17.028C144.082 20.458 138.384 20.822 138.384 22.866H144.082V24H137.166V22.866C137.166 19.954 142.878 19.604 142.878 16.986C142.878 15.866 142.01 15.054 140.82 15.054C139.35 15.054 138.37 15.95 138.37 17.14H137.166C137.166 15.348 138.678 13.92 140.834 13.92C142.682 13.92 144.082 15.152 144.082 17.028ZM146.046 14.06C147.726 14.06 148.93 14.886 148.93 16.874V22.306C148.93 24.294 147.726 25.12 146.046 25.12V23.986C146.76 23.986 147.726 23.594 147.726 22.306V16.874C147.726 15.572 146.76 15.194 146.046 15.194V14.06Z" fill="#4E5969"/>
</svg>
