<svg width="1240" height="52" viewBox="0 0 1240 52" fill="none" xmlns="http://www.w3.org/2000/svg">
<mask id="path-1-inside-1_40_2800" fill="white">
<path d="M0 0H1240V52H0V0Z"/>
</mask>
<path d="M1240 51H0V53H1240V51Z" fill="#008B69" mask="url(#path-1-inside-1_40_2800)"/>
<path d="M20.896 9.168C20.064 8.272 17.984 6.672 14.72 6.672C10.432 6.672 6.816 9.968 6.816 14.64C6.816 19.312 10.432 22.608 14.72 22.608C17.984 22.608 20.096 20.976 20.896 20.112V24.08C19.904 24.944 17.696 26.32 14.24 26.32C7.904 26.32 2.88 21.232 2.88 14.64C2.88 8.048 7.904 2.96 14.24 2.96C17.696 2.96 19.904 4.336 20.896 5.2V9.168ZM31.9278 26.32C26.8398 26.32 23.2238 22.544 23.2238 17.904C23.2238 13.264 26.8398 9.488 31.9278 9.488C36.9838 9.488 40.5678 13.264 40.5678 17.904C40.5678 22.544 36.9838 26.32 31.9278 26.32ZM31.9278 22.608C34.6798 22.608 36.6318 20.464 36.6318 17.904C36.6318 15.344 34.6798 13.2 31.9278 13.2C29.1438 13.2 27.1598 15.344 27.1598 17.904C27.1598 20.464 29.1438 22.608 31.9278 22.608ZM63.1925 9.488C66.6485 9.488 68.4725 12.112 68.4725 15.824V26H64.5365V17.168C64.5365 14.8 63.5445 13.2 61.6565 13.2C59.3205 13.2 57.9125 15.696 57.8165 19.024V26H53.8805V17.168C53.8805 14.8 52.8885 13.2 51.0005 13.2C48.6645 13.2 47.2565 15.696 47.1285 19.024V26H43.1925V9.808H46.9045L47.0965 12.08C48.5045 10.576 50.3285 9.488 52.5045 9.488C54.8725 9.488 56.4725 10.704 57.2405 12.656C58.7445 10.864 60.7285 9.488 63.1925 9.488ZM91.8488 9.488C95.3048 9.488 97.1288 12.112 97.1288 15.824V26H93.1928V17.168C93.1928 14.8 92.2008 13.2 90.3128 13.2C87.9768 13.2 86.5688 15.696 86.4728 19.024V26H82.5368V17.168C82.5368 14.8 81.5448 13.2 79.6568 13.2C77.3208 13.2 75.9128 15.696 75.7848 19.024V26H71.8488V9.808H75.5608L75.7528 12.08C77.1608 10.576 78.9848 9.488 81.1608 9.488C83.5288 9.488 85.1287 10.704 85.8968 12.656C87.4008 10.864 89.3848 9.488 91.8488 9.488ZM112.033 9.808H115.969V26H112.257L112.065 23.6C110.497 25.168 108.481 26.32 106.017 26.32C102.113 26.32 100.065 23.792 100.065 19.376V9.808H104.001V17.552C104.001 21.328 105.377 22.608 107.553 22.608C110.369 22.608 112.033 20.4 112.033 17.68V9.808ZM129.301 9.488C133.205 9.488 135.253 12.016 135.253 16.432V26H131.317V18.256C131.317 14.48 129.941 13.2 127.765 13.2C125.013 13.2 123.381 15.28 123.285 17.904V26H119.349V9.808H123.061L123.253 12.208C124.821 10.64 126.869 9.488 129.301 9.488ZM140.438 7.536C139.318 7.536 138.422 6.64 138.422 5.52C138.422 4.4 139.318 3.504 140.438 3.504C141.558 3.504 142.454 4.4 142.454 5.52C142.454 6.64 141.558 7.536 140.438 7.536ZM142.422 9.808V26H138.486V9.808H142.422ZM158.374 14.896C157.094 13.68 155.75 13.2 154.246 13.2C151.846 13.2 149.446 15.088 149.446 17.904C149.446 20.72 151.846 22.608 154.246 22.608C155.75 22.608 157.094 22.096 158.374 20.88V24.656C157.286 25.616 155.686 26.32 153.606 26.32C148.806 26.32 145.286 22.48 145.286 17.904C145.286 13.36 148.806 9.488 153.606 9.488C155.686 9.488 157.286 10.192 158.374 11.152V14.896ZM160.568 17.904C160.568 13.264 163.96 9.488 168.6 9.488C171.384 9.488 173.56 10.96 174.392 12.816L174.616 9.808H178.36V26H174.616L174.392 22.992C173.56 24.848 171.384 26.32 168.6 26.32C163.96 26.32 160.568 22.544 160.568 17.904ZM164.504 17.904C164.504 20.464 166.488 22.608 169.272 22.608C172.024 22.608 173.976 20.464 173.976 17.904C173.976 15.344 172.024 13.2 169.272 13.2C166.488 13.2 164.504 15.344 164.504 17.904ZM191.031 9.808V13.52H187.447V26H183.511V13.52H180.983V9.808H183.511V5.008H187.447V9.808H191.031ZM208.447 18.096V19.12H196.191C196.287 21.104 197.791 22.832 200.639 22.832C202.687 22.832 203.999 21.744 204.639 20.624L208.095 21.008C207.615 23.216 205.087 26.32 200.607 26.32C195.615 26.32 192.255 22.544 192.255 17.808C192.255 13.296 195.455 9.488 200.351 9.488C205.343 9.488 208.447 13.456 208.447 18.096ZM200.351 12.976C197.951 12.976 196.287 14.544 196.191 16.4H204.511C204.383 14.608 202.815 12.976 200.351 12.976Z" fill="#292C35"/>
<path d="M223.004 14.06V15.194C222.29 15.194 221.324 15.572 221.324 16.874V22.306C221.324 23.594 222.29 23.986 223.004 23.986V25.12C221.324 25.12 220.12 24.294 220.12 22.306V16.874C220.12 14.886 221.324 14.06 223.004 14.06ZM232.303 17.028C232.303 20.458 226.605 20.822 226.605 22.866H232.303V24H225.387V22.866C225.387 19.954 231.099 19.604 231.099 16.986C231.099 15.866 230.231 15.054 229.041 15.054C227.571 15.054 226.591 15.95 226.591 17.14H225.387C225.387 15.348 226.899 13.92 229.055 13.92C230.903 13.92 232.303 15.152 232.303 17.028ZM233.518 14.06H240.294V15.194L236.038 24H234.736L238.992 15.194H233.518V14.06ZM241.978 14.06C243.658 14.06 244.862 14.886 244.862 16.874V22.306C244.862 24.294 243.658 25.12 241.978 25.12V23.986C242.692 23.986 243.658 23.594 243.658 22.306V16.874C243.658 15.572 242.692 15.194 241.978 15.194V14.06Z" fill="#4E5969"/>
</svg>
