<svg width="1240" height="52" viewBox="0 0 1240 52" fill="none" xmlns="http://www.w3.org/2000/svg">
<mask id="path-1-inside-1_45_218" fill="white">
<path d="M0 0H1240V52H0V0Z"/>
</mask>
<path d="M1240 51H0V53H1240V51Z" fill="#008B69" mask="url(#path-1-inside-1_45_218)"/>
<path d="M20.896 9.168C20.064 8.272 17.984 6.672 14.72 6.672C10.432 6.672 6.816 9.968 6.816 14.64C6.816 19.312 10.432 22.608 14.72 22.608C17.984 22.608 20.096 20.976 20.896 20.112V24.08C19.904 24.944 17.696 26.32 14.24 26.32C7.904 26.32 2.88 21.232 2.88 14.64C2.88 8.048 7.904 2.96 14.24 2.96C17.696 2.96 19.904 4.336 20.896 5.2V9.168ZM31.9278 26.32C26.8398 26.32 23.2238 22.544 23.2238 17.904C23.2238 13.264 26.8398 9.488 31.9278 9.488C36.9838 9.488 40.5678 13.264 40.5678 17.904C40.5678 22.544 36.9838 26.32 31.9278 26.32ZM31.9278 22.608C34.6798 22.608 36.6318 20.464 36.6318 17.904C36.6318 15.344 34.6798 13.2 31.9278 13.2C29.1438 13.2 27.1598 15.344 27.1598 17.904C27.1598 20.464 29.1438 22.608 31.9278 22.608ZM53.1445 9.488C57.0485 9.488 59.0965 12.016 59.0965 16.432V26H55.1605V18.256C55.1605 14.48 53.7845 13.2 51.6085 13.2C48.8565 13.2 47.2245 15.28 47.1285 17.904V26H43.1925V9.808H46.9045L47.0965 12.208C48.6645 10.64 50.7125 9.488 53.1445 9.488ZM72.332 9.488C76.236 9.488 78.284 12.016 78.284 16.432V26H74.348V18.256C74.348 14.48 72.972 13.2 70.796 13.2C68.044 13.2 66.412 15.28 66.316 17.904V26H62.38V9.808H66.092L66.284 12.208C67.852 10.64 69.9 9.488 72.332 9.488ZM96.8845 18.096V19.12H84.6285C84.7245 21.104 86.2285 22.832 89.0765 22.832C91.1245 22.832 92.4365 21.744 93.0765 20.624L96.5325 21.008C96.0525 23.216 93.5245 26.32 89.0445 26.32C84.0525 26.32 80.6925 22.544 80.6925 17.808C80.6925 13.296 83.8925 9.488 88.7885 9.488C93.7805 9.488 96.8845 13.456 96.8845 18.096ZM88.7885 12.976C86.3885 12.976 84.7245 14.544 84.6285 16.4H92.9485C92.8205 14.608 91.2525 12.976 88.7885 12.976ZM112.156 14.896C110.876 13.68 109.532 13.2 108.028 13.2C105.628 13.2 103.228 15.088 103.228 17.904C103.228 20.72 105.628 22.608 108.028 22.608C109.532 22.608 110.876 22.096 112.156 20.88V24.656C111.068 25.616 109.468 26.32 107.388 26.32C102.588 26.32 99.0675 22.48 99.0675 17.904C99.0675 13.36 102.588 9.488 107.388 9.488C109.468 9.488 111.068 10.192 112.156 11.152V14.896ZM124.437 9.808V13.52H120.853V26H116.917V13.52H114.389V9.808H116.917V5.008H120.853V9.808H124.437Z" fill="#292C35"/>
<path d="M139.004 14.06V15.194C138.29 15.194 137.324 15.572 137.324 16.874V22.306C137.324 23.594 138.29 23.986 139.004 23.986V25.12C137.324 25.12 136.12 24.294 136.12 22.306V16.874C136.12 14.886 137.324 14.06 139.004 14.06ZM145.139 17.294C146.931 17.294 148.415 18.596 148.415 20.724C148.415 22.586 146.945 24.14 144.901 24.14C142.703 24.14 141.387 22.614 141.387 20.878H142.591C142.605 22.026 143.515 22.936 144.887 22.936C146.147 22.936 147.225 22.012 147.225 20.668C147.225 19.184 146.175 18.372 144.887 18.372C144.047 18.372 143.011 18.764 142.675 19.73H141.499L142.367 14.06H147.715V15.194H143.375L142.955 17.91C143.585 17.504 144.341 17.294 145.139 17.294ZM156.533 17.028C156.533 20.458 150.835 20.822 150.835 22.866H156.533V24H149.617V22.866C149.617 19.954 155.329 19.604 155.329 16.986C155.329 15.866 154.461 15.054 153.271 15.054C151.801 15.054 150.821 15.95 150.821 17.14H149.617C149.617 15.348 151.129 13.92 153.285 13.92C155.133 13.92 156.533 15.152 156.533 17.028ZM158.498 14.06C160.178 14.06 161.382 14.886 161.382 16.874V22.306C161.382 24.294 160.178 25.12 158.498 25.12V23.986C159.212 23.986 160.178 23.594 160.178 22.306V16.874C160.178 15.572 159.212 15.194 158.498 15.194V14.06Z" fill="#4E5969"/>
</svg>
