<svg width="1240" height="52" viewBox="0 0 1240 52" fill="none" xmlns="http://www.w3.org/2000/svg">
<mask id="path-1-inside-1_42_2877" fill="white">
<path d="M0 0H1240V52H0V0Z"/>
</mask>
<path d="M1240 51H0V53H1240V51Z" fill="#008B69" mask="url(#path-1-inside-1_42_2877)"/>
<path d="M20.896 9.168C20.064 8.272 17.984 6.672 14.72 6.672C10.432 6.672 6.816 9.968 6.816 14.64C6.816 19.312 10.432 22.608 14.72 22.608C17.984 22.608 20.096 20.976 20.896 20.112V24.08C19.904 24.944 17.696 26.32 14.24 26.32C7.904 26.32 2.88 21.232 2.88 14.64C2.88 8.048 7.904 2.96 14.24 2.96C17.696 2.96 19.904 4.336 20.896 5.2V9.168ZM31.9278 26.32C26.8398 26.32 23.2238 22.544 23.2238 17.904C23.2238 13.264 26.8398 9.488 31.9278 9.488C36.9838 9.488 40.5678 13.264 40.5678 17.904C40.5678 22.544 36.9838 26.32 31.9278 26.32ZM31.9278 22.608C34.6798 22.608 36.6318 20.464 36.6318 17.904C36.6318 15.344 34.6798 13.2 31.9278 13.2C29.1438 13.2 27.1598 15.344 27.1598 17.904C27.1598 20.464 29.1438 22.608 31.9278 22.608ZM53.1445 9.488C57.0485 9.488 59.0965 12.016 59.0965 16.432V26H55.1605V18.256C55.1605 14.48 53.7845 13.2 51.6085 13.2C48.8565 13.2 47.2245 15.28 47.1285 17.904V26H43.1925V9.808H46.9045L47.0965 12.208C48.6645 10.64 50.7125 9.488 53.1445 9.488ZM61.63 21.104H65.566C65.79 22.256 67.038 23.024 68.958 23.024C70.302 23.024 71.518 22.544 71.518 21.552C71.518 20.272 70.238 20.016 66.974 18.96C64.222 18.128 62.142 16.784 62.142 14.16C62.142 11.248 65.054 9.488 68.126 9.488C72.126 9.488 74.526 11.728 74.622 14.448H70.686C70.59 13.264 69.31 12.752 68.254 12.752C67.262 12.752 66.078 13.232 66.078 14.16C66.078 15.184 67.23 15.408 70.654 16.592C74.238 17.808 75.486 19.568 75.486 21.648C75.486 24.656 72.542 26.32 68.862 26.32C64.766 26.32 61.854 24.592 61.63 21.104ZM87.0618 9.808V13.52H83.4778V26H79.5418V13.52H77.0138V9.808H79.5418V5.008H83.4778V9.808H87.0618ZM104.478 18.096V19.12H92.2223C92.3183 21.104 93.8223 22.832 96.6703 22.832C98.7183 22.832 100.03 21.744 100.67 20.624L104.126 21.008C103.646 23.216 101.118 26.32 96.6383 26.32C91.6463 26.32 88.2863 22.544 88.2863 17.808C88.2863 13.296 91.4863 9.488 96.3823 9.488C101.374 9.488 104.478 13.456 104.478 18.096ZM96.3823 12.976C93.9823 12.976 92.3183 14.544 92.2223 16.4H100.542C100.414 14.608 98.8463 12.976 96.3823 12.976ZM110.691 2V26H106.755V2H110.691ZM117.504 2V26H113.568V2H117.504ZM120.224 17.904C120.224 13.264 123.616 9.488 128.256 9.488C131.04 9.488 133.216 10.96 134.048 12.816L134.272 9.808H138.016V26H134.272L134.048 22.992C133.216 24.848 131.04 26.32 128.256 26.32C123.616 26.32 120.224 22.544 120.224 17.904ZM124.16 17.904C124.16 20.464 126.144 22.608 128.928 22.608C131.68 22.608 133.632 20.464 133.632 17.904C133.632 15.344 131.68 13.2 128.928 13.2C126.144 13.2 124.16 15.344 124.16 17.904ZM150.687 9.808V13.52H147.103V26H143.167V13.52H140.639V9.808H143.167V5.008H147.103V9.808H150.687ZM155.032 7.536C153.912 7.536 153.016 6.64 153.016 5.52C153.016 4.4 153.912 3.504 155.032 3.504C156.152 3.504 157.048 4.4 157.048 5.52C157.048 6.64 156.152 7.536 155.032 7.536ZM157.016 9.808V26H153.08V9.808H157.016ZM168.584 26.32C163.496 26.32 159.88 22.544 159.88 17.904C159.88 13.264 163.496 9.488 168.584 9.488C173.64 9.488 177.224 13.264 177.224 17.904C177.224 22.544 173.64 26.32 168.584 26.32ZM168.584 22.608C171.336 22.608 173.288 20.464 173.288 17.904C173.288 15.344 171.336 13.2 168.584 13.2C165.8 13.2 163.816 15.344 163.816 17.904C163.816 20.464 165.8 22.608 168.584 22.608ZM189.801 9.488C193.705 9.488 195.753 12.016 195.753 16.432V26H191.817V18.256C191.817 14.48 190.441 13.2 188.265 13.2C185.513 13.2 183.881 15.28 183.785 17.904V26H179.849V9.808H183.561L183.753 12.208C185.321 10.64 187.369 9.488 189.801 9.488Z" fill="#292C35"/>
<path d="M210.004 14.06V15.194C209.29 15.194 208.324 15.572 208.324 16.874V22.306C208.324 23.594 209.29 23.986 210.004 23.986V25.12C208.324 25.12 207.12 24.294 207.12 22.306V16.874C207.12 14.886 208.324 14.06 210.004 14.06ZM215.621 22.866H217.931V24H212.107V22.866H214.417V15.544L212.499 16.02V14.816L215.621 14.06V22.866ZM226.18 17.028C226.18 20.458 220.482 20.822 220.482 22.866H226.18V24H219.264V22.866C219.264 19.954 224.976 19.604 224.976 16.986C224.976 15.866 224.108 15.054 222.918 15.054C221.448 15.054 220.468 15.95 220.468 17.14H219.264C219.264 15.348 220.776 13.92 222.932 13.92C224.78 13.92 226.18 15.152 226.18 17.028ZM228.144 14.06C229.824 14.06 231.028 14.886 231.028 16.874V22.306C231.028 24.294 229.824 25.12 228.144 25.12V23.986C228.858 23.986 229.824 23.594 229.824 22.306V16.874C229.824 15.572 228.858 15.194 228.144 15.194V14.06Z" fill="#4E5969"/>
</svg>
