<svg width="1240" height="52" viewBox="0 0 1240 52" fill="none" xmlns="http://www.w3.org/2000/svg">
<mask id="path-1-inside-1_42_2866" fill="white">
<path d="M0 0H1240V52H0V0Z"/>
</mask>
<path d="M1240 51H0V53H1240V51Z" fill="#008B69" mask="url(#path-1-inside-1_42_2866)"/>
<path d="M10.144 3.28C16.608 3.28 21.088 8.272 21.088 14.64C21.088 21.008 16.608 26 10.144 26H2.336V3.28H10.144ZM10.144 22.288C14.08 22.288 17.152 19.568 17.152 14.64C17.152 9.712 14.08 6.992 10.144 6.992H6.272V22.288H10.144ZM22.8488 17.904C22.8488 13.264 26.2408 9.488 30.8808 9.488C33.6648 9.488 35.8408 10.96 36.6728 12.816L36.8968 9.808H40.6408V26H36.8968L36.6728 22.992C35.8408 24.848 33.6648 26.32 30.8808 26.32C26.2408 26.32 22.8488 22.544 22.8488 17.904ZM26.7848 17.904C26.7848 20.464 28.7688 22.608 31.5528 22.608C34.3048 22.608 36.2568 20.464 36.2568 17.904C36.2568 15.344 34.3048 13.2 31.5528 13.2C28.7688 13.2 26.7848 15.344 26.7848 17.904ZM53.3118 9.808V13.52H49.7278V26H45.7918V13.52H43.2638V9.808H45.7918V5.008H49.7278V9.808H53.3118ZM54.5363 17.904C54.5363 13.264 57.9283 9.488 62.5683 9.488C65.3523 9.488 67.5283 10.96 68.3603 12.816L68.5843 9.808H72.3283V26H68.5843L68.3603 22.992C67.5283 24.848 65.3523 26.32 62.5683 26.32C57.9283 26.32 54.5363 22.544 54.5363 17.904ZM58.4723 17.904C58.4723 20.464 60.4563 22.608 63.2403 22.608C65.9923 22.608 67.9443 20.464 67.9443 17.904C67.9443 15.344 65.9923 13.2 63.2403 13.2C60.4563 13.2 58.4723 15.344 58.4723 17.904ZM75.255 21.104H79.191C79.415 22.256 80.663 23.024 82.583 23.024C83.927 23.024 85.143 22.544 85.143 21.552C85.143 20.272 83.863 20.016 80.599 18.96C77.847 18.128 75.767 16.784 75.767 14.16C75.767 11.248 78.679 9.488 81.751 9.488C85.751 9.488 88.151 11.728 88.247 14.448H84.311C84.215 13.264 82.935 12.752 81.879 12.752C80.887 12.752 79.703 13.232 79.703 14.16C79.703 15.184 80.855 15.408 84.279 16.592C87.863 17.808 89.111 19.568 89.111 21.648C89.111 24.656 86.167 26.32 82.487 26.32C78.391 26.32 75.479 24.592 75.255 21.104Z" fill="#292C35"/>
<path d="M104.004 14.06V15.194C103.29 15.194 102.324 15.572 102.324 16.874V22.306C102.324 23.594 103.29 23.986 104.004 23.986V25.12C102.324 25.12 101.12 24.294 101.12 22.306V16.874C101.12 14.886 102.324 14.06 104.004 14.06ZM113.303 17.028C113.303 20.458 107.605 20.822 107.605 22.866H113.303V24H106.387V22.866C106.387 19.954 112.099 19.604 112.099 16.986C112.099 15.866 111.231 15.054 110.041 15.054C108.571 15.054 107.591 15.95 107.591 17.14H106.387C106.387 15.348 107.899 13.92 110.055 13.92C111.903 13.92 113.303 15.152 113.303 17.028ZM122.178 20.822V21.956H120.792V24H119.588V21.956H114.324V20.822L119.588 14.06H120.792V20.822H122.178ZM115.836 20.822H119.588V15.894L115.836 20.822ZM123.853 14.06C125.533 14.06 126.737 14.886 126.737 16.874V22.306C126.737 24.294 125.533 25.12 123.853 25.12V23.986C124.567 23.986 125.533 23.594 125.533 22.306V16.874C125.533 15.572 124.567 15.194 123.853 15.194V14.06Z" fill="#4E5969"/>
</svg>
