<svg width="1240" height="52" viewBox="0 0 1240 52" fill="none" xmlns="http://www.w3.org/2000/svg">
<mask id="path-1-inside-1_45_202" fill="white">
<path d="M0 0H1240V52H0V0Z"/>
</mask>
<path d="M1240 51H0V53H1240V51Z" fill="#008B69" mask="url(#path-1-inside-1_45_202)"/>
<path d="M15.072 6.992H6.272V12.56H13.184V16.272H6.272V22.288H15.072V26H2.336V3.28H15.072V6.992ZM17.0988 17.904C17.0988 13.264 20.4908 9.488 25.1308 9.488C27.9148 9.488 30.0908 10.96 30.9228 12.816V2H34.8908V26H31.1468L30.9228 22.992C30.0908 24.848 27.9148 26.32 25.1308 26.32C20.4908 26.32 17.0988 22.544 17.0988 17.904ZM21.0348 17.904C21.0348 20.464 23.0188 22.608 25.8028 22.608C28.5548 22.608 30.5068 20.464 30.5068 17.904C30.5068 15.344 28.5548 13.2 25.8028 13.2C23.0188 13.2 21.0348 15.344 21.0348 17.904ZM40.3445 7.536C39.2245 7.536 38.3285 6.64 38.3285 5.52C38.3285 4.4 39.2245 3.504 40.3445 3.504C41.4645 3.504 42.3605 4.4 42.3605 5.52C42.3605 6.64 41.4645 7.536 40.3445 7.536ZM42.3285 9.808V26H38.3925V9.808H42.3285ZM54.6555 9.808V13.52H51.0715V26H47.1355V13.52H44.6075V9.808H47.1355V5.008H51.0715V9.808H54.6555Z" fill="#292C35"/>
<path d="M69.004 14.06V15.194C68.29 15.194 67.324 15.572 67.324 16.874V22.306C67.324 23.594 68.29 23.986 69.004 23.986V25.12C67.324 25.12 66.12 24.294 66.12 22.306V16.874C66.12 14.886 67.324 14.06 69.004 14.06ZM76.791 18.82C77.701 19.24 78.415 20.01 78.415 21.2C78.415 22.768 77.183 24.14 75.041 24.14C72.843 24.14 71.387 22.67 71.387 20.878H72.591C72.591 22.194 73.669 23.006 74.985 23.006C76.399 23.006 77.225 22.18 77.225 21.13C77.225 19.87 76.091 19.436 74.859 19.436H74.089V18.288H74.859C76.105 18.288 76.805 17.686 76.805 16.748C76.805 15.768 76.049 15.054 74.845 15.054C73.529 15.054 72.591 15.936 72.591 17.182H71.387C71.387 15.39 72.703 13.92 74.901 13.92C76.763 13.92 77.995 15.194 77.995 16.692C77.995 17.672 77.505 18.386 76.791 18.82ZM83.0393 17.35C85.0413 17.35 86.5393 18.932 86.5393 20.752C86.5393 22.586 85.0413 24.14 83.0393 24.14C81.0093 24.14 79.5113 22.586 79.5113 20.752C79.5113 20.066 79.7213 19.408 80.0993 18.862L83.2353 14.06H84.6213L82.3953 17.406C82.6053 17.378 82.8153 17.35 83.0393 17.35ZM83.0393 23.006C84.3553 23.006 85.3493 21.956 85.3493 20.752C85.3493 19.548 84.3553 18.484 83.0393 18.484C81.6953 18.484 80.7153 19.548 80.7153 20.752C80.7153 21.956 81.6953 23.006 83.0393 23.006ZM95.4629 20.822V21.956H94.0769V24H92.8729V21.956H87.6089V20.822L92.8729 14.06H94.0769V20.822H95.4629ZM89.1209 20.822H92.8729V15.894L89.1209 20.822ZM97.1382 14.06C98.8182 14.06 100.022 14.886 100.022 16.874V22.306C100.022 24.294 98.8182 25.12 97.1382 25.12V23.986C97.8522 23.986 98.8182 23.594 98.8182 22.306V16.874C98.8182 15.572 97.8522 15.194 97.1382 15.194V14.06Z" fill="#4E5969"/>
</svg>
