<svg width="1240" height="52" viewBox="0 0 1240 52" fill="none" xmlns="http://www.w3.org/2000/svg">
<mask id="path-1-inside-1_45_214" fill="white">
<path d="M0 0H1240V52H0V0Z"/>
</mask>
<path d="M1240 51H0V53H1240V51Z" fill="#008B69" mask="url(#path-1-inside-1_45_214)"/>
<path d="M15.072 6.992H6.272V12.56H13.184V16.272H6.272V22.288H15.072V26H2.336V3.28H15.072V6.992ZM38.4738 9.488C41.9298 9.488 43.7538 12.112 43.7538 15.824V26H39.8178V17.168C39.8178 14.8 38.8258 13.2 36.9378 13.2C34.6018 13.2 33.1938 15.696 33.0978 19.024V26H29.1618V17.168C29.1618 14.8 28.1698 13.2 26.2818 13.2C23.9458 13.2 22.5378 15.696 22.4098 19.024V26H18.4738V9.808H22.1858L22.3778 12.08C23.7858 10.576 25.6098 9.488 27.7858 9.488C30.1538 9.488 31.7537 10.704 32.5218 12.656C34.0258 10.864 36.0098 9.488 38.4738 9.488ZM54.959 26.32C49.871 26.32 46.255 22.544 46.255 17.904C46.255 13.264 49.871 9.488 54.959 9.488C60.015 9.488 63.599 13.264 63.599 17.904C63.599 22.544 60.015 26.32 54.959 26.32ZM54.959 22.608C57.711 22.608 59.663 20.464 59.663 17.904C59.663 15.344 57.711 13.2 54.959 13.2C52.175 13.2 50.191 15.344 50.191 17.904C50.191 20.464 52.175 22.608 54.959 22.608ZM68.3858 7.536C67.2658 7.536 66.3698 6.64 66.3698 5.52C66.3698 4.4 67.2658 3.504 68.3858 3.504C69.5058 3.504 70.4018 4.4 70.4018 5.52C70.4018 6.64 69.5058 7.536 68.3858 7.536ZM70.3378 9.808V26L67.6498 33.36H63.5538L66.4018 25.744V9.808H70.3378ZM75.4383 7.536C74.3183 7.536 73.4223 6.64 73.4223 5.52C73.4223 4.4 74.3183 3.504 75.4383 3.504C76.5583 3.504 77.4543 4.4 77.4543 5.52C77.4543 6.64 76.5583 7.536 75.4383 7.536ZM77.4223 9.808V26H73.4863V9.808H77.4223Z" fill="#292C35"/>
<path d="M92.004 14.06V15.194C91.29 15.194 90.324 15.572 90.324 16.874V22.306C90.324 23.594 91.29 23.986 92.004 23.986V25.12C90.324 25.12 89.12 24.294 89.12 22.306V16.874C89.12 14.886 90.324 14.06 92.004 14.06ZM99.791 18.82C100.701 19.24 101.415 20.01 101.415 21.2C101.415 22.768 100.183 24.14 98.041 24.14C95.843 24.14 94.387 22.67 94.387 20.878H95.591C95.591 22.194 96.669 23.006 97.985 23.006C99.399 23.006 100.225 22.18 100.225 21.13C100.225 19.87 99.091 19.436 97.859 19.436H97.089V18.288H97.859C99.105 18.288 99.805 17.686 99.805 16.748C99.805 15.768 99.049 15.054 97.845 15.054C96.529 15.054 95.591 15.936 95.591 17.182H94.387C94.387 15.39 95.703 13.92 97.901 13.92C99.763 13.92 100.995 15.194 100.995 16.692C100.995 17.672 100.505 18.386 99.791 18.82ZM101.985 14.06H108.761V15.194L104.505 24H103.203L107.459 15.194H101.985V14.06ZM110.445 14.06C112.125 14.06 113.329 14.886 113.329 16.874V22.306C113.329 24.294 112.125 25.12 110.445 25.12V23.986C111.159 23.986 112.125 23.594 112.125 22.306V16.874C112.125 15.572 111.159 15.194 110.445 15.194V14.06Z" fill="#4E5969"/>
</svg>
