<svg width="1240" height="52" viewBox="0 0 1240 52" fill="none" xmlns="http://www.w3.org/2000/svg">
<mask id="path-1-inside-1_45_210" fill="white">
<path d="M0 0H1240V52H0V0Z"/>
</mask>
<path d="M1240 51H0V53H1240V51Z" fill="#008B69" mask="url(#path-1-inside-1_45_210)"/>
<path d="M15.072 6.992H6.272V12.56H13.184V16.272H6.272V22.288H15.072V26H2.336V3.28H15.072V6.992ZM28.4258 9.488C32.3298 9.488 34.3778 12.016 34.3778 16.432V26H30.4418V18.256C30.4418 14.48 29.0658 13.2 26.8898 13.2C24.1378 13.2 22.5058 15.28 22.4098 17.904V26H18.4738V9.808H22.1858L22.3778 12.208C23.9458 10.64 25.9938 9.488 28.4258 9.488ZM52.9783 18.096V19.12H40.7223C40.8183 21.104 42.3223 22.832 45.1703 22.832C47.2183 22.832 48.5303 21.744 49.1703 20.624L52.6263 21.008C52.1463 23.216 49.6183 26.32 45.1383 26.32C40.1463 26.32 36.7863 22.544 36.7863 17.808C36.7863 13.296 39.9863 9.488 44.8823 9.488C49.8743 9.488 52.9783 13.456 52.9783 18.096ZM44.8823 12.976C42.4823 12.976 40.8183 14.544 40.7223 16.4H49.0423C48.9143 14.608 47.3463 12.976 44.8823 12.976ZM63.0228 9.488C63.9508 9.488 64.6228 9.84 64.9748 10.192L64.3988 13.616C64.0788 13.424 63.4388 13.2 62.7988 13.2C60.6868 13.2 59.5348 15.376 59.5348 18.8V26H55.5988V9.808H59.3108L59.4708 11.568C60.4948 10.32 61.6788 9.488 63.0228 9.488ZM80.536 9.808V13.296L79 13.072C79.352 13.808 79.576 14.64 79.576 15.568C79.576 19.12 76.6 21.648 72.728 21.648C71.928 21.648 71.16 21.552 70.456 21.328C70.168 21.552 70.008 21.776 70.008 22.064C70.008 22.832 71.096 22.992 72.728 22.992C77.88 22.992 80.408 25.328 80.408 28.336C80.408 31.824 76.856 33.68 73.144 33.68C69.432 33.68 65.88 31.824 65.88 28.336C65.88 26.672 66.68 25.68 67.704 25.008C66.872 24.432 66.296 23.664 66.296 22.768C66.296 21.584 67.256 20.72 68.216 20.24C66.776 19.152 65.88 17.52 65.88 15.568C65.88 11.984 68.856 9.488 72.728 9.488C73.944 9.488 75.096 9.744 76.088 10.192L80.536 9.808ZM72.728 18.352C74.392 18.352 75.832 17.232 75.832 15.568C75.832 13.872 74.392 12.752 72.728 12.752C71.064 12.752 69.592 13.872 69.592 15.568C69.592 17.232 71.064 18.352 72.728 18.352ZM76.696 28.4C76.696 26.8 74.776 26.256 71.576 26.256H71.16C70.424 26.608 69.592 27.344 69.592 28.24C69.592 29.616 70.968 30.416 73.144 30.416C75.32 30.416 76.696 29.744 76.696 28.4ZM82.2788 9.808H86.5028L91.2708 21.104L96.0068 9.808H100.231L90.1828 33.36H86.0228L89.1588 25.968L82.2788 9.808Z" fill="#292C35"/>
<path d="M115.004 14.06V15.194C114.29 15.194 113.324 15.572 113.324 16.874V22.306C113.324 23.594 114.29 23.986 115.004 23.986V25.12C113.324 25.12 112.12 24.294 112.12 22.306V16.874C112.12 14.886 113.324 14.06 115.004 14.06ZM122.791 18.82C123.701 19.24 124.415 20.01 124.415 21.2C124.415 22.768 123.183 24.14 121.041 24.14C118.843 24.14 117.387 22.67 117.387 20.878H118.591C118.591 22.194 119.669 23.006 120.985 23.006C122.399 23.006 123.225 22.18 123.225 21.13C123.225 19.87 122.091 19.436 120.859 19.436H120.089V18.288H120.859C122.105 18.288 122.805 17.686 122.805 16.748C122.805 15.768 122.049 15.054 120.845 15.054C119.529 15.054 118.591 15.936 118.591 17.182H117.387C117.387 15.39 118.703 13.92 120.901 13.92C122.763 13.92 123.995 15.194 123.995 16.692C123.995 17.672 123.505 18.386 122.791 18.82ZM132.629 17.028C132.629 20.458 126.931 20.822 126.931 22.866H132.629V24H125.713V22.866C125.713 19.954 131.425 19.604 131.425 16.986C131.425 15.866 130.557 15.054 129.367 15.054C127.897 15.054 126.917 15.95 126.917 17.14H125.713C125.713 15.348 127.225 13.92 129.381 13.92C131.229 13.92 132.629 15.152 132.629 17.028ZM134.593 14.06C136.273 14.06 137.477 14.886 137.477 16.874V22.306C137.477 24.294 136.273 25.12 134.593 25.12V23.986C135.307 23.986 136.273 23.594 136.273 22.306V16.874C136.273 15.572 135.307 15.194 134.593 15.194V14.06Z" fill="#4E5969"/>
</svg>
