<svg width="1240" height="52" viewBox="0 0 1240 52" fill="none" xmlns="http://www.w3.org/2000/svg">
<mask id="path-1-inside-1_45_222" fill="white">
<path d="M0 0H1240V52H0V0Z"/>
</mask>
<path d="M1240 51H0V53H1240V51Z" fill="#008B69" mask="url(#path-1-inside-1_45_222)"/>
<path d="M14.976 6.992H6.176V12.72H13.728V16.432H6.176V26H2.24V3.28H14.976V6.992ZM24.4903 26.32C19.4023 26.32 15.7863 22.544 15.7863 17.904C15.7863 13.264 19.4023 9.488 24.4903 9.488C29.5463 9.488 33.1303 13.264 33.1303 17.904C33.1303 22.544 29.5463 26.32 24.4903 26.32ZM24.4903 22.608C27.2423 22.608 29.1943 20.464 29.1943 17.904C29.1943 15.344 27.2423 13.2 24.4903 13.2C21.7063 13.2 19.7223 15.344 19.7223 17.904C19.7223 20.464 21.7063 22.608 24.4903 22.608ZM43.709 26.32C38.621 26.32 35.005 22.544 35.005 17.904C35.005 13.264 38.621 9.488 43.709 9.488C48.765 9.488 52.349 13.264 52.349 17.904C52.349 22.544 48.765 26.32 43.709 26.32ZM43.709 22.608C46.461 22.608 48.413 20.464 48.413 17.904C48.413 15.344 46.461 13.2 43.709 13.2C40.925 13.2 38.941 15.344 38.941 17.904C38.941 20.464 40.925 22.608 43.709 22.608ZM54.2238 17.904C54.2238 13.264 57.6158 9.488 62.2558 9.488C65.0398 9.488 67.2158 10.96 68.0478 12.816V2H72.0158V26H68.2718L68.0478 22.992C67.2158 24.848 65.0398 26.32 62.2558 26.32C57.6158 26.32 54.2238 22.544 54.2238 17.904ZM58.1598 17.904C58.1598 20.464 60.1438 22.608 62.9278 22.608C65.6798 22.608 67.6318 20.464 67.6318 17.904C67.6318 15.344 65.6798 13.2 62.9278 13.2C60.1438 13.2 58.1598 15.344 58.1598 17.904ZM74.7238 21.104H78.6598C78.8838 22.256 80.1318 23.024 82.0518 23.024C83.3958 23.024 84.6118 22.544 84.6118 21.552C84.6118 20.272 83.3318 20.016 80.0677 18.96C77.3158 18.128 75.2358 16.784 75.2358 14.16C75.2358 11.248 78.1478 9.488 81.2198 9.488C85.2198 9.488 87.6198 11.728 87.7158 14.448H83.7798C83.6838 13.264 82.4038 12.752 81.3478 12.752C80.3558 12.752 79.1718 13.232 79.1718 14.16C79.1718 15.184 80.3238 15.408 83.7478 16.592C87.3318 17.808 88.5798 19.568 88.5798 21.648C88.5798 24.656 85.6358 26.32 81.9558 26.32C77.8598 26.32 74.9478 24.592 74.7238 21.104Z" fill="#292C35"/>
<path d="M103.004 14.06V15.194C102.29 15.194 101.324 15.572 101.324 16.874V22.306C101.324 23.594 102.29 23.986 103.004 23.986V25.12C101.324 25.12 100.12 24.294 100.12 22.306V16.874C100.12 14.886 101.324 14.06 103.004 14.06ZM108.621 22.866H110.931V24H105.107V22.866H107.417V15.544L105.499 16.02V14.816L108.621 14.06V22.866ZM119.18 17.028C119.18 20.458 113.482 20.822 113.482 22.866H119.18V24H112.264V22.866C112.264 19.954 117.976 19.604 117.976 16.986C117.976 15.866 117.108 15.054 115.918 15.054C114.448 15.054 113.468 15.95 113.468 17.14H112.264C112.264 15.348 113.776 13.92 115.932 13.92C117.78 13.92 119.18 15.152 119.18 17.028ZM124.426 22.866H126.736V24H120.912V22.866H123.222V15.544L121.304 16.02V14.816L124.426 14.06V22.866ZM128.418 14.06C130.098 14.06 131.302 14.886 131.302 16.874V22.306C131.302 24.294 130.098 25.12 128.418 25.12V23.986C129.132 23.986 130.098 23.594 130.098 22.306V16.874C130.098 15.572 129.132 15.194 128.418 15.194V14.06Z" fill="#4E5969"/>
</svg>
