<svg width="1240" height="52" viewBox="0 0 1240 52" fill="none" xmlns="http://www.w3.org/2000/svg">
<mask id="path-1-inside-1_42_2894" fill="white">
<path d="M0 0H1240V52H0V0Z"/>
</mask>
<path d="M1240 51H0V53H1240V51Z" fill="#008B69" mask="url(#path-1-inside-1_42_2894)"/>
<path d="M13.152 13.392H25.6C25.6 21.52 20.896 26.32 14.112 26.32C7.648 26.32 2.88 21.008 2.88 14.64C2.88 8.272 7.648 2.96 14.56 2.96C18.464 2.96 21.44 4.816 23.488 7.6L20.512 9.904C19.296 8.176 17.376 6.672 14.56 6.672C10.016 6.672 6.816 10.192 6.816 14.64C6.816 19.088 9.792 22.608 14.112 22.608C17.888 22.608 20.512 20.432 21.344 17.104H13.152V13.392ZM27.3488 17.904C27.3488 13.264 30.7408 9.488 35.3808 9.488C38.1648 9.488 40.3408 10.96 41.1728 12.816L41.3968 9.808H45.1408V26H41.3968L41.1728 22.992C40.3408 24.848 38.1648 26.32 35.3808 26.32C30.7408 26.32 27.3488 22.544 27.3488 17.904ZM31.2848 17.904C31.2848 20.464 33.2688 22.608 36.0528 22.608C38.8048 22.608 40.7568 20.464 40.7568 17.904C40.7568 15.344 38.8048 13.2 36.0528 13.2C33.2688 13.2 31.2848 15.344 31.2848 17.904ZM68.505 9.488C71.961 9.488 73.785 12.112 73.785 15.824V26H69.849V17.168C69.849 14.8 68.857 13.2 66.969 13.2C64.633 13.2 63.225 15.696 63.129 19.024V26H59.193V17.168C59.193 14.8 58.201 13.2 56.313 13.2C53.977 13.2 52.569 15.696 52.441 19.024V26H48.505V9.808H52.217L52.409 12.08C53.817 10.576 55.641 9.488 57.817 9.488C60.185 9.488 61.785 10.704 62.553 12.656C64.057 10.864 66.041 9.488 68.505 9.488ZM92.4783 18.096V19.12H80.2223C80.3183 21.104 81.8223 22.832 84.6703 22.832C86.7183 22.832 88.0303 21.744 88.6703 20.624L92.1263 21.008C91.6463 23.216 89.1183 26.32 84.6383 26.32C79.6463 26.32 76.2863 22.544 76.2863 17.808C76.2863 13.296 79.4863 9.488 84.3823 9.488C89.3743 9.488 92.4783 13.456 92.4783 18.096ZM84.3823 12.976C81.9823 12.976 80.3183 14.544 80.2223 16.4H88.5423C88.4143 14.608 86.8463 12.976 84.3823 12.976Z" fill="#292C35"/>
<path d="M107.004 14.06V15.194C106.29 15.194 105.324 15.572 105.324 16.874V22.306C105.324 23.594 106.29 23.986 107.004 23.986V25.12C105.324 25.12 104.12 24.294 104.12 22.306V16.874C104.12 14.886 105.324 14.06 107.004 14.06ZM114.791 18.82C115.701 19.24 116.415 20.01 116.415 21.2C116.415 22.768 115.183 24.14 113.041 24.14C110.843 24.14 109.387 22.67 109.387 20.878H110.591C110.591 22.194 111.669 23.006 112.985 23.006C114.399 23.006 115.225 22.18 115.225 21.13C115.225 19.87 114.091 19.436 112.859 19.436H112.089V18.288H112.859C114.105 18.288 114.805 17.686 114.805 16.748C114.805 15.768 114.049 15.054 112.845 15.054C111.529 15.054 110.591 15.936 110.591 17.182H109.387C109.387 15.39 110.703 13.92 112.901 13.92C114.763 13.92 115.995 15.194 115.995 16.692C115.995 17.672 115.505 18.386 114.791 18.82ZM121.039 17.35C123.041 17.35 124.539 18.932 124.539 20.752C124.539 22.586 123.041 24.14 121.039 24.14C119.009 24.14 117.511 22.586 117.511 20.752C117.511 20.066 117.721 19.408 118.099 18.862L121.235 14.06H122.621L120.395 17.406C120.605 17.378 120.815 17.35 121.039 17.35ZM121.039 23.006C122.355 23.006 123.349 21.956 123.349 20.752C123.349 19.548 122.355 18.484 121.039 18.484C119.695 18.484 118.715 19.548 118.715 20.752C118.715 21.956 119.695 23.006 121.039 23.006ZM126.634 14.06C128.314 14.06 129.518 14.886 129.518 16.874V22.306C129.518 24.294 128.314 25.12 126.634 25.12V23.986C127.348 23.986 128.314 23.594 128.314 22.306V16.874C128.314 15.572 127.348 15.194 126.634 15.194V14.06Z" fill="#4E5969"/>
</svg>
