<svg width="1240" height="52" viewBox="0 0 1240 52" fill="none" xmlns="http://www.w3.org/2000/svg">
<mask id="path-1-inside-1_42_2858" fill="white">
<path d="M0 0H1240V52H0V0Z"/>
</mask>
<path d="M1240 51H0V53H1240V51Z" fill="#008B69" mask="url(#path-1-inside-1_42_2858)"/>
<path d="M16.928 3.28H20.896V26H16.928V16.56H6.272V26H2.336V3.28H6.272V12.848H16.928V3.28ZM23.38 17.904C23.38 13.264 26.772 9.488 31.412 9.488C34.196 9.488 36.372 10.96 37.204 12.816L37.428 9.808H41.172V26H37.428L37.204 22.992C36.372 24.848 34.196 26.32 31.412 26.32C26.772 26.32 23.38 22.544 23.38 17.904ZM27.316 17.904C27.316 20.464 29.3 22.608 32.084 22.608C34.836 22.608 36.788 20.464 36.788 17.904C36.788 15.344 34.836 13.2 32.084 13.2C29.3 13.2 27.316 15.344 27.316 17.904ZM54.4883 9.488C58.3923 9.488 60.4403 12.016 60.4403 16.432V26H56.5043V18.256C56.5043 14.48 55.1283 13.2 52.9523 13.2C50.2003 13.2 48.5683 15.28 48.4723 17.904V26H44.5363V9.808H48.2483L48.4403 12.208C50.0083 10.64 52.0563 9.488 54.4883 9.488ZM62.8488 17.904C62.8488 13.264 66.2408 9.488 70.8808 9.488C73.6648 9.488 75.8408 10.96 76.6728 12.816V2H80.6408V26H76.8968L76.6728 22.992C75.8408 24.848 73.6648 26.32 70.8808 26.32C66.2408 26.32 62.8488 22.544 62.8488 17.904ZM66.7848 17.904C66.7848 20.464 68.7688 22.608 71.5528 22.608C74.3048 22.608 76.2568 20.464 76.2568 17.904C76.2568 15.344 74.3048 13.2 71.5528 13.2C68.7688 13.2 66.7848 15.344 66.7848 17.904ZM83.3488 21.104H87.2848C87.5088 22.256 88.7568 23.024 90.6768 23.024C92.0208 23.024 93.2368 22.544 93.2368 21.552C93.2368 20.272 91.9568 20.016 88.6927 18.96C85.9408 18.128 83.8608 16.784 83.8608 14.16C83.8608 11.248 86.7728 9.488 89.8448 9.488C93.8448 9.488 96.2448 11.728 96.3408 14.448H92.4048C92.3088 13.264 91.0288 12.752 89.9728 12.752C88.9808 12.752 87.7968 13.232 87.7968 14.16C87.7968 15.184 88.9488 15.408 92.3728 16.592C95.9568 17.808 97.2048 19.568 97.2048 21.648C97.2048 24.656 94.2608 26.32 90.5808 26.32C86.4848 26.32 83.5728 24.592 83.3488 21.104Z" fill="#292C35"/>
<path d="M112.004 14.06V15.194C111.29 15.194 110.324 15.572 110.324 16.874V22.306C110.324 23.594 111.29 23.986 112.004 23.986V25.12C110.324 25.12 109.12 24.294 109.12 22.306V16.874C109.12 14.886 110.324 14.06 112.004 14.06ZM118.055 17.35C120.057 17.35 121.555 18.932 121.555 20.752C121.555 22.586 120.057 24.14 118.055 24.14C116.025 24.14 114.527 22.586 114.527 20.752C114.527 20.066 114.737 19.408 115.115 18.862L118.251 14.06H119.637L117.411 17.406C117.621 17.378 117.831 17.35 118.055 17.35ZM118.055 23.006C119.371 23.006 120.365 21.956 120.365 20.752C120.365 19.548 119.371 18.484 118.055 18.484C116.711 18.484 115.731 19.548 115.731 20.752C115.731 21.956 116.711 23.006 118.055 23.006ZM126.299 17.35C128.301 17.35 129.799 18.932 129.799 20.752C129.799 22.586 128.301 24.14 126.299 24.14C124.269 24.14 122.771 22.586 122.771 20.752C122.771 20.066 122.981 19.408 123.359 18.862L126.495 14.06H127.881L125.655 17.406C125.865 17.378 126.075 17.35 126.299 17.35ZM126.299 23.006C127.615 23.006 128.609 21.956 128.609 20.752C128.609 19.548 127.615 18.484 126.299 18.484C124.955 18.484 123.975 19.548 123.975 20.752C123.975 21.956 124.955 23.006 126.299 23.006ZM131.894 14.06C133.574 14.06 134.778 14.886 134.778 16.874V22.306C134.778 24.294 133.574 25.12 131.894 25.12V23.986C132.608 23.986 133.574 23.594 133.574 22.306V16.874C133.574 15.572 132.608 15.194 131.894 15.194V14.06Z" fill="#4E5969"/>
</svg>
