<svg width="1240" height="52" viewBox="0 0 1240 52" fill="none" xmlns="http://www.w3.org/2000/svg">
<mask id="path-1-inside-1_45_190" fill="white">
<path d="M0 0H1240V52H0V0Z"/>
</mask>
<path d="M1240 51H0V53H1240V51Z" fill="#008B69" mask="url(#path-1-inside-1_45_190)"/>
<path d="M16.928 3.28H20.896V26H16.928V16.56H6.272V26H2.336V3.28H6.272V12.848H16.928V3.28ZM23.38 17.904C23.38 13.264 26.772 9.488 31.412 9.488C34.196 9.488 36.372 10.96 37.204 12.816L37.428 9.808H41.172V26H37.428L37.204 22.992C36.372 24.848 34.196 26.32 31.412 26.32C26.772 26.32 23.38 22.544 23.38 17.904ZM27.316 17.904C27.316 20.464 29.3 22.608 32.084 22.608C34.836 22.608 36.788 20.464 36.788 17.904C36.788 15.344 34.836 13.2 32.084 13.2C29.3 13.2 27.316 15.344 27.316 17.904ZM51.9603 9.488C52.8883 9.488 53.5603 9.84 53.9123 10.192L53.3363 13.616C53.0163 13.424 52.3763 13.2 51.7363 13.2C49.6243 13.2 48.4723 15.376 48.4723 18.8V26H44.5363V9.808H48.2483L48.4083 11.568C49.4323 10.32 50.6163 9.488 51.9603 9.488ZM54.63 17.904C54.63 13.264 58.022 9.488 62.662 9.488C65.446 9.488 67.622 10.96 68.454 12.816V2H72.422V26H68.678L68.454 22.992C67.622 24.848 65.446 26.32 62.662 26.32C58.022 26.32 54.63 22.544 54.63 17.904ZM58.566 17.904C58.566 20.464 60.55 22.608 63.334 22.608C66.086 22.608 68.038 20.464 68.038 17.904C68.038 15.344 66.086 13.2 63.334 13.2C60.55 13.2 58.566 15.344 58.566 17.904ZM97.8553 9.808H102.047L96.1913 26H92.0633L88.3193 15.6L84.5433 26H80.4473L74.5913 9.808H78.7833L82.4953 21.104L86.2073 9.808H90.3993L94.1113 21.104L97.8553 9.808ZM102.63 17.904C102.63 13.264 106.022 9.488 110.662 9.488C113.446 9.488 115.622 10.96 116.454 12.816L116.678 9.808H120.422V26H116.678L116.454 22.992C115.622 24.848 113.446 26.32 110.662 26.32C106.022 26.32 102.63 22.544 102.63 17.904ZM106.566 17.904C106.566 20.464 108.55 22.608 111.334 22.608C114.086 22.608 116.038 20.464 116.038 17.904C116.038 15.344 114.086 13.2 111.334 13.2C108.55 13.2 106.566 15.344 106.566 17.904ZM131.21 9.488C132.138 9.488 132.81 9.84 133.162 10.192L132.586 13.616C132.266 13.424 131.626 13.2 130.986 13.2C128.874 13.2 127.722 15.376 127.722 18.8V26H123.786V9.808H127.498L127.658 11.568C128.682 10.32 129.866 9.488 131.21 9.488ZM150.072 18.096V19.12H137.816C137.912 21.104 139.416 22.832 142.264 22.832C144.312 22.832 145.624 21.744 146.264 20.624L149.72 21.008C149.24 23.216 146.712 26.32 142.232 26.32C137.24 26.32 133.88 22.544 133.88 17.808C133.88 13.296 137.08 9.488 141.976 9.488C146.968 9.488 150.072 13.456 150.072 18.096ZM141.976 12.976C139.576 12.976 137.912 14.544 137.816 16.4H146.136C146.008 14.608 144.44 12.976 141.976 12.976Z" fill="#292C35"/>
<path d="M165.004 14.06V15.194C164.29 15.194 163.324 15.572 163.324 16.874V22.306C163.324 23.594 164.29 23.986 165.004 23.986V25.12C163.324 25.12 162.12 24.294 162.12 22.306V16.874C162.12 14.886 163.324 14.06 165.004 14.06ZM174.303 17.028C174.303 20.458 168.605 20.822 168.605 22.866H174.303V24H167.387V22.866C167.387 19.954 173.099 19.604 173.099 16.986C173.099 15.866 172.231 15.054 171.041 15.054C169.571 15.054 168.591 15.95 168.591 17.14H167.387C167.387 15.348 168.899 13.92 171.055 13.92C172.903 13.92 174.303 15.152 174.303 17.028ZM182.834 17.028C182.834 20.458 177.136 20.822 177.136 22.866H182.834V24H175.918V22.866C175.918 19.954 181.63 19.604 181.63 16.986C181.63 15.866 180.762 15.054 179.572 15.054C178.102 15.054 177.122 15.95 177.122 17.14H175.918C175.918 15.348 177.43 13.92 179.586 13.92C181.434 13.92 182.834 15.152 182.834 17.028ZM189.881 18.82C190.791 19.24 191.505 20.01 191.505 21.2C191.505 22.768 190.273 24.14 188.131 24.14C185.933 24.14 184.477 22.67 184.477 20.878H185.681C185.681 22.194 186.759 23.006 188.075 23.006C189.489 23.006 190.315 22.18 190.315 21.13C190.315 19.87 189.181 19.436 187.949 19.436H187.179V18.288H187.949C189.195 18.288 189.895 17.686 189.895 16.748C189.895 15.768 189.139 15.054 187.935 15.054C186.619 15.054 185.681 15.936 185.681 17.182H184.477C184.477 15.39 185.793 13.92 187.991 13.92C189.853 13.92 191.085 15.194 191.085 16.692C191.085 17.672 190.595 18.386 189.881 18.82ZM193.466 14.06C195.146 14.06 196.35 14.886 196.35 16.874V22.306C196.35 24.294 195.146 25.12 193.466 25.12V23.986C194.18 23.986 195.146 23.594 195.146 22.306V16.874C195.146 15.572 194.18 15.194 193.466 15.194V14.06Z" fill="#4E5969"/>
</svg>
