<svg width="1240" height="52" viewBox="0 0 1240 52" fill="none" xmlns="http://www.w3.org/2000/svg">
<mask id="path-1-inside-1_40_2829" fill="white">
<path d="M0 0H1240V52H0V0Z"/>
</mask>
<path d="M1240 51H0V53H1240V51Z" fill="#008B69" mask="url(#path-1-inside-1_40_2829)"/>
<path d="M16.928 3.28H20.896V26H16.928V16.56H6.272V26H2.336V3.28H6.272V12.848H16.928V3.28ZM39.572 18.096V19.12H27.316C27.412 21.104 28.916 22.832 31.764 22.832C33.812 22.832 35.124 21.744 35.764 20.624L39.22 21.008C38.74 23.216 36.212 26.32 31.732 26.32C26.74 26.32 23.38 22.544 23.38 17.808C23.38 13.296 26.58 9.488 31.476 9.488C36.468 9.488 39.572 13.456 39.572 18.096ZM31.476 12.976C29.076 12.976 27.412 14.544 27.316 16.4H35.636C35.508 14.608 33.94 12.976 31.476 12.976ZM41.755 17.904C41.755 13.264 45.147 9.488 49.787 9.488C52.571 9.488 54.747 10.96 55.579 12.816L55.803 9.808H59.547V26H55.803L55.579 22.992C54.747 24.848 52.571 26.32 49.787 26.32C45.147 26.32 41.755 22.544 41.755 17.904ZM45.691 17.904C45.691 20.464 47.675 22.608 50.459 22.608C53.211 22.608 55.163 20.464 55.163 17.904C55.163 15.344 53.211 13.2 50.459 13.2C47.675 13.2 45.691 15.344 45.691 17.904ZM66.8473 2V26H62.9113V2H66.8473ZM79.4368 9.808V13.52H75.8528V26H71.9168V13.52H69.3888V9.808H71.9168V5.008H75.8528V9.808H79.4368ZM91.9258 9.488C95.8298 9.488 97.8778 12.016 97.8778 16.432V26H93.9418V18.256C93.9418 14.48 92.5658 13.2 90.3898 13.2C87.6378 13.2 86.0058 15.28 85.9098 17.904V26H81.9738V2H85.9098V12.176C87.4778 10.64 89.4938 9.488 91.9258 9.488Z" fill="#292C35"/>
<path d="M113.004 14.06V15.194C112.29 15.194 111.324 15.572 111.324 16.874V22.306C111.324 23.594 112.29 23.986 113.004 23.986V25.12C111.324 25.12 110.12 24.294 110.12 22.306V16.874C110.12 14.886 111.324 14.06 113.004 14.06ZM115.247 14.06H122.023V15.194L117.767 24H116.465L120.721 15.194H115.247V14.06ZM126.666 13.92C128.584 13.92 130.306 15.264 130.306 17.434V20.626C130.306 22.796 128.584 24.14 126.666 24.14C124.748 24.14 123.026 22.796 123.026 20.626V17.434C123.026 15.264 124.748 13.92 126.666 13.92ZM126.666 23.006C128.01 23.006 129.102 22.026 129.102 20.626V17.434C129.102 16.034 128.01 15.054 126.666 15.054C125.322 15.054 124.23 16.034 124.23 17.434V20.626C124.23 22.026 125.322 23.006 126.666 23.006ZM132.128 14.06C133.808 14.06 135.012 14.886 135.012 16.874V22.306C135.012 24.294 133.808 25.12 132.128 25.12V23.986C132.842 23.986 133.808 23.594 133.808 22.306V16.874C133.808 15.572 132.842 15.194 132.128 15.194V14.06Z" fill="#4E5969"/>
</svg>
