<svg width="1240" height="52" viewBox="0 0 1240 52" fill="none" xmlns="http://www.w3.org/2000/svg">
<mask id="path-1-inside-1_42_2849" fill="white">
<path d="M0 0H1240V52H0V0Z"/>
</mask>
<path d="M1240 51H0V53H1240V51Z" fill="#008B69" mask="url(#path-1-inside-1_42_2849)"/>
<path d="M2.56 26V3.28H6.496V26H2.56ZM19.8008 9.488C23.7048 9.488 25.7528 12.016 25.7528 16.432V26H21.8168V18.256C21.8168 14.48 20.4408 13.2 18.2648 13.2C15.5128 13.2 13.8808 15.28 13.7848 17.904V26H9.84875V9.808H13.5608L13.7528 12.208C15.3208 10.64 17.3688 9.488 19.8008 9.488ZM28.1613 17.904C28.1613 13.264 31.5533 9.488 36.1933 9.488C38.9773 9.488 41.1533 10.96 41.9853 12.816V2H45.9533V26H42.2093L41.9853 22.992C41.1533 24.848 38.9773 26.32 36.1933 26.32C31.5533 26.32 28.1613 22.544 28.1613 17.904ZM32.0973 17.904C32.0973 20.464 34.0813 22.608 36.8653 22.608C39.6173 22.608 41.5693 20.464 41.5693 17.904C41.5693 15.344 39.6173 13.2 36.8653 13.2C34.0813 13.2 32.0973 15.344 32.0973 17.904ZM61.5958 9.808H65.5318V26H61.8198L61.6278 23.6C60.0598 25.168 58.0438 26.32 55.5798 26.32C51.6758 26.32 49.6278 23.792 49.6278 19.376V9.808H53.5638V17.552C53.5638 21.328 54.9398 22.608 57.1158 22.608C59.9318 22.608 61.5958 20.4 61.5958 17.68V9.808ZM68.4738 21.104H72.4098C72.6338 22.256 73.8818 23.024 75.8018 23.024C77.1458 23.024 78.3618 22.544 78.3618 21.552C78.3618 20.272 77.0818 20.016 73.8177 18.96C71.0658 18.128 68.9858 16.784 68.9858 14.16C68.9858 11.248 71.8978 9.488 74.9698 9.488C78.9698 9.488 81.3698 11.728 81.4658 14.448H77.5298C77.4338 13.264 76.1538 12.752 75.0978 12.752C74.1058 12.752 72.9218 13.232 72.9218 14.16C72.9218 15.184 74.0738 15.408 77.4978 16.592C81.0818 17.808 82.3298 19.568 82.3298 21.648C82.3298 24.656 79.3858 26.32 75.7058 26.32C71.6098 26.32 68.6978 24.592 68.4738 21.104ZM93.9055 9.808V13.52H90.3215V26H86.3855V13.52H83.8575V9.808H86.3855V5.008H90.3215V9.808H93.9055ZM103.742 9.488C104.67 9.488 105.342 9.84 105.694 10.192L105.118 13.616C104.798 13.424 104.158 13.2 103.518 13.2C101.406 13.2 100.254 15.376 100.254 18.8V26H96.3175V9.808H100.03L100.19 11.568C101.214 10.32 102.398 9.488 103.742 9.488ZM107.123 9.808H111.347L116.115 21.104L120.851 9.808H125.075L115.027 33.36H110.867L114.003 25.968L107.123 9.808Z" fill="#292C35"/>
<path d="M139.004 14.06V15.194C138.29 15.194 137.324 15.572 137.324 16.874V22.306C137.324 23.594 138.29 23.986 139.004 23.986V25.12C137.324 25.12 136.12 24.294 136.12 22.306V16.874C136.12 14.886 137.324 14.06 139.004 14.06ZM144.621 22.866H146.931V24H141.107V22.866H143.417V15.544L141.499 16.02V14.816L144.621 14.06V22.866ZM153.132 18.512C154.084 19.016 154.77 19.912 154.77 21.074C154.77 22.782 153.37 24.084 151.312 24.084C149.254 24.084 147.854 22.782 147.854 21.074C147.854 19.912 148.54 19.016 149.478 18.512C148.862 18.064 148.414 17.392 148.414 16.566C148.414 15.04 149.758 13.976 151.312 13.976C152.866 13.976 154.21 15.04 154.21 16.566C154.21 17.392 153.748 18.064 153.132 18.512ZM151.312 15.11C150.514 15.11 149.618 15.6 149.618 16.566C149.618 17.532 150.514 18.008 151.312 18.008C152.11 18.008 153.006 17.532 153.006 16.566C153.006 15.6 152.11 15.11 151.312 15.11ZM151.312 22.95C152.586 22.95 153.566 22.18 153.566 21.074C153.566 19.968 152.586 19.198 151.312 19.198C150.024 19.198 149.058 19.968 149.058 21.074C149.058 22.18 150.024 22.95 151.312 22.95ZM156.734 14.06C158.414 14.06 159.618 14.886 159.618 16.874V22.306C159.618 24.294 158.414 25.12 156.734 25.12V23.986C157.448 23.986 158.414 23.594 158.414 22.306V16.874C158.414 15.572 157.448 15.194 156.734 15.194V14.06Z" fill="#4E5969"/>
</svg>
