<svg width="1240" height="52" viewBox="0 0 1240 52" fill="none" xmlns="http://www.w3.org/2000/svg">
<mask id="path-1-inside-1_45_176" fill="white">
<path d="M0 0H1240V52H0V0Z"/>
</mask>
<path d="M1240 51H0V53H1240V51Z" fill="#008B69" mask="url(#path-1-inside-1_45_176)"/>
<path d="M6.816 22.288H16.096V26H2.88V3.28H6.816V22.288ZM19.9695 7.536C18.8495 7.536 17.9535 6.64 17.9535 5.52C17.9535 4.4 18.8495 3.504 19.9695 3.504C21.0895 3.504 21.9855 4.4 21.9855 5.52C21.9855 6.64 21.0895 7.536 19.9695 7.536ZM21.9535 9.808V26H18.0175V9.808H21.9535ZM32.2005 6.672C30.3765 6.672 29.9285 7.696 29.9285 9.296V9.808H33.9605V13.52H29.9285V26H25.9925V13.52H24.2325V9.808H25.9925V8.752C25.9925 4.208 28.6165 2.96 30.8565 2.96C32.2965 2.96 33.4805 3.504 34.0565 3.92V7.216C33.8005 7.056 32.9365 6.672 32.2005 6.672ZM51.5095 18.096V19.12H39.2535C39.3495 21.104 40.8535 22.832 43.7015 22.832C45.7495 22.832 47.0615 21.744 47.7015 20.624L51.1575 21.008C50.6775 23.216 48.1495 26.32 43.6695 26.32C38.6775 26.32 35.3175 22.544 35.3175 17.808C35.3175 13.296 38.5175 9.488 43.4135 9.488C48.4055 9.488 51.5095 13.456 51.5095 18.096ZM43.4135 12.976C41.0135 12.976 39.3495 14.544 39.2535 16.4H47.5735C47.4455 14.608 45.8775 12.976 43.4135 12.976Z" fill="#292C35"/>
<path d="M66.004 14.06V15.194C65.29 15.194 64.324 15.572 64.324 16.874V22.306C64.324 23.594 65.29 23.986 66.004 23.986V25.12C64.324 25.12 63.12 24.294 63.12 22.306V16.874C63.12 14.886 64.324 14.06 66.004 14.06ZM75.303 17.028C75.303 20.458 69.605 20.822 69.605 22.866H75.303V24H68.387V22.866C68.387 19.954 74.099 19.604 74.099 16.986C74.099 15.866 73.231 15.054 72.041 15.054C70.571 15.054 69.591 15.95 69.591 17.14H68.387C68.387 15.348 69.899 13.92 72.055 13.92C73.903 13.92 75.303 15.152 75.303 17.028ZM80.5472 17.294C82.3392 17.294 83.8232 18.596 83.8232 20.724C83.8232 22.586 82.3532 24.14 80.3092 24.14C78.1112 24.14 76.7952 22.614 76.7952 20.878H77.9992C78.0132 22.026 78.9232 22.936 80.2952 22.936C81.5552 22.936 82.6332 22.012 82.6332 20.668C82.6332 19.184 81.5832 18.372 80.2952 18.372C79.4552 18.372 78.4192 18.764 78.0832 19.73H76.9072L77.7752 14.06H83.1232V15.194H78.7832L78.3632 17.91C78.9932 17.504 79.7492 17.294 80.5472 17.294ZM85.7847 14.06C87.4647 14.06 88.6687 14.886 88.6687 16.874V22.306C88.6687 24.294 87.4647 25.12 85.7847 25.12V23.986C86.4987 23.986 87.4647 23.594 87.4647 22.306V16.874C87.4647 15.572 86.4987 15.194 85.7847 15.194V14.06Z" fill="#4E5969"/>
</svg>
