<svg width="1240" height="52" viewBox="0 0 1240 52" fill="none" xmlns="http://www.w3.org/2000/svg">
<mask id="path-1-inside-1_40_2826" fill="white">
<path d="M0 0H1240V52H0V0Z"/>
</mask>
<path d="M1240 51H0V53H1240V51Z" fill="#008B69" mask="url(#path-1-inside-1_40_2826)"/>
<path d="M22.816 3.28H26.784V26H22.816V10.384L15.68 21.776H14.08L6.944 10.384V26H3.008V3.28H6.944L14.88 15.824L22.816 3.28ZM29.9113 17.904C29.9113 13.264 33.3033 9.488 37.9433 9.488C40.7273 9.488 42.9033 10.96 43.7353 12.816L43.9593 9.808H47.7033V26H43.9593L43.7353 22.992C42.9033 24.848 40.7273 26.32 37.9433 26.32C33.3033 26.32 29.9113 22.544 29.9113 17.904ZM33.8473 17.904C33.8473 20.464 35.8313 22.608 38.6153 22.608C41.3673 22.608 43.3193 20.464 43.3193 17.904C43.3193 15.344 41.3673 13.2 38.6153 13.2C35.8313 13.2 33.8473 15.344 33.8473 17.904ZM68.017 9.808L60.657 16.848L68.017 26H63.121L57.873 19.504L55.441 21.808V26H51.505V2H55.441V16.528L62.513 9.808H68.017ZM84.4783 18.096V19.12H72.2223C72.3183 21.104 73.8223 22.832 76.6703 22.832C78.7183 22.832 80.0303 21.744 80.6703 20.624L84.1263 21.008C83.6463 23.216 81.1183 26.32 76.6383 26.32C71.6463 26.32 68.2863 22.544 68.2863 17.808C68.2863 13.296 71.4863 9.488 76.3823 9.488C81.3743 9.488 84.4783 13.456 84.4783 18.096ZM76.3823 12.976C73.9823 12.976 72.3183 14.544 72.2223 16.4H80.5423C80.4143 14.608 78.8463 12.976 76.3823 12.976ZM99.2833 9.808H103.219V26H99.5073L99.3153 23.6C97.7473 25.168 95.7313 26.32 93.2673 26.32C89.3633 26.32 87.3153 23.792 87.3153 19.376V9.808H91.2513V17.552C91.2513 21.328 92.6273 22.608 94.8033 22.608C97.6193 22.608 99.2833 20.4 99.2833 17.68V9.808ZM106.599 33.36V9.808H110.311L110.535 12.816C111.399 10.96 113.543 9.488 116.327 9.488C120.967 9.488 124.391 13.264 124.391 17.904C124.391 22.544 120.967 26.32 116.327 26.32C113.543 26.32 111.399 24.848 110.535 22.992V33.36H106.599ZM110.983 17.904C110.983 20.464 112.903 22.608 115.687 22.608C118.439 22.608 120.423 20.464 120.423 17.904C120.423 15.344 118.439 13.2 115.687 13.2C112.903 13.2 110.983 15.344 110.983 17.904ZM126.036 21.104H129.972C130.196 22.256 131.444 23.024 133.364 23.024C134.708 23.024 135.924 22.544 135.924 21.552C135.924 20.272 134.644 20.016 131.38 18.96C128.628 18.128 126.548 16.784 126.548 14.16C126.548 11.248 129.46 9.488 132.532 9.488C136.532 9.488 138.932 11.728 139.028 14.448H135.092C134.996 13.264 133.716 12.752 132.66 12.752C131.668 12.752 130.484 13.232 130.484 14.16C130.484 15.184 131.636 15.408 135.06 16.592C138.644 17.808 139.892 19.568 139.892 21.648C139.892 24.656 136.948 26.32 133.268 26.32C129.172 26.32 126.26 24.592 126.036 21.104Z" fill="#292C35"/>
<path d="M155.004 14.06V15.194C154.29 15.194 153.324 15.572 153.324 16.874V22.306C153.324 23.594 154.29 23.986 155.004 23.986V25.12C153.324 25.12 152.12 24.294 152.12 22.306V16.874C152.12 14.886 153.324 14.06 155.004 14.06ZM164.961 20.822V21.956H163.575V24H162.371V21.956H157.107V20.822L162.371 14.06H163.575V20.822H164.961ZM158.619 20.822H162.371V15.894L158.619 20.822ZM169.641 17.35C171.643 17.35 173.141 18.932 173.141 20.752C173.141 22.586 171.643 24.14 169.641 24.14C167.611 24.14 166.113 22.586 166.113 20.752C166.113 20.066 166.323 19.408 166.701 18.862L169.837 14.06H171.223L168.997 17.406C169.207 17.378 169.417 17.35 169.641 17.35ZM169.641 23.006C170.957 23.006 171.951 21.956 171.951 20.752C171.951 19.548 170.957 18.484 169.641 18.484C168.297 18.484 167.317 19.548 167.317 20.752C167.317 21.956 168.297 23.006 169.641 23.006ZM175.236 14.06C176.916 14.06 178.12 14.886 178.12 16.874V22.306C178.12 24.294 176.916 25.12 175.236 25.12V23.986C175.95 23.986 176.916 23.594 176.916 22.306V16.874C176.916 15.572 175.95 15.194 175.236 15.194V14.06Z" fill="#4E5969"/>
</svg>
