<svg width="1240" height="52" viewBox="0 0 1240 52" fill="none" xmlns="http://www.w3.org/2000/svg">
<mask id="path-1-inside-1_42_2889" fill="white">
<path d="M0 0H1240V52H0V0Z"/>
</mask>
<path d="M1240 51H0V53H1240V51Z" fill="#008B69" mask="url(#path-1-inside-1_42_2889)"/>
<path d="M22.816 3.28H26.784V26H22.816V10.384L15.68 21.776H14.08L6.944 10.384V26H3.008V3.28H6.944L14.88 15.824L22.816 3.28ZM46.1033 18.096V19.12H33.8473C33.9433 21.104 35.4473 22.832 38.2953 22.832C40.3433 22.832 41.6553 21.744 42.2953 20.624L45.7513 21.008C45.2713 23.216 42.7433 26.32 38.2633 26.32C33.2713 26.32 29.9113 22.544 29.9113 17.808C29.9113 13.296 33.1113 9.488 38.0073 9.488C42.9993 9.488 46.1033 13.456 46.1033 18.096ZM38.0073 12.976C35.6073 12.976 33.9433 14.544 33.8473 16.4H42.1673C42.0393 14.608 40.4713 12.976 38.0073 12.976ZM48.2863 17.904C48.2863 13.264 51.6783 9.488 56.3183 9.488C59.1023 9.488 61.2783 10.96 62.1103 12.816L62.3343 9.808H66.0783V26H62.3343L62.1103 22.992C61.2783 24.848 59.1023 26.32 56.3183 26.32C51.6783 26.32 48.2863 22.544 48.2863 17.904ZM52.2223 17.904C52.2223 20.464 54.2063 22.608 56.9903 22.608C59.7423 22.608 61.6943 20.464 61.6943 17.904C61.6943 15.344 59.7423 13.2 56.9903 13.2C54.2063 13.2 52.2223 15.344 52.2223 17.904ZM69.005 21.104H72.941C73.165 22.256 74.413 23.024 76.333 23.024C77.677 23.024 78.893 22.544 78.893 21.552C78.893 20.272 77.613 20.016 74.349 18.96C71.597 18.128 69.517 16.784 69.517 14.16C69.517 11.248 72.429 9.488 75.501 9.488C79.501 9.488 81.901 11.728 81.997 14.448H78.061C77.965 13.264 76.685 12.752 75.629 12.752C74.637 12.752 73.453 13.232 73.453 14.16C73.453 15.184 74.605 15.408 78.029 16.592C81.613 17.808 82.861 19.568 82.861 21.648C82.861 24.656 79.917 26.32 76.237 26.32C72.141 26.32 69.229 24.592 69.005 21.104ZM97.002 9.808H100.938V26H97.226L97.034 23.6C95.466 25.168 93.45 26.32 90.986 26.32C87.082 26.32 85.034 23.792 85.034 19.376V9.808H88.97V17.552C88.97 21.328 90.346 22.608 92.522 22.608C95.338 22.608 97.002 20.4 97.002 17.68V9.808ZM111.742 9.488C112.67 9.488 113.342 9.84 113.694 10.192L113.118 13.616C112.798 13.424 112.158 13.2 111.518 13.2C109.406 13.2 108.254 15.376 108.254 18.8V26H104.318V9.808H108.03L108.19 11.568C109.214 10.32 110.398 9.488 111.742 9.488ZM130.603 18.096V19.12H118.347C118.443 21.104 119.947 22.832 122.795 22.832C124.843 22.832 126.155 21.744 126.795 20.624L130.251 21.008C129.771 23.216 127.243 26.32 122.763 26.32C117.771 26.32 114.411 22.544 114.411 17.808C114.411 13.296 117.611 9.488 122.507 9.488C127.499 9.488 130.603 13.456 130.603 18.096ZM122.507 12.976C120.107 12.976 118.443 14.544 118.347 16.4H126.667C126.539 14.608 124.971 12.976 122.507 12.976ZM153.224 9.488C156.68 9.488 158.504 12.112 158.504 15.824V26H154.568V17.168C154.568 14.8 153.576 13.2 151.688 13.2C149.352 13.2 147.944 15.696 147.848 19.024V26H143.912V17.168C143.912 14.8 142.92 13.2 141.032 13.2C138.696 13.2 137.288 15.696 137.16 19.024V26H133.224V9.808H136.936L137.128 12.08C138.536 10.576 140.36 9.488 142.536 9.488C144.904 9.488 146.504 10.704 147.272 12.656C148.776 10.864 150.76 9.488 153.224 9.488ZM177.197 18.096V19.12H164.941C165.037 21.104 166.541 22.832 169.389 22.832C171.437 22.832 172.749 21.744 173.389 20.624L176.845 21.008C176.365 23.216 173.837 26.32 169.357 26.32C164.365 26.32 161.005 22.544 161.005 17.808C161.005 13.296 164.205 9.488 169.101 9.488C174.093 9.488 177.197 13.456 177.197 18.096ZM169.101 12.976C166.701 12.976 165.037 14.544 164.941 16.4H173.261C173.133 14.608 171.565 12.976 169.101 12.976ZM189.77 9.488C193.674 9.488 195.722 12.016 195.722 16.432V26H191.786V18.256C191.786 14.48 190.41 13.2 188.234 13.2C185.482 13.2 183.85 15.28 183.754 17.904V26H179.818V9.808H183.53L183.722 12.208C185.29 10.64 187.338 9.488 189.77 9.488ZM208.093 9.808V13.52H204.509V26H200.573V13.52H198.045V9.808H200.573V5.008H204.509V9.808H208.093Z" fill="#292C35"/>
<path d="M222.004 14.06V15.194C221.29 15.194 220.324 15.572 220.324 16.874V22.306C220.324 23.594 221.29 23.986 222.004 23.986V25.12C220.324 25.12 219.12 24.294 219.12 22.306V16.874C219.12 14.886 220.324 14.06 222.004 14.06ZM227.621 22.866H229.931V24H224.107V22.866H226.417V15.544L224.499 16.02V14.816L227.621 14.06V22.866ZM236.326 18.82C237.236 19.24 237.95 20.01 237.95 21.2C237.95 22.768 236.718 24.14 234.576 24.14C232.378 24.14 230.922 22.67 230.922 20.878H232.126C232.126 22.194 233.204 23.006 234.52 23.006C235.934 23.006 236.76 22.18 236.76 21.13C236.76 19.87 235.626 19.436 234.394 19.436H233.624V18.288H234.394C235.64 18.288 236.34 17.686 236.34 16.748C236.34 15.768 235.584 15.054 234.38 15.054C233.064 15.054 232.126 15.936 232.126 17.182H230.922C230.922 15.39 232.238 13.92 234.436 13.92C236.298 13.92 237.53 15.194 237.53 16.692C237.53 17.672 237.04 18.386 236.326 18.82ZM239.912 14.06C241.592 14.06 242.796 14.886 242.796 16.874V22.306C242.796 24.294 241.592 25.12 239.912 25.12V23.986C240.626 23.986 241.592 23.594 241.592 22.306V16.874C241.592 15.572 240.626 15.194 239.912 15.194V14.06Z" fill="#4E5969"/>
</svg>
