<svg width="1240" height="52" viewBox="0 0 1240 52" fill="none" xmlns="http://www.w3.org/2000/svg">
<mask id="path-1-inside-1_45_186" fill="white">
<path d="M0 0H1240V52H0V0Z"/>
</mask>
<path d="M1240 51H0V53H1240V51Z" fill="#008B69" mask="url(#path-1-inside-1_45_186)"/>
<path d="M20.896 9.168C20.064 8.272 17.984 6.672 14.72 6.672C10.432 6.672 6.816 9.968 6.816 14.64C6.816 19.312 10.432 22.608 14.72 22.608C17.984 22.608 20.096 20.976 20.896 20.112V24.08C19.904 24.944 17.696 26.32 14.24 26.32C7.904 26.32 2.88 21.232 2.88 14.64C2.88 8.048 7.904 2.96 14.24 2.96C17.696 2.96 19.904 4.336 20.896 5.2V9.168ZM31.9278 26.32C26.8398 26.32 23.2238 22.544 23.2238 17.904C23.2238 13.264 26.8398 9.488 31.9278 9.488C36.9838 9.488 40.5678 13.264 40.5678 17.904C40.5678 22.544 36.9838 26.32 31.9278 26.32ZM31.9278 22.608C34.6798 22.608 36.6318 20.464 36.6318 17.904C36.6318 15.344 34.6798 13.2 31.9278 13.2C29.1438 13.2 27.1598 15.344 27.1598 17.904C27.1598 20.464 29.1438 22.608 31.9278 22.608ZM63.1925 9.488C66.6485 9.488 68.4725 12.112 68.4725 15.824V26H64.5365V17.168C64.5365 14.8 63.5445 13.2 61.6565 13.2C59.3205 13.2 57.9125 15.696 57.8165 19.024V26H53.8805V17.168C53.8805 14.8 52.8885 13.2 51.0005 13.2C48.6645 13.2 47.2565 15.696 47.1285 19.024V26H43.1925V9.808H46.9045L47.0965 12.08C48.5045 10.576 50.3285 9.488 52.5045 9.488C54.8725 9.488 56.4725 10.704 57.2405 12.656C58.7445 10.864 60.7285 9.488 63.1925 9.488ZM71.8488 33.36V9.808H75.5608L75.7848 12.816C76.6488 10.96 78.7928 9.488 81.5768 9.488C86.2168 9.488 89.6408 13.264 89.6408 17.904C89.6408 22.544 86.2168 26.32 81.5768 26.32C78.7928 26.32 76.6488 24.848 75.7848 22.992V33.36H71.8488ZM76.2328 17.904C76.2328 20.464 78.1528 22.608 80.9368 22.608C83.6888 22.608 85.6728 20.464 85.6728 17.904C85.6728 15.344 83.6888 13.2 80.9368 13.2C78.1528 13.2 76.2328 15.344 76.2328 17.904ZM100.209 26.32C95.121 26.32 91.505 22.544 91.505 17.904C91.505 13.264 95.121 9.488 100.209 9.488C105.265 9.488 108.849 13.264 108.849 17.904C108.849 22.544 105.265 26.32 100.209 26.32ZM100.209 22.608C102.961 22.608 104.913 20.464 104.913 17.904C104.913 15.344 102.961 13.2 100.209 13.2C97.425 13.2 95.441 15.344 95.441 17.904C95.441 20.464 97.425 22.608 100.209 22.608ZM121.426 9.488C125.33 9.488 127.378 12.016 127.378 16.432V26H123.442V18.256C123.442 14.48 122.066 13.2 119.89 13.2C117.138 13.2 115.506 15.28 115.41 17.904V26H111.474V9.808H115.186L115.378 12.208C116.946 10.64 118.994 9.488 121.426 9.488ZM145.978 18.096V19.12H133.722C133.818 21.104 135.322 22.832 138.17 22.832C140.218 22.832 141.53 21.744 142.17 20.624L145.626 21.008C145.146 23.216 142.618 26.32 138.138 26.32C133.146 26.32 129.786 22.544 129.786 17.808C129.786 13.296 132.986 9.488 137.882 9.488C142.874 9.488 145.978 13.456 145.978 18.096ZM137.882 12.976C135.482 12.976 133.818 14.544 133.722 16.4H142.042C141.914 14.608 140.346 12.976 137.882 12.976ZM158.551 9.488C162.455 9.488 164.503 12.016 164.503 16.432V26H160.567V18.256C160.567 14.48 159.191 13.2 157.015 13.2C154.263 13.2 152.631 15.28 152.535 17.904V26H148.599V9.808H152.311L152.503 12.208C154.071 10.64 156.119 9.488 158.551 9.488ZM176.874 9.808V13.52H173.29V26H169.354V13.52H166.826V9.808H169.354V5.008H173.29V9.808H176.874ZM178.443 21.104H182.379C182.603 22.256 183.851 23.024 185.771 23.024C187.115 23.024 188.331 22.544 188.331 21.552C188.331 20.272 187.051 20.016 183.786 18.96C181.035 18.128 178.955 16.784 178.955 14.16C178.955 11.248 181.867 9.488 184.939 9.488C188.939 9.488 191.339 11.728 191.435 14.448H187.499C187.403 13.264 186.123 12.752 185.067 12.752C184.075 12.752 182.891 13.232 182.891 14.16C182.891 15.184 184.043 15.408 187.467 16.592C191.051 17.808 192.299 19.568 192.299 21.648C192.299 24.656 189.355 26.32 185.675 26.32C181.579 26.32 178.667 24.592 178.443 21.104Z" fill="#292C35"/>
<path d="M207.004 14.06V15.194C206.29 15.194 205.324 15.572 205.324 16.874V22.306C205.324 23.594 206.29 23.986 207.004 23.986V25.12C205.324 25.12 204.12 24.294 204.12 22.306V16.874C204.12 14.886 205.324 14.06 207.004 14.06ZM212.887 13.92C214.805 13.92 216.527 15.264 216.527 17.434V20.626C216.527 22.796 214.805 24.14 212.887 24.14C210.969 24.14 209.247 22.796 209.247 20.626V17.434C209.247 15.264 210.969 13.92 212.887 13.92ZM212.887 23.006C214.231 23.006 215.323 22.026 215.323 20.626V17.434C215.323 16.034 214.231 15.054 212.887 15.054C211.543 15.054 210.451 16.034 210.451 17.434V20.626C210.451 22.026 211.543 23.006 212.887 23.006ZM223.128 18.512C224.08 19.016 224.766 19.912 224.766 21.074C224.766 22.782 223.366 24.084 221.308 24.084C219.25 24.084 217.85 22.782 217.85 21.074C217.85 19.912 218.536 19.016 219.474 18.512C218.858 18.064 218.41 17.392 218.41 16.566C218.41 15.04 219.754 13.976 221.308 13.976C222.862 13.976 224.206 15.04 224.206 16.566C224.206 17.392 223.744 18.064 223.128 18.512ZM221.308 15.11C220.51 15.11 219.614 15.6 219.614 16.566C219.614 17.532 220.51 18.008 221.308 18.008C222.106 18.008 223.002 17.532 223.002 16.566C223.002 15.6 222.106 15.11 221.308 15.11ZM221.308 22.95C222.582 22.95 223.562 22.18 223.562 21.074C223.562 19.968 222.582 19.198 221.308 19.198C220.02 19.198 219.054 19.968 219.054 21.074C219.054 22.18 220.02 22.95 221.308 22.95ZM226.73 14.06C228.41 14.06 229.614 14.886 229.614 16.874V22.306C229.614 24.294 228.41 25.12 226.73 25.12V23.986C227.444 23.986 228.41 23.594 228.41 22.306V16.874C228.41 15.572 227.444 15.194 226.73 15.194V14.06Z" fill="#4E5969"/>
</svg>
