<svg width="1240" height="52" viewBox="0 0 1240 52" fill="none" xmlns="http://www.w3.org/2000/svg">
<mask id="path-1-inside-1_45_182" fill="white">
<path d="M0 0H1240V52H0V0Z"/>
</mask>
<path d="M1240 51H0V53H1240V51Z" fill="#008B69" mask="url(#path-1-inside-1_45_182)"/>
<path d="M22.816 3.28H26.784V26H22.816V10.384L15.68 21.776H14.08L6.944 10.384V26H3.008V3.28H6.944L14.88 15.824L22.816 3.28ZM38.6153 26.32C33.5273 26.32 29.9113 22.544 29.9113 17.904C29.9113 13.264 33.5273 9.488 38.6153 9.488C43.6713 9.488 47.2553 13.264 47.2553 17.904C47.2553 22.544 43.6713 26.32 38.6153 26.32ZM38.6153 22.608C41.3673 22.608 43.3193 20.464 43.3193 17.904C43.3193 15.344 41.3673 13.2 38.6153 13.2C35.8313 13.2 33.8473 15.344 33.8473 17.904C33.8473 20.464 35.8313 22.608 38.6153 22.608ZM59.832 9.488C63.736 9.488 65.784 12.016 65.784 16.432V26H61.848V18.256C61.848 14.48 60.472 13.2 58.296 13.2C55.544 13.2 53.912 15.28 53.816 17.904V26H49.88V9.808H53.592L53.784 12.208C55.352 10.64 57.4 9.488 59.832 9.488ZM84.3845 18.096V19.12H72.1285C72.2245 21.104 73.7285 22.832 76.5765 22.832C78.6245 22.832 79.9365 21.744 80.5765 20.624L84.0325 21.008C83.5525 23.216 81.0245 26.32 76.5445 26.32C71.5525 26.32 68.1925 22.544 68.1925 17.808C68.1925 13.296 71.3925 9.488 76.2885 9.488C81.2805 9.488 84.3845 13.456 84.3845 18.096ZM76.2885 12.976C73.8885 12.976 72.2245 14.544 72.1285 16.4H80.4485C80.3205 14.608 78.7525 12.976 76.2885 12.976ZM84.9975 9.808H89.2215L93.9895 21.104L98.7255 9.808H102.95L92.9015 33.36H88.7415L91.8775 25.968L84.9975 9.808Z" fill="#292C35"/>
<path d="M117.004 14.06V15.194C116.29 15.194 115.324 15.572 115.324 16.874V22.306C115.324 23.594 116.29 23.986 117.004 23.986V25.12C115.324 25.12 114.12 24.294 114.12 22.306V16.874C114.12 14.886 115.324 14.06 117.004 14.06ZM124.665 18.512C125.617 19.016 126.303 19.912 126.303 21.074C126.303 22.782 124.903 24.084 122.845 24.084C120.787 24.084 119.387 22.782 119.387 21.074C119.387 19.912 120.073 19.016 121.011 18.512C120.395 18.064 119.947 17.392 119.947 16.566C119.947 15.04 121.291 13.976 122.845 13.976C124.399 13.976 125.743 15.04 125.743 16.566C125.743 17.392 125.281 18.064 124.665 18.512ZM122.845 15.11C122.047 15.11 121.151 15.6 121.151 16.566C121.151 17.532 122.047 18.008 122.845 18.008C123.643 18.008 124.539 17.532 124.539 16.566C124.539 15.6 123.643 15.11 122.845 15.11ZM122.845 22.95C124.119 22.95 125.099 22.18 125.099 21.074C125.099 19.968 124.119 19.198 122.845 19.198C121.557 19.198 120.591 19.968 120.591 21.074C120.591 22.18 121.557 22.95 122.845 22.95ZM131.186 13.92C133.104 13.92 134.826 15.264 134.826 17.434V20.626C134.826 22.796 133.104 24.14 131.186 24.14C129.268 24.14 127.546 22.796 127.546 20.626V17.434C127.546 15.264 129.268 13.92 131.186 13.92ZM131.186 23.006C132.53 23.006 133.622 22.026 133.622 20.626V17.434C133.622 16.034 132.53 15.054 131.186 15.054C129.842 15.054 128.75 16.034 128.75 17.434V20.626C128.75 22.026 129.842 23.006 131.186 23.006ZM136.648 14.06C138.328 14.06 139.532 14.886 139.532 16.874V22.306C139.532 24.294 138.328 25.12 136.648 25.12V23.986C137.362 23.986 138.328 23.594 138.328 22.306V16.874C138.328 15.572 137.362 15.194 136.648 15.194V14.06Z" fill="#4E5969"/>
</svg>
