<svg width="1240" height="52" viewBox="0 0 1240 52" fill="none" xmlns="http://www.w3.org/2000/svg">
<mask id="path-1-inside-1_40_2838" fill="white">
<path d="M0 0H1240V52H0V0Z"/>
</mask>
<path d="M1240 51H0V53H1240V51Z" fill="#008B69" mask="url(#path-1-inside-1_40_2838)"/>
<path d="M22.816 3.28H26.784V26H22.816V10.384L15.68 21.776H14.08L6.944 10.384V26H3.008V3.28H6.944L14.88 15.824L22.816 3.28ZM42.5333 9.808H46.4693V26H42.7573L42.5653 23.6C40.9973 25.168 38.9813 26.32 36.5173 26.32C32.6133 26.32 30.5653 23.792 30.5653 19.376V9.808H34.5013V17.552C34.5013 21.328 35.8773 22.608 38.0533 22.608C40.8693 22.608 42.5333 20.4 42.5333 17.68V9.808ZM49.4113 21.104H53.3473C53.5713 22.256 54.8193 23.024 56.7393 23.024C58.0833 23.024 59.2993 22.544 59.2993 21.552C59.2993 20.272 58.0193 20.016 54.7552 18.96C52.0033 18.128 49.9233 16.784 49.9233 14.16C49.9233 11.248 52.8353 9.488 55.9073 9.488C59.9073 9.488 62.3073 11.728 62.4033 14.448H58.4673C58.3713 13.264 57.0913 12.752 56.0353 12.752C55.0433 12.752 53.8593 13.232 53.8593 14.16C53.8593 15.184 55.0113 15.408 58.4353 16.592C62.0193 17.808 63.2673 19.568 63.2673 21.648C63.2673 24.656 60.3233 26.32 56.6433 26.32C52.5473 26.32 49.6353 24.592 49.4113 21.104ZM67.6883 7.536C66.5683 7.536 65.6723 6.64 65.6723 5.52C65.6723 4.4 66.5683 3.504 67.6883 3.504C68.8083 3.504 69.7043 4.4 69.7043 5.52C69.7043 6.64 68.8083 7.536 67.6883 7.536ZM69.6723 9.808V26H65.7363V9.808H69.6723ZM85.6243 14.896C84.3443 13.68 83.0003 13.2 81.4963 13.2C79.0963 13.2 76.6963 15.088 76.6963 17.904C76.6963 20.72 79.0963 22.608 81.4963 22.608C83.0003 22.608 84.3443 22.096 85.6243 20.88V24.656C84.5363 25.616 82.9363 26.32 80.8563 26.32C76.0563 26.32 72.5363 22.48 72.5363 17.904C72.5363 13.36 76.0563 9.488 80.8563 9.488C82.9363 9.488 84.5363 10.192 85.6243 11.152V14.896Z" fill="#292C35"/>
<path d="M100.004 14.06V15.194C99.29 15.194 98.324 15.572 98.324 16.874V22.306C98.324 23.594 99.29 23.986 100.004 23.986V25.12C98.324 25.12 97.12 24.294 97.12 22.306V16.874C97.12 14.886 98.324 14.06 100.004 14.06ZM106.139 17.294C107.931 17.294 109.415 18.596 109.415 20.724C109.415 22.586 107.945 24.14 105.901 24.14C103.703 24.14 102.387 22.614 102.387 20.878H103.591C103.605 22.026 104.515 22.936 105.887 22.936C107.147 22.936 108.225 22.012 108.225 20.668C108.225 19.184 107.175 18.372 105.887 18.372C105.047 18.372 104.011 18.764 103.675 19.73H102.499L103.367 14.06H108.715V15.194H104.375L103.955 17.91C104.585 17.504 105.341 17.294 106.139 17.294ZM110.19 14.06H116.966V15.194L112.71 24H111.408L115.664 15.194H110.19V14.06ZM118.65 14.06C120.33 14.06 121.534 14.886 121.534 16.874V22.306C121.534 24.294 120.33 25.12 118.65 25.12V23.986C119.364 23.986 120.33 23.594 120.33 22.306V16.874C120.33 15.572 119.364 15.194 118.65 15.194V14.06Z" fill="#4E5969"/>
</svg>
