<svg width="1240" height="52" viewBox="0 0 1240 52" fill="none" xmlns="http://www.w3.org/2000/svg">
<mask id="path-1-inside-1_40_2817" fill="white">
<path d="M0 0H1240V52H0V0Z"/>
</mask>
<path d="M1240 51H0V53H1240V51Z" fill="#008B69" mask="url(#path-1-inside-1_40_2817)"/>
<path d="M14.432 26.32C7.968 26.32 2.88 21.104 2.88 14.64C2.88 8.176 7.968 2.96 14.432 2.96C20.928 2.96 26.016 8.176 26.016 14.64C26.016 21.104 20.928 26.32 14.432 26.32ZM14.432 22.608C18.848 22.608 22.048 18.992 22.048 14.64C22.048 10.288 18.848 6.672 14.432 6.672C10.016 6.672 6.816 10.288 6.816 14.64C6.816 18.992 10.016 22.608 14.432 22.608ZM36.638 6.672C34.814 6.672 34.366 7.696 34.366 9.296V9.808H38.398V13.52H34.366V26H30.43V13.52H28.67V9.808H30.43V8.752C30.43 4.208 33.054 2.96 35.294 2.96C36.734 2.96 37.918 3.504 38.494 3.92V7.216C38.238 7.056 37.374 6.672 36.638 6.672ZM48.0755 6.672C46.2515 6.672 45.8035 7.696 45.8035 9.296V9.808H49.8355V13.52H45.8035V26H41.8675V13.52H40.1075V9.808H41.8675V8.752C41.8675 4.208 44.4915 2.96 46.7315 2.96C48.1715 2.96 49.3555 3.504 49.9315 3.92V7.216C49.6755 7.056 48.8115 6.672 48.0755 6.672ZM54.3133 7.536C53.1933 7.536 52.2973 6.64 52.2973 5.52C52.2973 4.4 53.1933 3.504 54.3133 3.504C55.4333 3.504 56.3293 4.4 56.3293 5.52C56.3293 6.64 55.4333 7.536 54.3133 7.536ZM56.2973 9.808V26H52.3613V9.808H56.2973ZM72.2493 14.896C70.9693 13.68 69.6253 13.2 68.1213 13.2C65.7213 13.2 63.3213 15.088 63.3213 17.904C63.3213 20.72 65.7213 22.608 68.1213 22.608C69.6253 22.608 70.9693 22.096 72.2493 20.88V24.656C71.1613 25.616 69.5613 26.32 67.4813 26.32C62.6813 26.32 59.1613 22.48 59.1613 17.904C59.1613 13.36 62.6813 9.488 67.4813 9.488C69.5613 9.488 71.1613 10.192 72.2493 11.152V14.896ZM90.6345 18.096V19.12H78.3785C78.4745 21.104 79.9785 22.832 82.8265 22.832C84.8745 22.832 86.1865 21.744 86.8265 20.624L90.2825 21.008C89.8025 23.216 87.2745 26.32 82.7945 26.32C77.8025 26.32 74.4425 22.544 74.4425 17.808C74.4425 13.296 77.6425 9.488 82.5385 9.488C87.5305 9.488 90.6345 13.456 90.6345 18.096ZM82.5385 12.976C80.1385 12.976 78.4745 14.544 78.3785 16.4H86.6985C86.5705 14.608 85.0025 12.976 82.5385 12.976Z" fill="#292C35"/>
<path d="M105.004 14.06V15.194C104.29 15.194 103.324 15.572 103.324 16.874V22.306C103.324 23.594 104.29 23.986 105.004 23.986V25.12C103.324 25.12 102.12 24.294 102.12 22.306V16.874C102.12 14.886 103.324 14.06 105.004 14.06ZM114.303 17.028C114.303 20.458 108.605 20.822 108.605 22.866H114.303V24H107.387V22.866C107.387 19.954 113.099 19.604 113.099 16.986C113.099 15.866 112.231 15.054 111.041 15.054C109.571 15.054 108.591 15.95 108.591 17.14H107.387C107.387 15.348 108.899 13.92 111.055 13.92C112.903 13.92 114.303 15.152 114.303 17.028ZM119.549 22.866H121.859V24H116.035V22.866H118.345V15.544L116.427 16.02V14.816L119.549 14.06V22.866ZM126.451 17.294C128.243 17.294 129.727 18.596 129.727 20.724C129.727 22.586 128.257 24.14 126.213 24.14C124.015 24.14 122.699 22.614 122.699 20.878H123.903C123.917 22.026 124.827 22.936 126.199 22.936C127.459 22.936 128.537 22.012 128.537 20.668C128.537 19.184 127.487 18.372 126.199 18.372C125.359 18.372 124.323 18.764 123.987 19.73H122.811L123.679 14.06H129.027V15.194H124.687L124.267 17.91C124.897 17.504 125.653 17.294 126.451 17.294ZM131.689 14.06C133.369 14.06 134.573 14.886 134.573 16.874V22.306C134.573 24.294 133.369 25.12 131.689 25.12V23.986C132.403 23.986 133.369 23.594 133.369 22.306V16.874C133.369 15.572 132.403 15.194 131.689 15.194V14.06Z" fill="#4E5969"/>
</svg>
