<svg width="1240" height="52" viewBox="0 0 1240 52" fill="none" xmlns="http://www.w3.org/2000/svg">
<mask id="path-1-inside-1_45_206" fill="white">
<path d="M0 0H1240V52H0V0Z"/>
</mask>
<path d="M1240 51H0V53H1240V51Z" fill="#008B69" mask="url(#path-1-inside-1_45_206)"/>
<path d="M14.432 26.32C7.968 26.32 2.88 21.104 2.88 14.64C2.88 8.176 7.968 2.96 14.432 2.96C20.928 2.96 26.016 8.176 26.016 14.64C26.016 21.104 20.928 26.32 14.432 26.32ZM14.432 22.608C18.848 22.608 22.048 18.992 22.048 14.64C22.048 10.288 18.848 6.672 14.432 6.672C10.016 6.672 6.816 10.288 6.816 14.64C6.816 18.992 10.016 22.608 14.432 22.608ZM28.4113 33.36V9.808H32.1233L32.3473 12.816C33.2113 10.96 35.3553 9.488 38.1393 9.488C42.7793 9.488 46.2033 13.264 46.2033 17.904C46.2033 22.544 42.7793 26.32 38.1393 26.32C35.3553 26.32 33.2113 24.848 32.3473 22.992V33.36H28.4113ZM32.7953 17.904C32.7953 20.464 34.7153 22.608 37.4993 22.608C40.2513 22.608 42.2353 20.464 42.2353 17.904C42.2353 15.344 40.2513 13.2 37.4993 13.2C34.7153 13.2 32.7953 15.344 32.7953 17.904ZM64.2595 18.096V19.12H52.0035C52.0995 21.104 53.6035 22.832 56.4515 22.832C58.4995 22.832 59.8115 21.744 60.4515 20.624L63.9075 21.008C63.4275 23.216 60.8995 26.32 56.4195 26.32C51.4275 26.32 48.0675 22.544 48.0675 17.808C48.0675 13.296 51.2675 9.488 56.1635 9.488C61.1555 9.488 64.2595 13.456 64.2595 18.096ZM56.1635 12.976C53.7635 12.976 52.0995 14.544 52.0035 16.4H60.3235C60.1955 14.608 58.6275 12.976 56.1635 12.976ZM74.304 9.488C75.232 9.488 75.904 9.84 76.256 10.192L75.68 13.616C75.36 13.424 74.72 13.2 74.08 13.2C71.968 13.2 70.816 15.376 70.816 18.8V26H66.88V9.808H70.592L70.752 11.568C71.776 10.32 72.96 9.488 74.304 9.488ZM76.9738 17.904C76.9738 13.264 80.3658 9.488 85.0058 9.488C87.7898 9.488 89.9658 10.96 90.7978 12.816L91.0218 9.808H94.7658V26H91.0218L90.7978 22.992C89.9658 24.848 87.7898 26.32 85.0058 26.32C80.3658 26.32 76.9738 22.544 76.9738 17.904ZM80.9098 17.904C80.9098 20.464 82.8938 22.608 85.6778 22.608C88.4298 22.608 90.3818 20.464 90.3818 17.904C90.3818 15.344 88.4298 13.2 85.6778 13.2C82.8938 13.2 80.9098 15.344 80.9098 17.904ZM107.437 9.808V13.52H103.853V26H99.9168V13.52H97.3888V9.808H99.9168V5.008H103.853V9.808H107.437ZM124.853 18.096V19.12H112.597C112.693 21.104 114.197 22.832 117.045 22.832C119.093 22.832 120.405 21.744 121.045 20.624L124.501 21.008C124.021 23.216 121.493 26.32 117.013 26.32C112.021 26.32 108.661 22.544 108.661 17.808C108.661 13.296 111.861 9.488 116.757 9.488C121.749 9.488 124.853 13.456 124.853 18.096ZM116.757 12.976C114.357 12.976 112.693 14.544 112.597 16.4H120.917C120.789 14.608 119.221 12.976 116.757 12.976Z" fill="#292C35"/>
<path d="M140.004 14.06V15.194C139.29 15.194 138.324 15.572 138.324 16.874V22.306C138.324 23.594 139.29 23.986 140.004 23.986V25.12C138.324 25.12 137.12 24.294 137.12 22.306V16.874C137.12 14.886 138.324 14.06 140.004 14.06ZM147.791 18.82C148.701 19.24 149.415 20.01 149.415 21.2C149.415 22.768 148.183 24.14 146.041 24.14C143.843 24.14 142.387 22.67 142.387 20.878H143.591C143.591 22.194 144.669 23.006 145.985 23.006C147.399 23.006 148.225 22.18 148.225 21.13C148.225 19.87 147.091 19.436 145.859 19.436H145.089V18.288H145.859C147.105 18.288 147.805 17.686 147.805 16.748C147.805 15.768 147.049 15.054 145.845 15.054C144.529 15.054 143.591 15.936 143.591 17.182H142.387C142.387 15.39 143.703 13.92 145.901 13.92C147.763 13.92 148.995 15.194 148.995 16.692C148.995 17.672 148.505 18.386 147.791 18.82ZM154.207 22.866H156.517V24H150.693V22.866H153.003V15.544L151.085 16.02V14.816L154.207 14.06V22.866ZM158.199 14.06C159.879 14.06 161.083 14.886 161.083 16.874V22.306C161.083 24.294 159.879 25.12 158.199 25.12V23.986C158.913 23.986 159.879 23.594 159.879 22.306V16.874C159.879 15.572 158.913 15.194 158.199 15.194V14.06Z" fill="#4E5969"/>
</svg>
