<svg width="1240" height="52" viewBox="0 0 1240 52" fill="none" xmlns="http://www.w3.org/2000/svg">
<mask id="path-1-inside-1_45_226" fill="white">
<path d="M0 0H1240V52H0V0Z"/>
</mask>
<path d="M1240 51H0V53H1240V51Z" fill="#008B69" mask="url(#path-1-inside-1_45_226)"/>
<path d="M14.432 26.32C7.968 26.32 2.88 21.104 2.88 14.64C2.88 8.176 7.968 2.96 14.432 2.96C20.928 2.96 26.016 8.176 26.016 14.64C26.016 21.104 20.928 26.32 14.432 26.32ZM14.432 22.608C18.848 22.608 22.048 18.992 22.048 14.64C22.048 10.288 18.848 6.672 14.432 6.672C10.016 6.672 6.816 10.288 6.816 14.64C6.816 18.992 10.016 22.608 14.432 22.608ZM38.718 9.808V13.52H35.134V26H31.198V13.52H28.67V9.808H31.198V5.008H35.134V9.808H38.718ZM51.207 9.488C55.111 9.488 57.159 12.016 57.159 16.432V26H53.223V18.256C53.223 14.48 51.847 13.2 49.671 13.2C46.919 13.2 45.287 15.28 45.191 17.904V26H41.255V2H45.191V12.176C46.759 10.64 48.775 9.488 51.207 9.488ZM75.7595 18.096V19.12H63.5035C63.5995 21.104 65.1035 22.832 67.9515 22.832C69.9995 22.832 71.3115 21.744 71.9515 20.624L75.4075 21.008C74.9275 23.216 72.3995 26.32 67.9195 26.32C62.9275 26.32 59.5675 22.544 59.5675 17.808C59.5675 13.296 62.7675 9.488 67.6635 9.488C72.6555 9.488 75.7595 13.456 75.7595 18.096ZM67.6635 12.976C65.2635 12.976 63.5995 14.544 63.5035 16.4H71.8235C71.6955 14.608 70.1275 12.976 67.6635 12.976ZM85.804 9.488C86.732 9.488 87.404 9.84 87.756 10.192L87.18 13.616C86.86 13.424 86.22 13.2 85.58 13.2C83.468 13.2 82.316 15.376 82.316 18.8V26H78.38V9.808H82.092L82.252 11.568C83.276 10.32 84.46 9.488 85.804 9.488ZM88.88 21.104H92.816C93.04 22.256 94.288 23.024 96.208 23.024C97.552 23.024 98.768 22.544 98.768 21.552C98.768 20.272 97.488 20.016 94.224 18.96C91.472 18.128 89.392 16.784 89.392 14.16C89.392 11.248 92.304 9.488 95.376 9.488C99.376 9.488 101.776 11.728 101.872 14.448H97.936C97.84 13.264 96.56 12.752 95.504 12.752C94.512 12.752 93.328 13.232 93.328 14.16C93.328 15.184 94.48 15.408 97.904 16.592C101.488 17.808 102.736 19.568 102.736 21.648C102.736 24.656 99.792 26.32 96.112 26.32C92.016 26.32 89.104 24.592 88.88 21.104Z" fill="#292C35"/>
<path d="M117.004 14.06V15.194C116.29 15.194 115.324 15.572 115.324 16.874V22.306C115.324 23.594 116.29 23.986 117.004 23.986V25.12C115.324 25.12 114.12 24.294 114.12 22.306V16.874C114.12 14.886 115.324 14.06 117.004 14.06ZM123.055 17.35C125.057 17.35 126.555 18.932 126.555 20.752C126.555 22.586 125.057 24.14 123.055 24.14C121.025 24.14 119.527 22.586 119.527 20.752C119.527 20.066 119.737 19.408 120.115 18.862L123.251 14.06H124.637L122.411 17.406C122.621 17.378 122.831 17.35 123.055 17.35ZM123.055 23.006C124.371 23.006 125.365 21.956 125.365 20.752C125.365 19.548 124.371 18.484 123.055 18.484C121.711 18.484 120.731 19.548 120.731 20.752C120.731 21.956 121.711 23.006 123.055 23.006ZM127.122 14.06H133.898V15.194L129.642 24H128.34L132.596 15.194H127.122V14.06ZM135.582 14.06C137.262 14.06 138.466 14.886 138.466 16.874V22.306C138.466 24.294 137.262 25.12 135.582 25.12V23.986C136.296 23.986 137.262 23.594 137.262 22.306V16.874C137.262 15.572 136.296 15.194 135.582 15.194V14.06Z" fill="#4E5969"/>
</svg>
