<svg width="1240" height="52" viewBox="0 0 1240 52" fill="none" xmlns="http://www.w3.org/2000/svg">
<mask id="path-1-inside-1_45_179" fill="white">
<path d="M0 0H1240V52H0V0Z"/>
</mask>
<path d="M1240 51H0V53H1240V51Z" fill="#008B69" mask="url(#path-1-inside-1_45_179)"/>
<path d="M10.56 3.28C14.976 3.28 18.848 6.064 18.848 11.024C18.848 15.984 14.976 18.768 10.56 18.768H6.272V26H2.336V3.28H10.56ZM10.56 15.056C13.056 15.056 14.912 13.68 14.912 11.024C14.912 8.368 13.056 6.992 10.56 6.992H6.272V15.056H10.56ZM36.2908 18.096V19.12H24.0348C24.1308 21.104 25.6348 22.832 28.4828 22.832C30.5308 22.832 31.8428 21.744 32.4828 20.624L35.9388 21.008C35.4588 23.216 32.9308 26.32 28.4508 26.32C23.4588 26.32 20.0988 22.544 20.0988 17.808C20.0988 13.296 23.2988 9.488 28.1948 9.488C33.1868 9.488 36.2908 13.456 36.2908 18.096ZM28.1948 12.976C25.7948 12.976 24.1308 14.544 24.0348 16.4H32.3548C32.2268 14.608 30.6588 12.976 28.1948 12.976ZM47.1778 26.32C42.0898 26.32 38.4738 22.544 38.4738 17.904C38.4738 13.264 42.0898 9.488 47.1778 9.488C52.2338 9.488 55.8178 13.264 55.8178 17.904C55.8178 22.544 52.2338 26.32 47.1778 26.32ZM47.1778 22.608C49.9298 22.608 51.8818 20.464 51.8818 17.904C51.8818 15.344 49.9298 13.2 47.1778 13.2C44.3938 13.2 42.4098 15.344 42.4098 17.904C42.4098 20.464 44.3938 22.608 47.1778 22.608ZM58.4425 33.36V9.808H62.1545L62.3785 12.816C63.2425 10.96 65.3865 9.488 68.1705 9.488C72.8105 9.488 76.2345 13.264 76.2345 17.904C76.2345 22.544 72.8105 26.32 68.1705 26.32C65.3865 26.32 63.2425 24.848 62.3785 22.992V33.36H58.4425ZM62.8265 17.904C62.8265 20.464 64.7465 22.608 67.5305 22.608C70.2825 22.608 72.2665 20.464 72.2665 17.904C72.2665 15.344 70.2825 13.2 67.5305 13.2C64.7465 13.2 62.8265 15.344 62.8265 17.904ZM82.566 2V26H78.63V2H82.566ZM101.478 18.096V19.12H89.2223C89.3183 21.104 90.8223 22.832 93.6703 22.832C95.7183 22.832 97.0303 21.744 97.6703 20.624L101.126 21.008C100.646 23.216 98.1183 26.32 93.6383 26.32C88.6463 26.32 85.2863 22.544 85.2863 17.808C85.2863 13.296 88.4863 9.488 93.3823 9.488C98.3743 9.488 101.478 13.456 101.478 18.096ZM93.3823 12.976C90.9823 12.976 89.3183 14.544 89.2223 16.4H97.5423C97.4143 14.608 95.8463 12.976 93.3823 12.976ZM103.224 21.104H107.16C107.384 22.256 108.632 23.024 110.552 23.024C111.896 23.024 113.112 22.544 113.112 21.552C113.112 20.272 111.832 20.016 108.568 18.96C105.816 18.128 103.736 16.784 103.736 14.16C103.736 11.248 106.648 9.488 109.72 9.488C113.72 9.488 116.12 11.728 116.216 14.448H112.28C112.184 13.264 110.904 12.752 109.848 12.752C108.856 12.752 107.672 13.232 107.672 14.16C107.672 15.184 108.824 15.408 112.248 16.592C115.832 17.808 117.08 19.568 117.08 21.648C117.08 24.656 114.136 26.32 110.456 26.32C106.36 26.32 103.448 24.592 103.224 21.104Z" fill="#292C35"/>
<path d="M132.004 14.06V15.194C131.29 15.194 130.324 15.572 130.324 16.874V22.306C130.324 23.594 131.29 23.986 132.004 23.986V25.12C130.324 25.12 129.12 24.294 129.12 22.306V16.874C129.12 14.886 130.324 14.06 132.004 14.06ZM138.139 17.294C139.931 17.294 141.415 18.596 141.415 20.724C141.415 22.586 139.945 24.14 137.901 24.14C135.703 24.14 134.387 22.614 134.387 20.878H135.591C135.605 22.026 136.515 22.936 137.887 22.936C139.147 22.936 140.225 22.012 140.225 20.668C140.225 19.184 139.175 18.372 137.887 18.372C137.047 18.372 136.011 18.764 135.675 19.73H134.499L135.367 14.06H140.715V15.194H136.375L135.955 17.91C136.585 17.504 137.341 17.294 138.139 17.294ZM147.156 13.92C149.074 13.92 150.796 15.264 150.796 17.434V20.626C150.796 22.796 149.074 24.14 147.156 24.14C145.238 24.14 143.516 22.796 143.516 20.626V17.434C143.516 15.264 145.238 13.92 147.156 13.92ZM147.156 23.006C148.5 23.006 149.592 22.026 149.592 20.626V17.434C149.592 16.034 148.5 15.054 147.156 15.054C145.812 15.054 144.72 16.034 144.72 17.434V20.626C144.72 22.026 145.812 23.006 147.156 23.006ZM152.619 14.06C154.299 14.06 155.503 14.886 155.503 16.874V22.306C155.503 24.294 154.299 25.12 152.619 25.12V23.986C153.333 23.986 154.299 23.594 154.299 22.306V16.874C154.299 15.572 153.333 15.194 152.619 15.194V14.06Z" fill="#4E5969"/>
</svg>
