<svg width="1240" height="52" viewBox="0 0 1240 52" fill="none" xmlns="http://www.w3.org/2000/svg">
<mask id="path-1-inside-1_42_2845" fill="white">
<path d="M0 0H1240V52H0V0Z"/>
</mask>
<path d="M1240 51H0V53H1240V51Z" fill="#008B69" mask="url(#path-1-inside-1_42_2845)"/>
<path d="M3.072 19.12H7.008C7.136 21.488 8.832 22.608 10.752 22.608C12.864 22.608 14.016 21.52 14.016 20.176C14.016 18.352 12.288 17.488 9.696 16.08C5.12 13.456 3.552 11.824 3.552 8.784C3.552 5.328 6.528 2.96 10.272 2.96C14.4 2.96 17.12 6.032 17.216 9.904H13.28C13.184 7.888 12 6.672 10.272 6.672C8.768 6.672 7.488 7.568 7.488 8.944C7.488 10.672 8.8 11.344 11.104 12.56C15.424 14.896 17.952 16.848 17.952 20.304C17.952 24.144 14.72 26.32 10.752 26.32C5.984 26.32 3.168 22.864 3.072 19.12ZM19.9425 17.904C19.9425 13.264 23.3345 9.488 27.9745 9.488C30.7585 9.488 32.9345 10.96 33.7665 12.816L33.9905 9.808H37.7345V26H33.9905L33.7665 22.992C32.9345 24.848 30.7585 26.32 27.9745 26.32C23.3345 26.32 19.9425 22.544 19.9425 17.904ZM23.8785 17.904C23.8785 20.464 25.8625 22.608 28.6465 22.608C31.3985 22.608 33.3505 20.464 33.3505 17.904C33.3505 15.344 31.3985 13.2 28.6465 13.2C25.8625 13.2 23.8785 15.344 23.8785 17.904ZM48.3255 6.672C46.5015 6.672 46.0535 7.696 46.0535 9.296V9.808H50.0855V13.52H46.0535V26H42.1175V13.52H40.3575V9.808H42.1175V8.752C42.1175 4.208 44.7415 2.96 46.9815 2.96C48.4215 2.96 49.6055 3.504 50.1815 3.92V7.216C49.9255 7.056 49.0615 6.672 48.3255 6.672ZM67.6345 18.096V19.12H55.3785C55.4745 21.104 56.9785 22.832 59.8265 22.832C61.8745 22.832 63.1865 21.744 63.8265 20.624L67.2825 21.008C66.8025 23.216 64.2745 26.32 59.7945 26.32C54.8025 26.32 51.4425 22.544 51.4425 17.808C51.4425 13.296 54.6425 9.488 59.5385 9.488C64.5305 9.488 67.6345 13.456 67.6345 18.096ZM59.5385 12.976C57.1385 12.976 55.4745 14.544 55.3785 16.4H63.6985C63.5705 14.608 62.0025 12.976 59.5385 12.976Z" fill="#292C35"/>
<path d="M82.004 14.06V15.194C81.29 15.194 80.324 15.572 80.324 16.874V22.306C80.324 23.594 81.29 23.986 82.004 23.986V25.12C80.324 25.12 79.12 24.294 79.12 22.306V16.874C79.12 14.886 80.324 14.06 82.004 14.06ZM87.621 22.866H89.931V24H84.107V22.866H86.417V15.544L84.499 16.02V14.816L87.621 14.06V22.866ZM96.1318 18.512C97.0838 19.016 97.7698 19.912 97.7698 21.074C97.7698 22.782 96.3698 24.084 94.3118 24.084C92.2538 24.084 90.8538 22.782 90.8538 21.074C90.8538 19.912 91.5398 19.016 92.4778 18.512C91.8618 18.064 91.4138 17.392 91.4138 16.566C91.4138 15.04 92.7578 13.976 94.3118 13.976C95.8658 13.976 97.2098 15.04 97.2098 16.566C97.2098 17.392 96.7478 18.064 96.1318 18.512ZM94.3118 15.11C93.5138 15.11 92.6178 15.6 92.6178 16.566C92.6178 17.532 93.5138 18.008 94.3118 18.008C95.1098 18.008 96.0058 17.532 96.0058 16.566C96.0058 15.6 95.1098 15.11 94.3118 15.11ZM94.3118 22.95C95.5858 22.95 96.5658 22.18 96.5658 21.074C96.5658 19.968 95.5858 19.198 94.3118 19.198C93.0238 19.198 92.0578 19.968 92.0578 21.074C92.0578 22.18 93.0238 22.95 94.3118 22.95ZM99.7339 14.06C101.414 14.06 102.618 14.886 102.618 16.874V22.306C102.618 24.294 101.414 25.12 99.7339 25.12V23.986C100.448 23.986 101.414 23.594 101.414 22.306V16.874C101.414 15.572 100.448 15.194 99.7339 15.194V14.06Z" fill="#4E5969"/>
</svg>
