<svg width="1240" height="52" viewBox="0 0 1240 52" fill="none" xmlns="http://www.w3.org/2000/svg">
<mask id="path-1-inside-1_40_2809" fill="white">
<path d="M0 0H1240V52H0V0Z"/>
</mask>
<path d="M1240 51H0V53H1240V51Z" fill="#008B69" mask="url(#path-1-inside-1_40_2809)"/>
<path d="M3.072 19.12H7.008C7.136 21.488 8.832 22.608 10.752 22.608C12.864 22.608 14.016 21.52 14.016 20.176C14.016 18.352 12.288 17.488 9.696 16.08C5.12 13.456 3.552 11.824 3.552 8.784C3.552 5.328 6.528 2.96 10.272 2.96C14.4 2.96 17.12 6.032 17.216 9.904H13.28C13.184 7.888 12 6.672 10.272 6.672C8.768 6.672 7.488 7.568 7.488 8.944C7.488 10.672 8.8 11.344 11.104 12.56C15.424 14.896 17.952 16.848 17.952 20.304C17.952 24.144 14.72 26.32 10.752 26.32C5.984 26.32 3.168 22.864 3.072 19.12ZM20.88 33.36V9.808H24.592L24.816 12.816C25.68 10.96 27.824 9.488 30.608 9.488C35.248 9.488 38.672 13.264 38.672 17.904C38.672 22.544 35.248 26.32 30.608 26.32C27.824 26.32 25.68 24.848 24.816 22.992V33.36H20.88ZM25.264 17.904C25.264 20.464 27.184 22.608 29.968 22.608C32.72 22.608 34.704 20.464 34.704 17.904C34.704 15.344 32.72 13.2 29.968 13.2C27.184 13.2 25.264 15.344 25.264 17.904ZM49.2403 26.32C44.1523 26.32 40.5363 22.544 40.5363 17.904C40.5363 13.264 44.1523 9.488 49.2403 9.488C54.2963 9.488 57.8803 13.264 57.8803 17.904C57.8803 22.544 54.2963 26.32 49.2403 26.32ZM49.2403 22.608C51.9923 22.608 53.9443 20.464 53.9443 17.904C53.9443 15.344 51.9923 13.2 49.2403 13.2C46.4563 13.2 44.4723 15.344 44.4723 17.904C44.4723 20.464 46.4563 22.608 49.2403 22.608ZM67.929 9.488C68.857 9.488 69.529 9.84 69.881 10.192L69.305 13.616C68.985 13.424 68.345 13.2 67.705 13.2C65.593 13.2 64.441 15.376 64.441 18.8V26H60.505V9.808H64.217L64.377 11.568C65.401 10.32 66.585 9.488 67.929 9.488ZM81.4055 9.808V13.52H77.8215V26H73.8855V13.52H71.3575V9.808H73.8855V5.008H77.8215V9.808H81.4055ZM82.9738 21.104H86.9098C87.1338 22.256 88.3818 23.024 90.3018 23.024C91.6458 23.024 92.8618 22.544 92.8618 21.552C92.8618 20.272 91.5818 20.016 88.3177 18.96C85.5658 18.128 83.4858 16.784 83.4858 14.16C83.4858 11.248 86.3978 9.488 89.4698 9.488C93.4698 9.488 95.8698 11.728 95.9658 14.448H92.0298C91.9338 13.264 90.6538 12.752 89.5978 12.752C88.6058 12.752 87.4218 13.232 87.4218 14.16C87.4218 15.184 88.5738 15.408 91.9978 16.592C95.5818 17.808 96.8298 19.568 96.8298 21.648C96.8298 24.656 93.8858 26.32 90.2058 26.32C86.1098 26.32 83.1978 24.592 82.9738 21.104Z" fill="#292C35"/>
<path d="M112.004 14.06V15.194C111.29 15.194 110.324 15.572 110.324 16.874V22.306C110.324 23.594 111.29 23.986 112.004 23.986V25.12C110.324 25.12 109.12 24.294 109.12 22.306V16.874C109.12 14.886 110.324 14.06 112.004 14.06ZM119.665 18.512C120.617 19.016 121.303 19.912 121.303 21.074C121.303 22.782 119.903 24.084 117.845 24.084C115.787 24.084 114.387 22.782 114.387 21.074C114.387 19.912 115.073 19.016 116.011 18.512C115.395 18.064 114.947 17.392 114.947 16.566C114.947 15.04 116.291 13.976 117.845 13.976C119.399 13.976 120.743 15.04 120.743 16.566C120.743 17.392 120.281 18.064 119.665 18.512ZM117.845 15.11C117.047 15.11 116.151 15.6 116.151 16.566C116.151 17.532 117.047 18.008 117.845 18.008C118.643 18.008 119.539 17.532 119.539 16.566C119.539 15.6 118.643 15.11 117.845 15.11ZM117.845 22.95C119.119 22.95 120.099 22.18 120.099 21.074C120.099 19.968 119.119 19.198 117.845 19.198C116.557 19.198 115.591 19.968 115.591 21.074C115.591 22.18 116.557 22.95 117.845 22.95ZM130.479 20.822V21.956H129.093V24H127.889V21.956H122.625V20.822L127.889 14.06H129.093V20.822H130.479ZM124.137 20.822H127.889V15.894L124.137 20.822ZM132.154 14.06C133.834 14.06 135.038 14.886 135.038 16.874V22.306C135.038 24.294 133.834 25.12 132.154 25.12V23.986C132.868 23.986 133.834 23.594 133.834 22.306V16.874C133.834 15.572 132.868 15.194 132.154 15.194V14.06Z" fill="#4E5969"/>
</svg>
