<svg width="1240" height="52" viewBox="0 0 1240 52" fill="none" xmlns="http://www.w3.org/2000/svg">
<mask id="path-1-inside-1_40_2814" fill="white">
<path d="M0 0H1240V52H0V0Z"/>
</mask>
<path d="M1240 51H0V53H1240V51Z" fill="#008B69" mask="url(#path-1-inside-1_40_2814)"/>
<path d="M13.152 13.392H25.6C25.6 21.52 20.896 26.32 14.112 26.32C7.648 26.32 2.88 21.008 2.88 14.64C2.88 8.272 7.648 2.96 14.56 2.96C18.464 2.96 21.44 4.816 23.488 7.6L20.512 9.904C19.296 8.176 17.376 6.672 14.56 6.672C10.016 6.672 6.816 10.192 6.816 14.64C6.816 19.088 9.792 22.608 14.112 22.608C17.888 22.608 20.512 20.432 21.344 17.104H13.152V13.392ZM35.9603 9.488C36.8883 9.488 37.5603 9.84 37.9123 10.192L37.3363 13.616C37.0163 13.424 36.3763 13.2 35.7363 13.2C33.6243 13.2 32.4723 15.376 32.4723 18.8V26H28.5363V9.808H32.2483L32.4083 11.568C33.4323 10.32 34.6163 9.488 35.9603 9.488ZM38.63 17.904C38.63 13.264 42.022 9.488 46.662 9.488C49.446 9.488 51.622 10.96 52.454 12.816L52.678 9.808H56.422V26H52.678L52.454 22.992C51.622 24.848 49.446 26.32 46.662 26.32C42.022 26.32 38.63 22.544 38.63 17.904ZM42.566 17.904C42.566 20.464 44.55 22.608 47.334 22.608C50.086 22.608 52.038 20.464 52.038 17.904C52.038 15.344 50.086 13.2 47.334 13.2C44.55 13.2 42.566 15.344 42.566 17.904ZM59.7863 33.36V9.808H63.4983L63.7223 12.816C64.5863 10.96 66.7303 9.488 69.5143 9.488C74.1543 9.488 77.5783 13.264 77.5783 17.904C77.5783 22.544 74.1543 26.32 69.5143 26.32C66.7303 26.32 64.5863 24.848 63.7223 22.992V33.36H59.7863ZM64.1703 17.904C64.1703 20.464 66.0903 22.608 68.8743 22.608C71.6263 22.608 73.6103 20.464 73.6103 17.904C73.6103 15.344 71.6263 13.2 68.8743 13.2C66.0903 13.2 64.1703 15.344 64.1703 17.904ZM89.9258 9.488C93.8298 9.488 95.8778 12.016 95.8778 16.432V26H91.9418V18.256C91.9418 14.48 90.5658 13.2 88.3898 13.2C85.6378 13.2 84.0058 15.28 83.9098 17.904V26H79.9738V2H83.9098V12.176C85.4778 10.64 87.4938 9.488 89.9258 9.488ZM101.063 7.536C99.9433 7.536 99.0473 6.64 99.0473 5.52C99.0473 4.4 99.9433 3.504 101.063 3.504C102.183 3.504 103.079 4.4 103.079 5.52C103.079 6.64 102.183 7.536 101.063 7.536ZM103.047 9.808V26H99.1113V9.808H103.047ZM118.999 14.896C117.719 13.68 116.375 13.2 114.871 13.2C112.471 13.2 110.071 15.088 110.071 17.904C110.071 20.72 112.471 22.608 114.871 22.608C116.375 22.608 117.719 22.096 118.999 20.88V24.656C117.911 25.616 116.311 26.32 114.231 26.32C109.431 26.32 105.911 22.48 105.911 17.904C105.911 13.36 109.431 9.488 114.231 9.488C116.311 9.488 117.911 10.192 118.999 11.152V14.896ZM121.63 21.104H125.566C125.79 22.256 127.038 23.024 128.958 23.024C130.302 23.024 131.518 22.544 131.518 21.552C131.518 20.272 130.238 20.016 126.974 18.96C124.222 18.128 122.142 16.784 122.142 14.16C122.142 11.248 125.054 9.488 128.126 9.488C132.126 9.488 134.526 11.728 134.622 14.448H130.686C130.59 13.264 129.31 12.752 128.254 12.752C127.262 12.752 126.078 13.232 126.078 14.16C126.078 15.184 127.23 15.408 130.654 16.592C134.238 17.808 135.486 19.568 135.486 21.648C135.486 24.656 132.542 26.32 128.862 26.32C124.766 26.32 121.854 24.592 121.63 21.104Z" fill="#292C35"/>
<path d="M150.004 14.06V15.194C149.29 15.194 148.324 15.572 148.324 16.874V22.306C148.324 23.594 149.29 23.986 150.004 23.986V25.12C148.324 25.12 147.12 24.294 147.12 22.306V16.874C147.12 14.886 148.324 14.06 150.004 14.06ZM155.621 22.866H157.931V24H152.107V22.866H154.417V15.544L152.499 16.02V14.816L155.621 14.06V22.866ZM164.132 18.512C165.084 19.016 165.77 19.912 165.77 21.074C165.77 22.782 164.37 24.084 162.312 24.084C160.254 24.084 158.854 22.782 158.854 21.074C158.854 19.912 159.54 19.016 160.478 18.512C159.862 18.064 159.414 17.392 159.414 16.566C159.414 15.04 160.758 13.976 162.312 13.976C163.866 13.976 165.21 15.04 165.21 16.566C165.21 17.392 164.748 18.064 164.132 18.512ZM162.312 15.11C161.514 15.11 160.618 15.6 160.618 16.566C160.618 17.532 161.514 18.008 162.312 18.008C163.11 18.008 164.006 17.532 164.006 16.566C164.006 15.6 163.11 15.11 162.312 15.11ZM162.312 22.95C163.586 22.95 164.566 22.18 164.566 21.074C164.566 19.968 163.586 19.198 162.312 19.198C161.024 19.198 160.058 19.968 160.058 21.074C160.058 22.18 161.024 22.95 162.312 22.95ZM167.734 14.06C169.414 14.06 170.618 14.886 170.618 16.874V22.306C170.618 24.294 169.414 25.12 167.734 25.12V23.986C168.448 23.986 169.414 23.594 169.414 22.306V16.874C169.414 15.572 168.448 15.194 167.734 15.194V14.06Z" fill="#4E5969"/>
</svg>
