<svg width="1240" height="52" viewBox="0 0 1240 52" fill="none" xmlns="http://www.w3.org/2000/svg">
<mask id="path-1-inside-1_42_2874" fill="white">
<path d="M0 0H1240V52H0V0Z"/>
</mask>
<path d="M1240 51H0V53H1240V51Z" fill="#008B69" mask="url(#path-1-inside-1_42_2874)"/>
<path d="M16.928 3.28V6.992H11.552V26H7.616V6.992H2.24V3.28H16.928ZM20.3133 7.536C19.1933 7.536 18.2973 6.64 18.2973 5.52C18.2973 4.4 19.1933 3.504 20.3133 3.504C21.4333 3.504 22.3293 4.4 22.3293 5.52C22.3293 6.64 21.4333 7.536 20.3133 7.536ZM22.2973 9.808V26H18.3613V9.808H22.2973ZM45.9425 9.488C49.3985 9.488 51.2225 12.112 51.2225 15.824V26H47.2865V17.168C47.2865 14.8 46.2945 13.2 44.4065 13.2C42.0705 13.2 40.6625 15.696 40.5665 19.024V26H36.6305V17.168C36.6305 14.8 35.6385 13.2 33.7505 13.2C31.4145 13.2 30.0065 15.696 29.8785 19.024V26H25.9425V9.808H29.6545L29.8465 12.08C31.2545 10.576 33.0785 9.488 35.2545 9.488C37.6225 9.488 39.2225 10.704 39.9905 12.656C41.4945 10.864 43.4785 9.488 45.9425 9.488ZM69.9158 18.096V19.12H57.6598C57.7558 21.104 59.2598 22.832 62.1078 22.832C64.1558 22.832 65.4678 21.744 66.1078 20.624L69.5638 21.008C69.0838 23.216 66.5558 26.32 62.0758 26.32C57.0838 26.32 53.7238 22.544 53.7238 17.808C53.7238 13.296 56.9238 9.488 61.8198 9.488C66.8118 9.488 69.9158 13.456 69.9158 18.096ZM61.8198 12.976C59.4198 12.976 57.7558 14.544 57.6598 16.4H65.9798C65.8518 14.608 64.2838 12.976 61.8198 12.976Z" fill="#292C35"/>
<path d="M85.004 14.06V15.194C84.29 15.194 83.324 15.572 83.324 16.874V22.306C83.324 23.594 84.29 23.986 85.004 23.986V25.12C83.324 25.12 82.12 24.294 82.12 22.306V16.874C82.12 14.886 83.324 14.06 85.004 14.06ZM90.621 22.866H92.931V24H87.107V22.866H89.417V15.544L87.499 16.02V14.816L90.621 14.06V22.866ZM93.454 14.06H100.23V15.194L95.974 24H94.672L98.928 15.194H93.454V14.06ZM101.914 14.06C103.594 14.06 104.798 14.886 104.798 16.874V22.306C104.798 24.294 103.594 25.12 101.914 25.12V23.986C102.628 23.986 103.594 23.594 103.594 22.306V16.874C103.594 15.572 102.628 15.194 101.914 15.194V14.06Z" fill="#4E5969"/>
</svg>
