<svg width="1240" height="52" viewBox="0 0 1240 52" fill="none" xmlns="http://www.w3.org/2000/svg">
<mask id="path-1-inside-1_40_2804" fill="white">
<path d="M0 0H1240V52H0V0Z"/>
</mask>
<path d="M1240 51H0V53H1240V51Z" fill="#008B69" mask="url(#path-1-inside-1_40_2804)"/>
<path d="M16.928 3.28V6.992H11.552V26H7.616V6.992H2.24V3.28H16.928ZM26.179 9.488C27.107 9.488 27.779 9.84 28.131 10.192L27.555 13.616C27.235 13.424 26.595 13.2 25.955 13.2C23.843 13.2 22.691 15.376 22.691 18.8V26H18.755V9.808H22.467L22.627 11.568C23.651 10.32 24.835 9.488 26.179 9.488ZM28.8488 17.904C28.8488 13.264 32.2408 9.488 36.8808 9.488C39.6648 9.488 41.8408 10.96 42.6728 12.816L42.8968 9.808H46.6408V26H42.8968L42.6728 22.992C41.8408 24.848 39.6648 26.32 36.8808 26.32C32.2408 26.32 28.8488 22.544 28.8488 17.904ZM32.7848 17.904C32.7848 20.464 34.7688 22.608 37.5528 22.608C40.3048 22.608 42.2568 20.464 42.2568 17.904C42.2568 15.344 40.3048 13.2 37.5528 13.2C34.7688 13.2 32.7848 15.344 32.7848 17.904ZM62.4473 9.808H66.8313L59.9833 26H55.4392L48.5913 9.808H53.0073L57.7113 21.872L62.4473 9.808ZM83.6033 18.096V19.12H71.3473C71.4433 21.104 72.9473 22.832 75.7953 22.832C77.8433 22.832 79.1553 21.744 79.7953 20.624L83.2513 21.008C82.7713 23.216 80.2433 26.32 75.7633 26.32C70.7713 26.32 67.4113 22.544 67.4113 17.808C67.4113 13.296 70.6113 9.488 75.5073 9.488C80.4993 9.488 83.6033 13.456 83.6033 18.096ZM75.5073 12.976C73.1073 12.976 71.4433 14.544 71.3473 16.4H79.6673C79.5393 14.608 77.9713 12.976 75.5073 12.976ZM89.816 2V26H85.88V2H89.816ZM92.2238 21.104H96.1598C96.3838 22.256 97.6318 23.024 99.5518 23.024C100.896 23.024 102.112 22.544 102.112 21.552C102.112 20.272 100.832 20.016 97.5677 18.96C94.8158 18.128 92.7358 16.784 92.7358 14.16C92.7358 11.248 95.6478 9.488 98.7198 9.488C102.72 9.488 105.12 11.728 105.216 14.448H101.28C101.184 13.264 99.9038 12.752 98.8478 12.752C97.8558 12.752 96.6718 13.232 96.6718 14.16C96.6718 15.184 97.8238 15.408 101.248 16.592C104.832 17.808 106.08 19.568 106.08 21.648C106.08 24.656 103.136 26.32 99.4558 26.32C95.3598 26.32 92.4478 24.592 92.2238 21.104Z" fill="#292C35"/>
<path d="M121.004 14.06V15.194C120.29 15.194 119.324 15.572 119.324 16.874V22.306C119.324 23.594 120.29 23.986 121.004 23.986V25.12C119.324 25.12 118.12 24.294 118.12 22.306V16.874C118.12 14.886 119.324 14.06 121.004 14.06ZM126.621 22.866H128.931V24H123.107V22.866H125.417V15.544L123.499 16.02V14.816L126.621 14.06V22.866ZM133.559 13.92C135.477 13.92 137.199 15.264 137.199 17.434V20.626C137.199 22.796 135.477 24.14 133.559 24.14C131.641 24.14 129.919 22.796 129.919 20.626V17.434C129.919 15.264 131.641 13.92 133.559 13.92ZM133.559 23.006C134.903 23.006 135.995 22.026 135.995 20.626V17.434C135.995 16.034 134.903 15.054 133.559 15.054C132.215 15.054 131.123 16.034 131.123 17.434V20.626C131.123 22.026 132.215 23.006 133.559 23.006ZM142.234 22.866H144.544V24H138.72V22.866H141.03V15.544L139.112 16.02V14.816L142.234 14.06V22.866ZM146.226 14.06C147.906 14.06 149.11 14.886 149.11 16.874V22.306C149.11 24.294 147.906 25.12 146.226 25.12V23.986C146.94 23.986 147.906 23.594 147.906 22.306V16.874C147.906 15.572 146.94 15.194 146.226 15.194V14.06Z" fill="#4E5969"/>
</svg>
