<svg width="1240" height="52" viewBox="0 0 1240 52" fill="none" xmlns="http://www.w3.org/2000/svg">
<mask id="path-1-inside-1_42_2842" fill="white">
<path d="M0 0H1240V52H0V0Z"/>
</mask>
<path d="M1240 51H0V53H1240V51Z" fill="#008B69" mask="url(#path-1-inside-1_42_2842)"/>
<path d="M32.064 3.28H36.096L28.992 26H24.256L19.168 9.744L14.08 26H9.344L2.24 3.28H6.272L11.712 20.816L17.152 3.28H21.184L26.624 20.816L32.064 3.28ZM51.0408 18.096V19.12H38.7848C38.8808 21.104 40.3848 22.832 43.2328 22.832C45.2808 22.832 46.5928 21.744 47.2328 20.624L50.6888 21.008C50.2088 23.216 47.6808 26.32 43.2008 26.32C38.2088 26.32 34.8488 22.544 34.8488 17.808C34.8488 13.296 38.0488 9.488 42.9448 9.488C47.9368 9.488 51.0408 13.456 51.0408 18.096ZM42.9448 12.976C40.5448 12.976 38.8808 14.544 38.7848 16.4H47.1048C46.9768 14.608 45.4088 12.976 42.9448 12.976ZM53.2238 17.904C53.2238 13.264 56.6158 9.488 61.2558 9.488C64.0398 9.488 66.2158 10.96 67.0478 12.816L67.2718 9.808H71.0158V26H67.2718L67.0478 22.992C66.2158 24.848 64.0398 26.32 61.2558 26.32C56.6158 26.32 53.2238 22.544 53.2238 17.904ZM57.1598 17.904C57.1598 20.464 59.1438 22.608 61.9278 22.608C64.6798 22.608 66.6318 20.464 66.6318 17.904C66.6318 15.344 64.6798 13.2 61.9278 13.2C59.1438 13.2 57.1598 15.344 57.1598 17.904ZM83.6868 9.808V13.52H80.1028V26H76.1668V13.52H73.6388V9.808H76.1668V5.008H80.1028V9.808H83.6868ZM96.1758 9.488C100.08 9.488 102.128 12.016 102.128 16.432V26H98.1918V18.256C98.1918 14.48 96.8158 13.2 94.6398 13.2C91.8878 13.2 90.2558 15.28 90.1598 17.904V26H86.2238V2H90.1598V12.176C91.7278 10.64 93.7438 9.488 96.1758 9.488ZM120.728 18.096V19.12H108.472C108.568 21.104 110.072 22.832 112.92 22.832C114.968 22.832 116.28 21.744 116.92 20.624L120.376 21.008C119.896 23.216 117.368 26.32 112.888 26.32C107.896 26.32 104.536 22.544 104.536 17.808C104.536 13.296 107.736 9.488 112.632 9.488C117.624 9.488 120.728 13.456 120.728 18.096ZM112.632 12.976C110.232 12.976 108.568 14.544 108.472 16.4H116.792C116.664 14.608 115.096 12.976 112.632 12.976ZM130.773 9.488C131.701 9.488 132.373 9.84 132.725 10.192L132.149 13.616C131.829 13.424 131.189 13.2 130.549 13.2C128.437 13.2 127.285 15.376 127.285 18.8V26H123.349V9.808H127.061L127.221 11.568C128.245 10.32 129.429 9.488 130.773 9.488Z" fill="#292C35"/>
<path d="M146.004 14.06V15.194C145.29 15.194 144.324 15.572 144.324 16.874V22.306C144.324 23.594 145.29 23.986 146.004 23.986V25.12C144.324 25.12 143.12 24.294 143.12 22.306V16.874C143.12 14.886 144.324 14.06 146.004 14.06ZM151.621 22.866H153.931V24H148.107V22.866H150.417V15.544L148.499 16.02V14.816L151.621 14.06V22.866ZM158.235 17.35C160.237 17.35 161.735 18.932 161.735 20.752C161.735 22.586 160.237 24.14 158.235 24.14C156.205 24.14 154.707 22.586 154.707 20.752C154.707 20.066 154.917 19.408 155.295 18.862L158.431 14.06H159.817L157.591 17.406C157.801 17.378 158.011 17.35 158.235 17.35ZM158.235 23.006C159.551 23.006 160.545 21.956 160.545 20.752C160.545 19.548 159.551 18.484 158.235 18.484C156.891 18.484 155.911 19.548 155.911 20.752C155.911 21.956 156.891 23.006 158.235 23.006ZM163.83 14.06C165.51 14.06 166.714 14.886 166.714 16.874V22.306C166.714 24.294 165.51 25.12 163.83 25.12V23.986C164.544 23.986 165.51 23.594 165.51 22.306V16.874C165.51 15.572 164.544 15.194 163.83 15.194V14.06Z" fill="#4E5969"/>
</svg>
