<svg width="24" height="24" viewBox="0 0 24 24" fill="none" xmlns="http://www.w3.org/2000/svg">
<path d="M7.5004 7.19238C9.5631 8.00008 12.0045 8.00008 12.0045 8.00008C12.0045 8.00008 14.4404 8.00008 16.5004 7.19238C18.7513 9.81928 20.3286 13.2823 21.3652 16.1988C22.4147 19.1514 20.1007 22.0001 16.9671 22.0001H7.01025C3.88448 22.0001 1.57333 19.1645 2.61754 16.2183C3.64936 13.307 5.2278 9.84278 7.5004 7.19238Z" stroke="#333333" stroke-width="2" stroke-linejoin="round"/>
<path d="M9 14H15" stroke="#333333" stroke-width="2" stroke-linecap="round" stroke-linejoin="round"/>
<path d="M9 17H15" stroke="#333333" stroke-width="2" stroke-linecap="round" stroke-linejoin="round"/>
<path d="M12.0049 14V19" stroke="#333333" stroke-width="2" stroke-linecap="round" stroke-linejoin="round"/>
<path d="M15 11L12 14L9 11" stroke="#333333" stroke-width="2" stroke-linecap="round" stroke-linejoin="round"/>
<path fill-rule="evenodd" clip-rule="evenodd" d="M12 8C15.5898 8 18.5 6.65685 18.5 5C18.5 3.34315 15.5898 2 12 2C8.41015 2 5.5 3.34315 5.5 5C5.5 6.65685 8.41015 8 12 8Z" stroke="#333333" stroke-width="2" stroke-linecap="round" stroke-linejoin="round"/>
</svg>
