<svg width="24" height="24" viewBox="0 0 24 24" fill="none" xmlns="http://www.w3.org/2000/svg">
<path d="M19.5 7H4.5C3.67157 7 3 7.67157 3 8.5V19.5C3 20.3284 3.67157 21 4.5 21H19.5C20.3284 21 21 20.3284 21 19.5V8.5C21 7.67157 20.3284 7 19.5 7Z" stroke="#333333" stroke-width="2" stroke-linejoin="round"/>
<path d="M3 16H21V19.5C21 20.3285 20.3285 21 19.5 21H4.5C3.67158 21 3 20.3285 3 19.5V16Z" stroke="#333333" stroke-width="2" stroke-linejoin="round"/>
<path d="M9.5 7C10.8807 7 12 5.88071 12 4.5C12 3.11929 10.8807 2 9.5 2C8.11929 2 7 3.11929 7 4.5C7 5.88071 8.11929 7 9.5 7Z" stroke="#333333" stroke-width="2"/>
<path d="M14 7C15.1046 7 16 6.10457 16 5C16 3.89543 15.1046 3 14 3C12.8954 3 12 3.89543 12 5C12 6.10457 12.8954 7 14 7Z" stroke="#333333" stroke-width="2"/>
<path d="M8.5 10L12 7L15.5 10" stroke="#333333" stroke-width="2" stroke-linecap="round" stroke-linejoin="round"/>
</svg>
