<svg width="24" height="24" viewBox="0 0 24 24" fill="none" xmlns="http://www.w3.org/2000/svg">
<path d="M2.34069 11.7819C2.16371 10.8572 2.87245 10 3.81395 10H20.1853C21.1268 10 21.8356 10.8572 21.6586 11.7819L20.1275 19.7819C19.9922 20.4888 19.3739 21 18.6542 21H5.34504C4.62535 21 4.00708 20.4888 3.87179 19.7819L2.34069 11.7819Z" stroke="#333333" stroke-width="2" stroke-linejoin="round"/>
<path d="M12 3L7.5 10H16.5L12 3Z" stroke="#333333" stroke-width="2" stroke-linecap="round" stroke-linejoin="round"/>
<path d="M12 17C12.8284 17 13.5 16.3284 13.5 15.5C13.5 14.6716 12.8284 14 12 14C11.1716 14 10.5 14.6716 10.5 15.5C10.5 16.3284 11.1716 17 12 17Z" stroke="#333333" stroke-width="2"/>
</svg>
