<svg width="24" height="24" viewBox="0 0 24 24" fill="none" xmlns="http://www.w3.org/2000/svg">
<path d="M19.5 8V4.5C19.5 3.67158 18.8285 3 18 3H4.5C3.67158 3 3 3.67158 3 4.5V19.5C3 20.3285 3.67157 21 4.5 21H18C18.8285 21 19.5 20.3285 19.5 19.5V16" stroke="#333333" stroke-width="2" stroke-linejoin="round"/>
<path d="M19.5 8H12.5C11.6716 8 11 8.67157 11 9.5V14.5C11 15.3284 11.6716 16 12.5 16H19.5C20.3284 16 21 15.3284 21 14.5V9.5C21 8.67157 20.3284 8 19.5 8Z" stroke="#333333" stroke-width="2" stroke-linejoin="round"/>
<path d="M14 12C14 11.4477 14.4477 11 15 11C15.5523 11 16 11.4477 16 12C16 12.5523 15.5523 13 15 13C14.4477 13 14 12.5523 14 12Z" fill="#333333"/>
</svg>
