<svg width="24" height="24" viewBox="0 0 24 24" fill="none" xmlns="http://www.w3.org/2000/svg">
<path d="M2.09044 13.417C2.04185 14 2.50194 14.5 3.08698 14.5H5.00018C5.55248 14.5 6.00018 14.0523 6.00018 13.5V3.5C6.00018 2.94771 5.55248 2.5 5.00018 2.5H3.92032C3.40023 2.5 2.96696 2.89867 2.92377 3.41695L2.09044 13.417Z" stroke="#333333" stroke-width="2" stroke-linecap="round" stroke-linejoin="round"/>
<path d="M9 13.3127C9 13.7306 9.2597 14.1046 9.63765 14.2828C10.4619 14.6713 11.8665 15.4531 12.5 16.5098C13.3166 17.8716 13.4705 20.332 13.4956 20.8956C13.4991 20.9745 13.4968 21.0535 13.5077 21.1317C13.643 22.1078 15.5271 20.9675 16.25 19.7619C16.6423 19.1076 16.6926 18.248 16.6514 17.5769C16.6072 16.8588 16.3966 16.1651 16.1901 15.4759L15.75 14.0077H21.1784C21.8416 14.0077 22.3211 13.3741 22.1408 12.736L19.4557 3.22821C19.334 2.79745 18.9409 2.5 18.4933 2.5H10C9.4477 2.5 9 2.94771 9 3.5V13.3127Z" stroke="#333333" stroke-width="2" stroke-linecap="round" stroke-linejoin="round"/>
</svg>
