<svg width="24" height="24" viewBox="0 0 24 24" fill="none" xmlns="http://www.w3.org/2000/svg">
<path d="M17.5004 13.3069L7.57349 3.65691C6.99379 3.09336 6.06699 3.10647 5.50344 3.68619C5.48299 3.70723 5.46319 3.72888 5.44404 3.75111C4.87255 4.41447 4.91177 5.4069 5.53379 6.0231L10.5459 10.9881" stroke="#333333" stroke-width="2" stroke-linecap="round"/>
<path d="M10.5459 10.988L5.08914 5.57735C4.44225 4.93591 3.41054 4.90081 2.72156 5.4968C2.08826 6.0446 2.01896 7.00205 2.56677 7.63535C2.58754 7.6594 2.60906 7.68275 2.63131 7.7054L8.12814 13.3068" stroke="#333333" stroke-width="2" stroke-linecap="round" stroke-linejoin="round"/>
<path d="M8.12706 13.3068L4.99939 10.25C4.36822 9.6051 3.33598 9.5872 2.6828 10.2097C2.03661 10.8257 2.01208 11.8488 2.628 12.495C2.63083 12.498 2.63368 12.5009 2.63654 12.5039C7.25131 17.2721 9.64641 19.5242 10.5449 20.2767C11.9994 21.4948 14.8669 22 16.3646 21C17.8624 20 19.2161 18.5772 19.8586 17.1643C20.2411 16.3232 20.984 13.7297 22.0873 9.3839C22.3119 8.4993 21.7769 7.60005 20.8922 7.37545C20.8808 7.37255 20.8693 7.36975 20.8577 7.3671C19.9411 7.1552 19.021 7.70575 18.7743 8.61365L17.4994 13.3068" stroke="#333333" stroke-width="2" stroke-linecap="round"/>
<path d="M15.8583 6.3329C15.5023 5.8012 15.0955 5.3065 14.6447 4.85569C14.1939 4.40489 13.6991 3.99803 13.1675 3.64209C12.9029 3.46498 12.6292 3.30048 12.3472 3.14945C12.0668 2.99929 11.7783 2.86244 11.4824 2.73975" stroke="#333333" stroke-width="2" stroke-linecap="round"/>
<path d="M2.59668 16.8879C2.92431 17.4375 3.30472 17.9529 3.7313 18.4267C4.15789 18.9004 4.63065 19.3326 5.14299 19.7159C5.39789 19.9066 5.66264 20.0852 5.93634 20.2508C6.20844 20.4154 6.48944 20.5672 6.77849 20.7052" stroke="#333333" stroke-width="2" stroke-linecap="round"/>
</svg>
