<svg width="24" height="24" viewBox="0 0 24 24" fill="none" xmlns="http://www.w3.org/2000/svg">
<g clip-path="url(#clip0_8_21326)">
<mask id="mask0_8_21326" style="mask-type:luminance" maskUnits="userSpaceOnUse" x="0" y="0" width="24" height="24">
<path d="M24 0H0V24H24V0Z" fill="white"/>
</mask>
<g mask="url(#mask0_8_21326)">
<path d="M8.55949 13.0067L4.62685 6.19517C4.40519 5.81127 3.91428 5.67972 3.53036 5.90137C3.1916 6.09697 3.04315 6.50827 3.1789 6.87512L5.93904 14.3343C5.97964 14.444 6.00064 14.5599 6.00119 14.6768L6.02969 21.0133C6.03219 21.5639 6.47914 22.0088 7.02969 22.0088H9.50834C10.1466 22.0088 10.6216 21.4189 10.4853 20.7954L9.00039 14.0001L8.55949 13.0067Z" stroke="#333333" stroke-width="2" stroke-linecap="round" stroke-linejoin="round"/>
<path d="M6 14.5L9 14" stroke="#333333" stroke-width="2" stroke-linecap="round" stroke-linejoin="round"/>
<path d="M15.2822 12.8646L19.1278 6.20381C19.3522 5.81516 19.8492 5.68196 20.2378 5.90636C20.5739 6.10041 20.7258 6.50496 20.6007 6.87226L18.0481 14.3609C18.0167 14.4532 17.9989 14.5496 17.9953 14.6471L17.7622 21.0463C17.7426 21.584 17.301 22.0099 16.7629 22.0099H14.2808C13.6303 22.0099 13.153 21.3987 13.3106 20.7676L15.0007 14.0001L15.1678 13.1677C15.1892 13.0611 15.2279 12.9587 15.2822 12.8646Z" stroke="#333333" stroke-width="2" stroke-linecap="round" stroke-linejoin="round"/>
<path d="M15 14L18 14.5" stroke="#333333" stroke-width="2" stroke-linecap="round" stroke-linejoin="round"/>
<path d="M7.5 3.5L9.25 5.5" stroke="#333333" stroke-width="2" stroke-linecap="round" stroke-linejoin="round"/>
<path d="M11.5 2L12 5" stroke="#333333" stroke-width="2" stroke-linecap="round" stroke-linejoin="round"/>
<path d="M16.5 3L15 5" stroke="#333333" stroke-width="2" stroke-linecap="round" stroke-linejoin="round"/>
</g>
</g>
<defs>
<clipPath id="clip0_8_21326">
<rect width="24" height="24" fill="white"/>
</clipPath>
</defs>
</svg>
