<svg width="24" height="24" viewBox="0 0 24 24" fill="none" xmlns="http://www.w3.org/2000/svg">
<path d="M7.5 13V7.5C7.5 6.67155 8.17155 6 9 6C9.82845 6 10.5 6.67155 10.5 7.5V13" stroke="#333333" stroke-width="2" stroke-linecap="round" stroke-linejoin="round"/>
<path d="M19.5 12.5V15.75C19.5 18.9256 16.9256 21.5 13.75 21.5H13.25C10.0744 21.5 7.5 18.9256 7.5 15.75V12.5" stroke="#333333" stroke-width="2" stroke-linecap="round" stroke-linejoin="round"/>
<path d="M10.5 14.5V13.5529V12C10.5 11.1715 11.1715 10.5 12 10.5C12.8285 10.5 13.5 11.1715 13.5 12V13.5909V14.5" stroke="#333333" stroke-width="2" stroke-linecap="round" stroke-linejoin="round"/>
<path d="M13.5 14.5V13.5529V12C13.5 11.1715 14.1715 10.5 15 10.5C15.8285 10.5 16.5 11.1715 16.5 12V13.5909V14.5" stroke="#333333" stroke-width="2" stroke-linecap="round" stroke-linejoin="round"/>
<path d="M16.5 14.5V13.5529V12C16.5 11.1715 17.1715 10.5 18 10.5C18.8285 10.5 19.5 11.1715 19.5 12V13.5909V14.5" stroke="#333333" stroke-width="2" stroke-linecap="round" stroke-linejoin="round"/>
<path d="M14 7.5C14 6.97445 13.9189 6.46785 13.7685 5.99195C13.6004 5.45975 13.3457 4.96604 13.0208 4.52735C12.1099 3.29736 10.648 2.5 9 2.5C7.35195 2.5 5.8901 3.29736 4.97924 4.52735C4.65437 4.96604 4.39958 5.45975 4.23143 5.99195C4.08109 6.46785 4 6.97445 4 7.5" stroke="#333333" stroke-width="2" stroke-linecap="round"/>
</svg>
