<svg width="24" height="24" viewBox="0 0 24 24" fill="none" xmlns="http://www.w3.org/2000/svg">
<path d="M9.50048 20C5.06413 17.7818 3.50052 13 2.00031 9.75C1.32548 8.28805 3.76338 7.90545 5.25018 8.5C6.50048 9 8.00033 10 8.00033 10V5.75C8.00033 4.7835 8.78383 4 9.75033 4C10.7168 4 11.5003 4.7835 11.5003 5.75V4.75C11.5003 3.7835 12.2838 3 13.2503 3C14.2168 3 15.0003 3.7835 15.0003 4.75V6.75C15.0003 5.7835 15.7838 5 16.7503 5C17.7168 5 18.5003 5.7835 18.5003 6.75V8.25C18.5003 7.2835 19.2838 6.5 20.2503 6.5C21.2168 6.5 22.0003 7.28275 22.0003 8.24925V14.5C22.0003 16.25 21.0005 18.5 18.5003 20C16.1036 21.4379 12.5005 21.5 9.50048 20Z" stroke="#333333" stroke-width="2" stroke-linecap="round" stroke-linejoin="round"/>
</svg>
