<svg width="24" height="24" viewBox="0 0 24 24" fill="none" xmlns="http://www.w3.org/2000/svg">
<path d="M9.50049 20.5C6.75049 19.125 4.00113 15.5 2.5008 13C1.00047 10.5 4.15709 8.15625 6.00069 10C7.84429 11.8438 8.00069 12 8.00069 12V3.75001C8.00069 2.78351 8.78419 2 9.75069 2C10.7172 2 11.5007 2.78351 11.5007 3.75001V8.5C11.5007 7.5335 12.2842 6.75 13.2507 6.75C14.2172 6.75 15.0007 7.5335 15.0007 8.5V9.25C15.0007 8.2835 15.7842 7.5 16.7507 7.5C17.7172 7.5 18.5007 8.2835 18.5007 9.25V6.75C18.5007 5.7835 19.2842 5 20.2507 5C21.2172 5 22.0007 5.7835 22.0007 6.75V15.0575C22.0007 16.0061 21.7897 16.9519 21.2139 17.7058C20.5668 18.5528 19.5094 19.6769 18.0005 20.5C15.2504 22 12.2505 21.875 9.50049 20.5Z" stroke="#333333" stroke-width="2" stroke-linecap="round" stroke-linejoin="round"/>
</svg>
