<svg width="24" height="24" viewBox="0 0 24 24" fill="none" xmlns="http://www.w3.org/2000/svg">
<g clip-path="url(#clip0_8_21320)">
<mask id="mask0_8_21320" style="mask-type:luminance" maskUnits="userSpaceOnUse" x="0" y="0" width="24" height="24">
<path d="M24 0H0V24H24V0Z" fill="white"/>
</mask>
<g mask="url(#mask0_8_21320)">
<path d="M4.71922 21.0001H6.31152C6.72597 21.0001 7.09752 20.7444 7.24552 20.3572L8.34567 17.4804L8.35796 14.7176C8.35826 14.6593 8.36362 14.6011 8.37402 14.5438L10.0762 5.15C10.1874 4.53631 9.71587 3.97168 9.09222 3.97168L5.43141 3.97168C4.86827 3.97168 4.4162 4.43643 4.43178 4.99934L4.69291 14.4351L3.80753 16.0999C3.61143 16.4687 3.66515 16.9205 3.94224 17.2329L4.22316 17.5497L3.74155 19.7899C3.60768 20.4126 4.0823 21.0001 4.71922 21.0001Z" stroke="#333333" stroke-width="2" stroke-linecap="round" stroke-linejoin="round"/>
<path d="M8.35882 14.63L4.69336 14.4351" stroke="#333333" stroke-width="2" stroke-linecap="round" stroke-linejoin="round"/>
<path d="M19.2896 21H17.6996C17.2797 21 16.9045 20.7377 16.7604 20.3434L15.7137 17.4804L15.7014 14.7176C15.7012 14.6593 15.6958 14.6011 15.6854 14.5438L13.9831 5.14997C13.8719 4.53631 14.3434 3.97167 14.9671 3.97168L18.6281 3.9717C19.1912 3.9717 19.6432 4.43646 19.6277 4.99936L19.3666 14.4351L20.252 16.1C20.4481 16.4687 20.3944 16.9205 20.1173 17.233L19.8364 17.5498L20.2716 19.811C20.3903 20.4278 19.9177 21 19.2896 21Z" stroke="#333333" stroke-width="2" stroke-linecap="round" stroke-linejoin="round"/>
<path d="M15.7002 14.6299L19.3657 14.4351" stroke="#333333" stroke-width="2" stroke-linecap="round" stroke-linejoin="round"/>
</g>
</g>
<defs>
<clipPath id="clip0_8_21320">
<rect width="24" height="24" fill="white"/>
</clipPath>
</defs>
</svg>
