<svg width="24" height="24" viewBox="0 0 24 24" fill="none" xmlns="http://www.w3.org/2000/svg">
<path d="M21.2156 6.01955C18.8512 3.69128 15.5772 2.25 11.9594 2.25C8.36294 2.25 5.10614 3.67438 2.74512 5.97855" stroke="#333333" stroke-width="2" stroke-linecap="round" stroke-linejoin="round"/>
<path d="M3.33301 14.7372V14.7084C3.33301 9.92195 7.21321 6.04175 11.9997 6.04175" stroke="#333333" stroke-width="2" stroke-linecap="round" stroke-linejoin="round"/>
<path d="M15.585 6.81543C18.5827 8.17908 20.6669 11.2003 20.6669 14.7083V14.7148" stroke="#333333" stroke-width="2" stroke-linecap="round" stroke-linejoin="round"/>
<path d="M7.125 18.4999V14.7083C7.125 12.0159 9.3076 9.83325 12 9.83325C14.6924 9.83325 16.875 12.0159 16.875 14.7083V18.4999" stroke="#333333" stroke-width="2" stroke-linecap="round" stroke-linejoin="round"/>
<path d="M8.7627 21.75C9.74415 21.5077 10.3746 20.4728 10.3746 19.598C10.3746 18.6677 10.3746 17.2184 10.3746 15.25C10.3746 14.3526 11.1022 13.625 11.9996 13.625C12.8971 13.625 13.6246 14.3526 13.6246 15.25V19.598" stroke="#333333" stroke-width="2" stroke-linecap="round" stroke-linejoin="round"/>
</svg>
