<svg width="24" height="24" viewBox="0 0 24 24" fill="none" xmlns="http://www.w3.org/2000/svg">
<path d="M12.3399 10.0185C11.7827 9.86921 10.1328 9.33981 7.58517 11.0462C6.06962 12.0613 5.43222 13.62 5.21727 14.765C5.11507 15.3094 5.57732 15.7484 6.12727 15.6832C6.52527 15.636 6.96697 15.5625 7.30117 15.4495C8.28637 15.1162 8.15702 14.4843 8.65962 13.7231C9.16222 12.9619 10.426 12.7033 11.4658 13.2805C12.5057 13.8578 12.8389 14.8429 12.615 15.6788C12.391 16.5147 11.8884 17.2759 10.6246 17.5345C9.36082 17.7931 8.95287 17.0866 7.63447 16.4347C6.94742 16.0949 6.05127 16.5355 5.50997 16.8839C5.20347 17.0812 5.07647 17.4538 5.20512 17.7948C5.29247 18.0264 5.41267 18.2974 5.56942 18.569C5.97737 19.2755 7.75837 21.5445 10.062 21.8631C12.3656 22.1817 14.7639 21.0326 16.1224 19.3062C17.4808 17.5799 17.5208 15.2016 16.5757 13.1566" stroke="#333333" stroke-width="2" stroke-linecap="round" stroke-linejoin="round"/>
<path d="M16.5226 13.2098L14.1383 2.07779C14.0848 1.82813 13.8503 1.65516 13.6035 1.72038C13.0227 1.87384 12.2854 2.259 12.2507 3.155C12.206 4.30793 12.433 13.1744 12.7363 14.7834" stroke="#333333" stroke-width="2" stroke-linecap="round" stroke-linejoin="round"/>
</svg>
