<svg width="24" height="24" viewBox="0 0 24 24" fill="none" xmlns="http://www.w3.org/2000/svg">
<path d="M7.11105 18.7355L3.27448 13.4922C2.56554 12.5233 2.75921 11.1658 3.7108 10.4338C4.59114 9.7566 5.8372 9.8375 6.62255 10.6229L7.9997 12V3.625C7.9997 2.72754 8.72725 2 9.6247 2C10.5222 2 11.2497 2.72754 11.2497 3.625V3.125C11.2497 2.22754 11.9773 1.5 12.8747 1.5C13.7722 1.5 14.4997 2.22754 14.4997 3.125V3.625C14.4997 2.72754 15.2273 2 16.1247 2C17.0222 2 17.7497 2.72754 17.7497 3.625V5.625C17.7497 4.72754 18.4773 4 19.3747 4C20.2722 4 20.9997 4.72754 20.9997 5.625V15.1538C20.9997 16.5193 20.5806 17.8626 19.8095 18.9895C18.5276 20.8632 16.3923 22 14.122 22H13.5448C11.0024 22 8.6124 20.7874 7.11105 18.7355Z" stroke="#333333" stroke-width="2" stroke-linecap="round" stroke-linejoin="round"/>
</svg>
