<svg width="24" height="24" viewBox="0 0 24 24" fill="none" xmlns="http://www.w3.org/2000/svg">
<path d="M6.5 19.9999L4 12.7499L3.02078 7.8538C3.00696 7.7847 3 7.7144 3 7.64395V7.5635C3 6.8784 3.89119 6.6129 4.26613 7.18635C4.2938 7.22865 4.31833 7.27295 4.33952 7.31885L6.30535 11.5782C6.4151 11.8159 6.6897 11.9287 6.9349 11.8368L7 11.8124L6.06455 4.97202C6.0232 4.66953 6.10275 4.36293 6.2859 4.11868C6.5422 3.77694 7.02705 3.70768 7.3688 3.96399L7.43535 4.01391C7.6404 4.16771 7.7948 4.37934 7.87865 4.62158L9.9345 10.5607C9.9737 10.6739 10.0803 10.7499 10.2001 10.7499C10.3625 10.7499 10.4911 10.6127 10.4807 10.4507L10.0393 3.60854C10.0143 3.22166 10.1571 2.84276 10.4312 2.56863C10.755 2.24485 11.2705 2.2163 11.628 2.50234L11.7983 2.63853C12.089 2.87109 12.2829 3.20345 12.3421 3.57099L13.4614 10.511C13.4836 10.6487 13.6025 10.7499 13.742 10.7499C13.8883 10.7499 14.0107 10.6387 14.0248 10.4931L14.6889 3.63077C14.728 3.22745 14.9285 2.85708 15.245 2.60395L15.3482 2.52136C15.7193 2.22449 16.2542 2.25412 16.5903 2.59015C16.8526 2.85251 17 3.20834 17 3.57936V9.95555C17 9.98505 17.0025 10.0141 17.0088 10.0429C17.0646 10.3 17.4037 11.6344 18.5 11.9999C18.9537 12.1511 19.6819 13.4003 20.1864 14.3636C20.5565 15.0702 20.521 15.912 20.1336 16.6093L18.25 19.9999C18.25 19.9999 16.5 21.9999 12.5 21.9999C8.5 21.9999 6.83335 20.6665 6.5 19.9999Z" stroke="#333333" stroke-width="2" stroke-linecap="round" stroke-linejoin="round"/>
</svg>
