<svg width="24" height="24" viewBox="0 0 24 24" fill="none" xmlns="http://www.w3.org/2000/svg">
<path d="M12.8725 22H12.425C9.81985 22 7.3901 20.6871 5.9624 18.508L4.86467 16.8326C4.08561 15.6435 4.31563 14.06 5.40085 13.1418L6.5446 12.1741C6.67505 12.0637 6.75025 11.9014 6.75025 11.7305V3.625C6.75025 2.72754 7.4778 2 8.37525 2C9.2727 2 10.0002 2.72754 10.0002 3.625V3.125C10.0002 2.22754 10.7278 1.5 11.6252 1.5C12.5227 1.5 13.2502 2.22754 13.2502 3.125V3.625C13.2502 2.72754 13.9778 2 14.8752 2C15.7727 2 16.5002 2.72754 16.5002 3.625V5.625C16.5002 4.72754 17.2278 4 18.1252 4C19.0227 4 19.7502 4.72754 19.7502 5.625V15.1538C19.7502 16.5193 19.3311 17.8626 18.56 18.9895C17.2781 20.8632 15.1428 22 12.8725 22Z" stroke="#333333" stroke-width="2" stroke-linecap="round" stroke-linejoin="round"/>
</svg>
