<svg width="24" height="24" viewBox="0 0 24 24" fill="none" xmlns="http://www.w3.org/2000/svg">
<path d="M3.52637 5.00025H14.5264V2.00024H3.52637V5.00025Z" stroke="#333333" stroke-width="2" stroke-linejoin="round"/>
<path fill-rule="evenodd" clip-rule="evenodd" d="M14.5264 5.00024C17.7859 8.56169 19.6562 10.6256 20.1373 11.1921C20.859 12.0418 20.5559 13.0022 18.7499 13.0022C16.9438 13.0022 15.9022 10.3595 14.5264 10.3595C14.5182 10.3578 14.5176 13.7374 14.5247 20.4982C14.5256 21.3269 13.8545 21.9993 13.0259 22.0002H13.0243C12.1947 22.0002 11.5222 21.3277 11.5222 20.4981V16.4934C7.53583 15.889 5.36853 15.5555 5.02038 15.493C4.49811 15.3993 3.52637 14.9007 3.52637 13.4662C3.52637 12.5099 3.52637 10.0212 3.52637 5.00024H14.5264Z" stroke="#333333" stroke-width="2" stroke-linejoin="round"/>
</svg>
