<svg width="24" height="24" viewBox="0 0 24 24" fill="none" xmlns="http://www.w3.org/2000/svg">
<path d="M20.5 19H9.5V22H20.5V19Z" stroke="#333333" stroke-width="2" stroke-linejoin="round"/>
<path fill-rule="evenodd" clip-rule="evenodd" d="M9.4998 19C6.24035 15.4385 4.37002 13.3746 3.8889 12.8081C3.16721 11.9584 3.47025 10.998 5.27635 10.998C7.0824 10.998 8.124 13.6407 9.4998 13.6407C9.508 13.6424 9.50855 10.2628 9.50145 3.50202C9.5006 2.67335 10.1717 2.00087 11.0004 2H11.0019C11.8315 2 12.504 2.6725 12.504 3.50208V7.5068C16.4904 8.1112 18.6577 8.44465 19.0059 8.5072C19.5281 8.60095 20.4998 9.0995 20.4998 10.534C20.4998 11.4904 20.4998 13.9791 20.4998 19H9.4998Z" stroke="#333333" stroke-width="2" stroke-linejoin="round"/>
</svg>
