<svg width="24" height="24" viewBox="0 0 24 24" fill="none" xmlns="http://www.w3.org/2000/svg">
<path d="M22 20.5V9.5H19V20.5H22Z" stroke="#333333" stroke-width="2" stroke-linejoin="round"/>
<path fill-rule="evenodd" clip-rule="evenodd" d="M19 9.5001C15.4474 6.2152 13.3878 4.3318 12.8214 3.84992C11.9716 3.1271 11.0113 3.43062 11.0113 5.2395C11.0113 7.0484 13.6432 8.12215 13.6432 9.5001C13.6449 9.5083 10.2645 9.50885 3.50202 9.50175C2.67335 9.50085 2.00088 10.1719 2 11.0006V11.0022C2 11.8318 2.6725 12.5043 3.50208 12.5043H7.00825C7.6117 16.4886 7.94465 18.6551 8.0072 19.0038C8.10095 19.5268 8.5995 20.5001 10.034 20.5001C10.9904 20.5001 13.9791 20.5001 19 20.5001V9.5001Z" stroke="#333333" stroke-width="2" stroke-linejoin="round"/>
</svg>
