<svg width="24" height="24" viewBox="0 0 24 24" fill="none" xmlns="http://www.w3.org/2000/svg">
<path d="M5.01369 20.4868V9.48682H2.01367V20.4868H5.01369Z" stroke="#333333" stroke-width="2" stroke-linejoin="round"/>
<path fill-rule="evenodd" clip-rule="evenodd" d="M5.01367 9.4869C8.57512 6.2274 10.6391 4.35709 11.2056 3.87596C12.0553 3.15427 13.0157 3.45731 13.0157 5.2634C13.0157 7.0695 10.3729 8.1111 10.3729 9.4869C10.3712 9.4951 13.7508 9.49565 20.5116 9.48855C21.3403 9.48765 22.0128 10.1587 22.0137 10.9874V10.9889C22.0137 11.8185 21.3412 12.491 20.5116 12.491H16.5069C15.9024 16.4774 15.569 18.6447 15.5065 18.9929C15.4127 19.5152 14.9142 20.4869 13.4796 20.4869C12.5233 20.4869 10.0346 20.4869 5.01367 20.4869V9.4869Z" stroke="#333333" stroke-width="2" stroke-linejoin="round"/>
</svg>
