<svg width="24" height="24" viewBox="0 0 24 24" fill="none" xmlns="http://www.w3.org/2000/svg">
<path d="M4.79176 13.5912C3.93384 14.1771 3.50488 15.1467 3.50488 16.5001C3.50488 18.5301 6.00029 22.0001 8.25054 22.0001C10.5007 22.0001 11.8058 22.0001 14.0082 22.0001C16.2107 22.0001 17.5485 20.0747 17.5485 18.5301C17.5485 16.4534 17.5485 14.3768 17.5485 12.3001C17.5485 11.4036 16.823 10.6761 15.9265 10.6736C15.0332 10.6711 14.307 11.3932 14.3045 12.2865C14.3045 12.288 14.3045 12.2895 14.3045 12.291V12.3418" stroke="#333333" stroke-width="2" stroke-linecap="round"/>
<path d="M5.49023 14.7227V3.83123C5.49023 2.94284 6.21043 2.22266 7.09883 2.22266C7.98723 2.22266 8.70739 2.94284 8.70739 3.83123V11.824" stroke="#333333" stroke-width="2" stroke-linecap="round"/>
<path d="M8.70801 12.0001V9.90381C8.70801 9.12946 9.33576 8.50171 10.1101 8.50171C10.8845 8.50171 11.5122 9.12946 11.5122 9.90381V12.2136" stroke="#333333" stroke-width="2" stroke-linecap="round" stroke-linejoin="round"/>
<path d="M11.5 12.3292V10.9038C11.5 10.1295 12.1277 9.50171 12.9021 9.50171C13.6764 9.50171 14.3042 10.1295 14.3042 10.9038V12.5017" stroke="#333333" stroke-width="2" stroke-linecap="round" stroke-linejoin="round"/>
<path d="M5.5 4H20.5" stroke="#333333" stroke-width="2" stroke-linecap="round"/>
<path d="M18 6.25L18.8333 5.5L20.5 4L18.8333 2.5L18 1.75" stroke="#333333" stroke-width="2" stroke-linecap="round" stroke-linejoin="round"/>
</svg>
