<svg width="24" height="24" viewBox="0 0 24 24" fill="none" xmlns="http://www.w3.org/2000/svg">
<path d="M10.4976 18L9.54685 15.9954L12.1016 15.7864C13.1456 15.7864 13.992 14.9397 13.992 13.8953C13.992 12.8508 13.1456 12.0042 12.1016 12.0042C10.2282 12.0042 8.86055 12.0042 7.9986 12.0042C6.30435 12.0042 4.5 13.792 4.5 15.5211C4.5 17.2502 4.89371 18.2404 5.32335 19.1693C5.753 20.0983 6.8984 22 10.0008 22C11.993 22 11.7136 22 14.4773 22C17.1015 22 19 19.5727 18.9935 16.5C18.9894 14.5848 18.9907 11.7515 18.9972 8C18.9987 7.1741 18.3303 6.5034 17.5044 6.50195H17.5018C16.6761 6.50195 16.0067 7.17135 16.0067 7.9971C16.0067 7.9981 16.0067 7.9991 16.0067 8.0001C16.0119 10.5705 16.0145 12.079 16.0145 12.5255C16.0145 13.9724 15.3443 14.4711 14.0037 14.0216M12.9773 12L12.9972 3.49999C12.9992 2.67351 12.3308 2.00195 11.5043 2.00001C11.5032 2 11.502 2 11.5008 2C10.6724 2 10.0008 2.67157 10.0008 3.49999V11.5201" stroke="#333333" stroke-width="2" stroke-linecap="round" stroke-linejoin="round"/>
<path d="M7.00293 12.0001V5.0001C7.00293 4.17284 7.67353 3.5022 8.50083 3.5022L8.50293 3.5022C9.33168 3.50335 10.0029 4.17553 10.0029 5.0043V12.0001" stroke="#333333" stroke-width="2" stroke-linecap="round" stroke-linejoin="round"/>
<path d="M13.0039 10.0098V9.50977C13.0039 8.68137 13.6755 8.00977 14.5039 8.00977C15.3324 8.00977 16.0039 8.68137 16.0039 9.50977V10.0098" stroke="#333333" stroke-width="2" stroke-linecap="round" stroke-linejoin="round"/>
</svg>
