<svg width="24" height="24" viewBox="0 0 24 24" fill="none" xmlns="http://www.w3.org/2000/svg">
<path d="M7.48566 13.4872C5.82531 13.7831 4.99512 14.7874 4.99512 16.5001C4.99512 19.0691 7.57166 22.0001 9.89501 22.0001C12.2184 22.0001 13.5658 22.0001 15.8399 22.0001C18.1139 22.0001 19.4951 20.0748 19.4951 18.5301C19.4951 16.3549 19.4951 14.1798 19.4951 12.0046C19.4951 11.1762 18.8236 10.5046 17.9951 10.5046H17.9906C17.1647 10.5046 16.4951 11.1742 16.4951 12.0001" stroke="#333333" stroke-width="2" stroke-linecap="round"/>
<path d="M7.48633 15.02V10.5065C7.48633 9.67728 8.15853 9.00513 8.98768 9.00513H8.98923C9.81953 9.00598 10.4922 9.67928 10.4922 10.5096V12.5114" stroke="#333333" stroke-width="2" stroke-linecap="round"/>
<path d="M10.4922 12.0042V3.50775C10.4922 2.67504 11.1672 2 11.9999 2C12.8326 2 13.5077 2.67504 13.5077 3.50775V12.0042" stroke="#333333" stroke-width="2" stroke-linecap="round" stroke-linejoin="round"/>
<path d="M13.4951 11.8579V10.5017C13.4951 9.67331 14.1667 9.00171 14.9951 9.00171C15.8236 9.00171 16.4951 9.67331 16.4951 10.5017V12.0017" stroke="#333333" stroke-width="2" stroke-linecap="round" stroke-linejoin="round"/>
</svg>
