<svg width="24" height="24" viewBox="0 0 24 24" fill="none" xmlns="http://www.w3.org/2000/svg">
<path d="M11.0005 21.5C8.63758 20.6163 6.66673 17.5925 5.68033 15.8214C5.25443 15.0567 5.47878 14.1173 6.16228 13.5705C6.92413 12.9611 8.02238 13.0219 8.71228 13.7118L9.50048 14.5V8.75C9.50048 8.05965 10.0601 7.5 10.7505 7.5C11.4408 7.5 12.0005 8.05965 12.0005 8.75V11.75C12.0005 11.0597 12.5601 10.5 13.2505 10.5C13.9408 10.5 14.5005 11.0597 14.5005 11.75V12.75C14.5005 12.0597 15.0601 11.5 15.7505 11.5C16.4408 11.5 17.0005 12.0597 17.0005 12.75V13.75C17.0005 13.0597 17.5601 12.5 18.2505 12.5C18.9408 12.5 19.5005 13.0597 19.5005 13.75V17.684C19.5005 18.2192 19.3682 18.748 19.0597 19.1854C18.5479 19.911 17.628 21.0168 16.5005 21.5C14.7505 22.25 13.1855 22.3171 11.0005 21.5Z" stroke="#333333" stroke-width="2" stroke-linecap="round" stroke-linejoin="round"/>
<path d="M5 4H16" stroke="#333333" stroke-width="2" stroke-linecap="round" stroke-linejoin="round"/>
<path d="M7.00015 6L5 4L7 2" stroke="#333333" stroke-width="2" stroke-linecap="round" stroke-linejoin="round"/>
<path d="M14 2L16 4L14 6" stroke="#333333" stroke-width="2" stroke-linecap="round" stroke-linejoin="round"/>
</svg>
