<svg width="24" height="24" viewBox="0 0 24 24" fill="none" xmlns="http://www.w3.org/2000/svg">
<path d="M7.55738 12.4731C6.35623 13.8459 6.14393 15.5164 6.23268 16.6781C6.27483 17.2303 6.83493 17.5347 7.34933 17.3294C7.72153 17.1809 8.12918 16.9955 8.42273 16.7998C9.28808 16.2229 8.99963 15.646 9.28808 14.7807C9.57653 13.9153 10.8467 13.2114 12.0005 13.4999C13.1543 13.7883 13.6148 14.7807 13.6148 15.646C13.6148 16.5114 13.2505 17.4999 12.1726 17.9536C10.9836 18.4541 10.4419 17.9536 8.99963 17.6652C8.24803 17.5149 7.49648 18.1723 7.06383 18.649C6.81883 18.9189 6.79258 19.3117 7.00508 19.6078C7.14943 19.8089 7.33563 20.0395 7.55738 20.2612C8.13428 20.8381 10.4419 22.5688 12.7495 22.2804C15.057 21.9919 17.0762 20.2612 17.9415 18.2421C18.8069 16.2229 18.23 13.9153 16.7877 12.1846C15.3455 10.454 12.7495 10.1655 12.1726 10.1655C11.5957 10.1655 9.57653 10.1655 7.55738 12.4731Z" stroke="#333333" stroke-width="2" stroke-linecap="round" stroke-linejoin="round"/>
<path d="M15.7811 11.3193L6.32164 4.08557C6.12254 3.93334 5.83804 3.95006 5.68959 4.15196C5.33314 4.63681 4.99644 5.40552 5.53774 6.12727C6.22999 7.05027 8.90294 9.39632 10.1528 10.454" stroke="#333333" stroke-width="2" stroke-linecap="round" stroke-linejoin="round"/>
<path d="M17.5003 12.9999L11.5707 2.09904C11.451 1.87902 11.1846 1.77829 10.9667 1.90194C10.4434 2.19903 9.82204 2.76343 10.0216 3.64336C10.2769 4.76857 11.2909 6.77414 12.0003 8.24989" stroke="#333333" stroke-width="2" stroke-linecap="round" stroke-linejoin="round"/>
<path d="M18 13.9999L17.5252 3.84604C17.5135 3.59601 17.3179 3.3892 17.0681 3.40516C16.4675 3.44354 15.6616 3.6795 15.4565 4.55836C15.1943 5.68198 15.0069 7.36258 15 8.99993" stroke="#333333" stroke-width="2" stroke-linecap="round" stroke-linejoin="round"/>
</svg>
