<svg width="24" height="24" viewBox="0 0 24 24" fill="none" xmlns="http://www.w3.org/2000/svg">
<path d="M5.50002 20.0001L3.46977 15.6012C2.92251 14.4155 3.3801 13.0083 4.52012 12.3712L10.1486 9.22585C10.6663 8.93655 11.3059 8.97945 11.7803 9.33525L12.2935 9.7202C12.6045 9.9534 13.0509 9.75825 13.0909 9.37165L13.6854 3.62471C13.7267 3.22508 13.9267 2.85873 14.2404 2.60775L14.3482 2.52152C14.7193 2.22465 15.2542 2.25427 15.5903 2.59031C15.8526 2.85266 16 3.20849 16 3.57952V14.7098C16 15.129 16.4848 15.3623 16.8122 15.1004L18.5 13.7501C19.3265 13.0889 20.4375 13.5206 21.1275 13.9726C21.3468 14.1162 21.3794 14.4133 21.2235 14.6242L17.25 20.0001C17.25 20.0001 15.5 22.0001 11.5 22.0001C7.50002 22.0001 5.83337 20.6667 5.50002 20.0001Z" stroke="#333333" stroke-width="2"/>
</svg>
