<svg width="24" height="24" viewBox="0 0 24 24" fill="none" xmlns="http://www.w3.org/2000/svg">
<path d="M13.973 8.41394L20.378 3.86844C20.8362 3.54331 21.4764 3.70335 21.7276 4.20584C21.8924 4.53551 21.8436 4.93187 21.6038 5.21174L20.4996 6.49989L17.8617 10.0171C17.639 10.314 17.5991 10.7098 17.7579 11.0452L21.3232 18.5718C21.6374 19.2352 21.1535 19.9999 20.4194 19.9999H16.3178C15.8418 19.9999 15.4319 19.6644 15.3376 19.1979L13.7595 11.3868L13.5566 9.32754C13.5214 8.97034 13.6803 8.62169 13.973 8.41394Z" stroke="#333333" stroke-width="2" stroke-linecap="round" stroke-linejoin="round"/>
<path d="M14 11.5L17.5 10.5" stroke="#333333" stroke-width="2" stroke-linecap="round" stroke-linejoin="round"/>
<path d="M9.96785 8.55129L3.6042 4.09776C3.15302 3.78201 2.52683 3.93846 2.27718 4.42931C2.10963 4.75873 2.15896 5.15689 2.40185 5.43544L3.4999 6.69479L6.11605 10.013C6.3512 10.3112 6.39705 10.717 6.2345 11.0602L2.67636 18.5718C2.3621 19.2352 2.84598 19.9999 3.5801 19.9999H7.6609C8.14615 19.9999 8.56135 19.6515 8.6457 19.1737L9.9999 11.4999L10.3762 9.56109C10.4514 9.17339 10.2914 8.77774 9.96785 8.55129Z" stroke="#333333" stroke-width="2" stroke-linecap="round" stroke-linejoin="round"/>
<path d="M6.5 10.5L10 11.5" stroke="#333333" stroke-width="2" stroke-linecap="round" stroke-linejoin="round"/>
</svg>
