<svg width="24" height="24" viewBox="0 0 24 24" fill="none" xmlns="http://www.w3.org/2000/svg">
<path d="M9.16698 17.9066L4.31 12.4668C3.59406 11.6649 3.68516 10.4293 4.51097 9.74115C5.32868 9.05975 6.54658 9.18275 7.21153 10.014L8.00038 11V4.49695C8.00038 3.66972 8.67008 2.99864 9.49733 2.99695C10.3269 2.99527 11.0004 3.66733 11.0004 4.49695V3.5C11.0004 2.67158 11.6719 2 12.5004 2C13.3288 2 14.0004 2.67158 14.0004 3.5V4.41464C14.0004 3.58621 14.6719 2.91463 15.5004 2.91463C16.3288 2.91463 17.0004 3.58621 17.0004 4.41464V6.07315C17.0004 5.24475 17.6719 4.57317 18.5004 4.57317C19.3288 4.57317 20.0004 5.24475 20.0004 6.07315V12.9139C20.0004 13.9844 19.6613 15.0273 19.0319 15.8932L17.6154 17.8418C17.5431 17.9412 17.4277 18 17.3048 18H9.37558C9.29593 18 9.22003 17.9661 9.16698 17.9066Z" stroke="#333333" stroke-width="2" stroke-linecap="round" stroke-linejoin="round"/>
<path d="M17 18H10C9.72386 18 9.5 18.2239 9.5 18.5V21.5C9.5 21.7761 9.72386 22 10 22H17C17.2761 22 17.5 21.7761 17.5 21.5V18.5C17.5 18.2239 17.2761 18 17 18Z" stroke="#333333" stroke-width="2" stroke-linecap="round" stroke-linejoin="round"/>
</svg>
