<svg width="24" height="24" viewBox="0 0 24 24" fill="none" xmlns="http://www.w3.org/2000/svg">
<path d="M9.50049 20.5C6.75049 19.125 4.00113 15 2.5008 12.5C1.00047 10 4.15709 7.65625 6.00069 9.5C7.84429 11.3438 8.00069 11.5 8.00069 11.5V3.75001C8.00069 2.78351 8.78419 2 9.75069 2C10.7172 2 11.5007 2.78351 11.5007 3.75001V8C11.5007 7.0335 12.2842 6.25 13.2507 6.25C14.2172 6.25 15.0007 7.0335 15.0007 8V8.75C15.0007 7.7835 15.7842 7 16.7507 7C17.7172 7 18.5007 7.78275 18.5007 8.74925V11.2501C18.5007 10.2836 19.2842 9.5 20.2507 9.5C21.2172 9.5 22.0007 10.2835 22.0007 11.25V15.622C22.0007 16.1994 21.8693 16.772 21.5439 17.2491C20.9594 18.1061 19.8016 19.5175 18.0005 20.5C15.2504 22 12.2505 21.875 9.50049 20.5Z" stroke="#333333" stroke-width="2" stroke-linecap="round" stroke-linejoin="round"/>
</svg>
