<svg width="24" height="24" viewBox="0 0 24 24" fill="none" xmlns="http://www.w3.org/2000/svg">
<path d="M18.4996 22H8.73761C8.69326 22 8.65206 21.977 8.62866 21.9394L3.92967 14.3637C3.39519 13.502 3.57199 12.3788 4.34535 11.723C5.31491 10.9008 6.79161 11.1518 7.43511 12.2481L8.66626 14.3457V3.97101C8.66626 2.88245 9.54871 2 10.6373 2C11.7259 2 12.6083 2.88245 12.6083 3.97101V8.63545C12.6083 8.9282 12.8405 9.16825 13.1331 9.178L18.9437 9.37215C19.5325 9.3918 19.9996 9.8748 19.9996 10.4639V20.5C19.9996 21.3285 19.3281 22 18.4996 22Z" stroke="#333333" stroke-width="2" stroke-linecap="round" stroke-linejoin="round"/>
</svg>
