<svg width="24" height="24" viewBox="0 0 24 24" fill="none" xmlns="http://www.w3.org/2000/svg">
<path d="M11.7505 10.2499C11.1736 10.2499 9.57653 10.1656 7.55738 12.4732C6.35623 13.846 6.14393 15.5165 6.23268 16.6782C6.27483 17.2304 6.83493 17.5348 7.34933 17.3295C7.72153 17.181 8.12918 16.9956 8.42273 16.7999C9.28808 16.223 8.99963 15.6461 9.28808 14.7808C9.57653 13.9154 10.7303 13.3385 11.8841 13.627C13.0379 13.9154 13.479 14.7915 13.6148 15.6461C13.7505 16.5 13.2505 17.5 12.1726 17.9537C10.9836 18.4542 10.4419 17.9537 8.99963 17.6653C8.24803 17.515 7.49648 18.1724 7.06383 18.6491C6.81883 18.919 6.79258 19.3118 7.00508 19.6079C7.14943 19.809 7.33563 20.0396 7.55738 20.2613C8.13428 20.8382 10.4419 22.5689 12.7495 22.2805C15.057 21.992 17.0762 20.2613 17.9415 18.2422C18.8069 16.223 18.5005 13.5 16.5005 12" stroke="#333333" stroke-width="2" stroke-linecap="round" stroke-linejoin="round"/>
<path d="M16.5003 11.9998L11.5642 2.11998C11.4492 1.88997 11.1762 1.78143 10.9533 1.90954C10.4328 2.20863 9.82375 2.77088 10.0216 3.64328C10.2769 4.76849 12.7906 13.5241 13.5 14.9998" stroke="#333333" stroke-width="2" stroke-linecap="round" stroke-linejoin="round"/>
<path d="M18 13.5L17.5261 3.84503C17.5139 3.59547 17.3185 3.38931 17.0692 3.40515C16.4684 3.44333 15.6618 3.67905 15.4565 4.55842C15.1943 5.68204 15.0069 7.36264 15 8.99999" stroke="#333333" stroke-width="2" stroke-linecap="round" stroke-linejoin="round"/>
</svg>
