<svg width="24" height="24" viewBox="0 0 24 24" fill="none" xmlns="http://www.w3.org/2000/svg">
<path d="M9.49951 20.5C6.74951 19.125 4.00016 15 2.49983 12.5C0.999491 10 4.15611 7.65625 5.99971 9.5C7.84331 11.3438 7.99971 11.5 7.99971 11.5V8.75C7.99971 7.7835 8.78321 7 9.74971 7C10.7162 7 11.4997 7.7835 11.4997 8.75V8C11.4997 7.0335 12.2832 6.25 13.2497 6.25C14.2162 6.25 14.9997 7.0335 14.9997 8V8.75C14.9997 7.7835 15.7832 7 16.7497 7C17.7162 7 18.4997 7.7835 18.4997 8.75V3.75C18.4997 2.7835 19.2832 2 20.2497 2C21.2162 2 21.9997 2.7835 21.9997 3.75V14.4831C21.9997 15.4844 21.8146 16.4871 21.272 17.3286C20.6311 18.3226 19.5553 19.6514 17.9995 20.5C15.2495 22 12.2495 21.875 9.49951 20.5Z" stroke="#333333" stroke-width="2" stroke-linecap="round" stroke-linejoin="round"/>
</svg>
