<svg width="24" height="24" viewBox="0 0 24 24" fill="none" xmlns="http://www.w3.org/2000/svg">
<path d="M16.5005 11.9998C18.2505 13.4998 18.8069 16.2228 17.9415 18.242C17.0762 20.2611 15.057 21.9918 12.7495 22.2803C10.4419 22.5687 8.13428 20.838 7.55738 20.2611C7.33563 20.0394 7.14943 19.8088 7.00508 19.6077C6.79258 19.3116 6.81883 18.9188 7.06383 18.6489C7.49648 18.1722 8.24803 17.5148 8.99963 17.6651C10.4419 17.9535 10.9836 18.454 12.1726 17.9535C13.2505 17.4998 13.6148 16.5113 13.6148 15.646C13.6148 14.7806 13.0379 13.9153 11.8841 13.6268C10.7303 13.3384 9.57653 13.9153 9.28808 14.7806C8.99963 15.646 9.28808 16.2229 8.42273 16.7997C8.12918 16.9954 7.72153 17.1808 7.34933 17.3293C6.83493 17.5346 6.27483 17.2302 6.23268 16.678C6.14393 15.5163 6.35623 13.8458 7.55738 12.473C8.18028 11.7611 8.76303 11.2768 9.28808 10.9475" stroke="#333333" stroke-width="2" stroke-linecap="round" stroke-linejoin="round"/>
<path d="M16.5003 11.9998L11.5642 2.11998C11.4493 1.88997 11.1762 1.78143 10.9533 1.90954C10.4328 2.20863 9.82374 2.77088 10.0216 3.64328C10.2769 4.76849 11.7904 10.0241 12.4998 11.4998" stroke="#333333" stroke-width="2" stroke-linecap="round" stroke-linejoin="round"/>
<path d="M11.2494 8.49982L7.81483 5.23992C7.63433 5.06862 7.35213 5.05372 7.18228 5.23562C6.77138 5.67577 6.34523 6.40202 6.80058 7.18317C7.38168 8.17997 8.88048 10.305 9.99993 11.4998" stroke="#333333" stroke-width="2" stroke-linecap="round" stroke-linejoin="round"/>
</svg>
