<svg width="24" height="24" viewBox="0 0 24 24" fill="none" xmlns="http://www.w3.org/2000/svg">
<g clip-path="url(#clip0_8_21294)">
<mask id="mask0_8_21294" style="mask-type:luminance" maskUnits="userSpaceOnUse" x="0" y="0" width="24" height="24">
<path d="M24 0H0V24H24V0Z" fill="white"/>
</mask>
<g mask="url(#mask0_8_21294)">
<path d="M5.00006 17.9999C4.00053 16.2499 3.99963 12.9999 4.00001 8.4999C4.00014 6.9999 5.99989 6.4999 6.99979 7.9999C7.55374 8.83085 7.90809 11.132 7.90809 11.132L11.1556 5.50725C11.5035 4.90452 12.2743 4.698 12.877 5.046C13.4798 5.394 13.6863 6.1647 13.3383 6.76745L13.5322 6.43165C13.8802 5.8289 14.6509 5.6224 15.2536 5.9704C15.8564 6.3184 16.0629 7.08915 15.7149 7.6919L15.521 8.0277C15.869 7.42495 16.6398 7.2184 17.2425 7.5664C17.8453 7.9144 18.0518 8.68515 17.7038 9.2879L16.9276 10.6323C17.276 10.0289 18.0475 9.82215 18.6509 10.1706C19.2534 10.5184 19.4606 11.2883 19.1141 11.8915L14.5295 19.8725C14.4807 19.9574 14.4308 20.0408 14.3692 20.1169C14.0834 20.4698 13.0718 21.4999 11.0001 21.4999C8.67054 21.4999 6.23924 20.1695 5.00006 17.9999Z" stroke="#333333" stroke-width="2" stroke-linecap="round" stroke-linejoin="round"/>
<path d="M18.5 2.5C19.1894 2.86667 20.2527 3.37914 21 4.5C21.5 5.25 21.75 6.25 21.8954 7.5" stroke="#333333" stroke-width="2" stroke-linecap="round" stroke-linejoin="round"/>
</g>
</g>
<defs>
<clipPath id="clip0_8_21294">
<rect width="24" height="24" fill="white"/>
</clipPath>
</defs>
</svg>
