<svg width="24" height="24" viewBox="0 0 24 24" fill="none" xmlns="http://www.w3.org/2000/svg">
<path d="M5.50027 19.9999L3.39639 15.4415C2.88047 14.3236 3.25517 12.9966 4.27954 12.3137L5.23167 11.6789C5.39517 11.5699 5.60737 11.5668 5.77402 11.671L6.00027 11.8124L5.06482 4.97202C5.02347 4.66953 5.10302 4.36293 5.28617 4.11868C5.54247 3.77694 6.02732 3.70768 6.36907 3.96399L6.43562 4.01391C6.64067 4.16771 6.79507 4.37934 6.87892 4.62158L8.93477 10.5607C8.97397 10.6739 9.08062 10.7499 9.20042 10.7499C9.36282 10.7499 9.49142 10.6127 9.48097 10.4507L9.03952 3.60854C9.01457 3.22166 9.15742 2.84276 9.43152 2.56863C9.75532 2.24485 10.2708 2.2163 10.6283 2.50234L10.7986 2.63853C11.0893 2.87109 11.2831 3.20345 11.3424 3.57099L12.4617 10.511C12.4839 10.6487 12.6028 10.7499 12.7423 10.7499C12.8886 10.7499 13.011 10.6387 13.0251 10.4931L13.6892 3.63077C13.7283 3.22745 13.9288 2.85708 14.2452 2.60395L14.3484 2.52136C14.7195 2.22449 15.2545 2.25412 15.5905 2.59015C15.8529 2.85251 16.0003 3.20834 16.0003 3.57936V9.95555C16.0003 9.98505 16.0028 10.0141 16.009 10.0429C16.0648 10.3 16.404 11.6344 17.5003 11.9999C17.954 12.1511 18.6822 13.4003 19.1867 14.3636C19.5568 15.0702 19.5213 15.912 19.1339 16.6093L17.2503 19.9999C17.2503 19.9999 15.5003 21.9999 11.5003 21.9999C7.50027 21.9999 5.83362 20.6665 5.50027 19.9999Z" stroke="#333333" stroke-width="2" stroke-linecap="round" stroke-linejoin="round"/>
</svg>
