<svg width="24" height="24" viewBox="0 0 24 24" fill="none" xmlns="http://www.w3.org/2000/svg">
<path d="M10.5005 21.5C8.13757 20.6163 6.16672 17.5925 5.18032 15.8214C4.75444 15.0567 4.97879 14.1173 5.66227 13.5705C6.42412 12.9611 7.52237 13.0219 8.21227 13.7118L9.00047 14.5V8.75C9.00047 8.05965 9.56012 7.5 10.2505 7.5C10.9408 7.5 11.5005 8.05965 11.5005 8.75V11.75C11.5005 11.0597 12.0601 10.5 12.7505 10.5C13.4408 10.5 14.0005 11.0597 14.0005 11.75V12.75C14.0005 12.0597 14.5601 11.5 15.2505 11.5C15.9408 11.5 16.5005 12.0597 16.5005 12.75V13.75C16.5005 13.0597 17.0601 12.5 17.7505 12.5C18.4408 12.5 19.0005 13.0597 19.0005 13.75V17.684C19.0005 18.2192 18.8682 18.748 18.5597 19.1854C18.0479 19.911 17.128 21.0168 16.0005 21.5C14.2505 22.25 12.6855 22.3171 10.5005 21.5Z" stroke="#333333" stroke-width="2" stroke-linecap="round" stroke-linejoin="round"/>
<path d="M6 4.5L7.5 6" stroke="#333333" stroke-width="2" stroke-linecap="round" stroke-linejoin="round"/>
<path d="M9.5 2L10 5" stroke="#333333" stroke-width="2" stroke-linecap="round" stroke-linejoin="round"/>
<path d="M13.5 4L12.5 5.5" stroke="#333333" stroke-width="2" stroke-linecap="round" stroke-linejoin="round"/>
</svg>
