<svg width="24" height="24" viewBox="0 0 24 24" fill="none" xmlns="http://www.w3.org/2000/svg">
<path d="M13.3726 22H12.925C10.3199 22 7.8901 20.6871 6.4624 18.508L5.36465 16.8326C4.58561 15.6435 4.81564 14.06 5.90085 13.1418L7.0446 12.1741C7.17505 12.0637 7.25025 11.9014 7.25025 11.7305V3.625C7.25025 2.72754 7.9778 2 8.87525 2C9.7727 2 10.5003 2.72754 10.5003 3.625V3.125C10.5003 2.22754 11.2278 1.5 12.1253 1.5C13.0227 1.5 13.7503 2.22754 13.7503 3.125V8.875C13.7503 7.97755 14.4778 7.25 15.3753 7.25C16.2727 7.25 17.0003 7.97755 17.0003 8.875V10.875C17.0003 9.97755 17.7278 9.25 18.6253 9.25C19.5227 9.25 20.2503 9.97755 20.2503 10.875V15.9844C20.2503 16.8088 20.0012 17.6141 19.5356 18.2945L19.0488 19.006C17.7668 20.8797 15.6428 22 13.3726 22Z" stroke="#333333" stroke-width="2" stroke-linecap="round" stroke-linejoin="round"/>
</svg>
