<svg width="24" height="24" viewBox="0 0 24 24" fill="none" xmlns="http://www.w3.org/2000/svg">
<path d="M5.49974 19.9999L3.44629 15.5508C2.90871 14.386 3.33995 13.0034 4.44436 12.3508L7.21479 10.7138C7.69704 10.4288 8.29789 10.4363 8.77289 10.7331L9.11644 10.9479C9.47219 11.1702 9.92704 10.8821 9.87804 10.4655L9.07379 3.6294C9.02704 3.23187 9.16489 2.83481 9.44789 2.55177C9.76209 2.23761 10.2622 2.20991 10.6091 2.48746L10.798 2.63857C11.0887 2.87113 11.2826 3.20349 11.3418 3.57103L12.4612 10.511C12.4834 10.6487 12.6023 10.7499 12.7417 10.7499C12.8881 10.7499 13.0105 10.6388 13.0246 10.4931L13.6887 3.63081C13.7277 3.22749 13.9282 2.85712 14.2447 2.60399L14.3479 2.5214C14.719 2.22453 15.2539 2.25416 15.59 2.59019C15.8523 2.85255 15.9997 3.20838 15.9997 3.5794V14.7096C15.9997 15.1289 16.4845 15.3621 16.8119 15.1002L18.4997 13.7499C19.3262 13.0888 20.4372 13.5204 21.1272 13.9724C21.3465 14.1161 21.3791 14.4132 21.2232 14.624L17.2497 19.9999C17.2497 19.9999 15.4997 21.9999 11.4997 21.9999C7.49974 21.9999 5.83309 20.6666 5.49974 19.9999Z" stroke="#333333" stroke-width="2" stroke-linecap="round" stroke-linejoin="round"/>
</svg>
