<svg width="24" height="24" viewBox="0 0 24 24" fill="none" xmlns="http://www.w3.org/2000/svg">
<path d="M10.0005 21.5C7.63757 20.6163 5.66672 17.5925 4.68032 15.8214C4.25444 15.0567 4.47879 14.1173 5.16227 13.5705C5.92412 12.9611 7.02237 13.0219 7.71227 13.7118L8.50047 14.5V10.25C8.50047 9.55965 9.06012 9 9.75047 9C10.4408 9 11.0005 9.55965 11.0005 10.25V8.25C11.0005 7.55965 11.5601 7 12.2505 7C12.9408 7 13.5005 7.55965 13.5005 8.25V12.25C13.5005 11.5597 14.0601 11 14.7505 11C15.4408 11 16.0005 11.5597 16.0005 12.25V13.75C16.0005 13.0597 16.5601 12.5 17.2505 12.5C17.9408 12.5 18.5005 13.0597 18.5005 13.75V17.684C18.5005 18.2192 18.3682 18.748 18.0597 19.1854C17.5479 19.911 16.628 21.0168 15.5005 21.5C13.7505 22.25 12.1855 22.3171 10.0005 21.5Z" stroke="#333333" stroke-width="2" stroke-linecap="round" stroke-linejoin="round"/>
<path d="M6.5 4H17.5" stroke="#333333" stroke-width="2" stroke-linecap="round" stroke-linejoin="round"/>
<path d="M8.50015 6L6.5 4L8.5 2" stroke="#333333" stroke-width="2" stroke-linecap="round" stroke-linejoin="round"/>
<path d="M15.5 2L17.5 4L15.5 6" stroke="#333333" stroke-width="2" stroke-linecap="round" stroke-linejoin="round"/>
</svg>
