<svg width="24" height="24" viewBox="0 0 24 24" fill="none" xmlns="http://www.w3.org/2000/svg">
<path d="M18.5 2.5H5.5C4.67157 2.5 4 3.17157 4 4V18C4 18.8284 4.67157 19.5 5.5 19.5H18.5C19.3284 19.5 20 18.8284 20 18V4C20 3.17157 19.3284 2.5 18.5 2.5Z" stroke="#333333" stroke-width="2" stroke-linejoin="round"/>
<path d="M7 19.5V21.5" stroke="#333333" stroke-width="2" stroke-linecap="round" stroke-linejoin="round"/>
<path d="M17 19.5V21.5" stroke="#333333" stroke-width="2" stroke-linecap="round" stroke-linejoin="round"/>
<path d="M17 17.5C17.5523 17.5 18 17.0523 18 16.5C18 15.9477 17.5523 15.5 17 15.5C16.4477 15.5 16 15.9477 16 16.5C16 17.0523 16.4477 17.5 17 17.5Z" fill="#333333"/>
<path d="M7 17.5C7.55228 17.5 8 17.0523 8 16.5C8 15.9477 7.55228 15.5 7 15.5C6.44772 15.5 6 15.9477 6 16.5C6 17.0523 6.44772 17.5 7 17.5Z" fill="#333333"/>
<path d="M4 11.5H20" stroke="#333333" stroke-width="2" stroke-linecap="round" stroke-linejoin="round"/>
<path d="M4 10.5V12.5" stroke="#333333" stroke-width="2" stroke-linecap="round" stroke-linejoin="round"/>
<path d="M20 10.5V12.5" stroke="#333333" stroke-width="2" stroke-linecap="round" stroke-linejoin="round"/>
<path d="M9 6.5H15" stroke="#333333" stroke-width="2" stroke-linecap="round" stroke-linejoin="round"/>
</svg>
