<svg width="24" height="24" viewBox="0 0 24 24" fill="none" xmlns="http://www.w3.org/2000/svg">
<path d="M11.0003 7C11.0003 7 9.6502 9.64665 9.0003 13C8.35035 16.3533 8.5003 21 8.5003 21" stroke="#333333" stroke-width="2" stroke-linecap="round" stroke-linejoin="round"/>
<path d="M16.9765 11.636C17.1493 11.7508 17.4228 11.8316 17.6907 11.8875C18.1564 11.9845 18.5868 11.6644 18.5746 11.1889C18.5521 10.302 18.2061 8.85134 16.4454 7.68214C14.7831 6.57824 13.1323 6.56314 12.0916 6.72179C11.498 6.81229 11.2617 7.46089 11.6023 7.95539C11.9064 8.39679 12.2606 8.8426 12.5 8.92775C13 9.1055 13.6017 8.6368 14.0399 8.92775C14.478 9.2187 14.3477 9.8903 14.7858 10.1812C15.224 10.4722 15.7924 10.0915 16.2306 10.3825C16.6687 10.6735 16.5384 11.3451 16.9765 11.636Z" stroke="#333333" stroke-width="2" stroke-linecap="round" stroke-linejoin="round"/>
<path d="M10.0001 8.5C10.429 8.35705 10.6944 7.887 10.843 7.51075C10.9658 7.1998 10.8561 6.85655 10.5683 6.6864C9.92044 6.30345 8.53774 5.7795 6.38079 6.4059C4.24873 7.02505 3.68552 8.4338 3.54258 9.2634C3.47569 9.6516 3.73999 10.0027 4.13149 10.0462C4.41194 10.0774 4.71959 10.0636 4.90344 9.90755C5.30689 9.56515 5.41614 9.11635 5.86689 8.99555C6.31764 8.8748 6.70649 9.42445 7.15729 9.30365C7.60804 9.1829 7.66994 8.51245 8.12069 8.39165C8.57149 8.27085 9.25009 8.75 10.0001 8.5Z" stroke="#333333" stroke-width="2" stroke-linecap="round" stroke-linejoin="round"/>
<path d="M13.5 3.00011C12.2497 3.50011 10.9996 6.00009 11 7.00009L17.5004 4.00012C16.8101 2.80439 14.7502 2.50011 13.5 3.00011Z" stroke="#333333" stroke-width="2" stroke-linecap="round" stroke-linejoin="round"/>
<path d="M9.99975 2.50007C11.9998 3.21088 11.6902 5.80436 10.9999 7.00006L5 2.96089C5.5 2.00007 7.99975 1.78926 9.99975 2.50007Z" stroke="#333333" stroke-width="2" stroke-linecap="round" stroke-linejoin="round"/>
<path d="M13 17.5C17.1421 17.5 19.5 18.3954 19.5 19.5C19.5 20.6046 16.1421 21.5 12 21.5C7.85785 21.5 4.5 20.6046 4.5 19.5C4.5 19.2304 4.70003 18.9733 5.06265 18.7386" stroke="#333333" stroke-width="2" stroke-linecap="round"/>
</svg>
