<svg width="24" height="24" viewBox="0 0 24 24" fill="none" xmlns="http://www.w3.org/2000/svg">
<path d="M19.493 11.5C19.3364 16.8545 16.5602 19.7611 12.501 21.5C10.3047 20.5594 8.48375 19.2767 7.25 17.4495" stroke="#333333" stroke-width="2" stroke-linejoin="round"/>
<path d="M19.5 9.5V5.1278L12.5034 2.5L5.5 5.1278V11.0142C5.5 12.3081 5.6471 13.4645 5.92385 14.5" stroke="#333333" stroke-width="2" stroke-linejoin="round"/>
<path d="M4.6335 15.316C3.94689 14.6877 3.13876 13.3776 2.83986 13.3026C2.83986 13.3026 1.94121 15.5197 1.99982 17C2.05843 18.4803 3.44791 19.3176 4.91188 18.6102C6.37587 17.9029 21.9996 10 21.9996 10L17.4996 9L4.6335 15.316Z" stroke="#333333" stroke-width="2" stroke-linecap="round" stroke-linejoin="round"/>
<path d="M14.0003 10.5L9.49995 9L8.5 9.5L10 12.5" stroke="#333333" stroke-width="2" stroke-linecap="round" stroke-linejoin="round"/>
</svg>
