<svg width="24" height="24" viewBox="0 0 24 24" fill="none" xmlns="http://www.w3.org/2000/svg">
<path d="M6 20C6 16.4102 8.6863 13.5 12 13.5C15.3137 13.5 18 16.4102 18 20" stroke="#333333" stroke-width="2" stroke-linecap="round"/>
<path d="M6.5 18.5C6.5 19 7.75 19.5 8.5 19C9.25 18.5 9.47985 17.2475 10.2499 17.4631C11.0198 17.6787 11 19.25 12 20C13 20.75 14.75 20.5 15.5 19.25C16.25 18 15.4603 17.6625 16.0306 16.8515C16.4107 16.3109 16.8959 16.4435 17 16.5" stroke="#333333" stroke-width="2" stroke-linecap="round"/>
<path d="M11.5 10.5H12.5" stroke="#333333" stroke-width="2" stroke-linecap="round" stroke-linejoin="round"/>
<path d="M16.0762 11.2351L16.9242 11.765" stroke="#333333" stroke-width="2" stroke-linecap="round" stroke-linejoin="round"/>
<path d="M7.07617 11.7651L7.92422 11.2351" stroke="#333333" stroke-width="2" stroke-linecap="round" stroke-linejoin="round"/>
<path d="M19.5293 14.067L20.0293 14.9331" stroke="#333333" stroke-width="2" stroke-linecap="round" stroke-linejoin="round"/>
<path d="M4.0293 14.9331L4.5293 14.067" stroke="#333333" stroke-width="2" stroke-linecap="round" stroke-linejoin="round"/>
<path d="M20.9473 18.5028L21.0518 19.4973" stroke="#333333" stroke-width="2" stroke-linecap="round" stroke-linejoin="round"/>
<path d="M2.44727 19.4973L2.5518 18.5028" stroke="#333333" stroke-width="2" stroke-linecap="round" stroke-linejoin="round"/>
<path d="M21.0002 5L4.5 9" stroke="#333333" stroke-width="2" stroke-linecap="round"/>
<path d="M8 3.5L14.5 6.5L8.5 8L6 4.5L8 3.5Z" stroke="#333333" stroke-width="2" stroke-linecap="round" stroke-linejoin="round"/>
<path d="M4.5 9L3 7" stroke="#333333" stroke-width="2" stroke-linecap="round" stroke-linejoin="round"/>
</svg>
