<svg width="24" height="24" viewBox="0 0 24 24" fill="none" xmlns="http://www.w3.org/2000/svg">
<g clip-path="url(#clip0_3_16055)">
<mask id="mask0_3_16055" style="mask-type:luminance" maskUnits="userSpaceOnUse" x="0" y="0" width="24" height="24">
<path d="M24 0H0V24H24V0Z" fill="white"/>
</mask>
<g mask="url(#mask0_3_16055)">
<path d="M12 20C16.1421 20 19.5 16.6421 19.5 12.5C19.5 8.35785 16.1421 5 12 5C7.85785 5 4.5 8.35785 4.5 12.5C4.5 16.6421 7.85785 20 12 20Z" stroke="#333333" stroke-width="2" stroke-linecap="round" stroke-linejoin="round"/>
<path d="M10.0001 5.5C10.9025 6.00415 11.7501 6.75 11.6791 7.7227C11.6223 8.5 10.9575 8.67345 10.8184 9.23555C10.6795 9.79765 11.4837 10.4108 10.1232 11.318C9.2162 11.9227 6.4855 13.0724 4.5 12" stroke="#333333" stroke-width="2" stroke-linecap="round"/>
<path d="M4.75043 12.25C3.25043 13.1942 1.0345 15.7605 2.00066 17.5C3.25038 19.75 8.00058 17.8453 13.5004 13.5C19.0003 9.15471 21.1149 2.80322 21.1149 2.80322L18.5006 3.50001" stroke="#333333" stroke-width="2" stroke-linecap="round" stroke-linejoin="round"/>
<path d="M13.001 20C13.001 20 13.2508 17.5 15.0007 16C16.7505 14.5 19.001 14.5 19.001 14.5" stroke="#333333" stroke-width="2" stroke-linecap="round"/>
</g>
</g>
<defs>
<clipPath id="clip0_3_16055">
<rect width="24" height="24" fill="white"/>
</clipPath>
</defs>
</svg>
