<svg width="24" height="24" viewBox="0 0 24 24" fill="none" xmlns="http://www.w3.org/2000/svg">
<path d="M4.92893 16.3787C3.11929 16.9216 2 17.6716 2 18.5C2 20.1568 6.47715 21.5 12 21.5C17.5229 21.5 22 20.1568 22 18.5C22 17.6716 20.8807 16.9216 19.0711 16.3787" stroke="#333333" stroke-width="2" stroke-linecap="round" stroke-linejoin="round"/>
<path d="M12 17.5C12 17.5 18.5 13.252 18.5 8.3409C18.5 4.83892 15.5898 2 12 2C8.41015 2 5.5 4.83892 5.5 8.3409C5.5 13.252 12 17.5 12 17.5Z" stroke="#333333" stroke-width="2" stroke-linejoin="round"/>
<path d="M12 11C13.3807 11 14.5 9.8807 14.5 8.5C14.5 7.1193 13.3807 6 12 6C10.6193 6 9.5 7.1193 9.5 8.5C9.5 9.8807 10.6193 11 12 11Z" stroke="#333333" stroke-width="2" stroke-linejoin="round"/>
</svg>
