<svg width="24" height="24" viewBox="0 0 24 24" fill="none" xmlns="http://www.w3.org/2000/svg">
<path d="M4.5 3.5H10.5" stroke="#333333" stroke-width="2" stroke-linecap="round" stroke-linejoin="round"/>
<path d="M13.5 3.5H19.5" stroke="#333333" stroke-width="2" stroke-linecap="round" stroke-linejoin="round"/>
<path d="M9.5 18H8C7.17155 18 6.5 17.3285 6.5 16.5V12C6.5 9.79085 8.29085 8 10.5 8H13.5C15.7092 8 17.5 9.79085 17.5 12V16.5C17.5 17.3285 16.8285 18 16 18H14.5" stroke="#333333" stroke-width="2" stroke-linejoin="round"/>
<path d="M12 5C12.8284 5 13.5 4.32843 13.5 3.5C13.5 2.67157 12.8284 2 12 2C11.1716 2 10.5 2.67157 10.5 3.5C10.5 4.32843 11.1716 5 12 5Z" stroke="#333333" stroke-width="2"/>
<path d="M14.5 17.5V18.2C14.5 18.6419 14.1418 19 13.7 19H10.3C9.85815 19 9.5 18.6419 9.5 18.2V17.5C9.5 16.1193 10.6193 15 12 15C13.3807 15 14.5 16.1193 14.5 17.5Z" stroke="#333333" stroke-width="2" stroke-linecap="round" stroke-linejoin="round"/>
<path d="M10.5 19V20.5C10.5 21.3285 11.1715 22 12 22C12.8285 22 13.5 21.3285 13.5 20.5V19" stroke="#333333" stroke-width="2" stroke-linejoin="round"/>
</svg>
