<svg width="24" height="24" viewBox="0 0 24 24" fill="none" xmlns="http://www.w3.org/2000/svg">
<g clip-path="url(#clip0_3_16075)">
<mask id="mask0_3_16075" style="mask-type:luminance" maskUnits="userSpaceOnUse" x="0" y="0" width="24" height="24">
<path d="M24 0H0V24H24V0Z" fill="white"/>
</mask>
<g mask="url(#mask0_3_16075)">
<path d="M17 6.5V3C17 2.44771 16.5523 2 16 2H4C3.44771 2 3 2.44771 3 3V17C3 17.5523 3.44771 18 4 18H11.5" stroke="#333333" stroke-width="2" stroke-linecap="round" stroke-linejoin="round"/>
<path d="M14.0006 20.9999C10.5004 18.9999 12.1663 16.1128 11.489 15.4999C10.6627 14.7522 10.1941 14.056 10.0002 12.9999C9.80626 11.9438 10.5354 10.7368 11.4891 11.4999C12.4427 12.2631 14.0004 15.4999 14.0004 15.4999L15.0004 14.4999L15.5004 8.99994C15.5004 8.99994 15.0004 6.99994 15.0004 5.99994C15.0004 4.99993 17.0004 6.49994 18.0004 7.99994C18.0004 13.2208 18.7501 17.9999 21 21.9999" stroke="#333333" stroke-width="2" stroke-linecap="round" stroke-linejoin="round"/>
<path d="M12.5 8.7L10.5 5.5L6.5 13.5H10" stroke="#333333" stroke-width="2" stroke-linecap="round" stroke-linejoin="round"/>
<path d="M3 11L6 5.5L8.5 9" stroke="#333333" stroke-width="2" stroke-linecap="round" stroke-linejoin="round"/>
</g>
</g>
<defs>
<clipPath id="clip0_3_16075">
<rect width="24" height="24" fill="white"/>
</clipPath>
</defs>
</svg>
