<svg width="24" height="24" viewBox="0 0 24 24" fill="none" xmlns="http://www.w3.org/2000/svg">
<path d="M5.60036 3.42725L5.24616 3.53942C3.5023 4.09165 2.47802 5.89451 2.79724 7.69566C3.16186 9.75301 3.44274 11.7153 3.84463 13.5262C4.23713 15.2947 4.068 16.8704 3.96963 18.5418C3.87352 20.1749 5.17376 21.4635 6.80566 21.5769C9.11716 21.7376 10.8966 19.5363 10.454 17.2619C10.1118 15.5042 9.85281 13.6033 9.96956 12.2501C10.0949 10.7978 10.1082 8.60546 10.0846 6.62446C10.0571 4.3166 7.80071 2.73048 5.60036 3.42725Z" stroke="#333333" stroke-width="2" stroke-linecap="round" stroke-linejoin="round"/>
<path d="M17.405 2.86163L17.0205 2.93372C15.2926 3.2577 14.0739 4.81419 14.0571 6.5721C14.0355 8.85075 13.9156 11.0747 14.0001 13.0001C14.0781 14.7766 13.7816 16.0763 13.4915 17.5266C13.1784 19.0915 14.2129 20.5486 15.7616 20.934C18.004 21.4921 20.1178 19.5849 20.0502 17.2751C20.0038 15.6874 20.0656 14.0191 20.3907 12.7999C20.7854 11.3198 21.1643 8.84845 21.4551 6.64305C21.7606 4.32726 19.7008 2.43115 17.405 2.86163Z" stroke="#333333" stroke-width="2" stroke-linecap="round" stroke-linejoin="round"/>
<path d="M4 14.5C4.5 10 7 7.5 7 7.5C7.8182 8.5 9.00005 11.5 10 14.5" stroke="#333333" stroke-width="2" stroke-miterlimit="2" stroke-linecap="round" stroke-linejoin="round"/>
<path d="M19.9997 15C20.2497 11 17.4997 7 17.4997 7C16.6815 8 14 9.6389 14 12.75" stroke="#333333" stroke-width="2" stroke-miterlimit="2" stroke-linecap="round" stroke-linejoin="round"/>
</svg>
