<svg width="24" height="24" viewBox="0 0 24 24" fill="none" xmlns="http://www.w3.org/2000/svg">
<g clip-path="url(#clip0_3_16052)">
<mask id="mask0_3_16052" style="mask-type:luminance" maskUnits="userSpaceOnUse" x="0" y="0" width="24" height="24">
<path d="M24 0H0V24H24V0Z" fill="white"/>
</mask>
<g mask="url(#mask0_3_16052)">
<path d="M14.6162 3.48964C16.4733 2.70615 20.2544 2.25519 21.5134 6.4358C22.7723 10.6164 17.3597 13.7414 17.5002 10.4848C17.6408 7.22825 21.4978 9.90885 21.4153 12.2659C21.3327 14.6229 18.8842 14.8819 18.8842 14.8819" stroke="#333333" stroke-width="2" stroke-linecap="round" stroke-linejoin="round"/>
<path d="M12.5124 1.88879L2.98614 7.38879C2.50785 7.66494 2.34397 8.27653 2.62012 8.75482L4.62012 12.2189C4.89626 12.6972 5.50785 12.8611 5.98614 12.5849L15.5124 7.08495C15.9907 6.8088 16.1546 6.19721 15.8784 5.71892L13.8784 2.25482C13.6023 1.77653 12.9907 1.61265 12.5124 1.88879Z" stroke="#333333" stroke-width="2" stroke-linejoin="round"/>
<path d="M10.75 9.83496L14.5 16.3302" stroke="#333333" stroke-width="2" stroke-linecap="round" stroke-linejoin="round"/>
<path d="M16.5483 16.8791C16.1341 16.1617 15.2167 15.9159 14.4992 16.3301C13.7818 16.7443 13.536 17.6617 13.9502 18.3791L14.9502 20.1112C15.3644 20.8286 16.2818 21.0744 16.9992 20.6602C17.7167 20.246 17.9625 19.3286 17.5483 18.6112L16.5483 16.8791Z" stroke="#333333" stroke-width="2" stroke-linejoin="round"/>
<path d="M5.7002 4.08972L8.29825 2.58972" stroke="#333333" stroke-width="2" stroke-linecap="round" stroke-linejoin="round"/>
<path d="M10.9502 13.183L13.5482 11.683" stroke="#333333" stroke-width="2" stroke-linecap="round" stroke-linejoin="round"/>
</g>
</g>
<defs>
<clipPath id="clip0_3_16052">
<rect width="24" height="24" fill="white"/>
</clipPath>
</defs>
</svg>
