<svg width="24" height="24" viewBox="0 0 24 24" fill="none" xmlns="http://www.w3.org/2000/svg">
<path d="M14.5 7C15.8807 7 17 5.8807 17 4.5C17 3.11929 15.8807 2 14.5 2C13.1193 2 12 3.11929 12 4.5C12 5.8807 13.1193 7 14.5 7Z" stroke="#333333" stroke-width="2" stroke-miterlimit="2"/>
<path d="M12.0005 9.5L9.85547 13.5L13.6555 16.51C13.8105 16.63 13.9205 16.795 13.9855 16.98L15.6555 22" stroke="#333333" stroke-width="2" stroke-miterlimit="2" stroke-linecap="round" stroke-linejoin="round"/>
<path d="M9.855 13.5L7.255 17.32C6.4866 18.4441 5.25 19.75 4.75 20.5" stroke="#333333" stroke-width="2" stroke-miterlimit="2" stroke-linecap="round" stroke-linejoin="round"/>
<path d="M21 12L17.53 12.05C17.35 12.05 17.17 12.005 17.01 11.915L15.375 10.96C13.37 9.78503 11.175 8.98003 8.89 8.57003L7.28 8.28503L6 10.5" stroke="#333333" stroke-width="2" stroke-miterlimit="2" stroke-linecap="round" stroke-linejoin="round"/>
<path d="M7.5126 11.3911L4.32617 9.55139L2.07617 13.4485L5.2626 15.2882L7.5126 11.3911Z" stroke="#333333" stroke-width="2" stroke-linejoin="round"/>
</svg>
