<svg width="24" height="24" viewBox="0 0 24 24" fill="none" xmlns="http://www.w3.org/2000/svg">
<path d="M20.0515 12.9085C19.6033 14.0499 15.2153 14.4127 10.6808 13.1977C6.1464 11.9827 3.29135 9.7761 3.6308 8.50855C4.39766 5.6466 8.48715 1.23108 14.3355 3.3443C20.1839 5.4575 20.8184 10.0465 20.0515 12.9085Z" stroke="#333333" stroke-width="2" stroke-linecap="round" stroke-linejoin="round"/>
<path d="M13.9999 3.5C13.9999 3.5 11.9998 6.75 10.4999 12C9 17.25 9 21 9 21" stroke="#333333" stroke-width="2" stroke-linecap="round" stroke-linejoin="round"/>
<path d="M14.0001 3.5C14.0001 3.5 8.89705 4.42176 7.5 8.50001" stroke="#333333" stroke-width="2" stroke-linecap="round" stroke-linejoin="round"/>
<path d="M14 3.5C14 3.5 16.9999 6.5 15.4998 11" stroke="#333333" stroke-width="2" stroke-linecap="round" stroke-linejoin="round"/>
<path d="M5 21.5C5 21.5 9.5 20.75 13 20.75C16.5 20.75 19.5 21 19.5 21" stroke="#333333" stroke-width="2" stroke-linecap="round" stroke-linejoin="round"/>
<path d="M14 3.49995C14.5001 3.49995 15.5001 2.99995 15.9073 2.20984" stroke="#333333" stroke-width="2" stroke-linecap="round" stroke-linejoin="round"/>
<path d="M17 20.5C17 19.6715 16.5 18.5 15 18.5C13.5 18.5 13 19.6715 13 20.5" stroke="#333333" stroke-width="2" stroke-linecap="round" stroke-linejoin="round"/>
</svg>
