<svg width="24" height="24" viewBox="0 0 24 24" fill="none" xmlns="http://www.w3.org/2000/svg">
<path d="M16.9997 15V14.4945C16.9997 13.6691 17.6688 13 18.4942 13C19.3188 13 19.9875 13.6678 19.9887 14.4923L19.9947 18.5926C19.9975 20.4736 18.4734 22 16.5924 22H12.8233C10.6168 22 8.54082 20.9544 7.22732 19.1815L5.09472 16.3031C4.73456 15.817 4.70268 15.1618 5.01397 14.6429C5.51467 13.8084 6.66632 13.6666 7.35452 14.3548L7.99972 15V8C7.99972 7.17155 8.67127 6.5 9.49972 6.5C10.3282 6.5 10.9997 7.17155 10.9997 8V13.9375V10.5132C10.9997 9.67745 11.6772 9 12.5129 9C13.3486 9 14.026 9.67745 14.026 10.5132V14.5V13.9494C14.026 13.1282 14.6917 12.4625 15.5129 12.4625C16.334 12.4625 16.9997 13.1282 16.9997 13.9494V15Z" stroke="#333333" stroke-width="2" stroke-linecap="round" stroke-linejoin="round"/>
<path d="M16 2V6" stroke="#333333" stroke-width="2" stroke-linecap="round"/>
<path d="M8 10H3V8C4 8 5 7.25 4.98701 6C4.97402 4.75 4 4 3 4V2H21V4C20 4 19.026 4.75 19.013 6C19 7.25 20 8 21 8V10H14" stroke="#333333" stroke-width="2" stroke-linecap="round" stroke-linejoin="round"/>
</svg>
