<svg width="24" height="24" viewBox="0 0 24 24" fill="none" xmlns="http://www.w3.org/2000/svg">
<path d="M4.5 4.41966C4.5 3.95362 4.71914 3.51639 5.13575 3.30751C6.1231 2.81243 8.30615 2 12 2C15.6939 2 17.8769 2.81243 18.8643 3.30751C19.2809 3.5164 19.5 3.95362 19.5 4.41966V18C19.5 18.5523 19.0523 19 18.5 19H5.5C4.94771 19 4.5 18.5523 4.5 18V4.41966Z" stroke="#333333" stroke-width="2" stroke-linejoin="round"/>
<path d="M17 19V21" stroke="#333333" stroke-width="2" stroke-linecap="round" stroke-linejoin="round"/>
<path d="M7 19V21" stroke="#333333" stroke-width="2" stroke-linecap="round" stroke-linejoin="round"/>
<path d="M10.25 16C10.25 16.4142 9.9142 16.75 9.5 16.75C9.0858 16.75 8.75 16.4142 8.75 16C8.75 15.5858 9.0858 15.25 9.5 15.25C9.9142 15.25 10.25 15.5858 10.25 16Z" fill="#333333" stroke="#333333" stroke-width="0.5"/>
<path d="M15.25 16C15.25 16.4142 14.9142 16.75 14.5 16.75C14.0858 16.75 13.75 16.4142 13.75 16C13.75 15.5858 14.0858 15.25 14.5 15.25C14.9142 15.25 15.25 15.5858 15.25 16Z" fill="#333333" stroke="#333333" stroke-width="0.5"/>
<path d="M10 22H14" stroke="#333333" stroke-width="2" stroke-linecap="round" stroke-linejoin="round"/>
<path d="M19.5 6H4.5V13H19.5V6Z" stroke="#333333" stroke-width="2" stroke-linejoin="round"/>
<path d="M12 6V13" stroke="#333333" stroke-width="2" stroke-linecap="round" stroke-linejoin="round"/>
<path d="M10 6H14" stroke="#333333" stroke-width="2" stroke-linecap="round" stroke-linejoin="round"/>
<path d="M10 13H14" stroke="#333333" stroke-width="2" stroke-linecap="round" stroke-linejoin="round"/>
</svg>
