<svg width="24" height="24" viewBox="0 0 24 24" fill="none" xmlns="http://www.w3.org/2000/svg">
<path d="M5.5 7.4995L2.5 7.9995C3.31458 4.24239 5.6821 3.00312 8 2.99952C9.4984 2.99719 10.9761 3.51255 12 3.99981C13.0239 3.51255 14.5 2.99994 16 2.99981C18.3056 2.99961 20.6854 4.24239 21.5 7.9995L18.5 7.4995C18.7794 8.5496 19.3941 10.3958 18.5 11.9995C17.0098 10.6631 13.5647 8.6451 12 7.49955C10.4353 8.6451 6.9902 10.6631 5.5 11.9995C4.60588 10.3958 5.2206 8.5496 5.5 7.4995Z" stroke="#333333" stroke-width="2" stroke-linecap="round" stroke-linejoin="round"/>
<path d="M12 7.5C11.6227 9.44445 11.0944 14.2666 12 18" stroke="#333333" stroke-width="2" stroke-linecap="round" stroke-linejoin="round"/>
<path d="M6 20.9996H18C15.6067 18.7073 14.5 18.0024 12 18C9.5 17.9976 6.946 19.6909 6 20.9996Z" stroke="#333333" stroke-width="2" stroke-linecap="round" stroke-linejoin="round"/>
</svg>
