<svg width="24" height="24" viewBox="0 0 24 24" fill="none" xmlns="http://www.w3.org/2000/svg">
<path d="M12 22C17.5229 22 22 17.5229 22 12C22 6.47715 17.5229 2 12 2C6.47715 2 2 6.47715 2 12C2 17.5229 6.47715 22 12 22Z" stroke="#333333" stroke-width="2"/>
<path d="M2 10.4202C3.50742 9.7084 4.62233 9.60925 5.3447 10.1227C6.4283 10.893 6.56415 14.032 9.02875 12.5318C11.4934 11.0315 7.97335 10.4202 8.7375 8.24695C9.50165 6.0737 12.0041 7.76185 12.2529 5.38135C12.4187 3.79431 10.5204 3.18707 6.5578 3.55961" stroke="#333333" stroke-width="2"/>
<path d="M17.9997 4C15.1425 6.4943 14.1446 8.00055 15.006 8.51865C16.298 9.29585 16.8463 8.20165 18.423 8.51865C19.9997 8.8357 19.6583 10.9728 18.829 10.9728C17.9997 10.9728 13.7046 10.4259 13.921 12.9325C14.1373 15.439 16.7207 15.8102 16.7207 17.2106C16.7207 18.1442 16.1491 19.573 15.006 21.4971" stroke="#333333" stroke-width="2" stroke-linecap="round"/>
<path d="M3.05176 16.4632C3.5075 16.2644 3.85009 16.1187 4.07951 16.026C6.00306 15.2489 7.43036 15.0657 8.36131 15.4765C10.0076 16.203 9.37466 17.6701 9.89031 18.2106C10.4059 18.7511 11.6935 18.5938 11.6935 19.622C11.6935 20.3075 11.4633 21.0819 11.0028 21.9451" stroke="#333333" stroke-width="2" stroke-linecap="round"/>
</svg>
