<svg width="24" height="24" viewBox="0 0 24 24" fill="none" xmlns="http://www.w3.org/2000/svg">
<path d="M11.9551 5.6588C11.9961 4.54303 12.3096 3.56297 12.8881 2.7437C13.4696 1.92028 14.4309 1.33535 15.7468 1.00391C15.7555 1.04443 15.7646 1.08497 15.7741 1.12536V1.33736C15.7741 1.81808 15.6575 2.36931 15.4273 2.97564C15.1861 3.56271 14.8092 4.11524 14.3085 4.61391C13.8403 5.0533 13.4071 5.3442 13.0242 5.4757C12.8978 5.51345 12.7245 5.5506 12.5152 5.58405C12.3291 5.61305 12.1423 5.638 11.9551 5.6588Z" fill="#333333"/>
<path d="M12.1751 7.31455C10.6888 7.31455 9.6568 6 8.19065 6C6.72455 6 3.7041 7.3476 3.7041 12C3.7041 16.6524 6.3863 19.65 6.6863 20C6.98625 20.3501 7.68005 21.2498 8.7549 21.2498C9.8298 21.2498 11.0066 20.3951 12.1751 20.3951C13.3436 20.3951 14.8144 21.2498 15.7746 21.2498C16.7348 21.2498 17.1298 20.8583 17.7833 20.1831C18.4367 19.508 19.6832 17.4477 20.1185 16.2111C19.4015 15.7843 17.5011 14.6256 17.5011 12C17.5011 10.2497 18.1407 8.7955 19.4201 7.63765C18.5808 6.5459 17.6074 6 16.4998 6C14.8385 6 13.6615 7.31455 12.1751 7.31455Z" stroke="#333333" stroke-width="2" stroke-linejoin="round"/>
</svg>
