<svg width="24" height="24" viewBox="0 0 24 24" fill="none" xmlns="http://www.w3.org/2000/svg">
<path fill-rule="evenodd" clip-rule="evenodd" d="M4.30385 18.4933C2.66017 16.6891 1.66022 14.3072 1.66022 11.6956C1.66022 6.06355 6.30846 1.4978 12.0423 1.4978C17.7762 1.4978 22.4245 6.06355 22.4245 11.6956C22.4245 15.678 20.0997 19.1257 16.7112 20.8046C14.638 21.8854 12.2729 22.4978 9.76216 22.4978C6.68581 22.4978 3.82796 21.5785 1.45801 20.0043C1.45801 20.0043 3.0473 19.831 4.30344 18.4937L4.30385 18.4933ZM16.9194 16.7427C19.6054 14.0568 19.6054 9.70205 16.9194 7.0161C15.6739 5.77065 14.0696 5.1031 12.4392 5.01275C12.39 3.78953 13.0485 2.96304 13.0517 2.95901L13.051 2.95914L13.0515 2.95849C11.1777 3.32046 9.38841 4.22699 7.93746 5.67795C6.82471 6.79065 6.03241 8.1024 5.56006 9.4985C5.62921 9.3154 5.70631 9.1346 5.79136 8.9567C5.69346 9.20635 5.60501 9.46145 5.52501 9.72245C4.73839 12.1104 5.29361 14.8436 7.19271 16.7427C9.87871 19.4287 14.2335 19.4287 16.9194 16.7427Z" fill="#333333"/>
<path fill-rule="evenodd" clip-rule="evenodd" d="M8.56543 11.1724V12.0269V12.596C8.56543 13.1641 9.02593 13.6246 9.59408 13.6246C10.1622 13.6246 10.6226 13.1641 10.6226 12.596V12.026V11.1724C10.6226 10.6044 10.1622 10.1438 9.59408 10.1438C9.02593 10.1438 8.56543 10.6044 8.56543 11.1724Z" fill="#333333"/>
<path fill-rule="evenodd" clip-rule="evenodd" d="M13.6562 11.1724V12.0269V12.596C13.6562 13.1641 14.1168 13.6246 14.6848 13.6246C15.2529 13.6246 15.7135 13.1641 15.7135 12.596V12.026V11.1724C15.7135 10.6044 15.2529 10.1438 14.6848 10.1438C14.1168 10.1438 13.6562 10.6044 13.6562 11.1724Z" fill="#333333"/>
</svg>
