<svg width="24" height="24" viewBox="0 0 24 24" fill="none" xmlns="http://www.w3.org/2000/svg">
<path d="M22 12C22 14.7693 20.8743 17.2757 19.0556 19.0865C17.2471 20.8871 14.7536 22 12 22C6.47715 22 2 17.5229 2 12C2 9.33075 3.04579 6.9058 4.75 5.1125C6.57195 3.19528 9.1464 2 12 2C14.7536 2 17.2471 3.11292 19.0556 4.91348C20.8743 6.72435 22 9.2307 22 12Z" stroke="#333333" stroke-width="2" stroke-linecap="round" stroke-linejoin="round"/>
<path d="M22.0002 12C20.541 12 16.5158 11.4496 12.9134 13.0316C9.00015 14.7501 6.16635 17.4158 4.93164 19.0736" stroke="#333333" stroke-width="2" stroke-linecap="round" stroke-linejoin="round"/>
<path d="M8.25 2.72693C9.8152 4.17137 13.2301 7.84928 14.5 11.5C15.7699 15.1508 16.2405 19.6396 16.5303 20.9174" stroke="#333333" stroke-width="2" stroke-linecap="round" stroke-linejoin="round"/>
<path d="M2.07715 10.75C3.96603 10.8639 8.96645 10.9666 12.1664 9.59995C15.3664 8.2333 18.1201 5.7198 19.0645 4.92261" stroke="#333333" stroke-width="2" stroke-linecap="round" stroke-linejoin="round"/>
<path d="M2.75 15.8065C3.63083 17.9447 5.2314 19.7104 7.25 20.802" stroke="#333333" stroke-width="2" stroke-linecap="round" stroke-linejoin="round"/>
<path d="M2 12C2 9.33085 3.04579 6.90585 4.75 5.11255" stroke="#333333" stroke-width="2" stroke-linecap="round" stroke-linejoin="round"/>
<path d="M12 2C9.1464 2 6.57195 3.19528 4.75 5.1125" stroke="#333333" stroke-width="2" stroke-linecap="round" stroke-linejoin="round"/>
<path d="M16 2.83203C17.1466 3.33303 18.1812 4.04285 19.0556 4.91342C20.8743 6.72425 22 9.23065 22 12C22 13.2313 21.7774 14.4106 21.3704 15.5" stroke="#333333" stroke-width="2" stroke-linecap="round" stroke-linejoin="round"/>
<path d="M12 22C14.7536 22 17.2471 20.8871 19.0556 19.0865" stroke="#333333" stroke-width="2" stroke-linecap="round" stroke-linejoin="round"/>
</svg>
