<svg width="24" height="24" viewBox="0 0 24 24" fill="none" xmlns="http://www.w3.org/2000/svg">
<g clip-path="url(#clip0_5_19570)">
<mask id="mask0_5_19570" style="mask-type:luminance" maskUnits="userSpaceOnUse" x="0" y="0" width="24" height="24">
<path d="M24 0H0V24H24V0Z" fill="white"/>
</mask>
<g mask="url(#mask0_5_19570)">
<path d="M12 5L6 9L12 13L18 9L12 5Z" stroke="#333333" stroke-width="2" stroke-linejoin="round"/>
<path d="M12 5L18 9L20.5 5.5L15 2L12 5Z" stroke="#333333" stroke-width="2" stroke-linejoin="round"/>
<path d="M12 5L6 9L3.5 5.5L9 2L12 5Z" stroke="#333333" stroke-width="2" stroke-linejoin="round"/>
<path d="M21.5 11L18 9L12 13L15.5 15.5L21.5 11Z" stroke="#333333" stroke-width="2" stroke-linejoin="round"/>
<path d="M2.5 11L6 9L12 13L8.5 15.5L2.5 11Z" stroke="#333333" stroke-width="2" stroke-linejoin="round"/>
<path d="M18 14V18.5L12 22L6 18.5V14" stroke="#333333" stroke-width="2" stroke-linecap="round" stroke-linejoin="round"/>
</g>
</g>
<defs>
<clipPath id="clip0_5_19570">
<rect width="24" height="24" fill="white"/>
</clipPath>
</defs>
</svg>
