<svg width="24" height="24" viewBox="0 0 24 24" fill="none" xmlns="http://www.w3.org/2000/svg">
<path d="M11.5708 7.9289L5.91391 13.5857C5.13286 14.3668 5.13286 15.6331 5.91391 16.4141L10.8637 21.3639C11.6447 22.145 12.9111 22.145 13.6921 21.3639L18.6419 16.4141C19.4229 15.6331 19.4229 14.3668 18.6419 13.5857L12.985 7.9289C12.5945 7.53835 11.9613 7.53835 11.5708 7.9289Z" stroke="#333333" stroke-width="2" stroke-linecap="round" stroke-linejoin="round"/>
<path d="M12.5 6.9197C12.5 6.9197 14.7772 4.36514 15.6864 3.28697C16.5957 2.20879 17.5703 2.34792 18.3826 3.04898C19.195 3.75004 19.2166 4.85709 18.3826 5.8875C17.5486 6.9179 15.2782 9.50025 15.2782 9.50025" stroke="#333333" stroke-width="2" stroke-linecap="round" stroke-linejoin="round"/>
<path d="M12.5 6.91945C12.5 6.91945 10.2229 4.3649 9.31361 3.28672C8.40436 2.20855 7.42976 2.34767 6.61741 3.04873C5.80506 3.74979 5.78341 4.85684 6.61741 5.88725C7.45141 6.91765 9.72176 9.5 9.72176 9.5" stroke="#333333" stroke-width="2" stroke-linecap="round" stroke-linejoin="round"/>
</svg>
