<svg width="24" height="24" viewBox="0 0 24 24" fill="none" xmlns="http://www.w3.org/2000/svg">
<path fill-rule="evenodd" clip-rule="evenodd" d="M3.92675 12.0602C2.59695 10.4509 1.58821 8.56192 1 6.49402C2.18448 8.09982 3.6229 9.50322 5.2558 10.644C7.9667 8.09882 11.6012 6.54157 15.5965 6.54017C18.2163 6.54057 20.5448 7.77427 22.0474 9.69597C22.1322 9.79702 22.2107 9.90252 22.2831 10.0124C22.6189 10.5178 22.8338 11.1112 22.8865 11.7516C22.2659 11.4777 21.6296 11.2384 20.978 11.0354C19.4307 10.5526 17.7955 10.2729 16.1017 10.2269C15.9233 10.2219 15.7633 10.2197 15.6027 10.2197C13.7281 10.2197 11.9225 10.505 10.2228 11.0351C9.42485 11.2838 8.6502 11.5865 7.90335 11.9391C7.81925 11.9785 7.73575 12.0189 7.65215 12.0597C7.73615 12.1006 7.8209 12.1414 7.90585 12.1814C8.6516 12.5328 9.42525 12.8355 10.2222 13.0837C11.9225 13.6138 13.7292 13.8996 15.6017 13.8996C15.7627 13.8996 15.9233 13.8976 16.0835 13.893C17.7958 13.8465 19.4312 13.5669 20.9785 13.085C21.6299 12.8815 22.2654 12.6427 22.8834 12.3698C22.8338 13.0072 22.6189 13.6001 22.2845 14.104C22.2095 14.2175 22.128 14.3263 22.0415 14.4305C20.5398 16.3492 18.2133 17.5802 15.6017 17.5809C11.6007 17.5794 7.9652 16.0216 5.25415 13.4758C3.62227 14.616 2.18448 16.0195 1.00063 17.6248C1.58922 15.5575 2.59745 13.6689 3.92675 12.0602Z" fill="#333333"/>
<path fill-rule="evenodd" clip-rule="evenodd" d="M16.2983 13.6911C17.0631 13.4588 17.6271 13.0696 17.6271 12.1219C17.6271 11.1737 17.0631 10.6407 16.2978 10.408C16.2924 10.4065 16.2868 10.4048 16.2819 10.403C16.1397 10.3615 15.991 10.3392 15.8379 10.3392C15.9955 10.3392 16.1526 10.3416 16.3093 10.3467C16.3093 10.3467 16.3217 10.3467 16.3277 10.3473C17.9902 10.3985 19.5701 10.7159 21.114 11.2117C21.7536 11.4375 22.28 11.602 22.8862 11.9047C22.8862 12.0235 22.8862 11.9877 22.8862 12.103C22.8862 12.2191 22.8862 12.1565 22.8723 12.2735C22.2107 12.5502 21.7539 12.7109 21.1145 12.9372C19.5775 13.3694 17.9905 13.7009 16.3287 13.752C16.3222 13.7527 16.3157 13.7527 16.3098 13.7527C16.1526 13.7578 15.995 13.76 15.8369 13.76C15.9906 13.76 16.1397 13.7376 16.2824 13.6963C16.2874 13.6946 16.2929 13.6929 16.2983 13.6911Z" fill="#333333"/>
</svg>
