<svg width="24" height="24" viewBox="0 0 24 24" fill="none" xmlns="http://www.w3.org/2000/svg">
<path d="M12 22C17.5229 22 22 17.5229 22 12C22 6.47715 17.5229 2 12 2C6.47715 2 2 6.47715 2 12C2 17.5229 6.47715 22 12 22Z" stroke="#333333" stroke-width="2" stroke-linecap="round" stroke-linejoin="round"/>
<path d="M15.5 3.5V12" stroke="#333333" stroke-width="2" stroke-linecap="round" stroke-linejoin="round"/>
<path d="M8.31738 3.31799L15.3885 10.389" stroke="#333333" stroke-width="2" stroke-linecap="round" stroke-linejoin="round"/>
<path d="M3.5 8.5H12" stroke="#333333" stroke-width="2" stroke-linecap="round" stroke-linejoin="round"/>
<path d="M10.1824 8.81799L3.11133 15.889" stroke="#333333" stroke-width="2" stroke-linecap="round" stroke-linejoin="round"/>
<path d="M8.5 12.5V21" stroke="#333333" stroke-width="2" stroke-linecap="round" stroke-linejoin="round"/>
<path d="M8.81738 13.818L15.8885 20.889" stroke="#333333" stroke-width="2" stroke-linecap="round" stroke-linejoin="round"/>
<path d="M12 15.5H21" stroke="#333333" stroke-width="2" stroke-linecap="round" stroke-linejoin="round"/>
<path d="M21.1824 8.31799L14.1113 15.389" stroke="#333333" stroke-width="2" stroke-linecap="round" stroke-linejoin="round"/>
<path d="M12 15.5C13.933 15.5 15.5 13.933 15.5 12C15.5 10.067 13.933 8.5 12 8.5C10.067 8.5 8.5 10.067 8.5 12C8.5 13.933 10.067 15.5 12 15.5Z" stroke="#333333" stroke-width="2" stroke-linecap="round" stroke-linejoin="round"/>
</svg>
