<svg width="24" height="24" viewBox="0 0 24 24" fill="none" xmlns="http://www.w3.org/2000/svg">
<g clip-path="url(#clip0_5_19594)">
<path fill-rule="evenodd" clip-rule="evenodd" d="M12 2C6.47715 2 2 6.47715 2 12C2 17.5229 6.47715 22 12 22C17.5229 22 22 17.5229 22 12C22 6.47715 17.5229 2 12 2ZM0 12C0 5.3726 5.3726 0 12 0C18.6274 0 24 5.3726 24 12C24 18.6274 18.6274 24 12 24C5.3726 24 0 18.6274 0 12Z" fill="#333333"/>
<path fill-rule="evenodd" clip-rule="evenodd" d="M9.59165 22.7358C9.4949 22.6109 9.4949 21.4986 9.59165 19.399C8.5557 19.4348 7.9012 19.3629 7.62815 19.1833C7.2185 18.914 6.80845 18.0833 6.44455 17.4979C6.0807 16.9125 5.27315 16.82 4.94702 16.6891C4.62091 16.5582 4.53904 16.0248 5.84565 16.4282C7.1522 16.8317 7.21595 17.9303 7.62815 18.1872C8.0403 18.4441 9.02575 18.3317 9.4724 18.1259C9.9191 17.9201 9.8862 17.1539 9.96585 16.8503C10.0665 16.567 9.71165 16.5041 9.70385 16.5018C9.26775 16.5018 6.97695 16.0036 6.34775 13.7853C5.7185 11.567 6.52905 10.117 6.96145 9.49375C7.24975 9.0782 7.22425 8.1926 6.88495 6.83685C8.11675 6.67945 9.06735 7.06715 9.7367 8.00005C9.73735 8.0054 10.6142 7.4786 12.0001 7.4786C13.386 7.4786 13.8776 7.9077 14.2571 8.00005C14.6365 8.0924 14.94 6.36705 17.2834 6.83685C16.7941 7.79845 16.3844 9.00005 16.6971 9.49375C17.0099 9.98745 18.2372 11.5573 17.4833 13.7853C16.9807 15.2706 15.9926 16.1761 14.5192 16.5018C14.3502 16.5557 14.2657 16.6427 14.2657 16.7627C14.2657 16.9428 14.4942 16.9624 14.8232 17.8058C15.0426 18.3681 15.0585 19.974 14.8708 22.6235C14.3953 22.7445 14.0254 22.8258 13.761 22.8673C13.2923 22.941 12.7834 22.9823 12.2834 22.9982C11.7834 23.0142 11.6098 23.0124 10.9185 22.948C10.4577 22.9051 10.0154 22.8344 9.59165 22.7358Z" fill="#333333"/>
</g>
<defs>
<clipPath id="clip0_5_19594">
<rect width="24" height="24" fill="white"/>
</clipPath>
</defs>
</svg>
