<svg width="24" height="24" viewBox="0 0 24 24" fill="none" xmlns="http://www.w3.org/2000/svg">
<g clip-path="url(#clip0_5_19560)">
<mask id="mask0_5_19560" style="mask-type:luminance" maskUnits="userSpaceOnUse" x="0" y="0" width="24" height="24">
<path d="M24 0H0V24H24V0Z" fill="white"/>
</mask>
<g mask="url(#mask0_5_19560)">
<path d="M20.6773 17.0763L14.7607 4.38802C14.0604 2.8864 12.2755 2.23673 10.7739 2.93695C9.27227 3.63716 8.62257 5.42212 9.32282 6.92372L15.2395 19.612C15.9397 21.1137 17.7246 21.7633 19.2262 21.0631C20.7279 20.3629 21.3775 18.578 20.6773 17.0763Z" stroke="#333333" stroke-width="2"/>
<path d="M11.719 13.2678L8.76067 19.612C8.06042 21.1136 6.27552 21.7633 4.77388 21.0631C3.27226 20.3629 2.62259 18.5779 3.32281 17.0763L9.18722 4.5" stroke="#333333" stroke-width="2" stroke-linecap="round"/>
<path d="M4.77403 21.063C6.27565 21.7632 8.0606 21.1136 8.76081 19.6119C9.46103 18.1103 8.81136 16.3254 7.30974 15.6252C5.80812 14.9249 4.02318 15.5746 3.32297 17.0762C2.62275 18.5778 3.27241 20.3628 4.77403 21.063Z" stroke="#333333" stroke-width="2"/>
</g>
</g>
<defs>
<clipPath id="clip0_5_19560">
<rect width="24" height="24" fill="white"/>
</clipPath>
</defs>
</svg>
