<svg width="24" height="24" viewBox="0 0 24 24" fill="none" xmlns="http://www.w3.org/2000/svg">
<path d="M17.6963 8.01985C16.0545 7.6716 14.9102 6.2288 14.8853 4.56213H12.348V14.786C12.2983 15.9551 11.3281 16.8755 10.159 16.8507C8.98984 16.8258 8.06944 15.8556 8.06944 14.6865C8.09434 13.5173 9.03959 12.5721 10.2087 12.5721C10.4326 12.5721 10.6316 12.5969 10.8306 12.6716V10.0596C10.6316 10.0347 10.4077 10.0347 10.2087 10.0347H10.1092C7.52219 10.1094 5.48239 12.2238 5.53214 14.8109C5.58189 17.3979 7.69629 19.4377 10.2834 19.4129C12.8704 19.388 14.9351 17.2736 14.9351 14.7114V9.5124C15.9799 10.2586 17.1988 10.6566 18.4923 10.6566V8.09445C18.1938 8.09445 17.9451 8.0696 17.6963 8.01985Z" fill="#333333"/>
<path d="M16.9751 22H7.0249C4.23881 22 2 19.7363 2 16.9751V7.0249C2 4.23881 4.23881 2 7.0249 2H16.9751C19.7363 2 22 4.23881 22 7.0249V16.9751C22 19.7363 19.7363 22 16.9751 22ZM7.04975 2.22388C4.38806 2.22388 2.22388 4.38806 2.22388 7.04975V16.9254C2.22388 19.587 4.38806 21.7512 7.04975 21.7512H16.9254C19.587 21.7512 21.7512 19.587 21.7512 16.9254V7.04975C21.7512 4.38806 19.587 2.22388 16.9254 2.22388H7.04975Z" fill="#333333"/>
<path d="M18.0693 17.8706C18.0693 17.8208 18.0693 17.7213 18.0693 17.6467C18.0693 17.6218 18.0942 17.6218 18.0942 17.6218C18.1191 17.6218 18.3927 17.8706 18.3927 17.8706" fill="#333333"/>
<path d="M10.2103 16.602C11.2302 16.602 12.0511 15.806 12.1009 14.7861V13.9901C11.6282 13.7911 11.1556 13.6169 10.6581 13.4926C10.6083 13.4677 10.5586 13.4677 10.5088 13.4677C10.5088 13.5174 10.5088 13.5672 10.5088 13.6169C10.5088 14.7363 10.1855 15.6567 9.66309 16.5025C9.81234 16.5523 9.98649 16.5771 10.1606 16.5771C10.1606 16.602 10.1855 16.602 10.2103 16.602Z" fill="#333333"/>
<path d="M18.2692 17.771C18.2443 17.7462 18.1697 17.7213 18.1448 17.7462C18.095 17.771 18.0702 17.7959 18.0702 17.8457C18.0453 18.6417 17.8463 19.4128 17.5478 20.1094C17.5726 20.0347 17.4234 19.7362 17.3986 19.6616C17.3488 19.5123 17.299 19.3631 17.2244 19.2138C17.1 18.9153 16.9757 18.6417 16.8264 18.3432C16.5279 17.7959 16.1796 17.2487 15.8065 16.776C15.5578 16.4526 15.2841 16.179 14.9856 15.9054C14.4384 18.0198 12.5478 19.6118 10.2592 19.6367H10.2094C9.21445 19.6367 8.29405 19.3382 7.5229 18.8407C7.3488 18.9899 7.14975 19.1392 6.97565 19.2885C6.55275 18.8407 6.2045 18.3432 5.906 17.7959C5.8811 17.7462 5.85625 17.6964 5.85625 17.6467C5.8065 17.6964 5.75675 17.7213 5.707 17.771C4.81146 18.5671 4.04032 19.4626 3.39355 20.4079C3.4433 20.4576 3.51793 20.5322 3.56768 20.582C3.59256 20.5571 3.61743 20.5074 3.64231 20.4825L4.2642 21.0297L4.66221 21.2039C4.61246 21.2288 4.58758 21.2785 4.53783 21.3034C4.61246 21.3531 4.68708 21.378 4.76171 21.4278C4.81146 21.378 4.86121 21.3531 4.91096 21.3034L5.83135 21.7263L8.09505 21.8755H15.5826C15.5826 21.9004 15.5826 21.9253 15.5577 21.9501H16.5777C16.6025 21.9253 16.6274 21.9004 16.6523 21.8755C16.6523 21.8506 16.6772 21.8506 16.6772 21.8258L18.0453 21.7014L19.4135 21.1293L20.3339 20.4327C20.3588 20.4825 20.3836 20.5074 20.4085 20.5571C20.4583 20.5074 20.5329 20.4327 20.5826 20.383C19.9359 19.4626 19.1647 18.5671 18.2692 17.771Z" fill="#333333"/>
<path d="M10.259 19.3881C12.4729 19.3632 14.3386 17.7961 14.7863 15.7065C14.2142 15.209 13.5923 14.7612 12.9207 14.3881C12.7217 14.2886 12.5226 14.1891 12.3236 14.0896V14.7612C12.2739 15.9055 11.3286 16.8259 10.1843 16.8259C10.1595 16.8259 10.1595 16.8259 10.1346 16.8259C9.91073 16.8259 9.71173 16.7761 9.51268 16.7015C9.04008 17.398 8.41818 18.0448 7.72168 18.6418C8.44303 19.0896 9.28883 19.3633 10.2092 19.3633C10.2092 19.3881 10.2341 19.3881 10.259 19.3881Z" fill="#333333"/>
</svg>
