<svg width="24" height="24" viewBox="0 0 24 24" fill="none" xmlns="http://www.w3.org/2000/svg">
<path d="M18.4415 22H5.55635C3.596 22 2 20.404 2 18.4415V5.55635C2 3.596 3.596 2 5.55635 2H18.4415C20.4018 2 21.9979 3.596 21.9979 5.55635V18.4415C22 20.404 20.404 22 18.4415 22ZM5.55635 2.15129C3.6791 2.15129 2.15129 3.6791 2.15129 5.55635V18.4415C2.15129 20.3209 3.67909 21.8487 5.5585 21.8487H18.4436C20.323 21.8487 21.8508 20.3209 21.8508 18.4415V5.55635C21.8508 3.67697 20.323 2.14916 18.4436 2.14916H5.55635V2.15129Z" fill="#333333"/>
<path fill-rule="evenodd" clip-rule="evenodd" d="M2 18.4437L22 17.3974V5.5564L2 6.60265V18.4437ZM12.4815 9.27675C12.4815 9.27675 12.9481 9.61555 12.9993 9.64965C13.3324 9.87895 13.773 10.182 14.4577 10.4966C13.8278 10.6894 13.103 10.8805 12.2666 11.0645V12.2216C13.8622 11.8787 15.1126 11.4898 16.1 11.096C17.0754 11.3779 18.3359 11.6354 19.9905 11.8188V10.6618C19.1334 10.5624 18.394 10.4429 17.7536 10.3111C18.6781 9.7857 19.2091 9.303 19.5604 8.96995V8.7932L19.5625 8.7931V7.7085L19.5604 7.7086L19.298 7.72235L14.8109 7.95705L13.6491 7.4762L12.4815 9.27675ZM14.2552 9.07075L17.9927 8.8752C17.5827 9.17455 17.0034 9.5273 16.1353 9.89475C15.2699 9.6184 14.684 9.3266 14.2552 9.07075ZM8.35595 8.0239L9.58545 7.95995C9.55435 10.2705 9.51135 11.6539 9.1753 12.7387L11.7231 12.6051V13.6897L8.66945 13.8489C8.18165 14.6334 7.4232 15.3722 6.23575 16.4193L4.29883 16.5216C4.37077 16.4605 4.43967 16.4008 4.50682 16.3427L4.54388 16.3107C5.738 15.2757 6.5587 14.5637 7.115 13.93L4.00098 14.0924V13.0099L7.8601 12.8076C8.29045 11.8228 8.32425 10.449 8.35595 8.0239ZM7.45085 8.7334V9.9437L4.71485 9.6944V8.4862L7.45085 8.7334ZM4.71485 10.5318V11.7421L7.45085 11.9915V10.7811L4.71485 10.5318ZM15.4912 13.493L12.2666 13.662V12.5774L15.4912 12.4084V11.7911L16.7505 11.7271V12.3424L19.9909 12.1726V13.2572L16.7505 13.427V15.8716L15.4912 15.9377V13.493ZM10.5301 14.2949L9.0449 14.3716L10.2382 16.2126L11.7234 16.1359L10.5301 14.2949ZM17.3232 13.9389L18.8063 13.8622L19.9995 15.7032L18.5165 15.7799L17.3232 13.9389ZM14.9489 14.0625L13.4637 14.1413L12.2705 16.1059L13.7557 16.0292L14.9489 14.0625Z" fill="#333333"/>
</svg>
