<svg width="24" height="24" viewBox="0 0 24 24" fill="none" xmlns="http://www.w3.org/2000/svg">
<path d="M8.5 14.5C10.5 14.5 12.5 13.4669 14 11.7032C18 6.99997 20.7121 8.40827 22 8.99987C19.25 10.4999 20.25 14.8116 16.5 17.9999C14.191 19.9629 11.7473 20.507 9.5 20.5C6.26155 20.4899 3.43113 18.8818 2 17.7031V8.49987" stroke="#333333" stroke-width="2" stroke-linecap="round" stroke-linejoin="round"/>
<path d="M2.82413 7.93344C2.51125 7.47834 1.88867 7.36304 1.43356 7.67594C0.978457 7.98884 0.863167 8.61139 1.17605 9.06654L2.82413 7.93344ZM18.0011 17.8654C18.4791 17.5887 18.6422 16.9769 18.3655 16.4989C18.0888 16.021 17.477 15.8578 16.999 16.1345L18.0011 17.8654ZM1.17605 9.06654C2.62184 11.1695 5.39969 14.072 8.44334 16.1119C9.96734 17.1333 11.6086 17.973 13.2246 18.3662C14.8474 18.761 16.5226 18.7214 18.0011 17.8654L16.999 16.1345C16.1025 16.6536 14.9965 16.739 13.6974 16.4229C12.3916 16.1051 10.9703 15.3979 9.55684 14.4505C6.72549 12.553 4.12834 9.83049 2.82413 7.93344L1.17605 9.06654Z" fill="#333333"/>
<path d="M16.7969 8.5C16.4195 7.35135 15.4271 4.97027 13.7969 3.5H5.79688C7.60822 5.33785 11.4996 8 13.4996 12" stroke="#333333" stroke-width="2" stroke-linecap="round" stroke-linejoin="round"/>
</svg>
