<svg width="24" height="24" viewBox="0 0 24 24" fill="none" xmlns="http://www.w3.org/2000/svg">
<path d="M15.5 13.5L15.9962 14.3682C16.3077 14.1902 16.5 13.8589 16.5 13.5H15.5ZM15.5 10H16.5V8.2768L15.0038 9.13175L15.5 10ZM5 16H4C4 16.3565 4.18976 16.686 4.49808 16.8649C4.80639 17.0439 5.18665 17.0451 5.49615 16.8682L5 16ZM5 8L5.5145 7.1425C5.20555 6.95715 4.82081 6.9523 4.5073 7.1298C4.19379 7.3073 4 7.63975 4 8H5ZM8.75 10.25L8.2355 11.1075C8.53795 11.289 8.91355 11.2977 9.2241 11.1305L8.75 10.25ZM12 8.5L12.4741 9.38045C12.7941 9.2082 12.9953 8.87595 12.9999 8.5126C13.0045 8.14925 12.8117 7.81205 12.4962 7.63175L12 8.5ZM5 4.5L5.49615 3.63176C5.16725 3.44384 4.76046 3.45785 4.4453 3.66795L5 4.5ZM2 6.5L1.4453 5.66795C1.1671 5.8534 1 6.16565 1 6.5H2ZM2 17.5H1C1 17.8343 1.1671 18.1466 1.4453 18.3321L2 17.5ZM5 19.5L4.4453 20.3321C4.76046 20.5422 5.16725 20.5562 5.49615 20.3682L5 19.5ZM16.5 13.5V10H14.5V13.5H16.5ZM15.0038 9.13175L4.50386 15.1318L5.49615 16.8682L15.9962 10.8683L15.0038 9.13175ZM6 16V8H4V16H6ZM4.48551 8.8575L8.2355 11.1075L9.2645 9.3925L5.5145 7.1425L4.48551 8.8575ZM9.2241 11.1305L12.4741 9.38045L11.5259 7.61955L8.2759 9.36955L9.2241 11.1305ZM12.4962 7.63175L5.49615 3.63176L4.50386 5.36825L11.5038 9.36825L12.4962 7.63175ZM4.4453 3.66795L1.4453 5.66795L2.5547 7.33205L5.5547 5.33205L4.4453 3.66795ZM1 6.5V17.5H3V6.5H1ZM1.4453 18.3321L4.4453 20.3321L5.5547 18.6679L2.5547 16.6679L1.4453 18.3321ZM5.49615 20.3682L15.9962 14.3682L15.0038 12.6318L4.50386 18.6318L5.49615 20.3682Z" fill="#333333"/>
<path d="M8.5 10.5L8.00385 9.63175C7.6923 9.8098 7.5 10.1412 7.5 10.5H8.5ZM8.5 14H7.5V15.7232L8.99615 14.8683L8.5 14ZM19 8H20C20 7.64355 19.8102 7.314 19.5019 7.1351C19.1936 6.95615 18.8134 6.9549 18.5039 7.13175L19 8ZM19 16L18.4855 16.8575C18.7945 17.0429 19.1792 17.0477 19.4927 16.8702C19.8062 16.6927 20 16.3603 20 16H19ZM15.25 13.75L15.7645 12.8925C15.462 12.7111 15.0865 12.7023 14.7759 12.8696L15.25 13.75ZM12 15.5L11.5259 14.6196C11.2059 14.7918 11.0047 15.1241 11.0001 15.4874C10.9955 15.8508 11.1883 16.188 11.5038 16.3683L12 15.5ZM19 19.5L18.5039 20.3683C18.8328 20.5562 19.2396 20.5422 19.5547 20.3321L19 19.5ZM22 17.5L22.5547 18.3321C22.8329 18.1466 23 17.8344 23 17.5H22ZM22 6.5H23C23 6.16565 22.8329 5.8534 22.5547 5.66795L22 6.5ZM19 4.5L19.5547 3.66795C19.2396 3.45785 18.8328 3.44383 18.5039 3.63176L19 4.5ZM7.5 10.5V14H9.5V10.5H7.5ZM8.99615 14.8683L19.4961 8.86825L18.5039 7.13175L8.00385 13.1318L8.99615 14.8683ZM18 8V16H20V8H18ZM19.5145 15.1425L15.7645 12.8925L14.7355 14.6075L18.4855 16.8575L19.5145 15.1425ZM14.7759 12.8696L11.5259 14.6196L12.4741 16.3805L15.7241 14.6305L14.7759 12.8696ZM11.5038 16.3683L18.5039 20.3683L19.4961 18.6318L12.4962 14.6318L11.5038 16.3683ZM19.5547 20.3321L22.5547 18.3321L21.4453 16.668L18.4453 18.668L19.5547 20.3321ZM23 17.5V6.5H21V17.5H23ZM22.5547 5.66795L19.5547 3.66795L18.4453 5.33205L21.4453 7.33205L22.5547 5.66795ZM18.5039 3.63176L8.00385 9.63175L8.99615 11.3683L19.4961 5.36825L18.5039 3.63176Z" fill="#333333"/>
</svg>
