<svg width="24" height="24" viewBox="0 0 24 24" fill="none" xmlns="http://www.w3.org/2000/svg">
<path d="M19.2254 11.5085L16.5971 10.0048C16.5402 9.9732 16.4707 10.0111 16.4707 10.0806V13.8209C16.4707 13.8904 16.5086 13.9472 16.5655 13.9851L19.1938 15.4888C19.2507 15.5204 19.3202 15.4825 19.3202 15.413V11.6727C19.3202 11.6032 19.2822 11.5464 19.2254 11.5085Z" fill="#333333"/>
<path d="M15.5554 9.43745L12.9271 7.93375C12.8703 7.90215 12.8008 7.94005 12.8008 8.00955V13.8285C12.8008 13.879 12.8387 13.9169 12.8892 13.9169H15.5681C15.6186 13.9169 15.6565 13.879 15.6565 13.8285V9.6017C15.6502 9.5322 15.6123 9.46905 15.5554 9.43745Z" fill="#333333"/>
<path d="M9.33826 15.4712L11.9666 13.9675C12.0235 13.9359 12.0614 13.8727 12.0614 13.8032V7.58626C12.0614 7.52311 11.9919 7.47886 11.935 7.51046L9.30666 9.01416C9.24981 9.04576 9.21191 9.10891 9.21191 9.17841V15.3954C9.21191 15.4649 9.28141 15.5028 9.33826 15.4712Z" fill="#333333"/>
<path d="M20.0527 12.1338V13.8397C20.0527 13.8903 20.0907 13.9282 20.1412 13.9282H23.1233C23.2118 13.9282 23.2433 13.8081 23.1675 13.7702L20.1854 12.0643C20.1222 12.0264 20.0527 12.0707 20.0527 12.1338Z" fill="#333333"/>
<path d="M8.34635 9.56373L1.04269 13.7526C0.966879 13.7968 0.998469 13.9106 1.08692 13.9106H8.39055C8.4411 13.9106 8.47905 13.8726 8.47905 13.8221V9.63958C8.4727 9.57008 8.4032 9.53218 8.34635 9.56373Z" fill="#333333"/>
</svg>
