<svg width="24" height="24" viewBox="0 0 24 24" fill="none" xmlns="http://www.w3.org/2000/svg">
<path fill-rule="evenodd" clip-rule="evenodd" d="M8.4356 16.5219L7.9988 22.3519C7.9681 22.7616 8.3323 23.0437 8.65805 22.8611C10.9644 21.5692 18.1891 16.8241 21.8508 6.39505C22.0188 5.91665 21.5676 5.48495 21.1823 5.7548C19.0194 7.26955 14.2923 10.4004 11.3711 10.9968C11.3711 10.9968 13.2418 9.6974 14.3616 7.70275C14.4713 7.5072 14.4622 7.2569 14.3398 7.0804L10.2564 1.19471C10.0144 0.845816 9.5177 0.990371 9.4303 1.4351L8.15905 7.9037L2.19219 13.1114C1.89301 13.3724 1.95404 13.8999 2.29945 14.0396L8.4356 16.5219Z" fill="#333333"/>
<path fill-rule="evenodd" clip-rule="evenodd" d="M18.9868 14.2241C18.6089 14.7513 17.7949 15.8359 17.0433 16.4988C16.8931 16.6313 16.9133 16.8535 17.0857 16.9618L21.0568 19.4546C21.2958 19.6046 21.6187 19.4265 21.5783 19.1663C21.3936 17.9749 20.8614 15.491 19.5159 14.1872C19.3656 14.0416 19.1066 14.0569 18.9868 14.2241Z" fill="#333333"/>
</svg>
