<svg width="24" height="24" viewBox="0 0 24 24" fill="none" xmlns="http://www.w3.org/2000/svg">
<path d="M11.8959 22.2589C10.0667 22.2589 8.38762 21.6466 7.30662 20.7323C6.75757 20.8963 6.05527 21.1602 5.61222 21.4876C5.23272 21.7675 5.28017 22.053 5.34847 22.1681C5.64852 22.6746 10.4964 22.4916 11.8959 22.3339V22.2589ZM11.8959 22.2589C13.7253 22.2589 15.4043 21.6466 16.4854 20.7323C17.0342 20.8963 17.7366 21.1602 18.1798 21.4876C18.559 21.7675 18.5117 22.053 18.4433 22.1681C18.1432 22.6746 13.2955 22.4916 11.8959 22.3339V22.2589Z" fill="#333333"/>
<path fill-rule="evenodd" clip-rule="evenodd" d="M18.1693 10.4663C17.3489 10.6904 14.928 11.2753 11.9072 11.2957H11.8849C8.78765 11.2746 6.32115 10.6607 5.5637 10.45C5.408 10.4065 5.3229 10.3167 5.3229 10.3167C5.322 10.2893 5.31035 9.82515 5.31035 9.5855C5.31035 5.55275 7.2142 1.50014 11.8961 1.5C16.578 1.50014 18.4817 5.5526 18.4817 9.58565C18.4817 9.825 18.4701 10.2892 18.4693 10.3168C18.4693 10.3168 18.3648 10.4128 18.1693 10.4663ZM19.4142 12.6752C19.6731 13.35 19.9286 14.0527 20.1159 14.6553C21.0088 17.5289 20.7194 18.7182 20.4993 18.7449C20.0266 18.802 18.6593 16.5817 18.6593 16.5817C18.6593 18.8378 16.6224 22.302 11.958 22.3339H11.8342C7.1697 22.302 5.13275 18.8378 5.13275 16.5817C5.13275 16.5817 3.76565 18.8019 3.29294 18.7447C3.07271 18.7182 2.7833 17.529 3.67634 14.6553C3.86358 14.0529 4.11913 13.35 4.37804 12.6752C4.37804 12.6752 4.55259 12.6642 4.64103 12.6897C5.36595 12.899 6.1381 13.0844 6.92235 13.2396C6.7888 14.0672 6.71245 15.0914 6.7846 16.3011C6.97665 19.5182 8.88725 21.5405 11.8363 21.5697H11.956C14.9053 21.5405 16.8157 19.5182 17.008 16.3011C17.0802 15.0912 17.0037 14.0672 16.8701 13.2396C17.6681 13.0816 18.4538 12.8924 19.1899 12.6785C19.2653 12.6568 19.4142 12.6752 19.4142 12.6752ZM16.8701 13.2396C15.1502 13.58 13.3724 13.7751 11.9072 13.7573H11.8849C10.4198 13.7749 8.64205 13.5799 6.92235 13.2396C6.9293 13.1965 6.9364 13.1538 6.9437 13.1117C8.6568 13.4495 10.4256 13.6426 11.8845 13.6251H11.9068C13.366 13.643 15.1354 13.4495 16.8487 13.1116C16.856 13.1537 16.8631 13.1964 16.8701 13.2396ZM9.0188 5.8434C9.05295 6.7633 9.5956 7.48675 10.2307 7.458C10.8654 7.4297 11.3522 6.6604 11.3174 5.7401C11.283 4.8199 10.7405 4.09674 10.1061 4.1252C9.47095 4.15395 8.98435 4.92323 9.0188 5.8434ZM13.5626 7.458C14.1978 7.48675 14.7404 6.76315 14.7744 5.8434C14.809 4.92323 14.3224 4.15395 13.6873 4.1252C13.0527 4.09689 12.5104 4.82004 12.4759 5.74025C12.4412 6.6604 12.9278 7.42955 13.5626 7.458ZM11.9074 7.9624C14.0234 7.9624 15.7329 8.38125 15.9025 8.75705C15.9105 8.7737 15.9147 8.79205 15.9149 8.8105C15.9147 8.83655 15.9065 8.8619 15.8915 8.88315C15.7485 9.09175 13.8505 10.1218 11.9074 10.1218H11.8846C9.94135 10.1218 8.04335 9.09145 7.9003 8.88315C7.8854 8.86195 7.87725 8.8367 7.87695 8.8108C7.8771 8.79225 7.88135 8.77395 7.88935 8.7572C8.0591 8.38125 9.7684 7.9624 11.8846 7.9624H11.9074Z" fill="#333333"/>
<path d="M11.0109 5.85711C11.0399 6.22051 10.8406 6.54336 10.5663 6.57851C10.2915 6.61386 10.0456 6.34791 10.0164 5.98451C9.98768 5.62081 10.1867 5.29801 10.4605 5.26296C10.7358 5.22736 10.9821 5.49371 11.0109 5.85711ZM12.7558 5.97856C12.812 5.87796 13.1942 5.34921 13.9857 5.54171C14.1937 5.59236 14.2898 5.66681 14.3101 5.69601C14.34 5.73921 14.3484 5.80076 14.3179 5.88366C14.2577 6.04801 14.1335 6.04351 14.0648 6.01136C14.0203 5.99066 13.469 5.62316 12.9611 6.17146C12.9261 6.20901 12.8637 6.22196 12.8045 6.17731C12.7451 6.13236 12.7208 6.04161 12.7558 5.97856Z" fill="#333333"/>
<path d="M7.75195 13.3558V16.5218C7.75195 16.5218 9.2022 16.8143 10.6553 16.6117V13.6915C9.73475 13.6394 8.74205 13.5234 7.75195 13.3558Z" fill="#333333"/>
<path d="M18.4692 10.3169C18.4692 10.3169 15.6481 11.2074 11.9071 11.2327H11.8847C8.1499 11.2076 5.3324 10.3198 5.3228 10.3169L4.37793 12.675C6.7412 13.3875 9.67005 13.8467 11.8847 13.82H11.9071C14.1218 13.8467 17.0505 13.3875 19.4141 12.675L18.4692 10.3169Z" fill="#333333"/>
</svg>
