<svg width="24" height="24" viewBox="0 0 24 24" fill="none" xmlns="http://www.w3.org/2000/svg">
<path d="M10.6785 9.56995C7.73421 9.4279 5.68761 10.4777 4.5387 12.7192C2.81536 16.0815 4.23964 21.5833 9.98891 21.5833C15.7382 21.5833 15.9045 16.0277 15.9045 15.4457C15.9045 15.0577 15.9045 12.8882 15.9045 8.9373C17.1342 9.71615 18.171 10.185 19.0149 10.3439C19.8588 10.5027 20.3953 10.5731 20.6244 10.555V7.31715C19.8438 7.22305 19.1688 7.04365 18.5994 6.77905C17.7452 6.38215 16.0514 5.28055 16.0514 3.66604C16.0525 3.67394 16.0525 3.25747 16.0514 2.41663H12.4924C12.4818 10.3247 12.4818 14.6677 12.4924 15.4457C12.5083 16.6128 11.6029 18.2453 9.76726 18.2453C7.93161 18.2453 7.02626 16.6141 7.02626 15.562C7.02626 14.9179 7.24751 13.9843 8.16206 13.2929C8.70441 12.8829 9.45716 12.7192 10.6785 12.7192C10.6785 12.3414 10.6785 11.2917 10.6785 9.56995Z" stroke="#333333" stroke-width="2" stroke-linejoin="round"/>
</svg>
