<svg width="24" height="24" viewBox="0 0 24 24" fill="none" xmlns="http://www.w3.org/2000/svg">
<path d="M9.45271 9.08402L5.16286 8.17217C4.88401 8.11287 4.70603 7.83882 4.76529 7.56002L5.73106 3.01635C5.79036 2.73753 6.06441 2.55954 6.34326 2.61881L20.9839 5.73077C21.2627 5.79002 21.4407 6.06412 21.3815 6.34292L20.4157 10.8866C20.3564 11.1654 20.0823 11.3434 19.8035 11.2841L15.5503 10.3801C15.3567 10.3389 15.2419 10.403 15.2059 10.5724C14.7648 12.6475 14.1032 15.7602 13.221 19.9105C13.1617 20.1893 12.8876 20.3673 12.6088 20.308L8.06516 19.3423C7.78636 19.283 7.60836 19.0089 7.66761 18.7301C8.55001 14.5787 9.21181 11.4651 9.65306 9.38942C9.68866 9.22177 9.62191 9.11997 9.45271 9.08402Z" stroke="#333333" stroke-width="2" stroke-linejoin="round"/>
</svg>
