<svg width="24" height="24" viewBox="0 0 24 24" fill="none" xmlns="http://www.w3.org/2000/svg">
<path d="M12 22.0625C16.7635 22.0625 20.625 18.2547 20.625 13.5576C20.625 12.4045 20.4674 11.3071 20.1301 10.2619C19.9354 9.65845 19.7779 9.3703 19.5465 8.81485C19.3151 8.2594 19.0073 7.7904 18.6567 7.31865C18.3062 6.84695 17.6232 5.91945 17.1504 5.7332C17.1504 6.46425 15.7142 9.01735 15.1629 9.14565C14.6115 9.27395 15.5704 6.4612 14.349 4.53723C13.1275 2.61324 11.1526 1.35025 11.1526 2.21481C11.1526 3.07937 10.6061 4.53105 10.0556 5.25075C9.5052 5.9704 8.61255 6.5887 7.99085 6.8791C7.36915 7.1695 7.59425 5.42515 7.12755 5.7332C6.6572 6.0437 5.98865 6.90865 5.6371 7.4515C4.40641 9.35205 3.375 11.209 3.375 13.5576C3.375 18.2547 7.23655 22.0625 12 22.0625Z" stroke="#333333" stroke-width="2" stroke-linejoin="round"/>
<path d="M9.64844 11.8663V16.2349C9.64844 16.7534 10.0688 17.1738 10.5873 17.1738C10.7613 17.1738 10.9318 17.1255 11.0799 17.0343L15.2727 14.4502C15.4934 14.3142 15.5621 14.025 15.426 13.8043C15.3876 13.7419 15.3351 13.6894 15.2727 13.651L11.0799 11.067C10.6385 10.7949 10.0601 10.9323 9.78804 11.3737C9.69679 11.5218 9.64844 11.6923 9.64844 11.8663Z" fill="#333333" stroke="#333333" stroke-width="2" stroke-linejoin="round"/>
</svg>
