<svg width="24" height="24" viewBox="0 0 24 24" fill="none" xmlns="http://www.w3.org/2000/svg">
<path d="M18.4987 10.8556C18.4217 6.50395 14.87 3 10.5 3C6.0817 3 2.5 6.5817 2.5 11C2.5 13.0851 3.29765 14.9838 4.60446 16.4077L4.00522 20.0128L7.5625 18.4849C9.12985 19.0061 10.609 19.1364 12 18.8758" stroke="#333333" stroke-width="2" stroke-linecap="round" stroke-linejoin="round"/>
<path d="M7.5625 10.2334C8.1838 10.2334 8.6875 9.72598 8.6875 9.10003C8.6875 8.47413 8.1838 7.96667 7.5625 7.96667C6.9412 7.96667 6.4375 8.47413 6.4375 9.10003C6.4375 9.72598 6.9412 10.2334 7.5625 10.2334Z" fill="#333333"/>
<path d="M12.0625 10.2334C12.6838 10.2334 13.1875 9.72598 13.1875 9.10003C13.1875 8.47413 12.6838 7.96667 12.0625 7.96667C11.4412 7.96667 10.9375 8.47413 10.9375 9.10003C10.9375 9.72598 11.4412 10.2334 12.0625 10.2334Z" fill="#333333"/>
<path d="M19.3809 19.9646C18.5067 20.6151 17.4233 21 16.25 21C13.3505 21 11 18.6495 11 15.75C11 12.8505 13.3505 10.5 16.25 10.5C19.1495 10.5 21.5 12.8505 21.5 15.75C21.5 16.5498 21.3211 17.308 21.0012 17.9864" stroke="#333333" stroke-width="2" stroke-linecap="round" stroke-linejoin="round"/>
<path d="M21.0012 17.9865L21.5 21L19.3809 19.9647" stroke="#333333" stroke-width="2" stroke-linecap="round" stroke-linejoin="round"/>
<path d="M17.8438 15.4C17.3778 15.4 17 15.0194 17 14.55C17 14.0805 17.3778 13.7 17.8438 13.7C18.3097 13.7 18.6875 14.0805 18.6875 14.55C18.6875 15.0194 18.3097 15.4 17.8438 15.4Z" fill="#333333"/>
<path d="M14.4688 15.4C14.0028 15.4 13.625 15.0194 13.625 14.55C13.625 14.0805 14.0028 13.7 14.4688 13.7C14.9347 13.7 15.3125 14.0805 15.3125 14.55C15.3125 15.0194 14.9347 15.4 14.4688 15.4Z" fill="#333333"/>
</svg>
