<svg width="24" height="24" viewBox="0 0 24 24" fill="none" xmlns="http://www.w3.org/2000/svg">
<path d="M6.28139 8.20543C4.6093 9.83038 1.08211 14.573 3.68175 17.9658C6.28139 21.3587 13.6415 20.0499 16.68 17.6596C19.7184 15.2694 19.4185 13.7924 18.7597 13.1416C18.1009 12.4909 16.1783 13.1485 15.6401 12.263C15.102 11.3775 16.5983 9.16552 15.3231 8.46557C14.0479 7.76562 11.8458 10.2905 10.8512 9.63447C9.85659 8.97837 11.9458 6.83643 10.8512 6.21918C9.75664 5.60198 7.95349 6.58047 6.28139 8.20543Z" stroke="#333333" stroke-width="2" stroke-linejoin="round"/>
<path d="M21.6893 8.25795C21.5717 6.6924 20.8995 5.2816 19.8686 4.22139C18.8623 3.18656 17.5143 2.48575 16.0068 2.30115" stroke="#333333" stroke-width="2" stroke-linecap="round"/>
<path d="M18.646 8.46567C18.5814 7.64582 18.2124 6.90697 17.6464 6.35172C17.094 5.80977 16.354 5.44277 15.5264 5.34607" stroke="#333333" stroke-width="2" stroke-linecap="round"/>
<path d="M12.5 15C12.5 16.1045 11.1568 17 9.5 17C7.84315 17 6.5 16.1045 6.5 15C6.5 13.8954 7.84315 13 9.5 13C11.1568 13 12.5 13.8954 12.5 15Z" fill="#333333"/>
</svg>
