<svg width="24" height="24" viewBox="0 0 24 24" fill="none" xmlns="http://www.w3.org/2000/svg">
<path d="M11.9997 21.1667C17.0623 21.1667 21.1664 17.0626 21.1664 12C21.1664 6.93745 17.0623 2.83337 11.9997 2.83337C6.93706 2.83337 2.83301 6.93745 2.83301 12C2.83301 13.2429 3.40315 13.8435 4.30661 14.3724C5.21006 14.9012 6.90971 14.8134 8.06586 15.8507C9.22201 16.888 9.30006 18.5753 9.53946 19.3952C9.77891 20.2151 10.7568 21.1667 11.9997 21.1667Z" stroke="#333333" stroke-width="2" stroke-linejoin="round"/>
<path d="M9.76318 9.27059C9.49398 9.92464 9.35938 10.6933 9.35938 11.5765C9.35938 12.4164 9.44853 13.248 9.62693 14.0712C9.80563 14.8958 10.619 15.4194 11.4436 15.2407C11.4736 15.2342 11.5033 15.2268 11.5328 15.2186C12.4326 14.9661 13.2162 14.6355 13.8836 14.227C14.5076 13.8449 15.0889 13.3626 15.6278 12.78C16.2006 12.1605 16.1629 11.1939 15.5434 10.621C15.5257 10.6047 15.5076 10.5887 15.4891 10.5732C14.8558 10.0408 14.1929 9.56269 13.5004 9.13869C12.7773 8.69604 12.0692 8.42894 11.3759 8.33744C10.689 8.24674 10.0269 8.62979 9.76318 9.27059Z" stroke="#333333" stroke-width="2" stroke-linejoin="round"/>
</svg>
