<svg width="24" height="24" viewBox="0 0 24 24" fill="none" xmlns="http://www.w3.org/2000/svg">
<path d="M7.77834 19.4999L4.08923 5.50854C4.0733 5.45054 4.08083 5.38859 4.11019 5.33609C4.13955 5.28359 4.18838 5.24474 4.24614 5.22794C4.27729 5.21659 4.31084 5.21349 4.34355 5.21889C4.37626 5.22429 4.40701 5.23809 4.43283 5.25889L21.2371 19.0944C21.2796 19.1334 21.3063 19.1867 21.3122 19.2441C21.3181 19.3015 21.3028 19.3591 21.2691 19.4059C21.2546 19.4346 21.2322 19.4586 21.2047 19.4752C21.1772 19.4918 21.1455 19.5004 21.1134 19.4999H7.77834Z" fill="#333333"/>
<path d="M22.4898 4.79048C22.5058 4.73263 22.4984 4.67081 22.4693 4.61834C22.4402 4.56586 22.3916 4.52692 22.3341 4.50987C22.3026 4.49984 22.2691 4.49741 22.2365 4.50278C22.2038 4.50816 22.1729 4.52118 22.1462 4.5408L13.0879 10.7862L19.5853 16.1258L22.4898 4.79048Z" fill="#333333"/>
<path d="M1.09391 19.0945C1.04771 19.1302 1.01599 19.1814 1.00462 19.2387C0.99326 19.2959 1.003 19.3554 1.03206 19.406C1.05302 19.4359 1.08104 19.4601 1.11361 19.4764C1.14618 19.4928 1.1823 19.5009 1.21875 19.4999H6.52965L5.6237 15.9712L1.09391 19.0945Z" fill="#333333"/>
</svg>
