<svg width="24" height="24" viewBox="0 0 24 24" fill="none" xmlns="http://www.w3.org/2000/svg">
<path d="M5.53185 5.2072C8.30345 5.06905 10.4591 5 11.999 5C13.539 5 15.6955 5.0691 18.4685 5.20725C19.9695 5.28205 21.1836 6.45595 21.3088 7.9536C21.4356 9.4706 21.499 10.8067 21.499 11.9619C21.499 13.1313 21.434 14.486 21.3041 16.0261C21.1793 17.5052 19.9916 18.6706 18.5105 18.7675C16.1398 18.9225 13.9693 19 11.999 19C10.029 19 7.8593 18.9225 5.4899 18.7675C4.00926 18.6707 2.82185 17.506 2.69644 16.0275C2.56483 14.4759 2.49902 13.1207 2.49902 11.9619C2.49902 10.817 2.56325 9.4805 2.69172 7.9522C2.81756 6.45515 4.03137 5.282 5.53185 5.2072Z" stroke="#333333" stroke-width="2" stroke-linejoin="round"/>
<path d="M10.5 9.8046V14.203C10.5 14.4397 10.6919 14.6316 10.9285 14.6316C11.0126 14.6316 11.0948 14.6069 11.1649 14.5606L14.4637 12.3803C14.6612 12.2498 14.7154 11.9839 14.5849 11.7864C14.5537 11.7392 14.5135 11.6987 14.4665 11.6671L11.1677 9.44895C10.9713 9.31685 10.705 9.36905 10.5729 9.56545C10.5254 9.63615 10.5 9.7194 10.5 9.8046Z" stroke="#333333" stroke-width="2" stroke-linejoin="round"/>
</svg>
