<svg width="24" height="24" viewBox="0 0 24 24" fill="none" xmlns="http://www.w3.org/2000/svg">
<path d="M21.8878 10.4969C21.2368 6.17775 17.8232 2.76385 13.5042 2.1123M10.4879 2.11351C5.68255 2.84239 2 6.9911 2 11.9999C2 17.0106 5.68525 21.1605 10.4931 21.8871C10.9846 21.9614 11.4878 21.9999 12 21.9999C12.5105 21.9999 13.012 21.9616 13.5019 21.8879C17.8229 21.237 21.2381 17.8213 21.8882 13.5001" stroke="#333333" stroke-width="2" stroke-linecap="round" stroke-linejoin="round"/>
<path d="M12 8C9.79085 8 8 9.79085 8 12C8 14.2092 9.79085 16 12 16C14.2092 16 16 14.2092 16 12C16 9.79085 14.2092 8 12 8Z" stroke="#333333" stroke-width="2" stroke-linejoin="round"/>
</svg>
