<svg width="24" height="24" viewBox="0 0 24 24" fill="none" xmlns="http://www.w3.org/2000/svg">
<path d="M12 22C17.5228 22 22 17.5228 22 12C22 6.47715 17.5228 2 12 2C6.47715 2 2 6.47715 2 12C2 17.5228 6.47715 22 12 22Z" stroke="#333333" stroke-width="2" stroke-linecap="round" stroke-linejoin="round"/>
<path d="M11.9997 2C13.6309 2 15.2374 2.39904 16.679 3.16234C18.1206 3.92564 19.3536 5.03 20.2705 6.37915C21.1874 7.7283 21.7603 9.2813 21.9393 10.9026C22.1183 12.524 21.898 14.1645 21.2975 15.6812C20.697 17.1979 19.7346 18.5446 18.4942 19.604C17.2538 20.6634 15.7731 21.4033 14.1812 21.7591C12.5892 22.115 10.9344 22.076 9.361 21.6455C7.7876 21.2151 6.3434 20.4063 5.1543 19.2897L11.9997 12V2Z" stroke="#333333" stroke-width="2" stroke-linecap="round" stroke-linejoin="round"/>
</svg>
