<svg width="24" height="24" viewBox="0 0 24 24" fill="none" xmlns="http://www.w3.org/2000/svg">
<path d="M3 2.5V15H21V2.5" stroke="#333333" stroke-width="2" stroke-linecap="round" stroke-linejoin="round"/>
<path d="M15 18.5L12 21.5L9 18.5" stroke="#333333" stroke-width="2" stroke-linecap="round" stroke-linejoin="round"/>
<path d="M12 15V21.5" stroke="#333333" stroke-width="2" stroke-linecap="round" stroke-linejoin="round"/>
<path d="M12 10.5C14.025 10.5 15.8584 9.5 17.5 7.5C15.8584 5.5 14.025 4.5 12 4.5C9.97495 4.5 8.1416 5.5 6.5 7.5C8.1416 9.5 9.97495 10.5 12 10.5Z" stroke="#333333" stroke-width="2" stroke-linejoin="round"/>
<path d="M12 9C12.8284 9 13.5 8.32845 13.5 7.5C13.5 6.67155 12.8284 6 12 6C11.1715 6 10.5 6.67155 10.5 7.5C10.5 8.32845 11.1715 9 12 9Z" fill="#333333"/>
</svg>
