<svg width="24" height="24" viewBox="0 0 24 24" fill="none" xmlns="http://www.w3.org/2000/svg">
<path d="M8 12C10.7614 12 13 9.7614 13 7C13 4.23857 10.7614 2 8 2C5.2386 2 3 4.23857 3 7C3 9.7614 5.2386 12 8 12Z" stroke="#333333" stroke-width="2" stroke-linejoin="round"/>
<path d="M13 7.60095C13.0072 7.6081 15.3615 10.5688 20.0628 16.4828C20.2281 16.6815 20.2148 16.9734 20.032 17.1562L17.9903 19.1979C17.8075 19.3807 17.5156 19.394 17.3169 19.2287L8.91113 12" stroke="#333333" stroke-width="2" stroke-linecap="round" stroke-linejoin="round"/>
<path d="M13.2354 12.235L14.6496 13.6492" stroke="#333333" stroke-width="2" stroke-linecap="round" stroke-linejoin="round"/>
<path d="M8.5 22.0432C9.4583 20.7941 10.6234 20.1695 11.9953 20.1695C14.0532 20.1695 16.4815 22.7549 18.5532 22.399C20.6248 22.0432 21.2178 20 19.9426 18.8688" stroke="#333333" stroke-width="2" stroke-linecap="round" stroke-linejoin="round"/>
</svg>
