<svg width="24" height="24" viewBox="0 0 24 24" fill="none" xmlns="http://www.w3.org/2000/svg">
<path d="M19.0711 19.0711C22.9763 15.1658 22.9763 8.8342 19.0711 4.92893C15.1658 1.02369 8.8342 1.02369 4.92893 4.92893C1.02369 8.8342 1.02369 15.1658 4.92893 19.0711M16.2426 16.2426C18.5858 13.8995 18.5858 10.1005 16.2426 7.75735C13.8995 5.4142 10.1005 5.4142 7.75735 7.75735C5.4142 10.1005 5.4142 13.8995 7.75735 16.2426" stroke="#333333" stroke-width="2" stroke-linecap="round" stroke-linejoin="round"/>
<path d="M12 14C13.1046 14 14 13.1046 14 12C14 10.8954 13.1046 10 12 10C10.8954 10 10 10.8954 10 12C10 13.1046 10.8954 14 12 14ZM12 14V22M12 22H14M12 22H10" stroke="#333333" stroke-width="2" stroke-linecap="round" stroke-linejoin="round"/>
</svg>
