<svg width="24" height="24" viewBox="0 0 24 24" fill="none" xmlns="http://www.w3.org/2000/svg">
<path d="M12 20.4726C13.0615 21.4227 14.4633 22.0004 16 22.0004C19.3137 22.0004 22 19.3141 22 16.0004C22 13.2047 20.0879 10.8555 17.5 10.1895" stroke="#333333" stroke-width="2" stroke-linejoin="round"/>
<path d="M6.5 10.1895C3.91216 10.8555 2 13.2047 2 16.0004C2 19.3141 4.68629 22.0004 8 22.0004C11.3137 22.0004 14 19.3141 14 16.0004C14 15.2257 13.8532 14.4853 13.5858 13.8055" stroke="#333333" stroke-width="2" stroke-linejoin="round"/>
<path d="M12 14C15.3137 14 18 11.3137 18 8C18 4.68629 15.3137 2 12 2C8.6863 2 6 4.68629 6 8C6 11.3137 8.6863 14 12 14Z" stroke="#333333" stroke-width="2" stroke-linejoin="round"/>
</svg>
