<svg width="24" height="24" viewBox="0 0 24 24" fill="none" xmlns="http://www.w3.org/2000/svg">
<path d="M3.68286 8.17227C3.24285 9.35132 3 10.6442 3 12C3 13.3559 3.24285 14.6487 3.68286 15.8277M5.63605 19.0711C6.46505 19.9922 7.455 20.7344 8.55505 21.2413C9.6162 21.7302 10.7797 22 12 22C13.2203 22 14.3838 21.7302 15.445 21.2413C16.545 20.7344 17.535 19.9922 18.364 19.0711M20.3172 15.8277C20.7572 14.6487 21 13.3559 21 12C21 10.6442 20.7572 9.35132 20.3172 8.17227M18.364 4.92893C17.535 4.00782 16.545 3.26557 15.445 2.75874C14.3838 2.26984 13.2203 2 12 2C9.5147 2 7.2647 3.11929 5.63605 4.92893" stroke="#333333" stroke-width="2" stroke-linecap="round"/>
<path d="M9 11.5C9.82845 11.5 10.5 10.8284 10.5 10C10.5 9.17155 9.82845 8.5 9 8.5C8.17155 8.5 7.5 9.17155 7.5 10C7.5 10.8284 8.17155 11.5 9 11.5Z" stroke="#333333" stroke-width="2"/>
<path d="M15 11.5C15.8285 11.5 16.5 10.8284 16.5 10C16.5 9.17155 15.8285 8.5 15 8.5C14.1715 8.5 13.5 9.17155 13.5 10C13.5 10.8284 14.1715 11.5 15 11.5Z" stroke="#333333" stroke-width="2"/>
<path d="M12 17.5C13.3807 17.5 14.5 16.8284 14.5 16C14.5 15.1715 13.3807 14.5 12 14.5C10.6193 14.5 9.5 15.1715 9.5 16C9.5 16.8284 10.6193 17.5 12 17.5Z" stroke="#333333" stroke-width="2"/>
</svg>
