<svg width="24" height="24" viewBox="0 0 24 24" fill="none" xmlns="http://www.w3.org/2000/svg">
<path d="M3.33789 7C5.06695 4.01099 8.29865 2 12.0001 2M3.33789 7H7.00005M3.33789 7V3.33782" stroke="#333333" stroke-width="2" stroke-linecap="round" stroke-linejoin="round"/>
<path d="M7 20.6622C4.01099 18.9332 2 15.7014 2 12M7 20.6622V17M7 20.6622H3.33782" stroke="#333333" stroke-width="2" stroke-linecap="round" stroke-linejoin="round"/>
<path d="M20.6622 17C18.9332 19.989 15.7014 22 12 22M20.6622 17H17M20.6622 17V20.6622" stroke="#333333" stroke-width="2" stroke-linecap="round" stroke-linejoin="round"/>
<path d="M17 3.33789C19.989 5.06695 22 8.29865 22 12.0001M17 3.33789V7.00005M17 3.33789H20.6622" stroke="#333333" stroke-width="2" stroke-linecap="round" stroke-linejoin="round"/>
<path d="M9 12H15" stroke="#333333" stroke-width="2" stroke-linecap="round" stroke-linejoin="round"/>
<path d="M12 15V9" stroke="#333333" stroke-width="2" stroke-linecap="round" stroke-linejoin="round"/>
</svg>
