<svg width="24" height="24" viewBox="0 0 24 24" fill="none" xmlns="http://www.w3.org/2000/svg">
<path d="M12 22C17.5228 22 22 17.5228 22 12C22 6.47715 17.5228 2 12 2C6.47715 2 2 6.47715 2 12C2 17.5228 6.47715 22 12 22Z" stroke="#333333" stroke-width="2" stroke-linecap="round" stroke-linejoin="round"/>
<path d="M10 8V12H13.5C14.6046 12 15.5 11.1046 15.5 10C15.5 8.89545 14.6046 8 13.5 8H12.5M10 8H8M10 8V6M10 8H12.5M12.5 8V6" stroke="#333333" stroke-width="2" stroke-linecap="round" stroke-linejoin="round"/>
<path d="M10 16V12H14.5C15.6046 12 16.5 12.8954 16.5 14C16.5 15.1046 15.6046 16 14.5 16H12.5M10 16V18M10 16H8H12.5M10 16H12.5M12.5 16V18" stroke="#333333" stroke-width="2" stroke-linecap="round" stroke-linejoin="round"/>
</svg>
